<svg width="150" height="34" viewBox="0 0 150 34" fill="none" xmlns="http://www.w3.org/2000/svg">
<g filter="url(#filter0_d_2_45)">
<path d="M10.6403 0H4V6.64029H10.6403V0Z" fill="#4640E2"/>
<path d="M18.7954 9.19424H15.2549C14.3989 9.19424 13.705 9.94153 13.705 10.8634V14.6762C13.705 15.598 14.3989 16.3453 15.2549 16.3453H18.7954C19.6514 16.3453 20.3453 15.598 20.3453 14.6762V10.8634C20.3453 9.94153 19.6514 9.19424 18.7954 9.19424Z" fill="#EC9638"/>
<path d="M10.6403 18.8993H4V25.5395H10.6403V18.8993Z" fill="#4640E2"/>
<path d="M20.3453 18.8993H13.705V25.5395H20.3453V18.8993Z" fill="#4640E2"/>
<path d="M30.0504 18.8993H22.8993V25.5395H30.0504V18.8993Z" fill="#4640E2"/>
<path d="M20.3453 0H13.705V6.64029H20.3453V0Z" fill="#4640E2"/>
<path d="M22.8993 0H26.7122C28.5543 0 30.0504 1.38918 30.0504 3.09977V6.64029H22.8993V0Z" fill="#4640E2"/>
<path d="M30.0503 9.19424V13.0071C30.0503 14.8493 28.5543 16.3453 26.7121 16.3453H22.8992V9.19424H30.0503Z" fill="#4640E2"/>
<path d="M4 16.3453V12.5324C4 10.6903 5.38918 9.19423 7.09978 9.19423H10.6403V16.3453H4Z" fill="#4640E2"/>
<path d="M45.912 19.4076C43.3069 19.4076 41.7907 18.3324 41.2878 16.1231L43.9849 15.7033C44.2862 16.558 44.9327 16.9915 45.912 16.9915C46.8207 16.9915 47.311 16.4013 47.311 15.8449C47.311 15.0956 46.8169 14.7384 46.2825 14.464L43.8488 13.1369C42.315 12.2936 41.5688 11.1821 41.5688 9.73973C41.5688 7.5806 43.322 6.12949 45.9309 6.12949C48.2651 6.12949 49.8216 7.28737 50.1455 9.24099L47.4484 9.66203C47.2429 8.94024 46.7325 8.54676 45.9876 8.54676C45.1684 8.54676 44.7399 9.05176 44.7399 9.55176C44.7399 10.0856 45.0852 10.365 45.7658 10.7234L48.1819 12.0517C49.7724 12.9189 50.482 14.0429 50.482 15.6958C50.482 17.9865 48.7301 19.4101 45.912 19.4101V19.4076Z" fill="white"/>
<path d="M55.5013 19.4101C53.8752 19.4101 51.9366 18.8475 51.9366 16.1684V11.8893H50.482V9.5862H52.0319V7.39086L54.8267 6.64029V9.5862H57.1223V11.8893H54.8267V15.9316C54.8267 16.5406 55.2866 16.9829 55.9218 16.9829H57.1223V19.3148C56.5036 19.38 55.9955 19.4088 55.5 19.4088L55.5013 19.4101Z" fill="white"/>
<path d="M62.9964 19.4101C59.8389 19.4101 57.6331 17.312 57.6331 14.3071C57.6331 11.3023 59.8389 9.19424 62.9964 9.19424C66.1539 9.19424 68.3597 11.296 68.3597 14.3071C68.3597 17.3182 66.1539 19.4101 62.9964 19.4101ZM62.9964 11.8053C61.5873 11.8053 60.5238 12.8811 60.5238 14.3071C60.5238 15.7332 61.5873 16.7903 62.9964 16.7903C64.4055 16.7903 65.469 15.7232 65.469 14.3071C65.469 12.891 64.4055 11.8053 62.9964 11.8053Z" fill="white"/>
<path d="M75.3523 18.8993V13.1721C75.3523 12.2931 74.7061 11.6305 73.8488 11.6305C72.8807 11.6305 72.0937 12.5192 72.0937 13.6121V18.8993H69.3813V9.48723H71.8159V10.1559H72.3072L72.3823 10.0744C72.8723 9.54802 73.7725 9.19424 74.6214 9.19424C76.7783 9.19424 78.0647 10.7224 78.0647 13.2827V18.8993H75.3523Z" fill="white"/>
<path d="M84.4006 19.4101C81.3218 19.4101 79.0863 17.2598 79.0863 14.2972C79.0863 11.3345 81.2481 9.19424 84.3422 9.19424C87.7678 9.19424 89.3022 11.7532 89.3022 14.2885C89.3022 14.4525 89.2856 14.7916 89.2628 15.0226L82.0839 15.0127L82.1106 15.3034C82.2046 16.3418 83.2359 17.1542 84.4565 17.1542C85.4142 17.1542 86.1446 16.83 86.631 16.1891L88.944 17.1493C88.1196 18.5107 86.3351 19.4088 84.3994 19.4088L84.4006 19.4101ZM84.3333 11.347C83.2054 11.347 82.2681 12.1184 82.1029 13.1817L82.0559 13.4873H86.4227L86.3821 13.1867C86.2335 12.0861 85.4104 11.347 84.3333 11.347Z" fill="white"/>
<path d="M89.3034 18.8993V17.5021L94.5076 13.1154C95.5104 12.267 96.0184 11.4272 96.0184 10.6194C96.0184 9.74029 95.3837 8.84894 94.1698 8.84894C93.1079 8.84894 92.2754 9.63838 92.2754 10.6464V10.9754H89.4844V10.6464C89.4844 7.94409 91.3595 6.12949 94.1505 6.12949C96.3538 6.12949 98.9264 7.31181 98.9264 10.6464C98.9264 12.5739 97.9309 13.5242 96.5252 14.6562L94.4992 16.4008H99.0072V18.898H89.3022L89.3034 18.8993Z" fill="white"/>
<path d="M103.54 19.4101C101.272 19.4101 99.9209 18.505 99.518 16.7174L102.154 16.5068C102.376 17.0179 102.997 17.3245 103.531 17.3245C104.398 17.3245 104.707 16.9343 104.707 16.5691C104.707 15.9819 104.213 15.7925 103.586 15.5519L101.859 14.9124C100.376 14.3676 99.743 13.5349 99.743 12.1287C99.743 10.3461 101.327 9.19424 103.777 9.19424C105.929 9.19424 107.259 10.0669 107.556 11.66L104.919 11.8707C104.738 11.4082 104.231 11.1938 103.776 11.1938C103.003 11.1938 102.727 11.5453 102.727 11.8744C102.727 12.3406 103.079 12.5189 103.539 12.7022L105.249 13.3429C106.961 13.9674 107.691 14.8563 107.691 16.3148C107.691 18.3093 106.217 19.4088 103.538 19.4088L103.54 19.4101Z" fill="white"/>
<path d="M112.324 19.4101C110.823 19.4101 109.033 18.8475 109.033 16.1684V11.8893H107.691V9.5862H109.121V7.39086L111.701 6.64029V9.5862H113.82V11.8893H111.701V15.9316C111.701 16.5406 112.126 16.9829 112.712 16.9829H113.82V19.3148C113.249 19.38 112.78 19.4088 112.323 19.4088L112.324 19.4101Z" fill="white"/>
<path d="M119.95 19.4101C116.942 19.4101 114.842 17.312 114.842 14.3071C114.842 11.3023 116.942 9.19424 119.95 9.19424C122.957 9.19424 125.058 11.296 125.058 14.3071C125.058 17.3182 122.957 19.4101 119.95 19.4101ZM119.95 11.8053C118.608 11.8053 117.595 12.8811 117.595 14.3071C117.595 15.7332 118.608 16.7903 119.95 16.7903C121.292 16.7903 122.305 15.7232 122.305 14.3071C122.305 12.891 121.292 11.8053 119.95 11.8053Z" fill="white"/>
<path d="M132.401 18.8993V13.1721C132.401 12.2931 131.717 11.6305 130.809 11.6305C129.784 11.6305 128.951 12.5192 128.951 13.6121V18.8993H126.079V9.48723H128.657V10.1559H129.177L129.257 10.0744C129.776 9.54802 130.729 9.19424 131.628 9.19424C133.911 9.19424 135.273 10.7224 135.273 13.2827V18.8993H132.401Z" fill="white"/>
<path d="M141.098 19.4101C138.02 19.4101 135.784 17.2598 135.784 14.2972C135.784 11.3345 137.946 9.19424 141.04 9.19424C144.466 9.19424 146 11.7532 146 14.2885C146 14.4525 145.984 14.7916 145.961 15.0226L138.782 15.0127L138.808 15.3034C138.902 16.3418 139.934 17.1542 141.154 17.1542C142.112 17.1542 142.842 16.83 143.329 16.1891L145.642 17.1493C144.818 18.5107 143.033 19.4088 141.097 19.4088L141.098 19.4101ZM141.031 11.347C139.903 11.347 138.966 12.1184 138.801 13.1817L138.754 13.4873H143.121L143.08 13.1867C142.931 12.0861 142.108 11.347 141.031 11.347Z" fill="white"/>
</g>
<defs>
<filter id="filter0_d_2_45" x="0" y="0" width="150" height="33.5396" filterUnits="userSpaceOnUse" color-interpolation-filters="sRGB">
<feFlood flood-opacity="0" result="BackgroundImageFix"/>
<feColorMatrix in="SourceAlpha" type="matrix" values="0 0 0 0 0 0 0 0 0 0 0 0 0 0 0 0 0 0 127 0" result="hardAlpha"/>
<feOffset dy="4"/>
<feGaussianBlur stdDeviation="2"/>
<feComposite in2="hardAlpha" operator="out"/>
<feColorMatrix type="matrix" values="0 0 0 0 0 0 0 0 0 0 0 0 0 0 0 0 0 0 0.25 0"/>
<feBlend mode="normal" in2="BackgroundImageFix" result="effect1_dropShadow_2_45"/>
<feBlend mode="normal" in="SourceGraphic" in2="effect1_dropShadow_2_45" result="shape"/>
</filter>
</defs>
</svg>
