<svg width="127" height="30" viewBox="0 0 127 30" fill="none" xmlns="http://www.w3.org/2000/svg">
<path d="M33.1431 14.9281C34.2002 15.3419 35.1628 15.9281 36.0737 16.6091C37.0105 17.3159 37.8183 18.1521 38.4801 19.1262C40.3107 21.8244 39.5458 25.0915 37.6808 26.9793C36.7355 27.9362 35.5925 28.5741 34.3377 29.0309C32.954 29.5309 31.5274 29.7809 30.0664 29.9102C28.6913 30.0309 27.3163 30.0137 25.9412 29.9533C24.8497 29.9016 23.7583 29.7723 22.684 29.5999C21.0597 29.3413 19.4526 28.9965 17.8713 28.5482C13.6172 27.3327 9.57792 25.6259 5.89961 23.1346C4.36126 22.0916 2.94322 20.9192 1.75723 19.471C1.24158 18.8417 0.794679 18.1607 0.468101 17.4108C0.158711 16.7039 -0.0303619 15.9625 0.00401476 15.1781C0.0641739 13.9023 0.597012 12.8678 1.65409 12.1179C2.45335 11.5489 3.36433 11.2386 4.30969 11.0145C5.52147 10.73 6.76762 10.6179 8.01378 10.5662C8.00518 10.6093 7.99659 10.661 7.988 10.7041C7.58407 11.73 7.63563 12.7299 8.15128 13.704C8.62396 14.6005 9.29431 15.3505 10.0334 16.0229C11.3483 17.2211 12.8437 18.1521 14.4422 18.9193C18.4471 20.833 22.6496 21.764 27.0928 21.5313C28.0812 21.4795 29.0523 21.2985 29.9977 20.9882C30.8657 20.7037 31.6735 20.2986 32.3439 19.6607C33.2548 18.7814 33.6588 17.7297 33.4353 16.4625C33.3322 15.9453 33.2377 15.4367 33.1431 14.9281Z" fill="#ED2236"/>
<path d="M8.7185 8.83354C9.41463 6.77329 10.1279 4.71303 10.8756 2.67001C11.0131 2.29072 11.1936 1.93729 11.4171 1.6011C12.139 0.489074 13.1703 0.152882 14.4164 0.609759C14.829 0.764925 15.2071 0.971811 15.6024 1.15284C16.0751 1.36835 16.5478 1.55799 17.0806 1.56661C17.5361 1.57523 17.94 1.44593 18.2924 1.16146C18.5846 0.92009 18.851 0.66148 19.1432 0.420111C19.4784 0.144261 19.8565 -0.036765 20.3034 0.00633662C20.5011 0.0235773 20.6988 0.0666773 20.8964 0.109779C21.9277 0.333907 22.9333 0.68734 23.9216 1.05801C25.5974 1.6873 27.2475 2.3683 28.8031 3.24758C29.2328 3.48895 29.6453 3.76479 30.0234 4.09237C30.4446 4.47166 30.7453 4.92854 30.9258 5.463C31.1235 6.03194 31.2266 6.62674 31.3641 7.21292C31.8196 9.16973 32.2751 11.1352 32.722 13.092C32.7392 13.1609 32.7392 13.2299 32.7564 13.2989C32.6962 13.4713 32.722 13.6523 32.7134 13.8247C32.6876 14.5574 32.4298 15.1953 31.9142 15.7298C31.4329 16.2298 30.8399 16.5315 30.2039 16.7556C29.2843 17.0746 28.3304 17.2211 27.3678 17.2642C25.6232 17.3418 23.8872 17.2297 22.1684 16.928C18.7995 16.3332 15.6712 15.1436 12.7835 13.2989C11.7007 12.6006 10.678 11.8248 9.80137 10.8766C9.25134 10.299 8.74428 9.69557 8.7185 8.83354Z" fill="#ED2236"/>
<path d="M57.1896 16.8073C58.2983 18.8245 59.3897 20.833 60.4984 22.8416C60.378 22.9278 60.2835 22.8933 60.1976 22.9019C58.9944 22.9019 57.7998 22.9019 56.5966 22.9105C56.3818 22.9105 56.27 22.8416 56.1669 22.6433C55.3333 21.0054 54.4824 19.3762 53.6402 17.7469C53.5886 17.6521 53.5371 17.5659 53.4941 17.4625C53.4511 17.359 53.3824 17.3246 53.2793 17.3246C52.4456 17.3246 51.612 17.3246 50.7698 17.3246C50.6323 17.3246 50.5893 17.3849 50.5893 17.5228C50.5893 17.8676 50.5893 18.2038 50.5893 18.5486C50.5893 19.8934 50.5893 21.2382 50.5893 22.5829C50.5893 22.9019 50.6323 22.9019 50.2541 22.9019C49.2056 22.9019 48.1571 22.9019 47.1086 22.9019C46.8079 22.9019 46.8079 22.9019 46.8079 22.5916C46.8079 19.7124 46.8079 16.8418 46.8079 13.954C46.8079 11.9627 46.8079 9.97142 46.8079 7.97151C46.8079 7.8422 46.7821 7.7129 46.8336 7.59221C46.9282 7.54911 47.0227 7.56635 47.1086 7.56635C49.6611 7.56635 52.2136 7.55773 54.7661 7.56635C56.0981 7.57497 57.3185 7.94564 58.3584 8.8163C59.3124 9.61798 59.8452 10.6438 59.9827 11.8851C60.2319 14.0747 59.0545 15.8419 57.3529 16.6608C57.3099 16.7039 57.2326 16.7125 57.1896 16.8073ZM52.6605 14.2212C53.2191 14.2212 53.7691 14.2212 54.3192 14.2212C54.5942 14.2212 54.852 14.1781 55.1098 14.0833C55.9091 13.7644 56.2013 13.1868 56.2099 12.5144C56.2099 11.8248 55.8489 11.2214 55.1012 10.9455C54.8176 10.8421 54.5254 10.799 54.2332 10.799C53.0988 10.7903 51.9729 10.799 50.8385 10.799C50.5807 10.799 50.5807 10.8076 50.5807 11.049C50.5807 12.0231 50.5807 13.0058 50.5807 13.9885C50.5807 14.1695 50.6323 14.2299 50.8213 14.2299C51.4315 14.2126 52.0417 14.2212 52.6605 14.2212Z" fill="#020202"/>
<path d="M91.1194 15.2902C91.1194 12.8679 91.1194 10.4542 91.1194 8.03186C91.1194 7.93703 91.1194 7.84221 91.1194 7.74738C91.1194 7.64394 91.1709 7.60946 91.2741 7.60946C91.4631 7.60946 91.6522 7.60946 91.8413 7.60946C92.7609 7.60946 93.6804 7.60946 94.6 7.60946C94.9008 7.60946 94.9008 7.60946 94.9008 7.92841C94.9008 9.62661 94.9008 11.3248 94.9008 13.023C94.9008 13.0661 94.9008 13.1178 94.9008 13.1609C94.9008 13.523 94.8664 13.4971 95.2532 13.4971C96.104 13.4971 96.9462 13.4971 97.797 13.4971C98.8197 13.4971 99.8425 13.4971 100.874 13.4971C101.209 13.4971 101.175 13.5144 101.175 13.1868C101.175 11.4886 101.175 9.7904 101.175 8.0922C101.175 8.02323 101.175 7.95427 101.175 7.87669C101.175 7.60084 101.166 7.60946 101.45 7.60946C102.532 7.60946 103.615 7.60946 104.698 7.60946C104.947 7.60946 104.947 7.61808 104.956 7.85945C104.956 7.92841 104.956 7.99738 104.956 8.07496C104.956 12.8937 104.956 17.7039 104.956 22.514C104.956 23.0053 105.008 22.945 104.518 22.945C103.495 22.945 102.472 22.945 101.441 22.945C101.175 22.945 101.175 22.945 101.166 22.6692C101.166 20.9192 101.166 19.1779 101.166 17.4366C101.166 17.3763 101.166 17.3159 101.166 17.2556C101.166 16.928 101.192 16.9539 100.865 16.9539C98.983 16.9539 97.0923 16.9539 95.2102 16.9539C94.9008 16.9539 94.9008 16.9539 94.9008 17.2556C94.9008 19.0141 94.9008 20.7727 94.9008 22.5312C94.9008 22.6088 94.9008 22.695 94.9008 22.7812C94.9008 22.9019 94.8492 22.9536 94.7289 22.945C94.5656 22.945 94.4023 22.945 94.2305 22.945C93.3023 22.945 92.3655 22.945 91.4374 22.945C91.1022 22.945 91.1194 22.9709 91.1194 22.6174C91.1194 20.1693 91.1194 17.7297 91.1194 15.2902Z" fill="#020202"/>
<path d="M82.3275 22.1433C82.1814 22.1261 82.1299 22.195 82.0611 22.2381C81.0556 22.8588 79.9727 23.1174 78.7953 23.0226C76.9734 22.8847 75.5124 22.0744 74.4467 20.5917C73.5357 19.3245 73.1747 17.8935 73.3896 16.3418C73.7076 14.0144 74.9795 12.3937 77.1539 11.5403C78.7696 10.9024 80.4024 10.9886 81.9838 11.73C82.0611 11.7645 82.1299 11.7989 82.2072 11.8334C82.2158 11.8334 82.2244 11.8334 82.2502 11.8248C82.3189 11.7472 82.2846 11.6524 82.2846 11.5662C82.2846 10.3421 82.2846 9.10939 82.2846 7.88531C82.2846 7.54911 82.2244 7.57498 82.5854 7.49739C83.651 7.25602 84.7167 7.04052 85.7824 6.80777C85.8683 6.86811 85.8426 6.96293 85.8426 7.0319C85.8426 12.2213 85.8426 17.4108 85.8426 22.6088C85.8426 22.9019 85.8425 22.9019 85.5589 22.9019C84.5792 22.9019 83.6081 22.9019 82.6283 22.9019C82.3361 22.9019 82.3361 22.9019 82.3275 22.6174C82.3275 22.4623 82.3275 22.3071 82.3275 22.1433ZM82.2846 17.0832C82.2846 16.5142 82.2674 15.9453 82.2932 15.385C82.3018 15.1264 82.2158 14.9712 82.0096 14.8333C81.1759 14.2557 80.2478 14.0575 79.2594 14.2385C78.125 14.4454 77.3257 15.0919 76.982 16.2125C76.6382 17.3246 76.8788 18.3331 77.7125 19.1693C78.2797 19.7382 78.993 19.9969 79.7837 20.0141C80.6173 20.0313 81.3908 19.8331 82.0611 19.2986C82.2158 19.1693 82.2932 19.04 82.2932 18.8245C82.276 18.2383 82.2846 17.6607 82.2846 17.0832Z" fill="#020202"/>
<path d="M8.7185 8.83354C8.74428 9.68695 9.25134 10.299 9.79277 10.8766C10.6694 11.8248 11.6921 12.6006 12.7749 13.2989C15.654 15.1436 18.7909 16.3418 22.1598 16.928C23.8872 17.2297 25.6146 17.3418 27.3592 17.2642C28.3304 17.2211 29.2843 17.0832 30.1953 16.7556C30.8313 16.5315 31.4243 16.2212 31.9056 15.7298C32.4212 15.1953 32.679 14.5574 32.7048 13.8247C32.7134 13.6437 32.6876 13.4713 32.7478 13.2989C32.8853 13.8419 33.0142 14.385 33.1431 14.9281C33.2377 15.4367 33.3322 15.9453 33.4181 16.4539C33.6416 17.7211 33.2377 18.7814 32.3267 19.652C31.6563 20.2899 30.8485 20.6951 29.9805 20.9796C29.0351 21.2899 28.0726 21.4709 27.0756 21.5226C22.6325 21.7554 18.4299 20.8244 14.425 18.9107C12.8265 18.1435 11.3311 17.2125 10.0162 16.0143C9.26853 15.3419 8.60677 14.6005 8.1341 13.6954C7.61845 12.7213 7.55829 11.7213 7.97081 10.6955C7.988 10.6524 7.988 10.6007 7.99659 10.5576C8.23723 9.98866 8.47786 9.4111 8.7185 8.83354Z" fill="#020202"/>
<path d="M64.0305 18.3331C64.2196 18.8245 64.5032 19.1693 64.8642 19.4624C66.0158 20.4279 67.9753 20.2813 68.9292 19.4538C69.1441 19.2641 69.1527 19.2727 69.3761 19.471C70.0722 20.0917 70.7684 20.7037 71.4559 21.3244C71.4559 21.4364 71.3786 21.4709 71.3184 21.514C70.1754 22.445 68.8777 22.9881 67.3909 23.1002C66.1447 23.2036 64.9415 23.0484 63.8157 22.5054C61.925 21.6002 60.739 20.1089 60.421 18.0228C59.8624 14.385 62.5352 11.1696 66.2908 11.1093C69.0667 11.0662 71.37 12.842 72.0489 15.7729C72.2294 16.5487 72.2294 17.3418 72.2294 18.1262C72.2294 18.3073 72.152 18.3504 71.9973 18.3331C71.9286 18.3245 71.8598 18.3331 71.7825 18.3331C69.3417 18.3331 66.9096 18.3331 64.4688 18.3331C64.3485 18.3331 64.2196 18.3331 64.0305 18.3331ZM68.6886 15.8246C68.4136 14.7212 67.2705 13.9195 66.1447 14.023C65.0275 14.1264 64.0735 14.9195 64.0048 15.8246C65.5603 15.8246 67.1073 15.8246 68.6886 15.8246Z" fill="#020202"/>
<path d="M113.464 16.3418C113.464 16.0832 113.473 15.8591 113.464 15.635C113.43 14.9453 113.06 14.4626 112.39 14.2643C111.685 14.0488 110.98 14.0833 110.267 14.2212C109.494 14.3678 108.755 14.6523 108.024 14.9367C107.792 15.0315 107.792 15.0316 107.689 14.816C107.328 14.0747 106.976 13.3333 106.606 12.592C106.529 12.4368 106.563 12.3765 106.718 12.3075C108.574 11.4886 110.499 11.0317 112.536 11.1438C113.327 11.1869 114.1 11.3507 114.813 11.7041C116.103 12.342 116.79 13.4023 116.971 14.8074C116.996 15.0402 117.014 15.2815 117.014 15.5143C117.014 17.8763 117.014 20.2296 117.014 22.5916C117.014 22.6174 117.014 22.6347 117.014 22.6605C117.014 22.9364 117.014 22.9364 116.747 22.9364C116.618 22.9364 116.489 22.9364 116.36 22.9364C115.527 22.9364 114.693 22.9364 113.851 22.9364C113.404 22.9364 113.481 22.9191 113.481 22.5829C113.481 22.5054 113.481 22.4192 113.481 22.3502C113.378 22.2812 113.335 22.3502 113.275 22.3933C112.287 22.9881 111.195 23.1691 110.061 23.126C109.348 23.1002 108.669 22.9536 108.024 22.626C106.314 21.7554 105.807 19.971 106.279 18.4452C106.512 17.7038 106.993 17.1521 107.663 16.7642C108.48 16.2901 109.373 16.1177 110.293 16.0574C111.281 15.997 112.261 16.0746 113.232 16.2987C113.284 16.316 113.352 16.3246 113.464 16.3418ZM113.232 19.3503C113.232 19.1865 113.215 19.0141 113.232 18.8504C113.258 18.6348 113.146 18.5745 112.966 18.5314C112.364 18.4107 111.754 18.3331 111.152 18.3331C110.68 18.3331 110.19 18.3762 109.752 18.6348C109.09 19.0228 109.064 19.8676 109.709 20.2899C109.915 20.4279 110.147 20.5055 110.396 20.5486C111.23 20.6865 112.038 20.5744 112.811 20.2727C113.232 20.1089 113.232 20.1003 113.232 19.6348C113.232 19.54 113.232 19.4538 113.232 19.3503Z" fill="#020202"/>
<path d="M126.888 19.8503C126.888 20.4365 126.888 20.9796 126.888 21.5227C126.888 21.8502 126.871 22.1864 126.888 22.514C126.897 22.7123 126.811 22.7812 126.639 22.8157C126.141 22.9191 125.651 23.014 125.144 23.0571C124.327 23.126 123.519 23.1174 122.729 22.9105C121.697 22.6347 120.89 22.083 120.477 21.0572C120.297 20.5917 120.202 20.1089 120.202 19.6089C120.202 17.9538 120.202 16.3074 120.202 14.6523C120.202 14.5574 120.202 14.4626 120.202 14.3678C119.953 14.3074 119.721 14.3419 119.489 14.3419C119.016 14.3333 118.543 14.3333 118.079 14.3419C117.925 14.3419 117.847 14.3074 117.847 14.1264C117.856 13.273 117.856 12.4282 117.847 11.5834C117.847 11.3765 117.942 11.3507 118.105 11.3593C118.681 11.3679 119.257 11.3593 119.832 11.3593C119.901 11.3593 119.97 11.3593 120.047 11.3593C120.168 11.3679 120.211 11.299 120.211 11.1869C120.211 11.1093 120.211 11.0231 120.211 10.9369C120.211 10.1697 120.211 9.40249 120.211 8.63528C120.211 8.50597 120.193 8.37667 120.374 8.33357C121.483 8.10082 122.6 7.85945 123.708 7.61808C123.803 7.73014 123.769 7.85083 123.769 7.96289C123.769 8.98871 123.769 10.0145 123.769 11.0403C123.769 11.3421 123.769 11.3507 124.078 11.3507C124.963 11.3507 125.84 11.3507 126.725 11.3507C126.991 11.3507 127 11.3507 127 11.6265C127 12.4541 127 13.2816 127 14.1006C127 14.2902 126.94 14.3419 126.759 14.3419C125.866 14.3333 124.972 14.3419 124.078 14.3419C123.743 14.3419 123.769 14.3333 123.769 14.6436C123.769 16.0229 123.769 17.4021 123.769 18.7814C123.769 19.6693 124.112 20.0227 124.989 20.0831C125.616 20.1175 126.235 20.04 126.888 19.8503Z" fill="#020202"/>
</svg>
