<svg width="172" height="34" viewBox="0 0 172 34" fill="none" xmlns="http://www.w3.org/2000/svg">
<path d="M0.00921712 21.8846C0.82032 21.8846 1.64064 21.8755 2.45174 21.8846C3.04164 21.8846 3.06007 21.8938 3.06007 22.517C3.06007 25.1013 3.06007 27.6765 3.06007 30.2609C3.06007 30.9574 3.06007 30.9574 3.779 30.9574C10.3969 30.9574 17.0147 30.9574 23.6418 30.9574C24.3423 30.9574 24.3423 30.9574 24.3423 30.2426C24.3423 27.6582 24.3423 25.083 24.3423 22.4987C24.3423 21.8938 24.3515 21.8846 24.9599 21.8846C25.5774 21.8846 26.1857 21.903 26.8033 21.8755C27.2273 21.8571 27.4024 21.9854 27.4024 22.4437C27.384 26.2927 27.3932 30.1418 27.3932 33.9908C18.3973 33.9908 9.41064 33.9908 0.414769 34C0.110605 34 0 33.9633 0 33.6151C0.0184342 29.6927 0.00921712 25.7887 0.00921712 21.8846Z" fill="#BBBBBB"/>
<path d="M172 15.5612C171.511 16.8809 171.152 18.2372 170.728 19.5752C169.917 22.1962 169.106 24.8264 168.313 27.4658C168.203 27.8323 168.018 27.9881 167.631 27.9698C167.097 27.9423 166.553 27.9423 166.018 27.9698C165.631 27.9881 165.447 27.8415 165.327 27.4749C164.608 25.2663 163.861 23.0668 163.124 20.8674C163.069 20.7116 163.013 20.5558 162.949 20.3817C162.774 20.51 162.774 20.6841 162.728 20.8307C162.009 22.9752 161.29 25.1197 160.571 27.2642C160.34 27.9606 160.34 27.9606 159.575 27.9606C159.133 27.9606 158.681 27.9332 158.239 27.9698C157.833 27.9973 157.631 27.8507 157.511 27.4566C156.654 24.634 155.778 21.8205 154.912 19.007C154.598 17.9898 154.276 16.9633 153.971 15.9461C153.815 15.4237 153.833 15.3871 154.368 15.3871C155.151 15.3871 155.935 15.4054 156.718 15.3779C157.096 15.3687 157.262 15.5154 157.354 15.8636C157.935 18.1089 158.525 20.3542 159.115 22.5995C159.133 22.6728 159.161 22.7461 159.188 22.8194C159.345 22.7644 159.336 22.627 159.363 22.5261C160.092 20.3267 160.838 18.1181 161.548 15.9094C161.677 15.497 161.88 15.3412 162.304 15.3687C162.718 15.3962 163.133 15.3962 163.548 15.3687C163.935 15.3412 164.119 15.497 164.239 15.8636C164.949 18.0447 165.686 20.2167 166.414 22.3887C166.461 22.5353 166.516 22.6728 166.617 22.9385C166.737 22.517 166.82 22.2054 166.903 21.8938C167.428 19.896 167.954 17.9073 168.461 15.9094C168.562 15.5154 168.728 15.3504 169.152 15.3687C169.908 15.3962 170.654 15.3779 171.41 15.3779C171.613 15.3779 171.816 15.3687 171.991 15.4695C172 15.497 172 15.5337 172 15.5612Z" fill="black"/>
<path d="M114.587 22.7186C113.481 22.7186 112.375 22.7186 111.269 22.7186C110.725 22.7186 110.697 22.7461 110.799 23.2593C111.057 24.579 111.96 25.3213 113.306 25.3671C114.338 25.4038 115.25 25.1655 116.006 24.4323C116.181 24.2674 116.329 24.2399 116.513 24.4232C117.002 24.9089 117.49 25.3946 117.997 25.862C118.228 26.0819 118.108 26.2286 117.933 26.3844C117.158 27.0992 116.292 27.6582 115.241 27.8965C113.868 28.2081 112.504 28.1898 111.149 27.7774C109.674 27.3191 108.633 26.366 108.107 24.9272C107.333 22.8194 107.296 20.6749 108.098 18.5671C109.084 15.9736 111.407 15.0113 113.849 15.3046C116.744 15.6528 118.357 17.834 118.541 20.7208C118.578 21.2248 118.532 21.7288 118.559 22.2329C118.578 22.5903 118.421 22.7186 118.071 22.7186C116.919 22.7094 115.757 22.7186 114.587 22.7186ZM113.038 20.4825C113.702 20.4825 114.356 20.4825 115.02 20.4825C115.26 20.4825 115.416 20.4092 115.37 20.1434C115.269 19.4561 115.029 18.8512 114.458 18.4113C113.213 17.4582 111.084 18.0081 110.789 19.9784C110.734 20.3633 110.78 20.51 111.195 20.4916C111.812 20.4642 112.43 20.4825 113.038 20.4825Z" fill="black"/>
<path d="M96.1618 21.628C96.1895 22.4712 96.1434 23.2593 95.9775 24.0383C95.5259 26.2194 94.1894 27.5391 92.0049 27.9698C90.2721 28.3089 88.6407 28.034 87.2397 26.8792C86.318 26.1094 85.8018 25.1013 85.6083 23.9375C85.3502 22.407 85.3502 20.8674 85.6175 19.3369C86.023 17.0183 87.9218 15.3871 90.2906 15.2679C91.8298 15.1946 93.2492 15.497 94.4382 16.5509C95.4153 17.4216 95.8853 18.5396 96.042 19.8043C96.1434 20.4275 96.1895 21.0507 96.1618 21.628ZM92.9174 21.6647C92.899 21.0598 92.9359 20.4458 92.7976 19.841C92.5672 18.7779 91.8759 18.173 90.862 18.1547C89.7928 18.1364 89.0647 18.6863 88.8435 19.7768C88.5946 21.0415 88.5946 22.3337 88.8527 23.5984C89.0831 24.6889 89.7836 25.2022 90.8897 25.1747C91.9128 25.1563 92.558 24.5881 92.7884 23.5251C92.9359 22.9111 92.899 22.2879 92.9174 21.6647Z" fill="black"/>
<path d="M143.224 21.683C143.197 20.8766 143.233 20.0701 143.39 19.2728C143.814 17.1466 145.353 15.6528 147.529 15.3596C149.796 15.048 151.741 15.5978 153.068 17.5957C153.547 18.3105 153.732 19.1353 153.824 19.9784C153.971 21.3806 153.981 22.7828 153.695 24.1666C153.252 26.2927 151.63 27.7865 149.464 28.0523C147.658 28.2722 146.008 27.9332 144.671 26.6043C143.611 25.5504 143.316 24.2124 143.224 22.8011C143.206 22.4162 143.224 22.0496 143.224 21.683ZM150.681 21.6555C150.69 21.1332 150.69 20.6199 150.589 20.1067C150.561 19.9601 150.533 19.8043 150.497 19.6577C150.238 18.6771 149.529 18.1364 148.515 18.1456C147.547 18.1547 146.801 18.7137 146.607 19.6852C146.34 20.9957 146.34 22.3245 146.607 23.6442C146.801 24.6065 147.483 25.1472 148.413 25.1747C149.52 25.2113 150.192 24.7531 150.487 23.745C150.681 23.0668 150.699 22.3612 150.681 21.6555Z" fill="black"/>
<path d="M101.959 22.8652C102.208 22.1229 102.448 21.4081 102.678 20.6841C103.204 19.0895 103.729 17.4949 104.236 15.8911C104.356 15.5062 104.549 15.3504 104.955 15.3687C105.72 15.3962 106.494 15.3687 107.259 15.3779C107.775 15.3779 107.803 15.4329 107.628 15.9094C106.374 19.3186 105.112 22.7278 103.849 26.1369C103.674 26.6135 103.489 27.0809 103.333 27.5574C103.231 27.8782 103.038 27.979 102.715 27.9698C102.19 27.9515 101.674 27.9423 101.148 27.9698C100.77 27.9881 100.595 27.8415 100.475 27.5024C99.2772 24.2307 98.0605 20.9682 96.8531 17.7057C96.6227 17.0916 96.4107 16.4685 96.1711 15.8636C96.0144 15.4787 96.1434 15.3779 96.5213 15.3779C97.2863 15.3871 98.0605 15.4054 98.8256 15.3779C99.2496 15.3596 99.4523 15.5062 99.5814 15.9186C100.273 18.0814 101.001 20.2442 101.72 22.3978C101.775 22.5353 101.775 22.7186 101.959 22.8652Z" fill="black"/>
<path d="M74.7506 20.7941C75.7276 19.8501 76.6861 18.9429 77.6263 18.0356C78.3729 17.3116 79.1195 16.5876 79.8568 15.8453C80.0688 15.6345 80.29 15.5245 80.5942 15.5429C80.9905 15.5612 81.3961 15.5337 81.7924 15.552C81.9767 15.5612 82.244 15.4512 82.3362 15.662C82.41 15.8361 82.1611 15.9553 82.0413 16.0836C80.8523 17.2749 79.6633 18.4663 78.4558 19.6394C78.1885 19.9051 78.1517 20.0792 78.3637 20.4092C79.8937 22.7369 81.3961 25.0739 82.9077 27.4108C82.9998 27.5482 83.175 27.6857 83.0828 27.8507C82.9906 28.0248 82.7786 27.9423 82.6219 27.9423C82.2256 27.9515 81.8201 27.924 81.4237 27.9515C81.0274 27.979 80.8154 27.814 80.6126 27.4841C79.4421 25.5687 78.2438 23.6625 77.0733 21.7472C76.852 21.3898 76.7046 21.3348 76.4096 21.6647C75.9764 22.1412 75.5156 22.5903 75.0455 23.0302C74.7782 23.2776 74.6676 23.5526 74.6676 23.9191C74.686 25.083 74.6676 26.2377 74.686 27.4016C74.6953 27.814 74.5478 27.9606 74.1238 27.9606C72.732 27.9515 72.732 27.9698 72.732 26.586C72.732 21.3164 72.732 16.0469 72.732 10.7774C72.732 10.0534 72.732 10.0442 73.4325 10.0534C74.8427 10.0625 74.6676 9.87008 74.6768 11.2997C74.686 14.2598 74.6768 17.2291 74.6768 20.1892C74.6676 20.3725 74.6215 20.565 74.7506 20.7941Z" fill="black"/>
<path d="M130.154 20.8674C130.154 18.7871 130.145 16.7159 130.164 14.6356C130.164 14.1957 130.191 13.7466 130.274 13.3159C130.615 11.6113 131.832 10.6307 133.721 10.5208C134.238 10.4933 134.763 10.5116 135.288 10.5116C135.565 10.5116 135.722 10.6032 135.712 10.9057C135.703 11.5655 135.703 12.2162 135.712 12.876C135.722 13.1784 135.565 13.2792 135.288 13.2701C134.984 13.2701 134.671 13.2609 134.367 13.2792C133.786 13.3067 133.473 13.6092 133.417 14.1865C133.27 15.6253 133.27 15.6253 134.708 15.6253C135.86 15.6253 135.703 15.5337 135.722 16.6243C135.722 16.9725 135.712 17.3299 135.722 17.6782C135.731 17.9898 135.602 18.1272 135.288 18.1181C134.846 18.1089 134.394 18.1364 133.952 18.1089C133.528 18.0814 133.399 18.2372 133.399 18.6588C133.417 21.5089 133.408 24.3682 133.408 27.2183C133.408 27.9332 133.408 27.9332 132.698 27.9332C132.099 27.9332 131.5 27.9332 130.901 27.9332C130.154 27.9332 130.154 27.9332 130.154 27.2092C130.154 25.1105 130.154 22.9844 130.154 20.8674Z" fill="black"/>
<path d="M58.04 26.8426C57.3303 27.4749 56.6482 27.8598 55.8371 27.9973C54.7956 28.1806 53.7541 28.1714 52.731 27.924C50.9428 27.4933 49.9566 26.1003 50.0396 24.1757C50.1133 22.517 51.3115 21.2431 53.0904 20.9499C54.2518 20.7574 55.4223 20.8857 56.5837 20.8491C56.9339 20.8399 57.2934 20.8399 57.6437 20.8491C57.9017 20.8582 58.04 20.7757 58.04 20.4916C58.0492 19.9509 58.0216 19.4194 57.9294 18.897C57.7911 18.1364 57.3487 17.5865 56.5929 17.3391C55.4684 16.9633 54.3347 16.9633 53.201 17.3299C52.7217 17.4857 52.3346 17.7881 52.0305 18.1914C51.8553 18.4205 51.6986 18.4296 51.5143 18.2189C51.4313 18.1272 51.33 18.0539 51.2378 17.9714C50.4359 17.2199 50.4359 17.1925 51.2839 16.4685C51.8553 15.9827 52.5282 15.6803 53.2748 15.5612C54.4546 15.3687 55.6343 15.3596 56.7957 15.6253C58.805 16.0836 59.8834 17.3391 59.9111 19.3827C59.9479 22.0863 59.9203 24.7898 59.9295 27.4933C59.9295 27.8598 59.782 27.9881 59.4318 27.9606C59.1368 27.9423 58.8511 27.9423 58.5562 27.9606C58.1598 27.9881 57.9847 27.8415 58.0308 27.4383C58.0584 27.2916 58.04 27.1358 58.04 26.8426ZM55.9754 22.2787C55.4039 22.2879 54.8417 22.2787 54.2702 22.2879C54.0767 22.2879 53.8739 22.3337 53.6803 22.3703C52.5835 22.5353 51.9383 23.2501 51.9199 24.3132C51.8922 25.5137 52.3807 26.1278 53.5789 26.3569C54.4361 26.5218 55.2933 26.5035 56.1413 26.3294C57.0999 26.1369 57.8096 25.4404 57.9478 24.5423C58.04 23.91 58.0769 23.2685 58.0584 22.6269C58.0492 22.3703 57.9386 22.2787 57.6897 22.2787C57.1091 22.2879 56.5376 22.2787 55.9754 22.2787Z" fill="black"/>
<path d="M137.132 17.8523C137.132 15.607 137.132 13.3617 137.132 11.1164C137.132 10.5208 137.141 10.5116 137.759 10.5116C138.431 10.5116 139.113 10.5299 139.786 10.5024C140.21 10.4841 140.339 10.6491 140.339 11.0615C140.33 15.2129 140.33 19.3644 140.33 23.5159C140.33 23.6717 140.33 23.8183 140.33 23.9741C140.339 24.8997 140.643 25.2205 141.565 25.2388C142.634 25.2571 142.634 25.2571 142.634 26.311C142.634 26.7234 142.625 27.1358 142.634 27.5482C142.644 27.8048 142.551 27.9606 142.266 27.9515C141.501 27.924 140.736 28.0156 139.971 27.869C138.275 27.5574 137.15 26.2561 137.141 24.5331C137.123 22.3154 137.132 20.0792 137.132 17.8523Z" fill="black"/>
<path d="M123.177 16.5418C124.228 15.552 125.398 15.1854 126.716 15.2679C127.574 15.3229 128.329 15.6162 128.984 16.166C129.242 16.3768 129.27 16.5509 129.012 16.7892C128.376 17.3941 127.767 18.0172 127.15 18.6313C126.984 18.7962 126.864 18.8604 126.652 18.6771C125.988 18.0997 125.223 17.9714 124.421 18.3472C123.592 18.7321 123.278 19.4744 123.269 20.3358C123.251 22.6453 123.26 24.9455 123.26 27.255C123.26 27.9606 123.26 27.9606 122.55 27.9606C121.905 27.9606 121.26 27.9606 120.615 27.9606C120.025 27.9606 120.006 27.9423 120.006 27.3283C120.006 24.5973 120.006 21.8663 120.006 19.1261C120.006 18.0722 120.006 17.0183 120.006 15.9644C120.006 15.4146 120.053 15.3779 120.615 15.3687C121.278 15.3687 121.933 15.3871 122.596 15.3596C123.039 15.3412 123.223 15.497 123.168 15.9369C123.159 16.1019 123.177 16.2485 123.177 16.5418Z" fill="black"/>
<path d="M38.2048 15.442C39.6242 15.442 40.9699 15.7261 42.205 16.4776C42.5645 16.6976 42.6014 16.8809 42.2696 17.1558C41.9838 17.3849 41.7718 17.7515 41.4584 17.8889C41.099 18.0447 40.8225 17.6232 40.4814 17.4949C39.191 17.0092 37.8914 16.835 36.5734 17.3116C35.5964 17.669 35.154 18.6404 35.4766 19.621C35.6517 20.1526 36.0572 20.4183 36.5642 20.5833C37.2002 20.7849 37.8638 20.7849 38.5182 20.8491C39.2832 20.9315 40.0482 20.9682 40.7948 21.1698C41.9562 21.4906 42.8041 22.1504 43.0622 23.3876C43.348 24.7348 43.0807 25.9536 42.0115 26.8884C40.887 27.8782 39.486 28.1073 38.0573 28.1073C36.7116 28.1073 35.4028 27.8873 34.2046 27.2092C32.8866 26.4668 32.8589 26.2836 33.9557 25.2846C34.1493 25.1105 34.2783 25.0739 34.4996 25.2571C36.0296 26.5493 37.8177 26.6593 39.6703 26.2469C40.7487 26.0086 41.2925 25.3121 41.3018 24.3682C41.311 23.4792 40.9331 22.9752 40.0667 22.7278C39.3201 22.517 38.5458 22.5353 37.79 22.4528C37.237 22.3978 36.6932 22.352 36.1494 22.2237C34.5917 21.848 33.6608 20.8582 33.5594 19.5019C33.4304 17.8248 34.1862 16.5326 35.6701 15.8911C36.4536 15.5612 37.1356 15.442 38.2048 15.442Z" fill="black"/>
<path d="M20.9136 24.0658C20.1946 23.9191 19.3374 23.7358 18.4803 23.5617C14.6644 22.7644 10.8485 21.9671 7.03264 21.1698C6.32293 21.0232 6.32293 21.014 6.4704 20.3084C6.59944 19.7127 6.7377 19.117 6.8483 18.5121C6.92204 18.1089 7.08794 17.9989 7.51193 18.0814C12.0006 19.0345 16.4986 19.9601 20.9873 20.9132C22.1118 21.1515 22.0104 20.9132 21.7708 22.1137C21.6602 22.6636 21.5311 23.2226 21.4205 23.7725C21.3744 23.9741 21.2915 24.1208 20.9136 24.0658Z" fill="#F58025"/>
<path d="M9.75169 11.1531C9.82543 11.1806 9.90838 11.2172 9.99133 11.2539C13.4754 12.8668 16.9502 14.4706 20.4343 16.0836C21.3376 16.5051 22.2408 16.9267 23.1533 17.3391C23.4206 17.4582 23.4851 17.6048 23.3561 17.8706C23.0243 18.5579 22.6925 19.2453 22.3883 19.9509C22.2593 20.2442 22.1118 20.29 21.8261 20.1526C20.3974 19.4836 18.9596 18.8329 17.5217 18.1639C14.6275 16.8259 11.7334 15.4695 8.8392 14.1499C8.41521 13.9574 8.32304 13.7741 8.54425 13.3617C8.87607 12.7294 9.1618 12.0695 9.47518 11.4189C9.52126 11.2997 9.55813 11.1439 9.75169 11.1531Z" fill="#F58025"/>
<path d="M19.6601 0C19.8813 0.0183288 19.955 0.183288 20.0564 0.31159C21.5496 2.30943 23.0427 4.30728 24.5359 6.30512C25.8908 8.11968 27.2457 9.93423 28.6098 11.7396C28.8403 12.042 28.8403 12.207 28.5085 12.427C27.9001 12.8394 27.3195 13.2884 26.7388 13.7375C26.4899 13.9299 26.3332 13.9116 26.1397 13.6458C23.2639 9.77844 20.379 5.92021 17.4848 2.07116C17.3097 1.84205 17.2913 1.70458 17.5493 1.52129C18.1761 1.0814 18.7844 0.614014 19.402 0.155793C19.4942 0.0916425 19.5863 0.0458221 19.6601 0Z" fill="#F58025"/>
<path d="M14.1482 4.80215C14.2496 4.87547 14.3326 4.93046 14.4155 4.99461C18.1484 8.08302 21.8721 11.1714 25.6051 14.2507C25.8078 14.4156 25.8816 14.5348 25.6788 14.7639C25.1442 15.3779 24.628 16.0011 24.1211 16.6334C23.9552 16.8442 23.8169 16.8167 23.6234 16.6609C20.8767 14.379 18.13 12.1062 15.3741 9.83342C14.3971 9.02695 13.4201 8.20215 12.4338 7.40485C12.2403 7.24905 12.1205 7.12075 12.3232 6.88247C12.8578 6.25013 13.3832 5.61779 13.9178 4.98544C13.9823 4.91213 14.0653 4.8663 14.1482 4.80215Z" fill="#F58025"/>
<path d="M13.7427 24.8906C16.0746 24.8906 18.4065 24.8997 20.7385 24.8814C21.1717 24.8814 21.3468 25.0005 21.3191 25.4496C21.2915 26.1186 21.3007 26.7876 21.3191 27.4658C21.3283 27.814 21.2177 27.9606 20.8491 27.9606C16.0746 27.9515 11.3094 27.9515 6.53493 27.9606C6.15703 27.9606 6.06486 27.8049 6.06486 27.4658C6.08329 26.7784 6.09251 26.0911 6.06486 25.4038C6.04642 24.9914 6.22155 24.8906 6.60866 24.8906C8.98667 24.8997 11.3647 24.8906 13.7427 24.8906Z" fill="#F58025"/>
<path d="M61.4595 21.793C61.4227 20.8582 61.5425 19.9601 61.8282 19.0987C62.5287 17 63.9666 15.7445 66.1879 15.4695C67.8838 15.2588 69.4231 15.6253 70.6858 16.8625C70.9716 17.1466 71.0545 17.3482 70.7043 17.6323C70.4093 17.8706 70.1789 18.283 69.8563 18.3747C69.506 18.4663 69.294 17.9806 69.0083 17.7606C66.8976 16.1935 63.9573 17.4216 63.4781 20.1067C63.2661 21.2889 63.2569 22.4803 63.5334 23.6534C63.8375 24.9547 64.5933 25.9078 65.9114 26.2561C67.2018 26.6043 68.4276 26.4027 69.3862 25.3854C69.7088 25.0464 69.9485 25.0189 70.225 25.3854C70.2895 25.4679 70.3817 25.5321 70.4554 25.6146C71.1375 26.2744 71.1098 26.2377 70.4001 26.8976C68.1511 28.9962 62.6762 28.648 61.6439 23.8C61.5056 23.131 61.4227 22.4528 61.4595 21.793Z" fill="black"/>
<path d="M44.5093 18.558C44.5093 16.5143 44.5093 14.4615 44.5093 12.4178C44.5093 11.8038 44.5277 11.7854 45.1176 11.7854C46.408 11.7763 46.408 11.7763 46.408 13.0593C46.408 13.8383 46.4172 14.6173 46.408 15.3962C46.3988 15.717 46.5278 15.827 46.8412 15.827C47.6892 15.8178 48.5279 15.8178 49.3759 15.827C49.4957 15.827 49.6432 15.7811 49.7077 15.9186C49.7723 16.0561 49.6248 16.1294 49.5418 16.2119C49.4036 16.3585 49.2469 16.4776 49.1271 16.6334C48.5556 17.3849 47.8459 17.7698 46.8689 17.5957C46.5002 17.5224 46.408 17.724 46.408 18.0722C46.4172 20.1617 46.408 22.2604 46.4172 24.3499C46.4172 24.634 46.4633 24.9272 46.5186 25.2113C46.6477 25.807 47.0901 26.1919 47.7076 26.2469C48.0394 26.2744 48.3989 26.2102 48.7215 26.2927C49.3944 26.4577 48.9796 27.0167 49.0625 27.3925C49.1178 27.6307 49.1178 27.9423 48.7123 27.9423C48.2238 27.9332 47.7261 27.9698 47.2376 27.9057C45.5508 27.6674 44.5369 26.4668 44.5185 24.6889C44.5001 22.6544 44.5093 20.6108 44.5093 18.558Z" fill="black"/>
</svg>
