<svg width="157" height="33" viewBox="0 0 157 33" fill="none" xmlns="http://www.w3.org/2000/svg">
<path d="M33 16.5C33 25.5953 25.6291 33 16.5 33C7.40471 33 0 25.6291 0 16.5C0 7.40471 7.3709 0 16.5 0C25.5953 0 33 7.40471 33 16.5Z" fill="white"/>
<path d="M2.77254 25.6291C1.01435 23.0256 0 19.8811 0 16.5C0 7.40471 7.3709 0 16.5 0C21.3012 0 25.5953 2.0625 28.6383 5.3084C25.46 3.14447 19.374 4.15881 13.5922 7.87807C18.833 4.66598 24.4119 4.15881 26.6434 7.03279C29.2131 10.3125 26.5082 16.7367 20.5912 21.3689C14.6742 26.001 8.68955 26.8463 7.57377 23.7357C7.16803 22.5861 6.82992 21.0984 9.23053 16.3986H12.0369L12.5779 15.2828H9.73771L11.4621 11.5297H10.0758C6.59324 14.708 3.14447 15.3842 3.14447 15.3842L2.67111 16.5H4.59836C2.43443 19.8811 1.79201 23.2285 2.77254 25.6291Z" fill="#D71920"/>
<path d="M33.0001 16.5C33.0001 25.5953 25.6292 33 16.5001 33C11.8004 33 7.57392 31.039 4.5647 27.8945C8.18252 30.3965 15.5534 28.706 22.0452 23.6004C28.4694 18.5625 31.9182 11.9017 30.4643 7.77667C32.0872 10.3125 33.0001 13.2879 33.0001 16.5Z" fill="#D71920"/>
<path d="M146.978 24.4457L146.032 24.3442V24.3781L146.809 24.6824L148.601 25.6967V26.001L146.809 27.083L146.032 27.3873V27.4211L146.978 27.2858H149.481V28.1649H144.679V27.3197L146.877 26.0348L147.418 25.7981V25.7643L146.843 25.5615L144.679 24.3442V23.499H149.481V24.4457H146.978Z" fill="#231F20"/>
<path d="M144.679 22.0112V21.0645H149.481V22.0112H144.679Z" fill="#231F20"/>
<path d="M149.278 16.6014C149.379 16.7367 149.447 16.9396 149.514 17.1762C149.548 17.4129 149.582 17.6496 149.582 17.8863C149.582 18.1568 149.548 18.4611 149.447 18.6978C149.345 18.9682 149.21 19.1711 149.007 19.374C148.804 19.5768 148.568 19.7121 148.23 19.8473C147.925 19.9488 147.519 20.0164 147.08 20.0164C146.607 20.0164 146.201 19.9488 145.897 19.8135C145.592 19.6783 145.322 19.5092 145.119 19.3064C144.916 19.1035 144.781 18.8668 144.713 18.5963C144.612 18.3258 144.578 18.0891 144.578 17.8187C144.578 17.5482 144.612 17.3115 144.645 17.1086C144.679 16.9057 144.713 16.7705 144.781 16.6353L145.592 16.8043C145.525 16.9057 145.491 17.041 145.491 17.1762C145.457 17.3115 145.457 17.4805 145.457 17.7172C145.457 18.0891 145.592 18.3934 145.863 18.6301C146.133 18.8668 146.539 18.9682 147.114 18.9682C147.35 18.9682 147.587 18.9344 147.79 18.9006C147.993 18.833 148.162 18.7654 148.297 18.6639C148.432 18.5625 148.568 18.4273 148.635 18.2582C148.703 18.0891 148.771 17.8863 148.771 17.6834C148.771 17.4805 148.737 17.3115 148.703 17.1762C148.669 17.041 148.601 16.9057 148.534 16.8043L149.278 16.6014Z" fill="#231F20"/>
<path d="M144.713 15.4857C144.679 15.3843 144.679 15.2828 144.645 15.1476C144.612 15.0123 144.612 14.9109 144.612 14.7756C144.612 14.6404 144.578 14.539 144.578 14.4375C144.578 14.3361 144.578 14.2347 144.578 14.1332C144.578 13.8965 144.612 13.6937 144.645 13.457C144.679 13.2541 144.747 13.0513 144.848 12.8822C144.95 12.7131 145.085 12.5779 145.254 12.4765C145.423 12.375 145.66 12.3074 145.93 12.3074C146.336 12.3074 146.64 12.4088 146.877 12.5779C147.114 12.747 147.283 13.0174 147.384 13.3218L147.587 12.9836L149.413 11.9017V12.9836L147.519 14.0656L147.418 14.5728H149.379V15.4857H144.713ZM145.457 14.0656C145.457 14.167 145.457 14.2685 145.457 14.3361C145.457 14.4375 145.457 14.5052 145.491 14.539H146.877V14.1332C146.877 13.8627 146.809 13.6599 146.708 13.5246C146.573 13.3556 146.404 13.2879 146.099 13.2879C145.897 13.2879 145.727 13.3556 145.626 13.4908C145.491 13.6261 145.457 13.7951 145.457 14.0656Z" fill="#231F20"/>
<path d="M147.08 11.293C146.268 11.293 145.66 11.124 145.22 10.752C144.781 10.4139 144.578 9.90676 144.578 9.23053C144.578 8.89241 144.646 8.58811 144.747 8.31762C144.882 8.04713 145.051 7.84426 145.254 7.6752C145.457 7.50614 145.727 7.3709 146.032 7.30327C146.336 7.23565 146.674 7.16803 147.046 7.16803C147.858 7.16803 148.466 7.33709 148.906 7.70901C149.345 8.04713 149.548 8.5543 149.548 9.19672C149.548 9.53483 149.481 9.83913 149.379 10.1096C149.244 10.3801 149.075 10.583 148.872 10.752C148.669 10.9211 148.399 11.0563 148.094 11.124C147.79 11.2592 147.452 11.293 147.08 11.293ZM147.08 10.3125C147.317 10.3125 147.553 10.2787 147.756 10.2449C147.959 10.2111 148.128 10.1434 148.297 10.042C148.432 9.94057 148.568 9.83914 148.635 9.70389C148.703 9.56864 148.771 9.39959 148.771 9.23053C148.771 8.89241 148.635 8.65573 148.365 8.45286C148.094 8.28381 147.689 8.18237 147.08 8.18237C146.843 8.18237 146.64 8.21618 146.438 8.25C146.235 8.28381 146.066 8.35143 145.897 8.41905C145.761 8.48668 145.626 8.62192 145.558 8.72336C145.491 8.8586 145.423 9.02766 145.423 9.19672C145.423 9.53483 145.558 9.80532 145.829 9.97438C146.099 10.2111 146.505 10.3125 147.08 10.3125Z" fill="#231F20"/>
<path d="M153.707 7.50615H152.929V9.53484H152.625V7.50615H151.881V7.23566H153.707V7.50615Z" fill="#231F20"/>
<path d="M156.479 9.53484H156.175V7.60758L155.499 9.53484H155.228L154.586 7.57377V9.53484H154.282V7.23566H154.721L155.262 8.85861C155.262 8.85861 155.296 8.92623 155.33 9.06148C155.364 9.1291 155.364 9.19672 155.364 9.19672L155.499 8.8248L156.04 7.23566H156.446V9.53484H156.479Z" fill="#231F20"/>
<path d="M80.0317 7.2019H95.044V10.6845H84.5287V15.621H94.1988V19.1035H84.5287V24.6824H95.3822V28.165H80.0317V7.2019Z" fill="#231F20"/>
<path d="M111.848 28.165L104.139 14.2347L104.072 14.3023V28.165H99.8792V7.2019H105.458L113.099 20.8956L113.167 20.8617V7.2019H117.36V28.165H111.848Z" fill="#231F20"/>
<path d="M129.295 7.20186H122.161V28.165H129.295C135.821 28.2326 139.878 24.9867 139.878 17.6834C139.878 10.414 135.821 7.16805 129.295 7.20186ZM128.991 24.6824H126.658V10.8535H128.991C134.333 10.7859 135.111 14.3361 135.111 17.6834C135.111 21.0308 134.299 24.75 128.991 24.6824Z" fill="#231F20"/>
<path d="M37.8013 7.20215H54.7408V10.6847H48.5195V28.1653H44.0226V10.6847H37.8013V7.20215Z" fill="#231F20"/>
<path d="M72.0185 19.3064C74.3515 18.4611 76.0082 16.1957 76.0082 13.5246C76.0082 13.2203 75.9744 12.916 75.9406 12.6117C75.6363 10.6844 74.622 9.19672 72.8638 8.18238C72.6609 8.04713 71.3422 7.23566 67.4539 7.23566C67.3863 7.23566 67.3187 7.23566 67.2172 7.23566H58.3248V28.1988H62.8218V19.8473H67.5892C67.5892 19.8473 70.5308 26.3053 70.9027 28.165H76.4478L72.0185 19.3064ZM62.8218 10.7859H68.1302C69.9222 10.8197 71.0379 11.4621 71.2408 12.9498V12.9836C71.2408 13.0512 71.2408 13.085 71.2408 13.1527C71.2408 13.2203 71.2408 13.2541 71.2408 13.3217C71.2408 13.3555 71.2408 13.3893 71.2408 13.4232C71.2408 13.457 71.2408 13.4908 71.2408 13.5246C71.207 15.3504 70.0574 16.2971 68.1302 16.3309H62.8218V10.7859Z" fill="#231F20"/>
</svg>
