<svg width="251" height="46" viewBox="0 0 251 46" fill="none" xmlns="http://www.w3.org/2000/svg">
<path d="M11.7374 0H0V11.7374H11.7374V0Z" fill="#4640E2"/>
<path d="M26.1525 16.252H19.8943C18.3812 16.252 17.1547 17.5729 17.1547 19.2023V25.9419C17.1547 27.5713 18.3812 28.8922 19.8943 28.8922H26.1525C27.6655 28.8922 28.8921 27.5713 28.8921 25.9419V19.2023C28.8921 17.5729 27.6655 16.252 26.1525 16.252Z" fill="#EC9638"/>
<path d="M11.7374 33.4067H0V45.1441H11.7374V33.4067Z" fill="#4640E2"/>
<path d="M28.8921 33.4067H17.1547V45.1441H28.8921V33.4067Z" fill="#4640E2"/>
<path d="M46.0468 33.4067H33.4065V45.1441H46.0468V33.4067Z" fill="#4640E2"/>
<path d="M28.8921 0H17.1547V11.7374H28.8921V0Z" fill="#4640E2"/>
<path d="M33.4065 0H40.1461C43.4024 0 46.0468 2.45552 46.0468 5.47918V11.7374H33.4065V0Z" fill="#4640E2"/>
<path d="M46.0468 16.252V22.9916C46.0468 26.2478 43.4024 28.8922 40.1461 28.8922H33.4065V16.252H46.0468Z" fill="#4640E2"/>
<path d="M0 28.8921L0 22.1525C0 18.8962 2.45552 16.2518 5.47918 16.2518H11.7374V28.8921H0Z" fill="#4640E2"/>
<path d="M74.0839 34.3049C69.479 34.3049 66.799 32.4044 65.9101 28.4993L70.6776 27.7573C71.21 29.2679 72.3529 30.0343 74.0839 30.0343C75.6901 30.0343 76.5567 28.991 76.5567 28.0076C76.5567 26.683 75.6834 26.0517 74.7389 25.5666L70.437 23.2209C67.7257 21.7302 66.4069 19.7654 66.4069 17.216C66.4069 13.3995 69.5058 10.8345 74.1173 10.8345C78.2432 10.8345 80.9945 12.8812 81.5671 16.3344L76.7996 17.0786C76.4364 15.8028 75.5342 15.1073 74.2176 15.1073C72.7695 15.1073 72.012 15.9999 72.012 16.8837C72.012 17.8273 72.6225 18.3213 73.8255 18.9548L78.0962 21.3027C80.9076 22.8355 82.1619 24.8223 82.1619 27.744C82.1619 31.793 79.0652 34.3093 74.0839 34.3093V34.3049Z" fill="white"/>
<path d="M91.0339 34.3092C88.1597 34.3092 84.733 33.3148 84.733 28.5793V21.0155H82.1618V16.9445H84.9014V13.064L89.8416 11.7373V16.9445H93.8992V21.0155H89.8416V28.1607C89.8416 29.2371 90.6545 30.019 91.7772 30.019H93.8992V34.1409C92.8057 34.2561 91.9075 34.307 91.0317 34.307L91.0339 34.3092Z" fill="white"/>
<path d="M104.282 34.3095C98.7012 34.3095 94.8022 30.6009 94.8022 25.2895C94.8022 19.9781 98.7012 16.252 104.282 16.252C109.864 16.252 113.763 19.9671 113.763 25.2895C113.763 30.6119 109.864 34.3095 104.282 34.3095ZM104.282 20.8673C101.792 20.8673 99.9118 22.7688 99.9118 25.2895C99.9118 27.8102 101.792 29.6787 104.282 29.6787C106.773 29.6787 108.653 27.7926 108.653 25.2895C108.653 22.7864 106.773 20.8673 104.282 20.8673Z" fill="white"/>
<path d="M126.123 33.4066V23.2832C126.123 21.7295 124.98 20.5584 123.465 20.5584C121.754 20.5584 120.363 22.1292 120.363 24.0611V33.4066H115.568V16.7698H119.872V17.9517H120.74L120.873 17.8078C121.739 16.8773 123.33 16.252 124.831 16.252C128.643 16.252 130.917 18.9531 130.917 23.4787V33.4066H126.123Z" fill="white"/>
<path d="M142.117 34.3095C136.674 34.3095 132.723 30.5087 132.723 25.2719C132.723 20.0352 136.544 16.252 142.013 16.252C148.068 16.252 150.781 20.7751 150.781 25.2566C150.781 25.5464 150.751 26.1458 150.711 26.5542L138.022 26.5367L138.069 27.0505C138.235 28.8861 140.058 30.3221 142.215 30.3221C143.908 30.3221 145.199 29.749 146.059 28.616L150.147 30.3133C148.69 32.7198 145.536 34.3073 142.114 34.3073L142.117 34.3095ZM141.998 20.0571C140.004 20.0571 138.347 21.4207 138.055 23.3002L137.972 23.8403H145.691L145.619 23.309C145.356 21.3636 143.902 20.0571 141.998 20.0571Z" fill="white"/>
<path d="M150.783 33.4064V30.9368L159.982 23.1827C161.754 21.6832 162.652 20.1988 162.652 18.7708C162.652 17.2169 161.53 15.6414 159.385 15.6414C157.508 15.6414 156.036 17.0368 156.036 18.8185V19.4001H151.103V18.8185C151.103 14.042 154.417 10.8345 159.351 10.8345C163.245 10.8345 167.792 12.9243 167.792 18.8185C167.792 22.2257 166.033 23.9054 163.548 25.9063L159.967 28.9901H167.935V33.4042H150.781L150.783 33.4064Z" fill="white"/>
<path d="M175.948 34.3095C171.939 34.3095 169.55 32.7098 168.838 29.55L173.497 29.1776C173.89 30.081 174.988 30.6231 175.932 30.6231C177.465 30.6231 178.01 29.9334 178.01 29.2878C178.01 28.2499 177.136 27.915 176.029 27.4897L172.977 26.3593C170.355 25.3964 169.236 23.9245 169.236 21.439C169.236 18.288 172.036 16.252 176.366 16.252C180.17 16.252 182.521 17.7944 183.046 20.6104L178.385 20.9828C178.066 20.1653 177.169 19.7863 176.364 19.7863C174.998 19.7863 174.51 20.4077 174.51 20.9894C174.51 21.8135 175.132 22.1286 175.946 22.4526L178.968 23.5851C181.994 24.6891 183.284 26.2602 183.284 28.8383C183.284 32.3638 180.678 34.3073 175.943 34.3073L175.948 34.3095Z" fill="white"/>
<path d="M191.474 34.3092C188.821 34.3092 185.658 33.3148 185.658 28.5793V21.0155H183.284V16.9445H185.813V13.064L190.373 11.7373V16.9445H194.119V21.0155H190.373V28.1607C190.373 29.2371 191.124 30.019 192.16 30.019H194.119V34.1409C193.109 34.2561 192.28 34.307 191.472 34.307L191.474 34.3092Z" fill="white"/>
<path d="M204.953 34.3095C199.638 34.3095 195.924 30.6009 195.924 25.2895C195.924 19.9781 199.638 16.252 204.953 16.252C210.269 16.252 213.982 19.9671 213.982 25.2895C213.982 30.6119 210.269 34.3095 204.953 34.3095ZM204.953 20.8673C202.581 20.8673 200.791 22.7688 200.791 25.2895C200.791 27.8102 202.581 29.6787 204.953 29.6787C207.325 29.6787 209.116 27.7926 209.116 25.2895C209.116 22.7864 207.325 20.8673 204.953 20.8673Z" fill="white"/>
<path d="M226.963 33.4066V23.2832C226.963 21.7295 225.754 20.5584 224.149 20.5584C222.337 20.5584 220.864 22.1292 220.864 24.0611V33.4066H215.788V16.7698H220.344V17.9517H221.264L221.404 17.8078C222.322 16.8773 224.006 16.252 225.595 16.252C229.632 16.252 232.04 18.9531 232.04 23.4787V33.4066H226.963Z" fill="white"/>
<path d="M242.336 34.3095C236.894 34.3095 232.942 30.5087 232.942 25.2719C232.942 20.0352 236.764 16.252 242.233 16.252C248.288 16.252 251 20.7751 251 25.2566C251 25.5464 250.971 26.1458 250.93 26.5542L238.241 26.5367L238.288 27.0505C238.454 28.8861 240.277 30.3221 242.435 30.3221C244.128 30.3221 245.419 29.749 246.278 28.616L250.367 30.3133C248.91 32.7198 245.755 34.3073 242.334 34.3073L242.336 34.3095ZM242.217 20.0571C240.223 20.0571 238.566 21.4207 238.275 23.3002L238.192 23.8403H245.91L245.838 23.309C245.576 21.3636 244.121 20.0571 242.217 20.0571Z" fill="white"/>
</svg>
