<svg width="154" height="51" viewBox="0 0 154 51" fill="none" xmlns="http://www.w3.org/2000/svg">
<path d="M26.9153 39.3182C30.6989 35.5633 34.5972 31.665 38.3808 27.8813C42.1931 31.6936 46.1201 35.6206 49.9037 39.4042C46.1201 43.1592 42.2218 47.0575 38.4668 50.8411C34.6545 47.0575 30.7562 43.1592 26.9153 39.3182Z" fill="#1254A1"/>
<path d="M13.2712 25.7316C17.0549 21.948 20.9532 18.0784 24.7081 14.3521C28.5491 18.193 32.476 22.0913 36.2883 25.9036C32.562 29.6299 28.6637 33.5282 24.8514 37.3118C21.0965 33.5282 17.1695 29.6299 13.2712 25.7316Z" fill="#114183"/>
<path d="M63.2899 25.904C59.4776 29.6876 55.608 33.5859 51.8817 37.3122C48.0407 33.4713 44.1424 29.6017 40.3875 25.8467C44.0851 22.1491 48.012 18.2508 51.8243 14.4385C55.522 18.1361 59.4203 22.0344 63.2899 25.904Z" fill="#114183"/>
<path d="M76.5324 39.4902C72.7775 43.2165 68.8792 47.0574 65.1529 50.7551C61.3693 46.9714 57.4423 43.0731 53.6587 39.2895C57.3277 35.6205 61.2259 31.7509 65.0096 27.9673C68.7359 31.7223 72.6628 35.6205 76.5324 39.4902Z" fill="#1254A1"/>
<path d="M26.9724 12.202C30.756 8.41839 34.6543 4.5201 38.4093 0.765137C42.2216 4.57743 46.1199 8.47572 49.9322 12.2593C46.1485 16.043 42.2503 19.9126 38.4666 23.6676C34.683 19.8839 30.756 15.9856 26.9724 12.202Z" fill="#25326C"/>
<path d="M11.4369 50.7838C7.6819 47.0001 3.78363 43.1019 0 39.3182C3.75497 35.5633 7.65325 31.6936 11.4655 27.8813C15.2492 31.6363 19.1475 35.5346 22.9311 39.3469C19.1475 43.1305 15.2492 47.0001 11.4369 50.7838Z" fill="#1254A1"/>
<path d="M93.7021 26.5911C93.6448 26.935 93.5875 27.279 93.5302 27.6516C92.7849 27.9669 92.0683 27.8236 91.2371 27.7089C91.2371 21.3742 91.2371 15.0968 91.2371 8.79079C92.011 8.56148 92.6989 8.59015 93.5302 8.76213C93.5302 11.4565 93.5302 14.1223 93.5302 17.0746C95.1353 15.8421 96.6545 15.1542 98.489 15.3835C100.295 15.6128 101.757 16.3867 102.789 17.8772C104.537 20.371 104.25 24.2693 102.158 26.3904C100.037 28.5689 96.9125 28.6548 93.7021 26.5911ZM101.212 21.8042C101.212 19.3964 99.7215 17.7912 97.4571 17.7912C95.2213 17.7912 93.6448 19.4537 93.6448 21.8042C93.6448 24.0686 95.25 25.7598 97.3998 25.7885C99.6356 25.7885 101.212 24.1546 101.212 21.8042Z" fill="black"/>
<path d="M85.8485 20.1996C86.1352 19.0818 85.7625 18.3652 85.0459 17.9639C83.2115 16.9033 81.549 17.6199 80.0298 18.7378C79.3705 18.3938 78.9979 17.8779 78.6252 17.3906C78.5966 16.9893 78.8259 16.8173 79.0552 16.674C81.3483 15.1835 83.7561 14.8682 86.3071 15.9861C87.5397 16.5307 88.2276 17.5626 88.4283 18.8811C88.4856 19.2537 88.4569 19.655 88.4569 20.0563C88.4569 22.5787 88.4569 25.1012 88.4569 27.6809C87.7403 27.9102 87.0811 27.8816 86.5364 27.7382C86.1065 27.3943 86.3358 26.907 86.0205 26.563C84.616 28.0249 82.8675 28.4262 80.9183 28.0249C79.2558 27.7096 78.0806 26.5344 77.8513 24.9865C77.5933 23.324 78.3959 21.8048 79.9724 21.0309C81.119 20.4576 82.3515 20.2283 83.6127 20.1996C84.3293 20.1996 85.0746 20.1996 85.8485 20.1996ZM85.8485 22.0628C84.3007 22.2061 82.8388 22.0915 81.463 22.7221C80.8037 23.0374 80.3737 23.5533 80.3737 24.2986C80.3737 24.9005 80.6317 25.3878 81.1763 25.7031C82.0649 26.2191 83.928 26.1044 84.7306 25.4451C85.8199 24.6139 86.1925 23.5247 85.8485 22.0628Z" fill="black"/>
<path d="M116.117 27.7088C115.487 27.9095 114.827 27.8808 114.226 27.7375C113.882 27.3935 113.968 26.9922 113.796 26.5909C112.362 27.9381 110.7 28.4254 108.779 28.0528C106.916 27.7088 105.712 26.4476 105.54 24.6991C105.397 23.0939 106.343 21.5748 107.977 20.9155C109.066 20.4569 110.213 20.2276 111.416 20.1989C112.19 20.1702 112.964 20.3422 113.71 20.0556C113.652 17.2752 111.474 16.7879 107.719 18.6797C106.974 18.2497 106.859 18.1351 106.314 17.3038C106.314 17.2465 106.314 17.1318 106.343 17.1032C108.263 15.0967 112.506 14.7241 114.655 16.3866C115.487 17.0172 116.06 17.8484 116.089 18.909C116.146 21.7181 116.175 24.5271 116.203 27.3649C116.232 27.4508 116.175 27.5655 116.117 27.7088ZM113.71 22.0907C112.162 22.148 110.614 22.062 109.152 22.7786C108.493 23.0939 108.12 23.6385 108.177 24.4125C108.235 25.1291 108.579 25.645 109.267 25.8457C111.789 26.5623 114.054 25.2151 113.71 22.0907Z" fill="black"/>
<path d="M141.37 27.6811C140.539 27.8817 139.851 27.8817 139.192 27.7097C138.876 27.3944 139.02 26.9931 138.905 26.5632C137.615 27.7671 136.153 28.3403 134.405 28.0824C132.198 27.7384 130.85 26.5058 130.707 24.2987C130.535 21.6043 130.65 18.8813 130.65 16.1869C130.65 16.1009 130.736 15.9862 130.793 15.8429C131.51 15.6422 132.226 15.6709 132.943 15.7856C133.344 16.2155 133.229 16.6741 133.229 17.1328C133.229 19.0532 133.229 20.9737 133.229 22.8942C133.258 24.614 133.975 25.5313 135.379 25.7319C136.841 25.9326 138.217 25.0153 138.676 23.5535C138.934 22.6649 138.934 21.719 138.934 20.8017C138.934 19.1679 138.934 17.5341 138.934 15.9002C139.765 15.5276 140.481 15.6422 141.341 15.7856C141.37 19.7698 141.37 23.6968 141.37 27.6811Z" fill="black"/>
<path d="M143.377 25.8457C143.922 25.2724 144.438 24.7565 145.125 24.4698C147.963 26.2183 149.54 26.1897 150.285 24.3552C150.113 23.4093 149.339 23.18 148.594 22.9507C147.677 22.664 146.702 22.492 145.813 22.1481C143.692 21.2882 143.09 18.7944 144.495 17.0172C146.186 14.8961 150.4 14.7815 152.205 16.7879C152.377 16.9599 152.549 17.1606 152.549 17.5045C152.119 18.0778 151.517 18.4504 150.887 18.7944C150.457 18.7657 150.256 18.5078 149.998 18.3071C149.54 18.0205 149.081 17.7625 148.508 17.7625C147.705 17.7625 146.817 17.7625 146.616 18.7657C146.387 19.7976 147.247 20.0843 148.02 20.3136C148.88 20.5716 149.769 20.7149 150.6 21.0015C152.234 21.5748 153.008 22.578 153.037 24.1545C153.065 25.7311 152.349 26.9349 150.858 27.5369C148.536 28.4541 146.272 28.5114 144.18 26.9063C143.836 26.677 143.52 26.3903 143.377 25.8457Z" fill="black"/>
<path d="M129.274 17.4194C128.873 18.0787 128.271 18.566 127.64 18.9959C124.573 17.5054 123.083 17.5054 121.879 19.0533C120.704 20.5725 120.732 23.1522 121.965 24.5281C123.369 26.0759 124.917 26.1046 127.64 24.5567C128.299 24.958 128.844 25.5026 129.245 26.1332C128.07 27.8817 125.204 28.627 122.624 27.8531C119.958 27.0505 118.267 24.7574 118.238 21.805C118.21 18.9673 119.872 16.5595 122.423 15.6996C125.032 14.8683 127.984 15.5849 129.274 17.4194Z" fill="black"/>
<path d="M91.2657 33.499C91.3803 33.2123 91.495 32.9257 91.581 32.6964C92.0109 32.4671 92.3836 32.4384 92.7275 32.6964C92.7849 32.7537 92.8422 32.811 92.8422 32.8684C92.9282 36.2507 93.1575 39.633 92.7275 43.0154C92.4409 45.1365 91.151 46.3977 89.0586 46.8277C86.8515 47.2576 84.0137 46.4837 83.1825 44.8785C83.3258 44.4199 83.6411 44.1333 84.1857 43.9326C85.7909 45.5091 87.6827 46.1111 89.8038 45.0792C91.0364 44.4772 91.495 43.0727 91.2944 40.8942C90.0618 41.8115 88.7433 42.3561 87.2241 42.0695C85.7336 41.8115 84.5297 41.0949 83.6984 39.8623C82.4372 37.9705 82.6952 35.4768 84.3004 33.8716C86.1349 31.9511 88.6859 31.8365 91.2657 33.499ZM91.3803 37.1393C91.3803 35.1901 89.8038 33.6136 87.912 33.6423C86.0202 33.6423 84.3577 35.3335 84.3577 37.2253C84.3864 39.0884 85.9915 40.6936 87.8833 40.7223C89.8325 40.7796 91.409 39.1457 91.3803 37.1393Z" fill="black"/>
<path d="M126.236 40.8944C126.236 42.8149 126.236 44.6493 126.236 46.3978C125.748 46.7131 125.376 46.7131 124.917 46.4265C124.917 41.8976 124.917 37.3114 124.917 32.7538C125.29 32.4385 125.662 32.4385 126.035 32.6105C126.379 32.8972 126.15 33.2985 126.379 33.6711C127.64 32.5819 129.102 32.0659 130.793 32.3526C131.997 32.5532 133.029 33.0405 133.831 34.0151C135.379 35.9642 135.322 38.9452 133.717 40.7224C131.825 42.7862 129.073 42.8722 126.236 40.8944ZM133.43 37.3114C133.43 35.2189 131.968 33.6711 129.905 33.6424C127.898 33.6138 126.207 35.3049 126.207 37.3114C126.207 39.3465 127.841 40.9804 129.905 40.9804C131.94 40.9804 133.43 39.4325 133.43 37.3114Z" fill="black"/>
<path d="M111.445 37.3394C111.445 40.2631 109.381 42.3556 106.486 42.3843C103.563 42.4129 101.441 40.2918 101.441 37.3107C101.441 34.4157 103.534 32.2946 106.4 32.2659C109.295 32.2372 111.445 34.387 111.445 37.3394ZM106.429 40.9797C108.407 40.9797 109.983 39.3459 109.983 37.3107C109.983 35.3043 108.349 33.6418 106.4 33.6418C104.422 33.6418 102.875 35.2756 102.846 37.3394C102.846 39.3172 104.451 40.9797 106.429 40.9797Z" fill="black"/>
<path d="M113.767 32.7832C114.34 32.4679 114.713 32.4392 115.085 32.6685C115.401 33.0411 115.286 33.4711 115.286 33.9011C115.315 35.4202 115.286 36.9681 115.315 38.4873C115.343 39.8345 115.859 40.6084 116.862 40.895C117.866 41.1817 119.155 40.7231 119.815 39.8345C120.359 39.0892 120.56 38.2293 120.531 37.3121C120.531 35.7929 120.531 34.2737 120.531 32.8405C121.047 32.4392 121.449 32.4392 121.993 32.7258C121.993 35.7355 121.993 38.8026 121.993 41.8696C121.649 42.1849 121.277 42.1276 120.933 42.0129C120.56 41.8123 120.646 41.411 120.445 41.1244C120.359 41.153 120.245 41.1817 120.187 41.239C119.557 41.8983 118.783 42.1849 117.923 42.3282C116.088 42.6149 114.512 41.7263 114.082 40.0351C113.423 37.6274 113.767 35.1909 113.767 32.7832Z" fill="black"/>
<path d="M95.4507 32.811C95.938 32.4097 96.3393 32.4383 96.5686 32.5243C97.1132 32.811 96.8839 33.2409 97.2279 33.4989C98.1738 32.6676 99.177 32.0084 100.496 32.467C100.754 32.9256 100.668 33.2982 100.496 33.6135C100.381 33.6709 100.352 33.7569 100.266 33.7569C97.6865 34.1295 97.0272 34.9034 97.0272 37.5691C97.0272 38.9163 96.9985 40.2635 96.9985 41.6107C96.9985 41.6967 96.9412 41.8114 96.8839 41.8974C96.5112 42.1554 96.1386 42.1554 95.6227 41.8687C95.508 38.859 95.7373 35.792 95.4507 32.811Z" fill="black"/>
<path d="M150.198 36.165C150.055 36.509 149.826 36.6523 149.453 36.767C147.905 35.6204 146.443 35.5631 145.44 37.5122C144.953 38.5155 145.326 39.9487 146.071 40.5793C147.246 41.5538 148.393 41.2385 149.424 40.4359C149.854 40.4933 150.084 40.6653 150.227 40.9806C149.482 42.1558 148.077 42.5857 146.443 42.1558C144.953 41.7545 143.95 40.4359 143.921 38.8308C143.864 36.9963 144.695 35.6777 146.243 35.1331C147.791 34.5312 149.31 34.9325 150.198 36.165Z" fill="black"/>
<path d="M137.156 31.0347C137.443 30.9774 137.615 30.9487 137.787 30.9487C137.93 30.9487 138.045 31.0061 138.303 31.0634C138.303 34.675 138.303 38.258 138.303 41.8983C138.102 41.9843 137.93 42.0703 137.758 42.0703C137.586 42.0703 137.414 42.013 137.156 41.9557C137.156 38.3153 137.156 34.7324 137.156 31.0347Z" fill="black"/>
<path d="M141.944 41.8697C141.514 42.1276 141.198 42.1563 140.826 41.841C140.826 38.3153 140.826 34.7037 140.826 31.092C141.055 31.0347 141.17 30.9487 141.313 30.9487C141.485 30.9487 141.657 30.9774 141.944 31.0347C141.944 34.6464 141.944 38.258 141.944 41.8697Z" fill="black"/>
</svg>
