<svg width="151" height="63" viewBox="0 0 151 63" fill="none" xmlns="http://www.w3.org/2000/svg">
<path d="M48.084 23.1817C47.7464 23.4817 47.3901 23.388 47.0526 23.388C45.3647 23.4067 43.6769 23.388 41.9891 23.4067C40.17 23.4255 38.7447 24.2131 37.7508 25.7322C33.55 32.2021 29.3492 38.6721 25.1484 45.142C24.9797 45.4046 24.7921 45.6484 24.5858 45.9297C16.4281 45.9297 8.28905 45.9297 0 45.9297C0.637619 44.9733 1.20023 44.1294 1.76283 43.2854C10.0894 30.9644 18.4159 18.6433 26.7425 6.32229C27.924 4.55946 29.1054 2.79663 30.3244 1.05255C31.2996 -0.353961 32.4998 -0.35396 33.4563 1.07131C38.2197 8.17888 42.983 15.2865 47.7464 22.394C47.8965 22.6003 48.084 22.8066 48.084 23.1817Z" fill="#48206E"/>
<path d="M110.195 36.7032C110.833 36.9283 110.87 37.3409 110.87 37.7534C110.87 45.4049 110.87 53.0563 110.87 60.7077C110.87 61.6079 110.383 62.0767 109.501 62.1705C109.464 62.1705 109.445 62.1705 109.407 62.1705C105.769 62.283 105.732 62.1142 105.769 58.8699C105.807 56.2819 105.769 53.6752 105.769 51.0872C105.769 50.7496 105.769 50.4121 105.769 49.9995C105.188 50.0557 105.038 50.4683 104.794 50.7496C102.975 52.9063 101.193 55.0629 99.393 57.2196C98.2116 58.6448 97.9115 58.6261 96.7488 57.2383C94.8735 54.9879 92.9793 52.7375 91.0852 50.4871C90.9165 50.2808 90.7664 50.0182 90.4476 49.962C90.1288 50.2245 90.2601 50.5996 90.2601 50.9184C90.2413 53.9752 90.2601 57.0508 90.2601 60.1076C90.2601 61.7204 89.9413 62.0392 88.3472 62.0392C87.7284 62.0392 87.0907 62.0392 86.4719 62.0392C85.6655 62.0392 85.2717 61.5891 85.1779 60.839C85.1404 60.5389 85.1404 60.2201 85.1404 59.9013C85.1404 52.7187 85.1404 45.5361 85.1404 38.3536C85.1404 38.1285 85.1404 37.9222 85.1404 37.6972C85.1591 37.2846 85.1779 36.8533 85.6655 36.7032C86.1343 36.5532 86.4156 36.8908 86.6782 37.2096C89.2474 40.3977 91.8166 43.567 94.4046 46.7551C95.2673 47.8241 96.1299 48.893 96.9926 49.962C97.7802 50.9371 98.2491 50.9559 99.0742 49.9432C102.15 46.1738 105.207 42.3668 108.301 38.5973C108.864 37.941 109.257 37.022 110.195 36.7032Z" fill="black"/>
<path d="M73.9827 53.881C74.7891 55.25 75.858 56.469 76.7957 57.8005C77.4521 58.7381 78.1647 59.6571 78.8399 60.5947C79.0649 60.8948 79.2899 61.2324 79.1024 61.6262C78.8961 62.0763 78.4648 62.0575 78.0522 62.0575C77.9959 62.0575 77.9209 62.0575 77.8647 62.0575C73.4013 62.0388 74.2077 62.4701 71.6385 59.0007C70.7196 57.7442 69.7819 56.4877 68.9005 55.1937C68.3191 54.3311 67.5315 53.9748 66.5188 53.9935C65.9187 54.0123 65.3373 53.9748 64.7372 53.9935C63.762 54.031 63.4432 54.3311 63.4432 55.3063C63.4245 57.0316 63.4432 58.7381 63.4432 60.4635C63.4432 61.6262 62.9744 62.1325 61.8117 62.17C61.099 62.2076 60.3676 62.1888 59.655 62.1325C58.8674 62.0575 58.436 61.6262 58.436 60.7635C58.4548 53.1684 58.436 45.5919 58.436 37.9968C58.436 37.2091 58.7924 36.6653 59.5612 36.6653C63.5182 36.684 67.494 36.3652 71.451 36.7965C76.2706 37.3216 79.1962 41.4474 78.7273 46.5671C78.4648 49.3614 77.0583 51.4805 74.6953 52.9808C74.414 53.1684 74.114 53.3559 73.9827 53.881ZM63.4432 45.3857C63.4432 46.3796 63.462 47.3923 63.4432 48.3862C63.4245 49.2114 63.8183 49.5864 64.6435 49.5677C66.2 49.5489 67.7565 49.5677 69.3318 49.5677C69.8194 49.5677 70.3258 49.5864 70.8133 49.4552C73.3638 48.7425 74.4703 45.8357 73.195 43.1727C72.6137 41.9538 71.6385 41.2974 70.307 41.2599C68.4129 41.2036 66.5001 41.2411 64.5872 41.2411C63.8183 41.2411 63.4432 41.635 63.4432 42.4038C63.4432 43.3978 63.4432 44.3917 63.4432 45.3857Z" fill="black"/>
<path d="M141.214 62.6014C137.388 62.5827 134.219 61.6825 131.387 59.7134C130.243 58.9257 130.149 58.5694 130.899 57.4254C131.218 56.9191 131.556 56.4315 131.893 55.9439C132.493 55.0813 132.944 54.95 133.881 55.4563C135.063 56.0939 136.207 56.8066 137.482 57.2754C139.282 57.9318 141.101 58.1756 142.977 57.6317C143.708 57.4254 144.364 57.0691 144.89 56.5065C146.109 55.2125 145.883 53.6935 144.308 52.8683C142.789 52.0807 141.101 51.8369 139.451 51.5368C137.576 51.1993 135.719 50.7679 133.994 49.9053C131.575 48.6863 130.356 46.7359 130.318 44.0729C130.281 41.2412 131.387 38.897 133.975 37.7155C138.982 35.4463 143.877 35.8777 148.471 38.9532C149.24 39.4596 149.353 40.0222 148.809 40.7911C147.084 43.229 147.177 43.9792 144.289 42.2726C142.339 41.1099 140.089 40.6973 137.782 41.4287C137.519 41.5225 137.238 41.6162 136.994 41.7288C136.15 42.1413 135.419 42.6477 135.438 43.7354C135.457 44.8043 136.188 45.2732 137.032 45.6107C138.926 46.3796 140.933 46.7172 142.92 47.1298C144.383 47.4298 145.827 47.8049 147.159 48.555C149.747 49.9991 150.722 52.287 150.647 55.1188C150.553 57.8193 149.39 59.9197 146.99 61.2324C145.058 62.2826 142.977 62.5827 141.214 62.6014Z" fill="black"/>
<path d="M55.698 61.4946C55.5292 62.0572 55.0978 62.0572 54.6853 62.0572C53.7851 62.0572 52.8662 62.0385 51.966 62.0572C51.1221 62.076 50.5408 61.6821 50.1657 60.9695C50.1469 60.9508 50.1282 60.9132 50.1282 60.8945C48.5341 57.7064 48.6842 58.1565 45.4773 58.1377C43.1706 58.119 40.8639 58.1565 38.5385 58.119C37.4321 58.1002 36.6069 58.4378 36.2693 59.5255C35.5755 61.7009 34.1314 62.4135 31.8998 62.2447C29.7806 62.076 29.6118 61.9259 30.5495 60.0318C34.244 52.6617 37.9384 45.2916 41.6141 37.9214C41.7454 37.6777 41.8579 37.4151 42.0079 37.1713C42.458 36.4962 43.1331 36.4962 43.602 37.1526C43.752 37.3588 43.8458 37.5839 43.9583 37.8089C47.7277 45.3478 51.4972 52.8867 55.2666 60.4257C55.4542 60.7632 55.6792 61.082 55.698 61.4946ZM45.7774 53.6369C45.8524 53.5244 45.9274 53.4118 46.0024 53.2993C44.9897 51.1614 43.9583 49.0048 42.9456 46.8669C42.8331 46.8856 42.7018 46.9044 42.5893 46.9231C41.6141 49.0798 40.4701 51.1614 39.5324 53.5806C41.7266 53.8432 43.752 53.7869 45.7774 53.6369Z" fill="black"/>
<path d="M118.522 49.4362C118.522 45.8168 118.522 42.1786 118.522 38.5592C118.522 37.0026 118.841 36.6838 120.379 36.6651C120.904 36.6651 121.448 36.6463 121.973 36.6651C123.136 36.7026 123.548 37.1152 123.586 38.2591C123.605 39.2906 123.605 40.322 123.605 41.3534C123.605 47.5796 123.605 53.787 123.605 60.0132C123.605 61.7948 123.248 62.1511 121.486 62.1698C118.635 62.2073 118.541 62.0948 118.541 59.2443C118.522 55.9999 118.522 52.7181 118.522 49.4362Z" fill="black"/>
</svg>
