<svg width="142" height="49" viewBox="0 0 142 49" fill="none" xmlns="http://www.w3.org/2000/svg">
<path d="M32.5124 44.4695C33.4444 42.0328 34.4016 39.6204 35.3083 37.1836C38.1798 29.5566 41.0261 21.9296 43.9479 14.3026C44.3005 13.3767 44.1998 12.7187 43.4945 12.0121C41.6306 10.1602 38.7339 9.79465 36.064 11.1836C35.4595 11.5004 35.1068 11.7197 34.7542 10.8425C33.3688 7.28481 30.5477 6.0177 26.8199 7.21171C26.6688 7.26044 26.5176 7.28481 26.1398 7.0655C27.0718 6.26137 27.9282 5.35978 28.9357 4.65313C34.6786 0.608133 41.0009 -0.878284 47.9528 0.949274C48.8596 1.19295 49.5397 0.291351 50.1694 0.68123C50.7236 1.02237 50.8243 1.85087 51.6303 2.21638C59.2372 5.74966 63.4184 11.6953 64.5771 19.7122C64.6023 19.9315 64.5771 20.1752 64.5771 20.6625C64.023 20.0533 63.6451 19.566 63.2421 19.1517C61.1263 17.0561 58.6579 16.6419 56.0383 18.104C55.1063 18.64 54.8292 18.4695 54.4766 17.5191C53.4943 14.8387 50.8999 13.401 48.0032 13.8153C46.9957 13.9615 46.5171 14.5219 46.1897 15.4235C42.3359 25.7309 38.4569 36.014 34.5779 46.3214C34.4519 46.6626 34.326 47.0281 34.1497 47.3449C33.7467 48.1003 33.1673 48.6851 32.185 48.612C31.2278 48.5389 30.6989 47.9784 30.3714 47.1499C27.5 39.7422 24.6285 32.3345 21.757 24.9268C21.4296 24.0496 21.3288 23.2211 22.3364 22.7094C23.1676 22.2951 23.9484 22.7338 24.4018 23.9278C26.7695 30.0927 29.2128 36.2333 31.379 42.447C31.6056 43.1293 31.9079 43.7872 32.1598 44.4695C32.2857 44.4939 32.3865 44.4939 32.5124 44.4695Z" fill="#488DB1"/>
<path d="M138.855 43.7541C139.171 43.2898 139.025 42.8009 139.025 42.3366C139.025 36.5932 138.976 30.8498 138.976 25.1064C138.976 24.6664 138.976 24.2021 139.049 23.7622C139.195 23.0778 139.682 22.7357 140.363 22.7357C141.02 22.7357 141.458 23.0778 141.604 23.7133C141.701 24.1043 141.701 24.5198 141.726 24.9353C141.726 32.0229 141.726 39.1105 141.726 46.1981C141.726 47.078 141.896 48.08 140.801 48.4955C139.828 48.8621 138.879 48.3977 138.076 47.2002C133.843 40.8946 129.609 34.5647 125.376 28.2591C125.181 27.9658 124.938 27.697 124.549 27.1838C124.549 28.7724 124.476 30.0921 124.549 31.4119C124.865 36.4954 124.622 41.5789 124.695 46.6869C124.719 47.6156 124.5 48.5199 123.405 48.5444C122.286 48.5688 122.043 47.6645 122.018 46.7602C121.994 39.3793 121.994 32.0229 122.018 24.642C122.018 23.811 122.164 22.9801 123.137 22.6868C124.184 22.3691 124.695 23.0045 125.206 23.7622C129.463 30.1166 133.721 36.4465 138.003 42.8009C138.247 43.1187 138.368 43.5586 138.855 43.7541Z" fill="#1F1F1F"/>
<path d="M72.6453 27.1984C72.5179 29.4962 72.7472 31.5007 72.7726 33.4808C72.8236 37.7097 72.7981 41.9632 72.7981 46.1922C72.7981 46.4366 72.7981 46.6811 72.7726 46.9255C72.6962 47.7566 72.416 48.5389 71.3971 48.5389C70.3273 48.5389 69.9707 47.7566 69.9707 46.8766C69.9707 39.4698 69.9707 32.0385 69.9707 24.6317C69.9707 23.8005 70.1235 22.945 71.1424 22.6761C72.1868 22.3827 72.7981 23.0183 73.333 23.7761C77.7652 30.0829 82.2228 36.4141 86.655 42.721C86.9352 43.1121 87.2153 43.4788 87.572 43.9432C87.954 43.2343 87.8012 42.6721 87.8012 42.1098C87.8012 36.4386 87.7757 30.7918 87.7503 25.1206C87.7503 24.7539 87.7503 24.3872 87.7757 24.0205C87.8776 23.2627 88.3106 22.8227 89.1003 22.7983C89.9154 22.7494 90.3739 23.165 90.5267 23.8983C90.6031 24.2894 90.6031 24.705 90.6031 25.1206C90.6031 32.0874 90.6031 39.0542 90.6031 46.021C90.6031 46.2166 90.6031 46.4366 90.6031 46.6322C90.5522 47.4388 90.4503 48.2455 89.5078 48.5144C88.5144 48.8078 87.6484 48.4655 87.0625 47.6344C86.0946 46.3144 85.1266 44.9454 84.1842 43.601C80.5671 38.4186 76.9246 33.2607 73.3075 28.0784C73.2057 27.8828 73.0019 27.6628 72.6453 27.1984Z" fill="#1F1F1F"/>
<path d="M54.1959 22.6036C55.6196 22.5793 56.3189 23.3789 56.7435 24.542C58.1922 28.2734 59.6408 32.0291 61.1144 35.7605C62.3383 38.8862 63.5621 42.0119 64.7859 45.1618C64.9858 45.6465 65.1856 46.1311 65.3354 46.6399C65.5852 47.391 65.6102 48.1422 64.711 48.4814C63.7869 48.8448 63.1874 48.336 62.8378 47.5364C62.1634 45.9372 61.4641 44.338 60.8397 42.7146C60.5399 41.9392 60.0904 41.5758 59.1912 41.6C55.9443 41.6485 52.6973 41.6485 49.4504 41.6C48.5262 41.6 48.0017 41.915 47.677 42.7631C47.1525 44.12 46.5781 45.4768 46.0286 46.8095C45.8537 47.2214 45.6789 47.6333 45.4291 47.9968C45.0045 48.6268 44.3552 48.7722 43.6808 48.4572C43.0314 48.1664 42.9565 47.5849 43.1563 47.0034C43.6059 45.6949 44.1304 44.4349 44.6049 43.1507C46.9777 37.0205 49.3505 30.9145 51.7232 24.7843C52.1978 23.6455 52.6973 22.5793 54.1959 22.6036ZM54.5955 25.6323C54.4207 25.7293 54.3208 25.7535 54.2958 25.8262C52.6723 29.9695 51.0239 34.1129 49.4004 38.2805C49.1257 38.9589 49.4753 39.1528 50.0998 39.1528C52.9721 39.1528 55.8443 39.1528 58.7166 39.1528C59.416 39.1528 59.6158 38.9105 59.3411 38.2562C58.8166 36.8994 58.342 35.5182 57.8175 34.1614C56.7685 31.3022 55.6945 28.4915 54.5955 25.6323Z" fill="#1F1F1F"/>
<path d="M116.618 47.153C116.618 47.8796 116.393 48.3639 115.741 48.5335C114.965 48.7272 114.413 48.4124 114.113 47.7585C113.436 46.2085 112.734 44.6343 112.158 43.0359C111.782 41.9461 111.181 41.5344 109.953 41.5828C106.871 41.6555 103.788 41.6313 100.681 41.5828C99.6538 41.5586 99.0524 41.8492 98.7267 42.8422C98.3007 44.15 97.7493 45.4093 97.1981 46.6929C97.0226 47.1288 96.7971 47.589 96.5215 47.9764C96.0955 48.5819 95.444 48.7757 94.7674 48.485C94.1159 48.1944 94.1159 47.5647 94.2913 47.0077C94.6421 45.8937 95.0681 44.8039 95.4941 43.6898C97.9498 37.3931 100.406 31.0964 102.861 24.7754C103.563 23.0075 104.189 22.4989 105.568 22.62C106.645 22.7168 107.347 23.2981 107.698 24.2426C110.604 31.6291 113.511 39.0157 116.393 46.4023C116.543 46.6929 116.593 46.9835 116.618 47.153ZM105.518 25.841C105.442 25.9379 105.317 26.059 105.267 26.1801C103.713 30.1276 102.16 34.0994 100.581 38.047C100.205 39.0157 100.706 39.161 101.533 39.161C104.189 39.161 106.871 39.1368 109.527 39.161C110.529 39.1852 110.755 38.8946 110.379 37.9501C108.9 34.1479 107.497 30.2971 106.044 26.4949C105.969 26.2527 105.944 25.9379 105.518 25.841Z" fill="#1F1F1F"/>
<path d="M10.8736 22.6036C12.4972 22.652 13.1716 23.4263 13.6212 24.5394C15.5445 29.4275 17.4678 34.3398 19.3912 39.2278C20.2654 41.4541 21.1147 43.6803 21.9889 45.9066C22.0888 46.1728 22.2137 46.4389 22.2886 46.7051C22.4885 47.3585 22.5884 48.036 21.7391 48.3264C20.9148 48.6168 20.3403 48.2054 20.0406 47.5037C19.4161 46.1002 18.7417 44.6967 18.2671 43.2448C17.8425 41.9139 17.1181 41.4057 15.6444 41.4783C12.647 41.5993 9.64964 41.5509 6.65224 41.5025C5.5532 41.4783 4.9787 41.8655 4.65398 42.8576C4.17939 44.1885 3.60488 45.4952 3.05536 46.8019C2.90549 47.1407 2.78061 47.4795 2.58078 47.794C2.13118 48.4958 1.43178 48.8104 0.657453 48.4958C-0.216787 48.157 -0.0419448 47.3827 0.18286 46.7293C0.857273 44.9144 1.55667 43.0996 2.28104 41.2847C4.47913 35.6707 6.67722 30.0567 8.85033 24.4427C9.24998 23.3537 9.87445 22.5794 10.8736 22.6036ZM11.548 25.701C11.4481 25.701 11.3232 25.701 11.2233 25.701C9.5747 29.9115 7.92613 34.0978 6.30254 38.3083C6.02778 39.0343 6.55232 39.1311 7.10185 39.1311C9.92439 39.1311 12.7469 39.1311 15.5695 39.1311C16.3188 39.1311 16.5187 38.8165 16.2689 38.1389C14.6703 34.001 13.0966 29.8389 11.548 25.701Z" fill="#1F1F1F"/>
</svg>
