<svg width="75" height="69" viewBox="0 0 75 69" fill="none" xmlns="http://www.w3.org/2000/svg">
<path d="M34.3169 68.765C23.2275 68.765 12.1381 68.765 1.05484 68.765C0.390096 68.765 0.47086 68.7774 0.47086 68.1748C0.47086 57.1475 0.47086 46.1202 0.47086 35.0991C0.47086 34.571 0.470859 34.5648 0.986502 34.7015C2.70738 35.155 4.44069 35.1674 6.18642 34.8568C6.19885 34.8568 6.20506 34.8506 6.21749 34.8506C6.36659 34.8444 6.55918 34.7326 6.65237 34.863C6.73313 34.9749 6.59024 35.1302 6.53433 35.2606C5.92549 36.7579 5.52168 38.311 5.54653 39.9387C5.5838 42.6971 6.72692 44.9398 8.86404 46.6607C10.7154 48.1579 12.8836 48.978 15.1636 49.5433C16.8783 49.9658 18.6178 50.1894 20.3759 50.3075C22.0533 50.4255 23.7245 50.4255 25.4019 50.3448C28.4647 50.1894 31.4964 49.7732 34.4971 49.1519C40.163 47.9716 45.6238 46.1575 50.8734 43.7222C55.6944 41.4918 60.2793 38.8453 64.5535 35.6707C65.7153 34.8071 66.8149 33.8628 67.871 32.8688C67.9518 32.788 68.0326 32.6327 68.163 32.6886C68.2686 32.7383 68.2127 32.8936 68.2127 33.0055C68.2127 44.7783 68.2127 56.5511 68.2127 68.3177C68.2127 68.765 68.2127 68.765 67.7281 68.765C56.5952 68.765 45.4561 68.765 34.3169 68.765Z" fill="#CC0000"/>
<path d="M15.0152 25.7114C14.9158 26.1898 14.8226 26.6743 14.717 27.1527C14.22 29.5011 13.723 31.8494 13.226 34.1978C13.1515 34.5581 13.1577 34.5705 13.5242 34.5705C16.2267 34.5705 18.9291 34.6016 21.6316 34.5581C24.5888 34.5084 27.1919 33.5455 29.2358 31.3276C30.6709 29.762 31.4723 27.892 31.8451 25.817C32.0687 24.5807 32.1868 23.3382 31.9569 22.0833C31.5655 19.9337 30.2236 18.6663 28.1797 18.0824C27.8007 17.9768 27.4217 17.896 27.0365 17.8028C27.0365 17.6537 27.167 17.6475 27.2478 17.604C31.9755 15.2805 36.8586 13.4043 41.9902 12.1866C44.4069 11.6151 46.8546 11.1926 49.3335 10.9752C51.2345 10.8074 53.1356 10.764 55.0366 10.9068C57.4222 11.0808 59.7582 11.5033 61.9698 12.46C63.7591 13.2366 65.3308 14.3051 66.4615 15.9266C67.9712 18.0886 68.2383 20.4742 67.6357 22.9841C67.1076 25.202 65.9832 27.1279 64.604 28.9109C62.1251 32.1103 59.0251 34.614 55.6703 36.8195C52.0546 39.1989 48.2028 41.1372 44.1957 42.7711C39.7475 44.5852 35.1688 45.9768 30.4472 46.8652C28.4654 47.238 26.465 47.4989 24.4521 47.6542C22.9114 47.7722 21.3707 47.8095 19.83 47.7536C17.0778 47.6542 14.3629 47.2877 11.7971 46.2129C10.0452 45.4798 8.51066 44.4609 7.45452 42.8332C6.61583 41.5472 6.38596 40.1308 6.53506 38.6398C6.67795 37.2109 7.15632 35.8814 7.77758 34.5954C7.86455 34.4152 7.98259 34.3034 8.16897 34.2288C10.9584 33.1168 12.6607 31.048 13.4994 28.2026C13.5801 27.9231 13.5056 27.8547 13.2384 27.8672C13.0707 27.8734 12.8222 27.9604 12.7538 27.7988C12.6917 27.6435 12.934 27.5255 13.0458 27.4012C13.5925 26.8172 14.189 26.2954 14.7978 25.7735C14.8413 25.7363 14.8848 25.6741 15.0152 25.7114ZM48.5072 28.3517C48.4886 28.2834 48.4637 28.2461 48.4637 28.2151C48.501 27.5317 48.5383 26.8545 48.5817 26.1711C48.6749 24.6242 48.7805 23.0773 48.8737 21.5241C48.9421 20.381 49.0042 19.2317 49.0787 18.0886C49.1036 17.6848 49.116 17.6848 48.6936 17.6848C46.6931 17.6848 44.6989 17.6972 42.6984 17.6785C42.3319 17.6723 42.1766 17.809 42.0648 18.1445C40.9154 21.4247 39.7537 24.705 38.5857 27.979C38.5547 28.066 38.5609 28.1902 38.4056 28.2523C38.4428 27.6808 38.4739 27.1279 38.5174 26.5812C38.6354 25.0467 38.7535 23.5059 38.8715 21.9714C38.9709 20.6854 39.0641 19.3932 39.1697 18.1072C39.2008 17.7345 39.1759 17.6972 38.7969 17.6972C37.1009 17.6972 35.3987 17.6972 33.7026 17.6972C33.3112 17.6972 33.2988 17.7158 33.2988 18.101C33.3175 23.4935 33.305 28.886 33.3609 34.2785C33.3609 34.5643 33.4479 34.6513 33.7337 34.6513C35.8584 34.6389 37.9769 34.6389 40.1016 34.6513C40.3625 34.6513 40.4805 34.5643 40.5675 34.322C41.7852 30.874 43.0091 27.4385 44.2329 23.9967C44.2826 23.8601 44.2889 23.6985 44.4628 23.5929C44.5187 23.7979 44.4939 23.9719 44.4877 24.1396C44.4255 25.1088 44.3634 26.0779 44.3013 27.0471C44.2392 28.0287 44.1708 29.0103 44.1087 29.9856C44.0155 31.3897 43.9099 32.7937 43.8229 34.1916C43.7919 34.6389 43.8105 34.6451 44.2454 34.6451C46.3701 34.6451 48.4886 34.6389 50.6133 34.6513C50.9425 34.6513 51.0792 34.5395 51.2034 34.2537C53.4835 28.855 55.7697 23.4625 58.0559 18.0699C58.2112 17.6972 58.2112 17.691 57.8136 17.691C56.1549 17.691 54.5023 17.691 52.8436 17.691C52.3031 17.691 52.3031 17.691 52.1229 18.2004C50.986 21.4744 49.8491 24.7485 48.7122 28.0287C48.6687 28.1281 48.6687 28.2648 48.5072 28.3517Z" fill="#CC0000"/>
<path d="M34.4164 0.588379C45.4934 0.588379 56.5704 0.588379 67.6536 0.588379C67.7468 0.588379 67.84 0.588379 67.9332 0.588379C68.3494 0.588379 68.3494 0.588379 68.3494 0.998409C68.3494 3.87483 68.3494 6.75746 68.3494 9.63388C68.3494 10.0253 68.337 10.0315 67.9642 9.91345C65.9949 9.27976 63.9758 8.92565 61.9132 8.74548C60.0308 8.57774 58.1484 8.57774 56.266 8.6523C54.0108 8.74548 51.7743 9.01884 49.5502 9.3978C45.7046 10.0501 41.946 11.0255 38.2495 12.2742C34.0871 13.6845 30.0489 15.4054 26.1847 17.5052C26.017 17.5984 25.8554 17.6729 25.6566 17.6481C24.8117 17.5425 23.9606 17.5984 23.1157 17.5922C21.1463 17.586 19.1831 17.5922 17.2138 17.586C16.928 17.586 16.8224 17.6854 16.7665 17.9587C16.344 20.0337 15.9029 22.1087 15.4742 24.1899C15.4245 24.4198 15.35 24.6062 15.1512 24.7615C14.0826 25.6002 13.0886 26.5196 12.1319 27.4888C11.8834 27.7373 11.6287 27.8367 11.287 27.8305C10.119 27.8119 8.94483 27.8305 7.77687 27.8181C7.51594 27.8181 7.38548 27.905 7.29229 28.1473C7.03757 28.7934 6.74558 29.4209 6.29828 29.9676C5.87582 30.4833 5.33533 30.6634 4.69543 30.5702C4.20464 30.5019 3.8878 30.1726 3.76976 29.6446C3.64551 29.0916 3.68279 28.5325 3.76355 27.9796C3.98099 26.4824 4.27298 25.0038 4.75756 23.5625C4.88181 23.1959 5.04955 22.8542 5.26078 22.5312C5.68944 21.8789 6.27964 21.5558 7.06863 21.5931C7.58428 21.6179 7.87627 21.8229 8.01916 22.3199C8.18069 22.8791 8.16826 23.4506 8.10613 24.016C8.02537 24.718 8.01295 24.718 8.71497 24.718C10.3799 24.718 12.0511 24.7118 13.7161 24.7242C13.9894 24.7242 14.1199 24.6559 14.1634 24.3577C14.356 23.0033 14.4181 21.6552 13.9087 20.3506C13.3247 18.8409 12.1505 17.9649 10.6409 17.6108C7.05 16.7783 3.69521 17.2691 0.725602 19.6113C0.663476 19.661 0.607564 19.7479 0.514375 19.7045C0.439824 19.6672 0.470888 19.574 0.464675 19.5057C0.458463 19.4435 0.464675 19.3814 0.464675 19.3193C0.464675 13.2434 0.464675 7.16128 0.464675 1.08538C0.464675 0.600804 0.464675 0.600804 0.961681 0.600804C12.1132 0.588379 23.2648 0.588379 34.4164 0.588379Z" fill="#CC0000"/>
<path d="M21.0655 30.8122C20.3449 30.8122 20.4319 30.8494 20.5685 30.1971C21.1587 27.3952 21.7551 24.5934 22.3391 21.7915C22.4012 21.4995 22.5193 21.3815 22.8175 21.4125C23.066 21.4312 23.3145 21.425 23.5568 21.4622C24.4887 21.5989 25.0664 22.214 25.172 23.1521C25.3087 24.3511 25.0229 25.4942 24.7744 26.6435C24.6378 27.271 24.4638 27.886 24.2339 28.4887C23.9979 29.0913 23.6375 29.6007 23.1964 30.0604C22.6125 30.6568 21.8607 30.8059 21.0655 30.8122Z" fill="#CC0000"/>
<path d="M74.2512 2.2338C74.245 3.09734 73.5492 3.79315 72.6919 3.79315C71.8469 3.78694 71.1325 3.06628 71.1387 2.22137C71.1449 1.35782 71.8718 0.64959 72.7353 0.655802C73.6237 0.662015 74.2574 1.32676 74.2512 2.2338ZM71.4431 2.13439C71.4369 2.85505 71.9898 3.42661 72.6981 3.43903C73.3939 3.45146 73.9779 2.86748 73.9779 2.15924C73.9779 1.43237 73.4312 0.873242 72.7167 0.86703C71.9836 0.86703 71.4431 1.40131 71.4431 2.13439Z" fill="#CC0000"/>
<path d="M72.1021 2.09747C72.1021 1.88003 72.1083 1.66259 72.1021 1.44515C72.0897 1.22771 72.1891 1.14695 72.4003 1.15316C72.5929 1.15938 72.7917 1.13452 72.9843 1.19665C73.3695 1.31469 73.5062 1.66881 73.2701 1.99807C73.1893 2.1099 73.1893 2.17202 73.2514 2.29006C73.326 2.44538 73.3571 2.62554 73.3943 2.79328C73.4192 2.89268 73.4627 3.01072 73.3073 3.03557C73.1769 3.06042 73.0526 3.04178 73.0154 2.88647C72.9905 2.79949 72.9843 2.7063 72.9657 2.61312C72.9408 2.42674 72.829 2.34598 72.6488 2.34598C72.45 2.35219 72.45 2.48265 72.45 2.62554C72.45 2.70009 72.45 2.76843 72.4438 2.84298C72.4376 2.96102 72.3879 3.04178 72.2574 3.02936C72.127 3.02315 72.1083 2.92996 72.1083 2.83056C72.1021 2.59448 72.1021 2.34598 72.1021 2.09747Z" fill="#CC0000"/>
</svg>
