<svg width="202" height="48" viewBox="0 0 202 48" fill="none" xmlns="http://www.w3.org/2000/svg">
<path d="M61.9164 34.7855C61.9164 31.0011 64.7645 27.9189 68.822 27.9189C71.319 27.9189 72.8015 28.7773 74.011 29.9867L72.1773 32.1325C71.1629 31.1962 70.1095 30.65 68.822 30.65C66.5982 30.65 64.9986 32.4837 64.9986 34.7465V34.7855C64.9986 37.0484 66.5592 38.9211 68.822 38.9601C70.3436 38.9601 71.2409 38.3749 72.2943 37.4385L74.128 39.3113C72.7625 40.7548 71.2409 41.6521 68.705 41.6521C64.7645 41.6131 61.8774 38.609 61.9164 34.7855Z" fill="black"/>
<path d="M76.4299 28.1919H79.317V33.4199H84.662V28.1919H87.5491L87.5101 41.4179H84.623V36.1119H79.278V41.4179H76.3909L76.4299 28.1919Z" fill="black"/>
<path d="M91.0996 28.2305L101.048 28.2695V30.8445H93.9867V33.5365H100.229V36.1114H93.9867V38.8815H101.165V41.4565L91.0996 41.4175V28.2305Z" fill="black"/>
<path d="M103.155 34.9022C103.155 31.1178 106.003 28.0356 110.061 28.0356C112.558 28.0356 114.04 28.894 115.25 30.1034L113.377 32.2492C112.363 31.3129 111.309 30.7667 110.022 30.7667C107.798 30.7667 106.198 32.6004 106.198 34.8632V34.9022C106.198 37.1651 107.759 39.0378 110.022 39.0768C111.543 39.0768 112.441 38.4916 113.494 37.5552L115.328 39.428C113.962 40.8715 112.441 41.7688 109.905 41.7688C106.042 41.6908 103.155 38.6867 103.155 34.9022Z" fill="black"/>
<path d="M117.512 28.3091H120.4V34.0833L125.784 28.3091H129.295L123.911 33.8882L129.529 41.4961H126.057L121.96 35.8779L120.439 37.4775V41.4961H117.551L117.512 28.3091Z" fill="black"/>
<path d="M135.967 28.3477H141.351C144.511 28.3477 146.383 30.2204 146.383 32.9124V32.9514C146.383 35.9945 144.004 37.5942 141.038 37.5942H138.815V41.5737H135.927L135.967 28.3477ZM141.155 35.0192C142.599 35.0192 143.457 34.1609 143.457 33.0294V32.9904C143.457 31.7029 142.56 31.0007 141.116 31.0007H138.854V35.0192H141.155Z" fill="#D91572"/>
<path d="M148.256 35.0199C148.256 31.2355 151.221 28.1533 155.318 28.1533C159.375 28.1533 162.301 31.1965 162.301 34.9809V35.0199C162.301 38.7653 159.336 41.8475 155.239 41.8475C151.182 41.8085 148.256 38.7653 148.256 35.0199ZM159.258 35.0589C159.258 32.7571 157.619 30.8844 155.279 30.8453C152.938 30.8453 151.299 32.679 151.299 34.9419V34.9809C151.299 37.2438 152.938 39.1165 155.279 39.1555C157.619 39.1555 159.258 37.3218 159.258 35.0589Z" fill="#D91572"/>
<path d="M165.15 28.4258H168.037L167.998 41.6518H165.111L165.15 28.4258Z" fill="#D91572"/>
<path d="M171.704 28.4653H174.396L180.56 36.6194L180.599 28.5043H183.448L183.409 41.7303H180.951L174.591 33.3032L174.552 41.6913H171.704V28.4653Z" fill="#D91572"/>
<path d="M190.041 31.1574H186.022V28.4653L196.946 28.5043V31.1964H192.928L192.889 41.7303H189.963L190.041 31.1574Z" fill="#D91572"/>
<path d="M51.4608 27.6848C49.7832 28.4651 47.7934 28.4261 46.1158 27.4507L41.395 33.6931C41.9802 34.3954 42.2923 35.2537 42.3313 36.112C42.3704 36.8923 42.1753 37.7116 41.7071 38.4139C40.5367 40.2476 38.0787 40.7548 36.245 39.5843C35.6208 39.1942 35.1526 38.609 34.8405 37.9847C34.2943 36.8923 34.2943 35.5658 34.9185 34.4344L31.1341 31.5863L29.9637 33.1469L25.594 29.8697L28.8713 25.539L33.2019 28.8163L32.0315 30.3768L35.8549 33.2639C37.0644 32.2495 38.781 32.0545 40.1855 32.7958L44.8673 26.5534C42.9946 24.7197 42.5264 21.7936 43.8919 19.4137C44.165 18.9455 44.4772 18.5554 44.8673 18.1652C42.3313 16.4096 39.2102 15.3952 35.8939 15.3952C27.0766 15.3562 19.8979 22.4959 19.8979 31.3522C19.8588 40.2086 27.0376 47.3873 35.8549 47.3873C44.7112 47.4263 51.89 40.2476 51.89 31.4302C51.89 30.1428 51.7339 28.8553 51.4608 27.6848Z" fill="url(#paint0_radial_180_20)"/>
<path opacity="0.85" d="M42.3309 36.1113C42.37 36.8916 42.1749 37.7109 41.7067 38.4132C40.5363 40.2469 38.0783 40.7541 36.2446 39.5836C35.6204 39.1935 35.1522 38.6082 34.8401 37.984C26.4129 37.3988 20.6387 27.6841 20.5607 31.3905C20.3656 38.6863 26.8031 46.3332 35.6594 46.3332C44.5158 46.3722 50.6801 38.9204 50.7191 31.4685C50.6801 28.7375 47.4419 33.3413 42.3309 36.1113Z" fill="url(#paint1_linear_180_20)"/>
<path d="M59.5365 18.282C57.4687 20.8569 53.6843 21.2861 51.1093 19.1793C48.5343 17.1115 48.1052 13.3271 50.212 10.7521C52.2797 8.17715 56.0642 7.74799 58.6392 9.85479C61.2141 11.9616 61.6043 15.707 59.5365 18.282Z" fill="black"/>
<path d="M43.9308 19.3752C44.0089 19.2192 44.1259 19.1021 44.2039 18.9851C41.3949 17.0734 37.5714 16.02 34.0211 16.5662C30.1976 17.0734 26.6473 19.2582 24.5795 21.6771C22.3947 24.018 21.5754 26.1638 21.5364 26.2808C35.1915 17.9317 37.9226 26.1248 43.7748 28.0755L44.9452 26.5149C43.0335 24.6812 42.5263 21.7551 43.9308 19.3752Z" fill="url(#paint2_linear_180_20)"/>
<path d="M45.335 28.4651C46.2323 28.5431 47.2467 28.5041 48.3781 28.192C47.5978 28.1139 46.8175 27.8798 46.1153 27.4507L45.335 28.4651Z" fill="url(#paint3_linear_180_20)"/>
<path d="M36.245 39.5843C34.5284 38.4529 33.9432 36.2291 34.9185 34.4344L31.1341 31.5863L29.9637 33.1469L25.594 29.8697L28.8713 25.539L33.2019 28.8163L32.0315 30.3768L35.8549 33.2639C37.0644 32.2495 38.781 32.0545 40.1855 32.7958L44.8673 26.5534C42.9946 24.7197 42.5264 21.7936 43.8919 19.4137C44.165 18.9455 44.4772 18.5554 44.8673 18.1652C42.3313 16.4096 39.2102 15.3952 35.8939 15.3952C27.0766 15.3562 19.8979 22.4959 19.8979 31.3522C19.8588 40.2086 27.0376 47.3873 35.8549 47.3873L36.245 39.5843Z" fill="url(#paint4_linear_180_20)"/>
<path d="M199.437 29.6973H199.156V28.3294H198.63V28.0488H199.963V28.3294H199.437V29.6973Z" fill="#D91572"/>
<path d="M201.191 29.3115L200.664 28.5399V29.6973H200.384V28.0488H200.699L201.191 28.8205L201.682 28.0488H201.997V29.6973H201.717V28.5048L201.191 29.3115Z" fill="#D91572"/>
<defs>
<radialGradient id="paint0_radial_180_20" cx="0" cy="0" r="1" gradientUnits="userSpaceOnUse" gradientTransform="translate(29.4685 28.9807) rotate(0.149368) scale(23.2952)">
<stop stop-color="#C40047"/>
<stop offset="0.8873" stop-color="#FF0070"/>
</radialGradient>
<linearGradient id="paint1_linear_180_20" x1="24.5984" y1="35.9087" x2="43.9138" y2="38.6954" gradientUnits="userSpaceOnUse">
<stop stop-color="#D02685" stop-opacity="0"/>
<stop offset="0.264" stop-color="#CC2579" stop-opacity="0.2652"/>
<stop offset="0.7339" stop-color="#C0215B" stop-opacity="0.7374"/>
<stop offset="0.9953" stop-color="#B81E47"/>
</linearGradient>
<linearGradient id="paint2_linear_180_20" x1="27.9471" y1="21.1555" x2="60.5562" y2="26.3561" gradientUnits="userSpaceOnUse">
<stop offset="0.00606061" stop-color="#D31C5B" stop-opacity="0"/>
<stop offset="0.0812751" stop-color="#D63069" stop-opacity="0.1249"/>
<stop offset="0.2354" stop-color="#DD648D" stop-opacity="0.3809"/>
<stop offset="0.4528" stop-color="#E8B6C7" stop-opacity="0.7419"/>
<stop offset="0.6082" stop-color="#F1F5F3"/>
</linearGradient>
<linearGradient id="paint3_linear_180_20" x1="28.4501" y1="37.7718" x2="51.9681" y2="25.3075" gradientUnits="userSpaceOnUse">
<stop offset="0.00606061" stop-color="#D31C5B" stop-opacity="0"/>
<stop offset="0.1874" stop-color="#D8225F" stop-opacity="0.3562"/>
<stop offset="0.436" stop-color="#E7346B" stop-opacity="0.8445"/>
<stop offset="0.5152" stop-color="#ED3B70"/>
<stop offset="0.6246" stop-color="#ED6892"/>
<stop offset="0.7393" stop-color="#ED91AF"/>
<stop offset="0.8442" stop-color="#EDAEC5"/>
<stop offset="0.9345" stop-color="#EDC0D2"/>
<stop offset="1" stop-color="#EDC6D7"/>
</linearGradient>
<linearGradient id="paint4_linear_180_20" x1="26.784" y1="12.3748" x2="35.7575" y2="34.6873" gradientUnits="userSpaceOnUse">
<stop stop-color="white" stop-opacity="0.8"/>
<stop offset="0.3966" stop-color="#FFD6FF" stop-opacity="0.4783"/>
<stop offset="0.9861" stop-color="#FF93FF" stop-opacity="0"/>
</linearGradient>
</defs>
</svg>
