<svg width="143" height="46" viewBox="0 0 143 46" fill="none" xmlns="http://www.w3.org/2000/svg">
<path d="M125.943 18.5131C125.988 19.3431 125.606 19.9263 124.911 20.33C124.148 20.7562 123.408 20.6889 122.713 20.173C121.21 19.0515 119.707 17.9299 118.226 16.7859C114.66 14.0718 111.116 11.3352 107.572 8.62103C107.258 8.37429 106.966 8.28456 106.607 8.55374C105.8 9.18181 104.97 9.80988 104.162 10.4155C103.826 10.6623 103.803 10.8417 104.162 11.1109C106.383 12.7708 108.603 14.4755 110.824 16.1579C111.138 16.4046 111.452 16.6513 111.744 16.9205C112.686 17.7953 112.798 18.8944 112.035 19.8366C111.362 20.6889 110.151 20.846 109.164 20.1057C107.078 18.558 104.992 16.9654 102.928 15.3952C100.147 13.2867 97.3655 11.1782 94.5616 9.04722C92.5653 7.54434 90.5689 6.04146 88.595 4.51615C87.6528 3.79835 87.4734 2.51978 88.1463 1.60011C88.7968 0.702869 90.0306 0.478558 90.9951 1.17392C92.969 2.60951 94.8757 4.08996 96.8272 5.54798C97.7917 6.26577 98.7562 6.98356 99.7208 7.72379C100.125 8.03782 100.461 8.01539 100.842 7.70136C102.345 6.55737 103.871 5.41339 105.373 4.26941C106.495 3.39459 107.527 3.39459 108.671 4.24697C112.619 7.25274 116.589 10.2585 120.537 13.2643C122.129 14.4755 123.722 15.7092 125.292 16.9429C125.808 17.3467 125.988 17.9075 125.943 18.5131Z" fill="#FBAB1A"/>
<path d="M52.3456 30.8726C52.3456 33.9905 52.3456 37.1084 52.3456 40.2488C52.3456 41.0787 52.3007 41.1011 51.4708 41.1011C50.9549 41.1011 50.439 41.0787 49.923 41.1011C49.3847 41.1236 48.9137 41.1011 48.7118 40.4506C48.5772 40.0469 48.2632 40.2936 48.0388 40.3833C47.0519 40.8095 46.0425 41.146 44.9658 41.303C44.1358 41.4152 43.3283 41.3703 42.4984 41.1909C41.2647 40.9217 40.4571 40.1366 40.0085 38.9702C39.6272 37.9832 39.515 36.929 39.4926 35.8747C39.4253 33.7213 39.3356 31.5455 39.6048 29.3921C40.0085 26.005 41.9152 24.5919 45.3022 25.1527C45.9752 25.2648 46.6481 25.4218 47.2986 25.691C47.994 25.9602 48.0164 25.9377 48.0164 25.22C48.0164 23.919 48.0388 22.6404 48.0164 21.3394C47.994 20.7786 48.1959 20.5319 48.7791 20.5543C49.6987 20.5992 50.6184 20.5992 51.5157 20.5543C52.1886 20.5094 52.3456 20.801 52.3456 21.4067C52.3232 24.5695 52.3456 27.7322 52.3456 30.8726ZM48.0388 33.2951C48.0388 32.3755 48.0388 31.4782 48.0388 30.5585C48.0388 28.8089 47.8594 28.6295 46.0873 28.5398C45.9527 28.5398 45.8182 28.5398 45.6836 28.5398C44.5396 28.5622 44.1134 28.9211 43.9115 30.0202C43.6423 31.5679 43.7994 33.1381 43.7769 34.6859C43.7545 35.3588 43.7994 36.0317 43.9564 36.6822C44.1583 37.4224 44.5396 37.7813 45.3247 37.8262C46.0425 37.8711 46.7378 37.8486 47.4556 37.6692C47.9042 37.557 48.0837 37.3327 48.0613 36.8841C48.0164 35.6953 48.0388 34.5064 48.0388 33.2951Z" fill="#313D49"/>
<path d="M78.9941 35.6058C78.9941 32.443 78.9941 29.2802 78.9941 26.1174C78.9941 25.6015 79.1512 25.3772 79.6895 25.3996C80.4073 25.4221 81.1251 25.3996 81.8204 25.3996C82.1345 25.3996 82.4036 25.4445 82.5158 25.781C82.6728 26.252 82.942 26.1623 83.3009 26.0277C84.4449 25.5118 85.6337 25.1529 86.9123 25.108C89.3348 25.0183 91.0396 25.7137 91.6228 28.5848C91.892 29.9756 91.8471 31.3887 91.8471 32.7795C91.8471 34.3048 91.9144 35.8076 91.7125 37.333C91.3088 40.3836 89.6489 41.6173 86.531 41.3481C85.6113 41.2808 84.7141 41.0789 83.8841 40.6976C83.3906 40.4733 83.256 40.6303 83.2785 41.1238C83.3009 42.4697 83.256 43.7931 83.3009 45.139C83.3233 45.7222 83.0766 45.924 82.5158 45.924C81.5737 45.9016 80.6316 45.9016 79.7119 45.924C79.2184 45.9465 79.0614 45.7446 79.0614 45.2511C79.0839 42.0435 79.0614 38.8358 79.0614 35.6282C79.0166 35.6058 79.0166 35.6058 78.9941 35.6058ZM83.256 33.1832C83.256 34.058 83.256 34.9104 83.256 35.7852C83.256 37.6694 83.4355 37.8489 85.387 37.8713C85.4543 37.8713 85.5216 37.8713 85.5889 37.8713C86.8899 37.8489 87.3385 37.4675 87.5179 36.1665C87.7422 34.4394 87.6525 32.7122 87.6077 30.9625C87.6077 30.5139 87.4955 30.0877 87.3834 29.6615C87.2263 28.9662 86.7328 28.6297 86.0375 28.5848C85.2973 28.5176 84.5795 28.6073 83.8617 28.7867C83.413 28.8989 83.256 29.1456 83.256 29.5942C83.256 30.7607 83.256 31.9719 83.256 33.1832Z" fill="#313D49"/>
<path d="M94.5835 33.6774C94.5835 32.0848 94.6732 30.8959 94.8302 29.7295C95.234 26.8808 96.6023 25.5125 99.4734 25.1536C100.909 24.9741 102.322 25.019 103.735 25.2882C105.687 25.6471 106.965 26.7686 107.392 28.7201C107.997 31.681 107.997 34.6419 107.392 37.6028C107.01 39.5319 105.754 40.6534 103.848 41.0796C102.232 41.4385 100.617 41.4609 99.0024 41.1693C96.5126 40.7207 95.234 39.3524 94.8527 36.7729C94.6956 35.6289 94.5835 34.4625 94.5835 33.6774ZM98.8678 33.2736C98.9575 34.3503 98.7781 35.4719 99.0473 36.571C99.2716 37.4682 99.6753 37.8047 100.595 37.8495C100.842 37.872 101.088 37.872 101.335 37.872C102.905 37.8495 103.444 37.3785 103.533 35.8083C103.623 34.126 103.623 32.4212 103.533 30.7165C103.444 29.0566 102.838 28.5182 101.156 28.5407C100.931 28.5407 100.707 28.5631 100.483 28.5855C99.6529 28.6528 99.2043 29.1014 99.0248 29.9089C98.8229 31.0081 98.9351 32.1296 98.8678 33.2736Z" fill="#313D49"/>
<path d="M36.8015 35.2009C36.8015 37.1524 36.7791 38.745 36.8015 40.3376C36.8015 40.876 36.6221 41.1227 36.0613 41.1003C35.4781 41.0779 34.8949 41.0779 34.3117 41.1003C33.7958 41.1227 33.3471 41.1003 33.1453 40.4722C33.0331 40.0685 32.7191 40.2704 32.4948 40.3825C31.5751 40.8311 30.5881 41.1452 29.5787 41.3022C28.7936 41.4143 28.031 41.3695 27.2459 41.19C25.3841 40.7414 24.4645 39.5301 24.2177 37.1973C24.128 36.3001 24.1728 35.4028 24.3523 34.528C24.6888 32.7559 25.8103 31.8363 27.8291 31.5671C29.1525 31.3877 30.4535 31.4549 31.7545 31.6568C32.2929 31.7241 32.5172 31.5895 32.4723 31.0512C32.4723 30.9615 32.4723 30.8717 32.4723 30.782C32.4499 29.0997 32.0013 28.6286 30.319 28.5613C28.9955 28.5165 27.6945 28.5838 26.3711 28.6735C25.5187 28.7184 25.4963 28.6735 25.4963 27.8435C25.4963 27.193 25.4963 26.5425 25.4963 25.9145C25.4963 25.5556 25.6309 25.3537 25.9898 25.3313C28.3002 25.1967 30.6106 24.8602 32.921 25.2864C35.3435 25.7126 36.5099 27.0809 36.6894 29.5259C36.8464 31.5222 36.7567 33.5635 36.8015 35.2009ZM32.6069 35.8963C32.6069 35.4701 32.6069 35.0439 32.6069 34.6177C32.6069 34.371 32.5172 34.1915 32.2256 34.1467C31.2835 34.0121 30.319 33.9224 29.3769 34.1467C28.9058 34.2588 28.5469 34.5504 28.4796 35.0439C28.1207 37.5786 28.6815 38.3188 31.1265 38.0721C31.1713 38.0721 31.2162 38.0497 31.2611 38.0497C32.6069 37.7805 32.6069 37.7805 32.6069 36.4346C32.6069 36.2328 32.6069 36.0757 32.6069 35.8963Z" fill="#313D49"/>
<path d="M117.868 33.2728C117.868 30.9848 117.868 28.6744 117.868 26.3864C117.868 25.3995 117.868 25.3995 118.877 25.3995C119.348 25.3995 119.819 25.4219 120.29 25.3995C120.829 25.3771 121.3 25.377 121.502 26.05C121.614 26.4313 121.905 26.1846 122.107 26.0948C123.184 25.6238 124.305 25.22 125.494 25.1303C128.724 24.8611 130.407 26.2519 130.631 29.4595C130.9 33.1158 130.698 36.772 130.766 40.4283C130.766 40.9666 130.519 41.1236 130.025 41.1236C129.083 41.1012 128.164 41.1012 127.221 41.1236C126.638 41.1461 126.459 40.8993 126.459 40.3386C126.481 37.4225 126.459 34.5065 126.459 31.5904C126.459 31.0072 126.459 30.424 126.302 29.8633C126.1 29.0557 125.696 28.6968 124.866 28.6071C124.081 28.5174 123.318 28.6744 122.556 28.8763C122.062 29.0109 122.085 29.3922 122.085 29.7735C122.085 32.9363 122.085 36.0991 122.085 39.2619C122.085 39.6432 122.062 40.0245 122.085 40.4059C122.13 40.9666 121.86 41.1461 121.344 41.1461C120.425 41.1236 119.528 41.1236 118.608 41.1461C118.047 41.1685 117.868 40.9442 117.868 40.4059C117.89 37.9833 117.868 35.628 117.868 33.2728Z" fill="#313D49"/>
<path d="M67.3521 32.5773C67.4418 33.6988 67.2623 34.7755 67.4418 35.8298C67.6885 37.1532 68.339 37.7813 69.7073 37.8486C71.3448 37.9159 72.9598 37.871 74.5749 37.6691C75.5394 37.5345 75.5843 37.557 75.6067 38.5664C75.6067 39.1271 75.6067 39.6879 75.6291 40.2487C75.6291 40.5852 75.517 40.8095 75.1581 40.8768C72.6234 41.2805 70.0886 41.6618 67.5315 41.1459C65.6024 40.7646 64.3687 39.5758 63.7631 37.7364C63.1575 35.8298 63.0902 33.8783 63.2247 31.9043C63.2696 31.0295 63.3593 30.1771 63.5612 29.3248C64.122 27.0368 65.5352 25.6461 67.8904 25.2423C69.2811 25.018 70.6494 24.9956 72.0177 25.3096C73.8122 25.7134 75.0459 26.7676 75.5618 28.5845C76.0777 30.4015 75.988 32.2408 75.8759 34.1026C75.8534 34.5288 75.6291 34.7082 75.1805 34.7082C73.3187 34.6858 71.4794 34.7082 69.6176 34.7082C69.2811 34.7082 69.0344 34.5736 68.8101 34.3045C68.3166 33.7213 67.8231 33.138 67.3521 32.5773ZM69.6625 32.1062C69.6625 32.1286 69.6625 32.1286 69.6625 32.1062C69.9765 32.1062 70.2905 32.1062 70.6046 32.1062C72.2645 32.1062 72.2869 32.0838 72.085 30.4239C71.8831 28.8761 71.5018 28.2256 69.4157 28.3378C69.2811 28.3378 69.1466 28.3827 69.012 28.3827C68.182 28.4275 67.711 28.8986 67.4866 29.6612C67.3072 30.2669 67.2623 30.8949 67.2175 31.5006C67.1951 31.9268 67.3521 32.1286 67.8007 32.1062C68.4063 32.1062 69.0344 32.1062 69.6625 32.1062Z" fill="#313D49"/>
<path d="M139.042 26.0726C139.042 26.2969 139.042 26.5212 139.042 26.7231C139.042 29.7288 139.042 32.7346 139.042 35.7403C139.042 36.0992 139.042 36.4581 139.087 36.817C139.177 37.5573 139.468 37.8489 140.209 37.8489C140.904 37.8713 141.599 37.8937 142.272 37.7591C142.721 37.6694 142.945 37.8264 142.945 38.2975C142.945 38.9928 142.945 39.6882 142.968 40.3611C142.968 40.72 142.855 40.9443 142.474 41.0116C140.837 41.2808 139.222 41.5276 137.562 41.2135C136.216 40.9443 135.319 40.1817 135.004 38.791C134.847 38.0732 134.735 37.3554 134.735 36.6152C134.735 34.2599 134.713 31.8822 134.735 29.5269C134.735 28.854 134.578 28.6073 133.883 28.6521C132.896 28.697 132.874 28.6521 132.874 27.6652C132.874 27.1044 132.874 26.5436 132.874 25.9828C132.874 25.5566 133.053 25.3548 133.479 25.3996C133.502 25.3996 133.524 25.3996 133.546 25.3996C135.162 25.3323 135.162 25.3323 135.565 23.7173C135.947 22.1247 135.633 22.3266 137.315 22.3266C139.244 22.3266 139.02 22.0125 139.02 24.0089C139.042 25.5567 138.885 25.3772 140.366 25.3772C140.994 25.3772 141.622 25.3772 142.227 25.3772C142.586 25.3772 142.766 25.5342 142.766 25.8931C142.766 26.6333 142.766 27.3736 142.766 28.0914C142.766 28.4503 142.586 28.5848 142.227 28.6297C141.308 28.7419 140.59 28.6073 140.164 27.6203C139.917 27.0371 139.513 26.5212 139.154 25.9828C139.154 26.0277 139.109 26.0501 139.042 26.0726Z" fill="#313D49"/>
<path d="M5.21858 33.2724C5.26344 34.3267 5.17371 35.3585 5.35316 36.3679C5.5326 37.3549 6.00366 37.8035 7.03549 37.8484C8.15704 37.8708 9.25616 37.9381 10.3777 37.7587C10.8936 37.6689 11.1404 37.8484 11.1179 38.3867C11.0955 39.0597 11.1179 39.7326 11.1404 40.3831C11.1628 40.7869 11.0058 41.0112 10.602 41.0785C8.47108 41.3701 6.34013 41.5495 4.20918 41.0785C2.23525 40.6523 1.29314 39.5307 0.979101 37.0857C0.642636 34.4837 0.642644 31.8817 1.00154 29.2797C1.38287 26.4758 2.639 25.3767 5.44289 25.13C7.10278 24.973 8.74025 25.13 10.3777 25.287C10.9609 25.3543 11.2077 25.5786 11.1404 26.1842C11.0955 26.745 11.1179 27.3058 11.1179 27.8666C11.0955 28.6292 11.0058 28.7414 10.2656 28.6517C9.2786 28.5171 8.31407 28.5395 7.3271 28.5619C6.00367 28.5844 5.55504 29.0105 5.33073 30.3116C5.17371 31.2985 5.26344 32.3079 5.21858 33.2724Z" fill="#313D49"/>
<path d="M60.1071 30.8729C60.1071 33.9459 60.1071 37.019 60.1071 40.092C60.1071 41.079 60.1071 41.079 59.0977 41.079C58.2902 41.079 57.4827 41.079 56.6976 41.079C55.8901 41.079 55.8228 41.0117 55.8228 40.2042C55.8228 36.9741 55.8228 33.7441 55.8228 30.514C55.8228 27.4858 55.8452 24.4576 55.8228 21.407C55.8228 20.7789 56.0022 20.5097 56.6527 20.5546C57.5499 20.5995 58.4472 20.5995 59.322 20.5546C59.9276 20.5322 60.1295 20.7565 60.1295 21.3621C60.0847 24.5473 60.1071 27.7101 60.1071 30.8729Z" fill="#313D49"/>
<path d="M83.2336 5.8843C83.7271 5.83944 84.1308 6.10861 84.5346 6.42265C88.46 9.42841 92.3854 12.4342 96.3333 15.4175C96.9614 15.8886 97.5895 16.3372 98.1951 16.8307C99.1372 17.5933 99.3166 18.827 98.6661 19.7691C98.0381 20.6664 96.8941 20.9355 95.8847 20.2402C94.4715 19.2756 93.1257 18.199 91.7574 17.1671C88.9535 15.0362 86.1496 12.9052 83.3457 10.7743C82.8298 10.3929 82.3139 9.98919 81.8204 9.58543C81.1251 9.00222 80.9008 8.08255 81.2148 7.23017C81.5064 6.40022 82.2915 5.8843 83.2336 5.8843Z" fill="#FBAB1A"/>
<path d="M14.2583 33.2275C14.2583 30.8947 14.2807 28.5394 14.2583 26.2066C14.2583 25.6009 14.4378 25.3542 15.0658 25.3991C15.6939 25.4439 16.322 25.4215 16.9276 25.3991C17.3987 25.3766 17.7127 25.4888 17.8248 25.9823C17.9146 26.4533 18.1389 26.4084 18.4753 26.1617C19.7539 25.242 21.1671 24.928 22.7148 25.1299C23.0513 25.1747 23.2756 25.2645 23.2756 25.6458C23.2532 26.4757 23.2307 27.2833 23.2083 28.1132C23.2083 28.5394 22.984 28.674 22.5578 28.674C21.8176 28.6516 21.0773 28.6067 20.3595 28.7413C20.1577 28.7861 19.9558 28.831 19.7763 28.8759C18.6548 29.2572 18.5875 29.3469 18.5875 30.5358C18.5875 33.7434 18.5875 36.951 18.5875 40.1811C18.5875 41.0559 18.5651 41.0784 17.6902 41.0784C16.793 41.0784 15.8958 41.0559 15.021 41.0784C14.4378 41.1008 14.2583 40.854 14.2583 40.2933C14.2807 37.938 14.2583 35.5827 14.2583 33.2275Z" fill="#313D49"/>
<path d="M114.816 33.2274C114.816 35.5603 114.794 37.9155 114.816 40.2483C114.816 40.8764 114.592 41.1232 113.964 41.1007C113.022 41.0559 112.102 41.0783 111.16 41.1007C110.667 41.1007 110.487 40.8988 110.487 40.4278C110.51 36.6369 110.487 32.8461 110.487 29.0553C110.487 28.7188 110.599 28.472 110.869 28.2477C111.968 27.4178 113.067 26.5654 114.166 25.7355C114.301 25.6233 114.458 25.4439 114.637 25.5336C114.861 25.6233 114.794 25.87 114.794 26.0719C114.816 28.472 114.816 30.8497 114.816 33.2274Z" fill="#313D49"/>
<path d="M85.544 18.4682C85.5888 19.3654 85.1851 19.9935 84.4224 20.3972C83.6598 20.801 82.9195 20.6664 82.2915 20.1729C79.9138 18.4009 77.5585 16.6064 75.2257 14.7895C73.8125 13.6903 74.1041 11.8061 75.7192 11.1332C76.4594 10.8192 77.1099 11.0435 77.7155 11.4921C79.4427 12.8155 81.1923 14.139 82.9195 15.4624C83.5476 15.9334 84.1532 16.4045 84.7813 16.8756C85.3197 17.2793 85.5888 17.8177 85.544 18.4682Z" fill="#FBAB1A"/>
<path d="M72.96 18.536C73.0049 19.2987 72.6684 19.9268 71.9506 20.3081C71.1655 20.7343 70.4029 20.667 69.6851 20.1735C69.3935 19.9716 69.1019 19.7697 68.8327 19.5454C68.0027 18.8725 67.8233 17.5266 68.4514 16.6518C69.0794 15.7546 70.201 15.5303 71.1655 16.1359C71.5693 16.3826 71.9282 16.6742 72.2871 16.9659C72.803 17.4145 72.96 17.7958 72.96 18.536Z" fill="#FBAB1A"/>
</svg>
