<svg width="106" height="52" viewBox="0 0 106 52" fill="none" xmlns="http://www.w3.org/2000/svg">
<path d="M0 51.7371C0 47.1143 0 42.4916 0 37.7895C15.1599 37.7895 30.2858 37.7895 45.4117 37.7895C44.29 37.2343 43.157 36.7585 42.092 36.1466C37.7071 33.6087 34.8972 29.8583 33.6962 24.9637C32.5179 20.171 32.7445 15.4462 34.7499 10.8801C36.7214 6.40468 40.0865 3.35683 44.6073 1.55532C47.6778 0.331651 50.8956 -0.0535787 54.17 0.127706C57.6484 0.33165 60.8209 1.41936 63.5628 3.64009C63.9141 3.92335 64.254 4.21793 64.5599 4.67114C62.7584 6.66527 60.9569 8.6594 59.1893 10.6082C58.8834 10.5742 58.7928 10.3929 58.6568 10.257C57.0479 8.60275 55.0651 7.82096 52.7764 7.71899C49.5473 7.56036 46.794 8.61408 44.6073 10.9934C42.9984 12.7383 42.1146 14.8571 41.752 17.1798C41.3328 19.8424 41.5821 22.471 42.7151 24.941C44.2787 28.3401 46.8167 30.5948 50.6123 31.0707C53.9434 31.5012 56.81 30.5268 58.9627 27.8302C59.0987 27.6603 59.2007 27.445 59.5179 27.2977C61.6027 29.1219 63.7894 30.9007 65.7836 32.9742C64.05 35.1949 61.9086 36.7018 59.3706 37.6989C63.7328 37.6989 68.0949 37.6989 72.5704 37.6989C71.494 37.223 70.4969 36.7811 69.5792 36.1806C68.6614 35.5801 67.789 34.9456 66.9506 34.1072C68.888 31.9658 70.8029 29.8697 72.6837 27.7962C73.0123 27.8529 73.1029 28.0795 73.2502 28.2381C75.7542 30.8667 78.768 31.7165 82.2804 30.8214C83.0056 30.6401 83.6627 30.3229 84.2292 29.813C85.9061 28.2948 85.7362 25.9607 83.8667 24.6804C82.2804 23.5927 80.4676 23.0602 78.6661 22.4823C76.7852 21.8705 74.8704 21.3493 73.1256 20.3522C68.8087 17.8936 67.7777 14.7211 68.2422 10.6309C68.7974 5.79284 71.6526 2.67702 76.1281 1.1361C81.4307 -0.688071 86.6426 -0.314174 91.5939 2.47307C92.2964 2.86963 92.9309 3.37949 93.5767 3.99133C91.6959 6.04211 89.8377 8.07022 87.9342 10.155C86.9938 9.01064 85.8155 8.41013 84.5012 8.05889C82.541 7.52637 80.6149 7.54904 78.7567 8.44413C76.9325 9.30523 76.2414 11.0841 77.0118 12.8176C77.2724 13.3955 77.737 13.7694 78.2468 14.0979C79.7991 15.0837 81.5553 15.5595 83.2888 16.0807C85.2603 16.6699 87.2431 17.2138 89.0333 18.2901C91.9791 20.0803 93.5314 22.641 93.6107 26.1193C93.6787 29.0312 93.0442 31.7052 91.1973 34.0165C89.985 35.5348 88.4441 36.6452 86.6652 37.4156C86.5066 37.4836 86.3593 37.5516 86.0534 37.6876C89.8264 37.6876 93.4407 37.6876 97.1684 37.6876C97.1684 25.1789 97.1684 12.7043 97.1684 0.161698C99.9443 0.161698 102.607 0.161698 105.27 0.161698C105.451 0.376974 105.394 0.614909 105.394 0.841515C105.394 10.1663 105.394 19.5025 105.406 28.8273C105.406 29.2352 105.27 29.5411 104.986 29.8243C101.882 33.0761 98.7886 36.3279 95.6955 39.591C92.0018 43.4773 88.3195 47.3749 84.6485 51.2839C84.2746 51.6804 83.8893 51.8617 83.3228 51.8617C55.8242 51.8504 28.337 51.8504 0.83844 51.8504C0.577844 51.8504 0.317248 51.8957 0 51.7371ZM20.2472 41.2113C20.2472 43.7606 20.2472 46.2192 20.2472 48.6666C20.5758 48.7686 20.8477 48.8139 21.131 48.6099C21.2896 47.7148 21.0516 46.7858 21.2669 45.9133C21.7088 45.732 21.8334 45.97 21.9354 46.2646C22.23 47.0803 22.4566 47.9075 22.8418 48.7006C23.1704 48.7572 23.4537 48.7912 23.7936 48.6779C23.7029 48.1454 23.431 47.6809 23.261 47.1937C23.0911 46.6951 22.7965 46.2532 22.7285 45.732C23.8955 44.769 23.7256 43.6359 23.601 42.5596C23.533 41.9251 23.1251 41.4605 22.4679 41.2793C21.7428 41.0866 21.0177 41.1546 20.2472 41.2113ZM69.7378 48.6892C70.4403 48.7799 71.0861 48.7799 71.7433 48.6892C72.5251 48.5759 73.0236 48.0887 73.1482 47.3409C73.3975 45.732 73.4088 44.1118 73.1369 42.5029C73.0349 41.9364 72.695 41.4945 72.1285 41.3132C71.358 41.0753 70.5763 41.1546 69.7491 41.2339C69.7378 43.7379 69.7378 46.1853 69.7378 48.6892ZM14.1288 44.9163C14.1288 44.2591 14.1628 43.5906 14.1175 42.9448C14.0382 41.6645 13.4037 41.0526 12.248 41.0753C11.2736 41.098 10.7184 41.5965 10.5598 42.6276C10.3445 44.0098 10.4465 45.4035 10.4918 46.7971C10.5032 47.1483 10.6165 47.4996 10.7524 47.8281C10.9677 48.372 11.3756 48.7006 11.9874 48.7686C13.2677 48.9045 14.0269 48.27 14.1288 46.8877C14.1628 46.2419 14.1288 45.5734 14.1288 44.9163ZM37.6052 45.766C37.6731 45.6754 37.7071 45.6187 37.7411 45.5848C38.5909 44.769 38.8742 43.0468 38.319 42.027C38.149 41.7211 37.9111 41.4719 37.5825 41.3472C36.8007 41.0526 36.0076 41.1433 35.1692 41.2226C35.1692 43.7379 35.1692 46.1853 35.1692 48.6326C35.4977 48.7686 35.7583 48.7912 36.1209 48.5759C36.1209 47.7148 36.1209 46.7971 36.1209 45.9247C36.6421 45.6981 36.7441 45.9926 36.846 46.2872C37.1293 47.0803 37.4125 47.8735 37.6958 48.6779C38.047 48.7232 38.3416 48.8025 38.7042 48.5986C38.353 47.6695 37.9791 46.7291 37.6052 45.766ZM15.4432 41.2906C15.4318 41.4832 15.4092 41.6645 15.4092 41.8571C15.4092 43.3867 15.3978 44.9163 15.4092 46.4459C15.4092 46.8424 15.4545 47.239 15.5565 47.6242C15.7151 48.2247 16.0663 48.6553 16.7348 48.7686C17.9925 48.9725 18.6723 48.4966 18.8876 47.2163C18.9329 46.9557 18.9669 46.6951 18.9669 46.4345C18.9782 44.9049 18.9782 43.3754 18.9669 41.8458C18.9669 41.6418 19.0122 41.4265 18.8422 41.2339C18.559 41.1433 18.2757 41.1206 17.9925 41.2566C17.8565 41.4832 17.9018 41.7098 17.9018 41.9364C17.9018 43.5566 17.9018 45.1769 17.9018 46.8084C17.9018 47.0917 17.9132 47.3749 17.7999 47.6469C17.6752 47.9414 17.4713 48.1001 17.1427 48.0887C16.8254 48.0774 16.6215 47.8961 16.5195 47.6015C16.4742 47.4769 16.4629 47.3409 16.4516 47.2163C16.2929 45.4828 16.4176 43.7492 16.3722 42.0157C16.3609 41.7551 16.4402 41.4832 16.2476 41.2566C16.021 41.1433 15.7717 41.132 15.4432 41.2906ZM77.7257 43.432C78.2582 41.9024 77.4197 40.86 75.8562 41.0866C75.097 41.1999 74.5872 41.6758 74.4625 42.5822C74.2359 44.1571 74.2586 45.732 74.4512 47.3183C74.4965 47.6582 74.6325 47.9754 74.8251 48.2587C75.2896 48.9045 76.2527 49.0292 76.8192 48.5193C76.9439 48.4173 76.9892 48.2134 77.2045 48.202C77.2838 48.3607 77.3631 48.5306 77.4311 48.6779C77.6237 48.7799 77.7823 48.7799 77.9523 48.6326C77.9523 47.4429 77.9523 46.2306 77.9523 45.0069C77.4311 44.9503 76.9779 44.8936 76.5473 45.0296C76.4453 45.2222 76.4453 45.3581 76.5473 45.4941C76.6719 45.6187 76.8872 45.5848 77.0118 45.8453C77.0118 46.4005 77.1478 47.0464 76.8532 47.6582C76.7059 47.9528 76.4793 48.1341 76.1394 48.1001C75.7995 48.0661 75.5842 47.8621 75.5049 47.5449C75.4483 47.3069 75.4256 47.0577 75.4143 46.8198C75.403 45.8227 75.403 44.8256 75.4143 43.8172C75.4143 43.3867 75.4143 42.9448 75.4823 42.5256C75.5389 42.1404 75.7882 41.8684 76.2074 41.8571C76.6153 41.8458 76.7966 42.129 76.9099 42.4803C77.0118 42.7975 76.9439 43.1601 77.1252 43.466C77.3291 43.5113 77.5104 43.534 77.7257 43.432ZM53.8528 41.2226C53.6602 41.4379 53.7168 41.6758 53.7168 41.8911C53.7168 43.5113 53.7168 45.1315 53.7168 46.7518C53.7168 47.069 53.7055 47.3976 53.5582 47.6922C53.4222 47.9528 53.2183 48.0887 52.9237 48.0774C52.6178 48.0774 52.4365 47.9075 52.3232 47.6355C52.2099 47.3636 52.1986 47.0917 52.1986 46.7971C52.1986 45.1769 52.1986 43.5566 52.1986 41.9364C52.1986 41.6985 52.2552 41.4379 52.0739 41.2226C51.802 41.132 51.5301 41.098 51.2808 41.2793C51.1788 41.4832 51.2015 41.6871 51.2015 41.8911C51.2015 43.3754 51.2015 44.8709 51.2015 46.3552C51.2015 46.6725 51.2128 47.001 51.2695 47.307C51.4734 48.3833 52.0173 48.8252 53.003 48.7799C54.0227 48.7232 54.5439 48.2134 54.6685 47.1483C54.6912 46.9217 54.7025 46.6951 54.7025 46.4685C54.7025 44.9276 54.7025 43.3754 54.7025 41.8344C54.7025 41.6305 54.7365 41.4152 54.5892 41.2453C54.2493 41.1659 54.2493 41.1659 53.8528 41.2226ZM39.622 41.2679C39.622 43.7606 39.622 46.2192 39.622 48.7006C39.9619 48.7572 40.2565 48.8139 40.5624 48.6553C40.7437 47.9414 40.5057 47.1936 40.7323 46.4119C41.6954 46.3892 42.5225 46.0946 42.8171 45.0522C43.0777 44.1685 43.1117 43.2734 42.8511 42.3783C42.5338 41.2793 41.4575 40.962 39.622 41.2679ZM59.3933 48.6666C58.9287 46.1853 58.4755 43.7266 58.0223 41.2793C57.5804 41.1206 57.2065 41.1093 56.776 41.2793C56.2435 43.7039 55.8469 46.1739 55.4164 48.6213C55.7676 48.7912 56.0508 48.7912 56.3001 48.6553C56.5834 48.2814 56.3908 47.7942 56.6967 47.4316C57.1499 47.3409 57.6031 47.3409 58.0563 47.4316C58.3509 47.8055 58.1809 48.3153 58.4529 48.6666C58.8721 48.7572 58.8721 48.7572 59.3933 48.6666ZM27.034 41.2793C27.034 43.7606 27.034 46.2192 27.034 48.7006C27.3626 48.7459 27.6345 48.8139 27.9065 48.6326C28.1104 47.9188 27.8271 47.171 28.0991 46.4232C29.0508 46.3892 29.8779 46.1173 30.2065 45.1202C30.4898 44.2365 30.5237 43.33 30.2745 42.4463C29.9572 41.3132 28.6089 40.8374 27.034 41.2793ZM32.3932 47.8848C32.3479 46.9897 32.3253 46.1173 32.4046 45.2902C32.7898 45.0296 33.2203 45.2675 33.5603 45.0069C33.6169 44.8143 33.6736 44.6217 33.5036 44.4404C33.1637 44.2591 32.7445 44.497 32.3706 44.2025C32.3366 43.466 32.3026 42.7069 32.3932 41.9817C32.9031 41.7211 33.4356 41.9931 33.9002 41.7325C33.9568 41.5512 34.0475 41.3812 33.8435 41.1659C33.0391 41.1659 32.2006 41.098 31.3395 41.2113C31.3395 43.7266 31.3395 46.1966 31.3395 48.7006C32.2573 48.7459 33.107 48.7799 33.9455 48.6892C34.0928 48.44 34.0928 48.2474 33.9455 48.0321C33.4923 47.8961 32.9598 48.0887 32.3932 47.8848ZM5.75578 41.2339C6.32229 43.7379 7.59128 46.038 7.24004 48.6326C7.64793 48.7686 7.91986 48.8025 8.28243 48.5646C7.86321 45.9926 9.20018 43.7039 9.7327 41.1886C9.38146 41.1659 9.10954 41.1206 8.78096 41.2679C8.47504 42.4009 8.15779 43.568 7.85188 44.735C7.7839 44.735 7.71591 44.735 7.64793 44.735C7.34201 43.568 7.0361 42.3896 6.73018 41.2113C6.37894 41.166 6.10702 41.1206 5.75578 41.2339ZM44.9245 44.2591C44.7999 43.5113 44.8112 42.7409 44.9245 41.9817C45.4457 41.7211 45.9896 41.9817 46.4428 41.7664C46.5674 41.5625 46.5674 41.3926 46.3748 41.1999C45.593 41.1659 44.7772 41.1206 43.9048 41.2339C43.9048 43.7379 43.9048 46.1853 43.9048 48.7232C44.8225 48.7572 45.695 48.8139 46.5447 48.7006C46.6581 48.44 46.6807 48.2474 46.5334 48.0547C46.0349 47.8848 45.491 48.1114 44.9019 47.8735C44.8452 47.001 44.8225 46.1286 44.9132 45.3015C45.3551 45.0182 45.7969 45.2788 46.1369 45.0182C46.2162 44.8143 46.2275 44.6443 46.0915 44.4631C45.7403 44.2704 45.3211 44.4744 44.9245 44.2591ZM65.9535 48.7346C66.8486 48.7232 67.6984 48.8139 68.5255 48.6892C68.6614 48.44 68.6728 48.2474 68.5141 48.0434C68.0269 47.8735 67.4718 48.1227 66.9506 47.8395C66.9053 46.9784 66.8939 46.1173 66.9506 45.3015C67.3245 45.0182 67.755 45.2335 68.0723 45.0409C68.2082 44.837 68.2196 44.6443 68.0723 44.4291C67.7437 44.2591 67.3245 44.4744 66.9506 44.2251C66.8939 43.4773 66.8713 42.7182 66.9619 41.9931C67.4944 41.7098 68.0383 41.9704 68.5255 41.7551C68.6161 41.5738 68.6501 41.4039 68.4575 41.1999C67.653 41.1999 66.8146 41.1999 65.9422 41.1999C65.9535 43.7153 65.9535 46.1739 65.9535 48.7346ZM79.2552 41.2113C79.2552 43.7493 79.2552 46.2079 79.2552 48.6439C80.5809 48.9838 81.306 48.8025 81.7366 48.0321C81.2607 47.8961 80.7622 48.1001 80.241 47.8735C80.173 47.001 80.1503 46.1399 80.2523 45.3128C80.6602 45.0069 81.1361 45.3015 81.4986 45.0069C81.544 44.8256 81.5893 44.6443 81.4533 44.4631C81.1021 44.2704 80.6715 44.5084 80.2636 44.2591C80.1503 43.5226 80.1843 42.7635 80.2523 42.0157C80.7735 41.7325 81.34 42.0157 81.8159 41.7778C81.9179 41.5965 81.9745 41.4265 81.8272 41.2339C80.9888 41.2113 80.1503 41.2113 79.2552 41.2113ZM47.1453 41.2113C47.032 41.4492 47.0206 41.6192 47.1566 41.7778C47.4965 41.9704 47.9497 41.7211 48.3803 42.095C48.3803 44.2251 48.3803 46.4459 48.3803 48.6213C48.7542 48.7799 49.0147 48.7912 49.3773 48.5986C49.3773 46.4232 49.3773 44.2025 49.3773 42.0724C49.7852 41.7325 50.2271 41.9817 50.533 41.7551C50.635 41.5738 50.635 41.4152 50.4764 41.2226C49.3886 41.2113 48.2783 41.2113 47.1453 41.2113ZM61.3534 47.8281C61.3534 45.6414 61.3534 43.4547 61.3534 41.2793C60.9908 41.132 60.7303 41.1093 60.4243 41.2906C60.4243 43.7379 60.4243 46.1853 60.4243 48.6892C61.2741 48.7799 62.0786 48.7799 62.8377 48.7006C62.9736 48.4513 62.985 48.2587 62.849 48.0661C62.4185 47.8735 61.9199 48.1114 61.3534 47.8281Z" fill="#190A87"/>
<path d="M21.199 41.9364C22.0261 41.7551 22.502 42.027 22.6153 42.7295C22.6946 43.2507 22.7059 43.7832 22.5813 44.3044C22.4226 44.9729 22.0374 45.1995 21.2103 45.0522C21.1537 44.0212 21.165 42.9675 21.199 41.9364Z" fill="#190A87"/>
<path d="M70.7346 47.975C70.7346 45.9695 70.7346 43.9527 70.7346 41.9473C71.5504 41.6867 72.0716 41.9813 72.1622 42.7517C72.3322 44.2133 72.3209 45.6863 72.1622 47.1479C72.0829 47.9297 71.5731 48.2242 70.7346 47.975Z" fill="#190A87"/>
<path d="M13.1319 44.9959C13.1319 45.5624 13.1319 46.1289 13.1319 46.6954C13.1319 47.024 13.0866 47.3299 12.9733 47.6359C12.86 47.9191 12.6447 48.0891 12.3274 48.0891C12.0102 48.0891 11.7949 47.9305 11.6703 47.6472C11.5683 47.4206 11.5457 47.1713 11.5457 46.9334C11.5457 45.6531 11.5457 44.3727 11.5457 43.0924C11.5457 42.2766 11.8289 41.8574 12.3274 41.8574C12.8146 41.8574 13.0866 42.2766 13.1319 43.0924C13.1319 43.1264 13.1319 43.1717 13.1319 43.2057C13.1319 43.7836 13.1319 44.3841 13.1319 44.9959Z" fill="#190A87"/>
<path d="M36.1324 45.0177C36.0758 43.9753 36.0871 42.9556 36.1211 41.9585C36.8916 41.7206 37.3788 41.9925 37.5261 42.6836C37.6507 43.2615 37.6054 43.8393 37.4694 44.4172C37.3334 44.995 36.8576 45.2216 36.1324 45.0177Z" fill="#190A87"/>
<path d="M40.687 45.6066C40.687 44.3943 40.687 43.1706 40.687 41.9583C41.3895 41.777 41.8654 42.0716 41.9107 42.7401C41.956 43.3746 41.956 44.0204 41.8993 44.6549C41.8427 45.3687 41.4121 45.6859 40.687 45.6066Z" fill="#190A87"/>
<path d="M56.7419 46.5137C56.9346 45.2334 57.1158 43.9871 57.2971 42.7407C57.3651 42.7407 57.4218 42.7407 57.4897 42.7521C57.7163 43.9984 57.8976 45.256 58.0223 46.525C57.5577 46.661 57.2065 46.6723 56.7419 46.5137Z" fill="#190A87"/>
<path d="M28.0193 45.5957C27.9286 44.3721 27.9399 43.1371 28.0079 41.9134C28.7217 41.8001 29.1183 42.004 29.2429 42.5706C29.4242 43.3523 29.4242 44.1455 29.1976 44.9159C29.0503 45.4711 28.6764 45.6864 28.0193 45.5957Z" fill="#190A87"/>
</svg>
