<svg width="140" height="35" viewBox="0 0 140 35" fill="none" xmlns="http://www.w3.org/2000/svg">
<path d="M0 17.3848C0.688484 16.6748 1.39848 15.9648 2.08697 15.2333C2.92606 14.3727 3.78666 13.4905 4.62575 12.6299C5.74453 11.4896 6.86332 10.3278 7.96059 9.18752C9.38059 7.70297 10.7791 6.19692 12.2636 4.75541C13.7051 3.37844 15.3833 2.34571 17.2121 1.59268C18.3309 1.14087 19.4712 0.818139 20.6545 0.624503C21.9024 0.409352 23.1718 0.387837 24.4412 0.473898C26.313 0.602989 28.0987 1.07632 29.8199 1.82935C31.3475 2.49632 32.746 3.39995 33.9939 4.51874C35.7151 6.06783 37.0705 7.89661 38.0817 9.98358C38.4905 10.8442 38.8348 11.7263 39.093 12.6514C39.1145 12.759 39.179 12.8666 39.1145 12.9742C39.0069 12.9527 38.9854 12.8451 38.9639 12.7805C38.0387 11.0593 36.7263 9.70388 34.9836 8.80025C33.413 7.98267 31.7348 7.65995 29.9705 7.83207C28.3784 7.98267 26.9369 8.52055 25.6245 9.40267C24.8715 9.91903 24.226 10.5645 23.5806 11.2099C22.5909 12.2427 21.6012 13.2539 20.6115 14.2651C19.6433 15.2763 18.6751 16.266 17.7069 17.2772C17.5563 17.4278 17.5778 17.5139 17.7069 17.6645C19.0624 19.063 20.4178 20.4399 21.7733 21.8384C22.7845 22.8926 23.7527 23.9899 24.85 24.9581C26.2915 26.206 27.9696 26.916 29.863 27.1096C32.1436 27.3248 34.1875 26.7438 36.0593 25.4529C37.2857 24.5923 38.2539 23.4951 38.9639 22.1826C39.0069 22.1181 39.0069 22.0105 39.136 21.9675C39.0929 22.3117 39.0069 22.6129 38.8993 22.8926C38.2754 24.786 37.4148 26.5502 36.1454 28.1208C33.7572 31.0899 30.7881 33.1769 27.0445 34.102C25.4309 34.4893 23.8172 34.6399 22.1821 34.5323C19.6003 34.3817 17.2121 33.5857 14.996 32.2732C13.3824 31.3051 12.0269 30.0357 10.736 28.6587C9.89694 27.7551 9.01483 26.8945 8.17574 26.0123C6.6912 24.4632 5.20665 22.9357 3.72211 21.3866C2.53878 20.1602 1.37696 18.9339 0.193628 17.729C0.129083 17.6645 0.0645453 17.6214 0 17.5569C0 17.4708 0 17.4278 0 17.3848Z" fill="#F837A1"/>
<path d="M139.225 26.6144C139.096 26.679 138.967 26.6574 138.838 26.6574C137.784 26.6574 136.729 26.7005 135.675 26.6144C134.341 26.4853 133.158 26.0335 132.104 25.1944C130.576 23.9681 129.672 22.3759 129.436 20.4396C129.393 20.1599 129.414 19.8802 129.414 19.579C129.414 16.8466 129.414 14.1141 129.414 11.4032C129.414 11.016 129.414 11.016 129.027 11.016C128.08 11.016 127.155 11.016 126.209 11.016C125.886 11.016 125.864 10.9944 125.864 10.6502C125.864 9.14415 125.864 7.61658 125.864 6.11052C125.864 5.76628 125.886 5.74476 126.23 5.74476C127.155 5.74476 128.08 5.74476 129.027 5.74476C129.414 5.74476 129.414 5.74476 129.414 5.35749C129.414 4.32476 129.414 3.31355 129.414 2.28083C129.414 2.04416 129.5 1.93659 129.715 1.87204C131.243 1.42022 132.749 0.968407 134.255 0.495075C134.621 0.387499 134.621 0.409015 134.621 0.774772C134.621 2.28083 134.621 3.78689 134.621 5.29294C134.621 5.72325 134.621 5.72325 135.051 5.72325C136.299 5.72325 137.568 5.72325 138.816 5.72325C138.945 5.72325 139.096 5.70173 139.225 5.76628C139.225 7.48749 139.225 9.20869 139.225 10.9299C139.096 10.9944 138.945 10.9729 138.816 10.9729C137.525 10.9729 136.235 10.9729 134.944 10.9729C134.707 10.9729 134.621 11.059 134.621 11.2957C134.621 14.0711 134.621 16.825 134.621 19.6005C134.621 20.6117 135.374 21.3432 136.385 21.3647C137.203 21.3647 138.02 21.3647 138.838 21.3647C138.967 21.3647 139.096 21.3647 139.225 21.4078C139.225 23.172 139.225 24.8932 139.225 26.6144Z" fill="#F837A1"/>
<path d="M117.946 18.5676C115.536 18.5676 113.148 18.5676 110.739 18.5676C110.631 18.5676 110.48 18.503 110.437 18.6321C110.394 18.7397 110.502 18.8258 110.566 18.9333C111.492 20.3103 112.782 21.1494 114.418 21.3645C116.376 21.6012 118.032 20.9773 119.323 19.4712C119.452 19.3206 119.538 19.3206 119.689 19.4282C120.937 20.4179 122.185 21.3861 123.432 22.3542C123.583 22.4618 123.583 22.5479 123.475 22.6985C122.658 23.7097 121.668 24.5703 120.528 25.2157C119.129 26.0333 117.602 26.5067 115.988 26.6142C114.202 26.7433 112.481 26.4636 110.846 25.7321C109.62 25.1942 108.522 24.4412 107.576 23.473C106.091 21.967 105.123 20.1812 104.693 18.1158C104.133 15.5124 104.542 13.0382 105.812 10.7361C107.124 8.36942 109.082 6.73427 111.642 5.83064C113.428 5.2067 115.257 5.05609 117.107 5.42185C120.442 6.08882 122.959 7.9176 124.594 10.9082C125.369 12.3282 125.799 13.8343 125.821 15.4479C125.842 16.3946 125.778 17.3197 125.584 18.2449C125.541 18.503 125.412 18.5676 125.175 18.5676C122.765 18.5676 120.356 18.5676 117.946 18.5676ZM115.106 13.2964C116.612 13.2964 118.118 13.2964 119.624 13.2964C119.689 13.2964 119.796 13.3179 119.839 13.2534C119.882 13.1673 119.818 13.1027 119.775 13.0382C119.538 12.6509 119.259 12.3067 118.936 12.0055C117.709 10.8652 116.246 10.3273 114.568 10.5209C112.826 10.7146 111.492 11.5752 110.523 13.0167C110.48 13.0812 110.373 13.1673 110.437 13.2749C110.48 13.3609 110.588 13.3179 110.674 13.3179C112.159 13.2964 113.643 13.2964 115.106 13.2964Z" fill="#F837A1"/>
<path d="M66.9771 5.76611C67.8162 5.76611 68.6553 5.76611 69.5159 5.76611C69.7311 5.76611 69.8386 5.83066 69.9247 6.02429C70.8929 8.34793 71.8826 10.6716 72.8507 12.9952C73.5392 14.6519 74.2492 16.3085 74.9592 17.9652C74.9807 18.0297 75.0023 18.1373 75.0883 18.1373C75.1959 18.1373 75.1744 18.0297 75.1959 17.9652C75.6262 16.7173 76.078 15.4694 76.5083 14.2216C77.1323 12.4358 77.7562 10.6716 78.3801 8.8858C78.7029 7.93914 79.0471 6.99248 79.3698 6.04581C79.4344 5.83066 79.5635 5.76611 79.7571 5.76611C80.8974 5.76611 82.0377 5.76611 83.1995 5.76611C83.6944 5.76611 84.1892 5.76611 84.7056 5.76611C84.9853 5.76611 85.0068 5.80914 84.9207 6.06733C84.0816 8.49853 83.221 10.9297 82.3604 13.3394C81.715 15.1897 81.0695 17.04 80.4241 18.8903C79.6926 20.9558 78.9826 23.0212 78.251 25.1082C77.9498 25.9473 77.6916 26.7864 77.3474 27.604C76.5298 29.4973 75.325 31.1324 73.6898 32.3803C72.1192 33.5852 70.3335 34.2736 68.3541 34.4673C68.0099 34.5103 67.6441 34.5103 67.2998 34.5103C67.1277 34.5103 67.0632 34.4458 67.0632 34.2952C67.0632 34.2306 67.0632 34.1661 67.0632 34.08C67.0632 32.617 67.0632 31.1324 67.0632 29.6694C67.0632 29.3036 67.0847 29.3036 67.4505 29.2821C69.2147 29.1961 70.6347 28.443 71.6889 27.023C71.9471 26.6788 72.1623 26.313 72.3774 25.9473C72.5065 25.7321 72.5065 25.5385 72.4204 25.3018C71.7104 23.6667 71.022 22.0315 70.312 20.3964C69.6235 18.7828 68.935 17.1906 68.2465 15.577C67.3429 13.49 66.4608 11.3816 65.5571 9.29459C65.1053 8.21883 64.6535 7.1646 64.1802 6.08884C64.0726 5.83066 64.0941 5.76611 64.3953 5.76611C65.2559 5.76611 66.1165 5.76611 66.9771 5.76611Z" fill="#F837A1"/>
<path d="M103.08 19.9452C103.08 21.9031 103.08 23.8609 103.08 25.8403C103.08 26.2061 103.08 26.2276 102.714 26.2276C101.208 26.2276 99.7238 26.2276 98.2177 26.2276C97.8735 26.2276 97.852 26.2061 97.852 25.8618C97.852 22.2043 97.809 18.5682 97.8735 14.9106C97.895 12.9313 96.4965 10.9519 94.2805 10.5646C92.5808 10.2419 90.666 11.167 89.8484 12.7376C89.4396 13.5337 89.2675 14.3728 89.332 15.2549C89.332 15.3409 89.332 15.427 89.332 15.5131C89.332 18.8264 89.332 22.1182 89.332 25.4315C89.332 26.163 89.332 26.163 88.622 26.163C87.2235 26.163 85.825 26.163 84.4481 26.163C84.0823 26.163 84.0823 26.1415 84.0823 25.7758C84.0823 22.0321 84.0608 18.31 84.0823 14.5664C84.1038 12.8882 84.5772 11.3176 85.4593 9.87611C86.1047 8.80035 86.9438 7.91823 87.9335 7.16521C89.3105 6.13248 90.8811 5.50854 92.5808 5.35794C95.765 5.05672 98.4759 6.06793 100.649 8.4346C102.069 9.96217 102.822 11.8125 103.059 13.8779C103.08 14.1361 103.08 14.4158 103.08 14.674C103.08 16.3952 103.08 18.1594 103.08 19.9452Z" fill="#F837A1"/>
<path d="M44.7088 15.9208C44.7303 13.2744 45.5694 10.9292 47.2691 8.90683C48.9042 6.99198 50.9482 5.72259 53.4224 5.29229C57.7254 4.53926 61.297 5.8732 64.0509 9.27258C64.2445 9.50925 64.4166 9.78895 64.6103 10.0471C64.7394 10.2192 64.7178 10.3268 64.5242 10.4344C63.5775 10.9938 62.6524 11.5747 61.7057 12.1556C61.2969 12.4138 60.8666 12.6505 60.4794 12.9086C60.2857 13.0377 60.1782 12.9732 60.0706 12.8011C59.253 11.6177 58.1342 10.8217 56.7142 10.5205C54.95 10.1332 53.3579 10.4989 51.9809 11.6608C50.6254 12.8011 49.9585 14.2641 49.98 16.0283C50.023 18.7177 52.153 21.0844 54.8209 21.3426C57.037 21.5577 58.8227 20.7186 60.1136 18.8898C60.3288 18.5886 60.3288 18.5886 60.6515 18.7823C61.9209 19.5138 63.1903 20.2238 64.4597 20.9553C64.89 21.192 64.89 21.2135 64.6318 21.6223C63.3624 23.6447 61.6197 25.0862 59.4036 25.9683C57.8115 26.5922 56.1764 26.8289 54.4767 26.6568C52.0024 26.4201 49.8724 25.4304 48.0651 23.7523C46.4515 22.2462 45.4403 20.4174 44.9455 18.2874C44.7949 17.4914 44.6873 16.6953 44.7088 15.9208Z" fill="#F837A1"/>
<path d="M33.4994 11.5323C36.1673 11.4677 38.4479 13.4901 39.0288 15.9859C39.4376 17.7716 39.1794 19.4283 38.1036 20.8913C36.7912 22.6986 35.0055 23.6022 32.7249 23.3441C30.0785 23.0213 28.013 20.8053 27.7764 18.1374C27.6473 16.6098 27.97 15.2113 28.8521 13.985C29.9709 12.3714 31.52 11.5538 33.4994 11.5323Z" fill="#F837A1"/>
</svg>
