<svg width="101" height="62" viewBox="0 0 101 62" fill="none" xmlns="http://www.w3.org/2000/svg">
<path d="M65.073 36.0256C61.02 39.8567 56.1404 41.9336 50.5348 41.9336C44.9292 41.9336 40.0294 39.9172 35.9563 35.9852C28.9392 42.0546 21.1761 43.708 12.6064 39.9979C7.68644 37.8605 4.23841 34.1503 2.18168 29.2707C2.48414 28.6052 2.96807 28.6254 3.41168 28.6254C6.39594 28.6254 9.40037 28.6254 12.3846 28.6052C13.2113 28.6052 13.7356 29.0085 14.2397 29.5933C16.0948 31.7105 18.3532 32.9607 21.2568 32.7993C23.7772 32.6582 25.7533 31.4887 27.3463 29.6336C28.5359 28.2423 29.4232 26.6897 29.7659 24.8951C29.3022 24.512 28.8384 24.6531 28.415 24.6531C19.7646 24.6531 11.0941 24.6531 2.44381 24.6531C0.830699 24.6531 0.750041 24.6531 0.58873 23.0602C0.0443034 17.2529 1.71792 12.091 5.48857 7.69525C9.56169 2.93656 14.8648 0.496725 21.0954 0.436234C26.3179 0.375742 31.0363 2.02918 35.0287 5.53771C35.311 5.77967 35.553 6.1023 35.8958 6.18295C45.635 -1.56 55.3136 -1.53983 65.073 6.18295C65.3755 6.14263 65.5771 5.84016 65.8392 5.61836C69.4082 2.53328 73.5217 0.879839 78.24 0.516888C89.189 -0.309833 99.0895 7.61459 100.38 18.9467C100.541 20.338 100.461 21.7495 100.42 23.1408C100.38 24.4313 100.078 24.6531 98.7669 24.6531C90.0763 24.6531 81.3856 24.6531 72.6949 24.6531C72.2513 24.6531 71.8077 24.5523 71.4246 24.7539C71.2633 24.9152 71.223 25.0766 71.2835 25.2177C72.3925 28.6859 74.3686 31.408 77.9779 32.4767C81.4259 33.4849 84.39 32.3557 86.7089 29.6538C87.334 28.9279 87.9792 28.5851 88.9067 28.5851C91.7297 28.6052 94.5728 28.5851 97.4159 28.6052C97.8595 28.6052 98.3233 28.5851 98.8879 29.0892C97.2546 33.1825 94.5728 36.5297 90.7013 38.7477C81.5872 43.9903 73.0579 42.72 65.073 36.0256ZM46.5222 16.8497C46.8448 15.9423 47.0666 15.0349 47.8933 14.4703C49.1435 13.5831 50.9784 13.563 52.2084 14.43C53.3174 15.2366 53.7812 16.769 53.2972 18.3015C52.8738 19.6525 52.0068 20.701 51.0389 21.6688C48.8813 23.8264 46.7036 25.9638 44.5259 28.1011C43.921 28.6859 43.4976 29.311 43.9815 30.2184C48.3571 30.2184 52.7125 30.2184 57.0881 30.2184C57.2897 29.3311 57.2897 28.5649 57.0881 27.6575C54.6079 27.3551 52.0874 27.7382 49.6073 27.4559C49.6274 26.8711 49.95 26.6897 50.192 26.4477C51.543 25.0564 52.9746 23.7457 54.2853 22.3141C55.8177 20.6203 56.9066 18.6846 56.584 16.2851C56.2412 13.6638 54.4668 11.8087 51.9866 11.3449C48.7805 10.74 45.9576 11.7482 44.6066 14.0469C44.1227 14.8938 43.7395 15.8011 44.042 16.89C44.8687 16.9908 45.6551 17.011 46.5222 16.8497ZM11.1546 17.2933C12.2636 17.6966 29.0199 17.5957 29.6248 17.1925C29.1812 12.837 24.5032 9.2882 19.6235 9.59066C15.6109 9.83262 11.0538 13.9461 11.1546 17.2933ZM89.9754 17.1723C89.2495 12.5346 84.3497 9.10672 79.1474 9.61082C75.6792 9.95361 71.3036 14.3292 71.4649 17.2731C72.4328 17.6966 89.3302 17.5957 89.9754 17.1723Z" fill="#F4240F"/>
<path d="M81.9102 58.9121C82.1522 59.638 82.1321 60.2832 82.0111 60.9285C81.5271 61.3721 80.9222 61.3318 80.3778 61.4326C78.9058 61.7149 77.4137 61.7351 75.9215 61.6746C73.6834 61.5939 72.1912 60.4446 71.6065 58.3072C71.0217 56.2101 71.0016 54.0929 71.5258 51.9959C72.2517 49.1326 74.4496 47.6405 77.4338 47.9026C80.5391 48.1647 82.253 49.8383 82.495 52.9436C82.5757 53.9518 82.5958 54.9801 82.1522 56.1093C79.6116 56.1093 77.0306 56.1093 74.4899 56.1093C74.1875 57.7224 74.9738 58.8314 76.4256 58.8919C77.9783 58.9524 79.5309 58.8919 81.1037 58.8718C81.3255 58.9121 81.5876 58.9121 81.9102 58.9121ZM74.3689 53.6896C76.0829 53.8308 77.7363 53.7905 79.4906 53.7098C79.3494 52.5806 79.5309 51.4111 78.3816 50.8465C77.333 50.3424 76.1635 50.3021 75.2158 51.028C74.4093 51.6531 74.2076 52.6008 74.3689 53.6896Z" fill="#F4240F"/>
<path d="M25.9148 53.125C26.2778 51.3305 25.7132 50.5844 24.0396 50.6046C22.8701 50.6247 21.7006 50.7255 20.5109 50.786C20.1278 50.8062 19.7447 50.8868 19.3616 50.6247C19.1196 50.0198 19.1599 49.3746 19.3212 48.6083C21.7207 48.1042 24.1404 47.5195 26.6206 48.2454C28.153 48.689 28.9797 49.8988 29.0201 51.6531C29.0604 53.5888 29.0604 55.5246 29.0201 57.4603C28.9999 58.3475 29.1411 59.1137 30.0888 59.4767C30.1694 60.2026 30.2702 60.8882 29.9678 61.5737C28.9999 61.8359 28.1127 61.6342 27.286 61.2108C26.7214 60.9285 26.2173 60.9083 25.6527 61.1503C24.4227 61.6544 23.1322 61.7552 21.8014 61.6947C20.0471 61.6141 18.8978 60.6664 18.5147 58.9323C18.3332 58.0854 18.3332 57.2183 18.4743 56.3714C18.7163 54.8793 19.8253 53.8913 21.5997 53.609C22.7894 53.4275 23.9993 53.3469 25.1889 53.2057C25.4511 53.2057 25.6527 53.1654 25.9148 53.125ZM25.9753 55.4641C24.8058 55.585 23.717 55.5447 22.6684 55.8068C21.7812 56.0287 21.4384 56.7142 21.4384 57.5208C21.4384 58.1862 21.5997 58.9524 22.4063 59.0734C23.6363 59.275 24.8663 59.1541 26.0358 58.529C26.0358 57.5409 26.1366 56.5529 25.9753 55.4641Z" fill="#F4240F"/>
<path d="M52.0474 48.4063C53.1161 48.1845 54.0235 48.245 54.8704 48.3257C55.2333 48.7491 55.1527 49.1927 55.1527 49.596C55.1527 51.8745 55.1325 54.1732 55.1728 56.4517C55.2132 58.6698 55.7173 59.1134 57.9555 58.9521C58.6612 58.9117 59.3266 58.7101 60.0727 58.2463C60.0727 55.0403 60.0727 51.7535 60.0727 48.4265C61.0809 48.1845 61.9479 48.2652 62.936 48.3458C62.936 52.6811 62.936 56.976 62.936 61.2709C61.7664 61.7347 60.4558 61.5935 59.8307 60.8878C58.6612 61.5129 57.3909 61.7952 56.0197 61.7347C54.0033 61.6339 52.9346 60.8071 52.4104 58.8512C52.3096 58.4883 52.2087 58.1052 52.1886 57.7221C51.9265 54.637 52.0878 51.5721 52.0474 48.4063Z" fill="#F4240F"/>
<path d="M30.9755 61.0905C30.8747 60.2235 30.7537 59.4371 31.157 58.6507C32.7096 58.7112 34.2017 59.054 35.7342 58.9532C36.1375 58.933 36.5609 58.933 36.9642 58.8523C37.549 58.7314 37.9321 58.4087 37.9724 57.7635C38.0127 57.0779 37.7103 56.6746 37.065 56.5133C36.2585 56.3318 35.4519 56.1705 34.6453 55.9891C34.3429 55.9286 34.0203 55.8681 33.7178 55.7874C31.5401 55.2228 30.7134 54.1945 30.7134 52.1176C30.7134 50.1012 31.7417 48.7502 33.7178 48.2461C36.0367 47.6412 38.295 48.1453 40.5534 48.5687C40.7953 49.456 40.6945 50.2222 40.5937 51.0892C39.2629 50.9884 37.9926 50.8674 36.7424 50.8069C36.1173 50.7666 35.4721 50.7868 34.847 50.8674C34.3026 50.9279 33.8993 51.2102 33.8388 51.8353C33.7783 52.4402 34.1009 52.8233 34.6453 52.9645C35.6535 53.2266 36.6819 53.4081 37.7103 53.65C40.0291 54.1743 40.997 55.1623 41.0776 57.1384C41.1986 59.9815 39.767 61.5745 36.9037 61.6955C34.9075 61.7761 32.9717 61.6551 30.9755 61.0905Z" fill="#F4240F"/>
<path d="M51.0594 48.5481C51.2207 49.4554 51.2408 50.2015 51.0594 50.9879C50.4141 51.1492 49.789 51.0081 49.1639 50.9274C47.9944 50.7863 46.8249 50.7661 45.6352 50.8266C44.99 50.8669 44.4053 51.0484 44.3044 51.7945C44.2036 52.6212 44.7682 52.9236 45.4135 53.0849C46.3007 53.2866 47.2282 53.4479 48.1154 53.6495C50.9182 54.2545 51.9264 55.6861 51.5029 58.5292C51.3013 59.9004 50.5149 60.8884 49.2043 61.3118C46.6233 62.1587 44.0826 61.6546 41.542 61.1909C41.2597 60.2835 41.3807 59.5172 41.6226 58.7308C42.409 58.63 43.1148 58.7712 43.8407 58.872C44.8892 59.0131 45.9377 59.0132 46.9862 58.9527C47.7323 58.9123 48.4179 58.6905 48.5187 57.8235C48.6397 56.9161 47.9944 56.6136 47.2685 56.4322C46.22 56.1902 45.1513 56.0289 44.1028 55.7667C42.0662 55.2425 41.2597 54.2545 41.1992 52.2986C41.1387 50.3427 42.0259 48.9917 43.881 48.3666C46.2805 47.5399 48.6397 48.1448 51.0594 48.5481Z" fill="#F4240F"/>
<path d="M64.0034 48.3467C65.0318 48.2257 65.919 48.2056 66.7054 48.3265C67.1288 48.6492 66.907 49.1129 67.1893 49.4759C68.4798 48.9113 69.7098 48.1451 71.2423 48.0039C71.5044 49.0121 71.4036 49.9195 71.3028 50.9075C69.8913 51.4519 68.3588 51.5528 66.9877 52.5005C66.9877 55.4041 66.9877 58.348 66.9877 61.3121C65.9392 61.5742 65.0116 61.5339 64.0034 61.3726C64.0034 57.0172 64.0034 52.7223 64.0034 48.3467Z" fill="#F4240F"/>
<path d="M13.6553 56.0087C9.32007 56.0087 5.00499 56.0087 0.750405 56.0087C0.427782 55.4643 0.468105 55.0206 0.669744 54.4561C4.98482 54.4561 9.32007 54.4561 13.6553 54.4561C13.9779 54.94 13.9376 55.4239 13.6553 56.0087Z" fill="#F4240F"/>
<path d="M87.3542 55.9885C87.1526 55.4441 87.1727 55.0005 87.3542 54.4561C91.6491 54.4561 95.9844 54.4561 100.299 54.4561C100.521 55.1416 100.521 55.1416 100.36 55.9885C96.0449 55.9885 91.7096 55.9885 87.3542 55.9885Z" fill="#F4240F"/>
</svg>
