<svg width="139" height="45" viewBox="0 0 139 45" fill="none" xmlns="http://www.w3.org/2000/svg">
<path d="M23.2683 41.6495C33.7972 41.6495 42.3326 33.1141 42.3326 22.5852C42.3326 12.0563 33.7972 3.521 23.2683 3.521C12.7395 3.521 4.2041 12.0563 4.2041 22.5852C4.2041 33.1141 12.7395 41.6495 23.2683 41.6495Z" fill="white"/>
<path d="M21.6346 14.5848C18.1622 14.9593 15.5409 17.6146 14.894 20.2019H30.3497C29.1922 16.4572 25.5155 14.0741 21.6346 14.5848Z" fill="#E31737"/>
<path d="M22.6216 0.456543C10.4001 0.456543 0.459473 10.3972 0.459473 22.6187C0.459473 34.8403 10.4001 44.7809 22.6216 44.7809C34.8432 44.7809 44.7838 34.8403 44.7838 22.6187C44.8179 10.3972 34.8772 0.456543 22.6216 0.456543ZM35.6262 25.1379C35.6262 25.206 35.49 25.3081 35.3879 25.3422C35.3198 25.3762 35.2517 25.3422 35.1836 25.3422H15.3704H14.8938C15.1321 25.8528 15.3023 26.2613 15.5406 26.6699C17.2428 29.6997 20.7152 31.2998 24.1195 30.6529C25.6515 30.3465 27.0813 29.6316 28.2388 28.5422C28.375 28.4061 28.409 28.4401 28.5111 28.5422C29.6005 29.6657 30.7239 30.7551 31.8133 31.8444C31.9835 32.0147 31.8814 32.0827 31.7793 32.1849C30.5878 33.3424 29.226 34.2615 27.6941 34.8743C25.8898 35.6573 23.9153 35.9977 21.9748 35.8616C17.1747 35.6232 12.9193 32.7977 10.7405 28.5422C9.88946 26.8741 9.41285 25.0698 9.34477 23.1975C9.14051 19.0442 10.9108 15.0611 14.1108 12.4057C17.1747 9.85249 21.2599 8.79715 25.1749 9.61419C32.324 11.1121 36.9539 17.9888 35.6262 25.1379Z" fill="#E31737"/>
<path d="M58.9799 18.67C58.9799 20.3041 57.7203 21.1551 56.3926 21.2232C54.9628 21.2913 53.4649 20.4402 53.4649 18.67C53.4649 16.8657 54.9628 16.0486 56.3926 16.1167C57.7203 16.1848 58.9799 17.0359 58.9799 18.67ZM62.1119 23.436C63.3715 21.5977 63.8481 20.0998 63.8481 18.67C63.8481 14.3124 61.2608 11.4868 56.2224 11.4868C51.184 11.4868 48.5967 15.0614 48.5967 18.67C48.5967 22.0403 50.8435 25.1382 55.0649 25.1041L50.1627 32.1512H56.0522L62.1119 23.436ZM70.3844 19.3168C70.3844 17.4784 71.5759 16.287 72.9376 16.287C74.6398 16.287 75.559 17.3082 75.559 18.3976C75.559 19.1806 74.9802 20.0317 74.1291 20.8147L65.6183 28.5766V32.1512H80.4612V27.5212H73.4483L77.4995 24.3552C79.474 22.7211 80.5634 20.6105 80.5634 18.5338C80.5634 14.9933 78.4527 11.589 72.9717 11.589C68.4439 11.589 65.5843 14.9593 65.5843 19.3849H70.3844V19.3168Z" fill="black"/>
<path d="M92.036 32.7298C97.1766 32.7298 99.6617 29.1553 99.6958 24.8318C99.7298 20.4742 97.1085 16.423 92.0701 16.423C90.5381 16.423 89.0061 16.8656 87.9167 18.1933V16.6273H83.355V37.0873H87.9167V30.9935C89.0061 32.151 90.5041 32.7638 92.036 32.7298ZM91.5594 20.8486C93.9425 20.8486 95.134 22.8232 95.0999 24.7296C95.0659 26.636 93.9084 28.5084 91.5594 28.5084C89.5849 28.5084 87.9508 26.7722 87.9508 24.6615C87.9508 22.5168 89.5509 20.8486 91.5594 20.8486ZM101.636 11.9634V32.4574H106.334V11.9634H101.636ZM123.288 32.4574V16.6273H118.385V25.2403C118.385 29.2914 113.075 29.9042 113.075 25.3424V16.6273H108.411V25.3424C108.377 29.2574 109.602 32.6277 114.13 32.6617C115.832 32.6958 117.5 32.2872 118.624 30.8574V32.4574H123.288ZM125.33 21.6997C125.33 25.1721 128.428 26.3296 131.424 26.602C132.173 26.6701 133.943 26.4998 133.943 27.6573C133.943 28.202 133.126 28.6446 131.935 28.6105C130.879 28.6105 129.756 28.168 129.756 27.1126H125.126C125.194 31.1638 128.054 32.8319 131.833 32.8319C135.339 32.8319 138.607 31.4701 138.607 27.4871C138.607 23.7423 135.237 22.3466 131.935 22.2444C131.254 22.2104 130.028 22.1763 130.028 21.3593C130.028 20.5082 130.982 20.2699 131.628 20.2699C132.582 20.2699 133.807 20.3721 133.841 21.5976H138.267C138.233 17.921 135.271 16.1847 131.901 16.1847C128.326 16.2528 125.33 17.8869 125.33 21.6997Z" fill="black"/>
</svg>
