<svg width="103" height="50" viewBox="0 0 103 50" fill="none" xmlns="http://www.w3.org/2000/svg">
<path d="M0 31.2642C0 26.0287 0 20.7933 0 15.5578C0 14.2197 0.764614 13.4551 2.10269 13.4551C9.40901 13.4551 16.7153 13.4551 24.0217 13.4551C25.3597 13.4551 26.135 14.2303 26.135 15.5684C26.135 16.7578 26.135 17.9472 26.135 19.1366C26.135 20.5065 25.3916 21.2605 24.0217 21.2605C19.3065 21.2605 14.5914 21.2605 9.87628 21.2605C9.31344 21.2605 9.24972 21.3242 9.24972 21.8871C9.24972 23.4376 9.24972 24.9774 9.24972 26.5279C9.24972 27.0058 9.33468 27.0907 9.82318 27.0907C14.4321 27.0907 19.041 27.0907 23.65 27.0907C24.988 27.0907 25.7739 27.8553 25.7845 29.1828C25.7951 30.4147 25.7951 31.6465 25.7845 32.8784C25.7845 33.7492 25.4447 34.4289 24.6164 34.8006C24.319 34.9386 23.9898 34.9599 23.6606 34.9599C19.126 34.9599 14.5808 34.9599 10.0462 34.9599C9.95061 34.9599 9.84442 34.9599 9.74884 34.9599C9.36653 34.9705 9.24972 35.0661 9.24972 35.4484C9.24972 35.9581 9.24972 36.4679 9.24972 36.9882C9.24972 38.2307 9.24972 39.4732 9.24972 40.7051C9.24972 41.1618 9.34529 41.2573 9.80194 41.2573C14.5702 41.2573 19.3384 41.2573 24.096 41.2573C25.0518 41.2573 25.7314 41.714 26.0182 42.5317C26.1031 42.7653 26.135 43.0096 26.135 43.2538C26.135 44.5176 26.135 45.7707 26.135 47.0344C26.135 48.2663 25.3385 49.0628 24.096 49.0628C17.8198 49.0628 11.5542 49.0628 5.27797 49.0628C4.18414 49.0628 3.09032 49.0628 1.99649 49.0628C0.796473 49.0628 0 48.2663 0 47.0663C0 41.7883 0 36.5316 0 31.2642Z" fill="#2B2867"/>
<path d="M38.9526 31.4013C39.0057 34.1518 39.8659 36.7218 41.9155 38.7926C43.6253 40.513 45.7173 41.4051 48.1492 41.5006C50.7511 41.5962 52.9387 40.6935 54.7653 38.8563C55.1157 38.4953 55.4237 38.1023 55.7104 37.6882C56.2733 36.8705 57.091 36.6474 57.9724 37.0722C59.5548 37.8262 61.1371 38.5696 62.7194 39.3236C63.7177 39.8015 64.0363 40.821 63.4416 41.7661C61.0521 45.5786 57.7069 48.0848 53.3104 49.1468C51.9617 49.476 50.6024 49.6247 49.2218 49.6671C46.0466 49.7733 42.9881 49.2211 40.0783 47.9361C38.2093 47.1078 36.5314 45.9927 35.0446 44.5803C32.1136 41.7874 30.3826 38.3678 29.7879 34.3855C29.1613 30.1907 29.6923 26.1446 31.6888 22.3534C33.3773 19.1675 35.8623 16.7781 39.0482 15.1108C41.3314 13.9214 43.7527 13.2205 46.312 12.9762C49.5723 12.6683 52.7582 12.9444 55.8166 14.1975C58.8963 15.4506 61.2858 17.5321 63.123 20.2826C63.2504 20.4737 63.3778 20.6543 63.4946 20.856C63.9938 21.695 63.707 22.7463 62.8362 23.1711C61.1689 23.9888 59.4804 24.7747 57.7919 25.5605C57.0485 25.911 56.2202 25.6242 55.7317 24.8915C54.8927 23.649 53.8201 22.672 52.4927 21.9923C51.3989 21.4295 50.2307 21.1003 48.9882 21.0472C46.2165 20.9304 43.8377 21.833 41.8837 23.7871C40.2695 25.4119 39.3774 27.4084 39.0694 29.6703C39.0376 29.9358 39.027 30.2013 38.9845 30.4668C38.9526 30.7429 38.9633 31.0084 38.9526 31.4013Z" fill="#2B2867"/>
<path d="M77.4813 31.2528C77.4813 36.3715 77.4813 41.4901 77.4813 46.6088C77.4813 48.1487 76.5574 49.062 75.0069 49.062C73.5414 49.062 72.0759 49.062 70.6104 49.062C69.1873 49.062 68.2422 48.1062 68.2422 46.6831C68.2422 36.4033 68.2422 26.1129 68.2422 15.8331C68.2422 14.41 69.1873 13.4543 70.6104 13.4543C72.1184 13.4436 73.6263 13.4436 75.1343 13.4543C76.5361 13.4649 77.4919 14.4206 77.4919 15.8118C77.4813 20.9623 77.4813 26.1023 77.4813 31.2528Z" fill="#2B2867"/>
<path d="M90.235 9.08962C88.9925 9.08962 87.75 9.079 86.5182 9.08962C86.242 9.08962 86.1359 9.00466 86.1465 8.71793C86.1571 6.22231 86.1571 3.71608 86.1465 1.22046C86.1465 0.944349 86.2421 0.85939 86.5075 0.87001C89.0032 0.880629 91.5094 0.880629 94.005 0.87001C94.2705 0.87001 94.3661 0.954966 94.3661 1.23108C94.3555 3.73732 94.3555 6.25418 94.3661 8.76041C94.3661 9.0259 94.2705 9.10024 94.0156 9.10024C92.7625 9.079 91.4988 9.08962 90.235 9.08962Z" fill="#2B2867"/>
<path d="M90.2459 26.0388C89.0034 26.0388 87.7609 26.0282 86.529 26.0388C86.2529 26.0388 86.1467 25.9645 86.1467 25.6671C86.1573 23.1715 86.1573 20.6653 86.1467 18.1697C86.1467 17.8936 86.2423 17.8086 86.5078 17.8086C89.0034 17.8192 91.5097 17.8192 94.0053 17.8086C94.2708 17.8086 94.377 17.8936 94.377 18.1697C94.3663 20.6759 94.3663 23.1928 94.377 25.699C94.377 25.9539 94.2814 26.0388 94.0265 26.0388C92.7628 26.0282 91.499 26.0388 90.2459 26.0388Z" fill="#2B2867"/>
<path d="M98.7203 17.543C97.4778 17.543 96.2459 17.5324 95.0034 17.543C94.7379 17.543 94.6423 17.4687 94.6423 17.1926C94.653 14.697 94.653 12.2014 94.6423 9.69511C94.6423 9.44024 94.7167 9.34466 94.9822 9.35528C97.4884 9.3659 100.005 9.3659 102.511 9.35528C102.777 9.35528 102.841 9.46148 102.841 9.70573C102.83 12.2014 102.83 14.697 102.841 17.2032C102.841 17.4581 102.766 17.543 102.501 17.543C101.237 17.5324 99.9734 17.543 98.7203 17.543Z" fill="#2B2867"/>
</svg>
