<svg width="146" height="28" viewBox="0 0 146 28" fill="none" xmlns="http://www.w3.org/2000/svg">
<path d="M82.0373 21.2674C82.0373 23.5156 82.0373 25.7202 82.0373 27.9974C80.5723 27.9974 79.2234 27.9974 77.7729 27.9974C77.7729 20.7162 77.7729 13.4785 77.7729 6.12477C79.1364 6.06675 80.4418 6.06675 81.6891 6.12477C82.0518 6.5454 81.7762 7.00954 82.0082 7.35765C82.1968 7.41566 82.2983 7.27062 82.3999 7.1981C85.8084 4.83388 89.565 5.2545 92.3644 8.32944C95.918 12.2311 94.9752 19.1352 90.4788 21.7605C87.868 23.2835 85.2427 23.24 82.69 21.5285C82.5449 21.4269 82.4144 21.2674 82.0373 21.2674ZM90.1452 14.2037C90.1452 13.9862 90.1742 13.7686 90.1452 13.551C89.9132 11.941 89.1589 10.6792 87.5924 10.041C86.084 9.43178 84.6771 9.70736 83.5022 10.8097C82.3418 11.883 81.9212 13.2754 82.1243 14.8274C82.3273 16.4374 83.0671 17.7283 84.6045 18.3955C85.9679 18.9902 87.3024 18.8596 88.5062 17.9314C89.6956 17.0176 90.1742 15.7122 90.1452 14.2037Z" fill="black"/>
<path d="M75.7277 15.988C71.797 15.988 67.8228 15.988 63.834 15.988C63.9936 17.7285 65.7776 18.8454 67.025 18.9759C68.3014 19.1065 69.4763 18.8744 70.4336 17.9316C70.6076 17.7576 70.7962 17.598 71.0572 17.598C72.4062 17.598 73.7551 17.6125 75.1185 17.627C75.1765 17.627 75.2345 17.685 75.307 17.7285C74.5963 20.9195 70.6801 23.5303 66.1693 22.7036C61.3828 21.8333 58.2789 16.8583 59.5552 12.1153C60.8896 7.16933 65.8502 4.48601 70.5931 6.16853C74.3207 7.48843 77.1491 12.797 75.7277 15.988ZM71.4199 12.3184C71.2458 10.7809 69.5198 9.50454 67.6777 9.50454C65.8647 9.50454 64.1096 10.8099 63.9356 12.3184C66.4448 12.3184 68.9251 12.3184 71.4199 12.3184Z" fill="black"/>
<path d="M113.135 14.3778C113.12 19.0773 109.247 22.8629 104.475 22.8484C99.8195 22.8339 95.9614 18.9322 95.9759 14.2618C95.9904 9.51886 99.8921 5.64618 104.635 5.66069C109.349 5.67519 113.149 9.56237 113.135 14.3778ZM109.015 14.2473C109.015 11.709 107.028 9.6494 104.591 9.6494C102.126 9.6494 100.066 11.767 100.095 14.2763C100.11 16.8581 102.111 18.8742 104.621 18.8597C107.072 18.8452 109.015 16.8146 109.015 14.2473Z" fill="black"/>
<path d="M30.1692 14.306C30.1692 19.0634 26.3546 22.8491 21.5971 22.8491C16.8832 22.8491 13.0105 18.9764 13.0105 14.2769C13.0105 9.57751 16.9412 5.66132 21.6696 5.67582C26.3691 5.67582 30.1692 9.534 30.1692 14.306ZM26.05 14.2914C26.0645 11.7387 24.1064 9.67904 21.6841 9.65003C19.2184 9.62102 17.1588 11.6952 17.1443 14.2334C17.1298 16.7862 19.1314 18.8603 21.6261 18.8603C24.0919 18.8603 26.0355 16.8442 26.05 14.2914Z" fill="black"/>
<path d="M131.729 22.4712C131.453 22.0361 131.511 21.688 131.511 21.3544C131.511 18.4825 131.511 15.6106 131.497 12.7242C131.497 11.6219 131.192 10.6356 130.133 10.1134C128.988 9.56228 127.827 9.6058 126.768 10.36C125.913 10.9692 125.579 11.8395 125.579 12.8693C125.579 15.6976 125.579 18.526 125.579 21.3544C125.579 21.688 125.652 22.0361 125.376 22.4567C124.085 22.5437 122.736 22.5147 121.3 22.4567C121.3 16.974 121.3 11.5784 121.3 6.13924C122.649 6.13924 123.94 6.13924 125.187 6.13924C125.463 6.54536 125.26 6.96599 125.391 7.3141C125.521 7.38662 125.579 7.29959 125.652 7.22707C128.262 4.50024 133.644 5.26897 135.297 9.57678C135.674 10.5486 135.892 11.5784 135.906 12.6227C135.921 15.6251 135.921 18.613 135.906 21.6154C135.906 21.8475 135.935 22.0941 135.718 22.4422C134.412 22.5582 133.063 22.5147 131.729 22.4712Z" fill="black"/>
<path d="M53.5356 16.8871C55.0151 16.8871 56.451 16.8871 57.8579 16.8871C58.0175 17.2207 57.8724 17.4673 57.7854 17.7138C56.6396 20.7888 54.3624 22.4423 51.1714 22.8049C46.4865 23.3416 42.5993 20.3827 41.7725 15.7267C41.1633 12.2892 42.8023 8.63408 45.7322 6.86454C48.7637 5.05149 52.7669 5.28356 55.4502 7.47373C56.7411 8.51805 57.5388 9.89596 57.9885 11.6075C56.422 11.738 54.957 11.651 53.5211 11.6655C53.057 11.1724 52.7234 10.6357 52.1722 10.2876C50.6202 9.30129 48.8362 9.46083 47.5163 10.7372C45.6597 12.5213 45.5582 15.7412 47.2987 17.6413C48.7927 19.2658 51.3164 19.2948 52.8539 17.6993C53.086 17.4528 53.289 17.1772 53.5356 16.8871Z" fill="black"/>
<path d="M144.986 9.80866C144.015 10.0697 143.101 9.77965 142.274 10.0117C142.071 10.2873 142.129 10.5629 142.129 10.824C142.129 12.3904 142.144 13.9714 142.129 15.5379C142.115 17.5395 142.84 18.4968 144.812 18.5113C144.928 18.5113 145.044 18.5548 145.146 18.5693C145.364 19.135 145.393 21.5572 145.175 22.384C143.681 22.7176 142.231 22.471 140.882 21.7458C138.909 20.687 138.082 18.8739 137.865 16.7563C137.604 14.131 137.778 11.4912 137.749 8.86587C137.72 7.05282 137.749 5.23977 137.749 3.42672C137.749 3.12212 137.691 2.78852 137.966 2.41141C139.243 2.33889 140.606 2.35339 142.013 2.41141C142.245 3.64428 141.984 4.83365 142.173 6.0085C143.086 6.25508 144 5.96499 144.943 6.21157C145.102 7.38642 145.044 8.57578 144.986 9.80866Z" fill="black"/>
<path d="M32.0405 6.14035C33.4184 6.06783 34.6948 6.06782 35.9132 6.12584C36.2323 6.53197 36.0292 6.95259 36.1888 7.41673C37.6247 6.06782 39.2637 5.41513 41.2798 5.77774C41.3814 7.17016 41.3524 8.47556 41.3088 9.75195C40.8302 10.013 40.4096 9.89699 40.018 9.9115C37.8278 9.95501 36.4644 11.2024 36.4064 13.3926C36.3338 16.0469 36.3773 18.7012 36.3628 21.3555C36.3628 21.6891 36.4209 22.0372 36.1453 22.4578C34.8399 22.5303 33.462 22.5303 32.055 22.4578C32.0405 16.9751 32.0405 11.6085 32.0405 6.14035Z" fill="black"/>
<path d="M0.0144043 0.236328C4.90239 0.236328 9.70335 0.236328 14.5768 0.236328C14.5768 1.71578 14.5768 3.12271 14.5768 4.67468C11.3133 4.67468 8.04985 4.67468 4.67032 4.67468C4.67032 6.21215 4.67032 7.63358 4.67032 9.12754C3.06033 9.12754 1.56638 9.12754 0.0144043 9.12754C0.0144043 6.15413 0.0144043 3.22424 0.0144043 0.236328Z" fill="black"/>
<path d="M118.965 22.4714C117.529 22.5294 116.166 22.5439 114.745 22.4569C114.745 16.9742 114.745 11.6076 114.745 6.16846C116.152 6.16846 117.515 6.16846 118.965 6.16846C118.965 11.5641 118.965 16.9452 118.965 22.4714Z" fill="black"/>
<path d="M0 13.5654C1.55197 13.5654 3.03142 13.5654 4.56889 13.5654C4.56889 16.5388 4.56889 19.4397 4.56889 22.4421C3.04593 22.5582 1.55197 22.5582 0 22.4421C0 19.4542 0 16.5678 0 13.5654Z" fill="black"/>
<path d="M11.5308 13.6093C10.0369 13.6093 8.62994 13.6093 7.13599 13.6093C7.13599 12.1154 7.13599 10.6649 7.13599 9.12744C8.58643 9.12744 10.0369 9.12744 11.5308 9.12744C11.5308 10.6214 11.5308 12.0573 11.5308 13.6093Z" fill="#00AF9A"/>
<path d="M114.73 0.22168C116.21 0.22168 117.559 0.22168 118.995 0.22168C119.111 1.5851 119.067 2.89049 119.024 4.2394C117.559 4.2394 116.195 4.2394 114.716 4.2394C114.658 2.9195 114.643 1.6141 114.73 0.22168Z" fill="black"/>
</svg>
