<?xml version="1.0" encoding="utf-8"?>
<!-- Generator: Adobe Illustrator 26.0.3, SVG Export Plug-In . SVG Version: 6.00 Build 0)  -->
<svg version="1.0" id="Layer_1" xmlns="http://www.w3.org/2000/svg" xmlns:xlink="http://www.w3.org/1999/xlink" x="0px" y="0px"
	 viewBox="0 0 235 168" style="enable-background:new 0 0 235 168;" xml:space="preserve">
<style type="text/css">
	.st0{fill:#22AAEE;}
	.st1{fill:none;}
</style>
<path class="st0" d="M45,92.5l-12.5-5.7c-1.5-0.7-2.2-2.5-1.5-4.1c0.3-0.7,0.8-1.2,1.5-1.5L45,75.6l1.5,3.4l-11.1,5l11.2,5.1
	L45,92.5z"/>
<path d="M74.2,77.9h-6.6C67,77.9,66.4,78,66,78.4c-0.3,0.3-0.3,0.8-0.3,1.5v2.7h6.7v3.2h-6.7v7.7H62v-15c-0.1-1.1,0.2-2.1,0.9-2.9
	c0.9-0.7,2-1,3.1-0.9h8.2V77.9z"/>
<path d="M90.5,83.2v1.4c0,3.1-0.6,5.4-1.8,6.8c-1.2,1.4-3.1,2.1-5.7,2.1c-2.6,0-4.5-0.7-5.6-2.1c-1.2-1.4-1.7-3.7-1.7-6.9v-1.4
	c0-2.9,0.6-5,1.8-6.4c1.2-1.4,3-2.1,5.6-2.1s4.4,0.7,5.6,2.2S90.5,80.3,90.5,83.2z M87.1,84.6v-1c0.1-1.4-0.2-2.7-0.6-4
	c-0.6-1.2-1.8-1.9-3.2-1.7c-1.6,0-2.7,0.6-3.2,1.7c-0.5,1.3-0.7,2.6-0.6,4v1c0,2.2,0.3,3.8,0.9,4.6c0.3,0.4,0.6,0.7,1.1,0.9
	c0.5,0.2,1.1,0.4,1.7,0.3c0.6,0,1.2-0.1,1.7-0.3c0.4-0.2,0.8-0.5,1.1-0.8c0.3-0.4,0.5-0.8,0.6-1.3C86.9,86.8,87,85.7,87.1,84.6
	L87.1,84.6z"/>
<path d="M107.9,93.5h-4.3l-3.6-6.9h-2.6v6.9h-3.7V78.8c-0.1-1.1,0.3-2.2,1-3.1c0.9-0.7,2.1-1.1,3.3-1h3.1c3.2-0.2,5.9,2.2,6.1,5.4
	c0,0.2,0,0.4,0,0.6c0,1.2-0.3,2.3-1,3.3c-0.6,0.9-1.5,1.5-2.4,1.9L107.9,93.5z M102.7,82.6c0.5-0.5,0.8-1.3,0.8-2
	c0-0.7-0.2-1.4-0.7-1.9c-0.5-0.5-1.2-0.8-1.9-0.7H99c-0.8-0.1-1.5,0.5-1.6,1.3c0,0.1,0,0.3,0,0.4v3.8h3.4
	C101.5,83.4,102.2,83.1,102.7,82.6z"/>
<path d="M122.5,93.5h-6.6c-2.1,0-3.6-0.4-4.5-1.1s-1.3-2-1.3-3.9V77.7c0-1.7,1.3-3,3-3h9.3v3.2h-8.7v4.4h6v3.2h-6v2.7
	c-0.1,0.6,0.1,1.1,0.5,1.5c0.5,0.3,1.2,0.5,1.8,0.4h6.4C122.5,90.3,122.5,93.5,122.5,93.5z"/>
<path d="M138.5,87.9c0.1,1.6-0.7,3.2-1.9,4.2c-1.4,1.1-3.2,1.6-5,1.5c-1.6,0-3.2-0.5-4.6-1.3c-0.8-0.5-1.4-1.1-1.8-1.9
	c-0.5-0.9-0.7-1.8-0.7-2.8l3.3-0.2c0,0.9,0.4,1.7,1.2,2.2c0.8,0.5,1.7,0.8,2.7,0.8c2.2,0,3.3-0.8,3.3-2.3c0-1.3-0.7-2-2.2-2.2
	l-3-0.3c-1.3-0.1-2.6-0.7-3.6-1.6c-2-2.2-1.7-5.6,0.5-7.6c0,0,0.1,0,0.1-0.1c1.4-1.1,3.1-1.7,4.9-1.6c1.7-0.1,3.4,0.4,4.7,1.5
	c1.2,0.9,1.8,2.3,1.8,3.8l-3.2,0.2c-0.3-1.5-1.3-2.3-3.1-2.3c-0.9,0-1.8,0.2-2.5,0.7c-0.6,0.4-0.9,1-0.9,1.6c0,0.6,0.2,1.1,0.7,1.5
	c0.5,0.4,1,0.6,1.6,0.7l3,0.3C136.9,83,138.5,84.8,138.5,87.9z"/>
<path d="M151.1,86.2h3.4c0.1,2-0.5,3.9-1.8,5.4c-1.4,1.3-3.2,2-5.1,1.9c-4.8,0-7.2-2.7-7.2-8.2v-1.5c0-4.3,1.2-7.1,3.7-8.2
	c1.1-0.5,2.3-0.7,3.5-0.7c1.8-0.1,3.5,0.5,4.9,1.6c1.3,1.2,2,2.9,1.9,4.6H151c-0.1-0.8-0.5-1.6-1-2.3c-0.6-0.6-1.5-0.9-2.3-0.8
	c-1-0.1-2.1,0.3-2.7,1.1c-0.5,0.8-0.8,1.8-0.7,2.7c0,0.4,0,1,0,1.7v1.6c0,2,0.3,3.3,0.8,4c0.7,0.8,1.7,1.2,2.7,1.1
	c1,0.1,1.9-0.3,2.5-1C150.8,88.3,151.1,87.2,151.1,86.2z"/>
<path d="M171.2,83.2v1.4c0,3.1-0.6,5.4-1.8,6.8s-3.1,2.1-5.7,2.1s-4.5-0.7-5.6-2.1s-1.7-3.7-1.7-6.9v-1.4c0-2.9,0.6-5,1.8-6.4
	s3-2.1,5.6-2.1s4.4,0.7,5.6,2.2S171.2,80.3,171.2,83.2z M167.7,84.6v-1c0.1-1.4-0.2-2.7-0.6-4c-0.6-1.2-1.8-1.9-3.1-1.7
	c-1.6,0-2.7,0.6-3.2,1.7c-0.5,1.3-0.7,2.6-0.6,4v1c0,2.2,0.3,3.8,0.9,4.6c0.3,0.4,0.7,0.7,1.1,0.9c1.1,0.5,2.3,0.5,3.4,0
	c0.4-0.2,0.8-0.5,1.1-0.8c0.3-0.4,0.5-0.8,0.6-1.3C167.6,86.8,167.7,85.7,167.7,84.6L167.7,84.6z"/>
<path d="M188.2,74.7V87c0.1,1.8-0.7,3.6-2.1,4.8c-3,2.3-7.2,2.3-10.1,0c-1.4-1.2-2.1-3-2-4.8V74.7h3.7v12.1c-0.1,1,0.3,1.9,0.9,2.6
	c0.7,0.6,1.6,0.9,2.5,0.8c0.9,0,1.8-0.3,2.5-0.8c0.7-0.7,1.1-1.6,1-2.6V74.7H188.2z"/>
<path d="M204.1,78.1h-5v15.5h-3.8V78.1h-4.8v-3.3h13.6L204.1,78.1z"/>
<path class="st0" d="M51.2,84c0,3.5-0.9,7-2.6,10.1l3.4,1.5c3.9-7.3,3.9-16,0-23.3l-3.4,1.5C50.3,77,51.2,80.5,51.2,84z"/>
<path d="M203.8,93.1c-0.6,0.6-1.5,0.6-2.1,0c-0.3-0.3-0.4-0.7-0.4-1.1c0-0.4,0.2-0.8,0.5-1.1c0.6-0.6,1.5-0.5,2.1,0.1
	c0.3,0.3,0.4,0.7,0.4,1C204.3,92.5,204.1,92.8,203.8,93.1L203.8,93.1z M201.9,91.2c-0.2,0.2-0.4,0.5-0.4,0.8c0,0.3,0.1,0.6,0.4,0.9
	c0.5,0.5,1.3,0.5,1.7,0l0,0c0.2-0.2,0.4-0.5,0.4-0.9c0-0.3-0.1-0.6-0.4-0.8C203.2,90.7,202.5,90.7,201.9,91.2
	C202,91.2,202,91.2,201.9,91.2C202,91.2,201.9,91.2,201.9,91.2L201.9,91.2z M202.1,92.9v-1.6h0.8c0.1,0,0.2,0,0.3,0.1
	c0.1,0.1,0.2,0.2,0.2,0.4c0,0.1,0,0.2-0.1,0.3c-0.1,0.1-0.2,0.1-0.3,0.1c0.1,0,0.2,0,0.2,0.1c0.1,0.1,0.2,0.2,0.1,0.4v0.2l0,0l0,0
	h-0.4c0-0.1,0-0.2,0-0.2c0-0.1,0-0.1,0-0.2c0-0.1-0.1-0.1-0.1-0.1h-0.1h-0.2v0.6L202.1,92.9z M202.9,91.5c-0.1,0-0.2,0-0.2,0h-0.1
	V92h0.2c0.1,0,0.2,0,0.2-0.1c0.1,0,0.1-0.1,0.1-0.2C203.1,91.7,203,91.6,202.9,91.5z"/>
<rect x="24" y="68" class="st1" width="187" height="32"/>
</svg>
