<svg width="143" height="27" viewBox="0 0 143 27" fill="none" xmlns="http://www.w3.org/2000/svg">
<path d="M14.5181 10.2678C14.5181 13.4957 12.9447 15.6948 8.93973 15.6948H7.68817V5.40834C8.15304 5.37287 8.54639 5.37287 8.93973 5.37287C12.7302 5.37287 14.5181 7.1464 14.5181 10.2678ZM10.4058 20.1996C17.5576 20.1996 22.099 16.5461 22.099 10.1614C22.099 3.17369 17.2716 0.655273 9.36884 0.655273C6.32933 0.655273 2.64616 0.868097 0 1.18733V26.1587H7.68817V20.1996H10.4058ZM113.284 10.2678C113.284 13.4957 111.711 15.6948 107.706 15.6948H106.454V5.40834C106.883 5.37287 107.313 5.37287 107.706 5.37287C111.496 5.37287 113.284 7.1464 113.284 10.2678ZM109.208 20.1996C116.36 20.1996 120.865 16.5461 120.865 10.1614C120.865 3.17369 116.038 0.655273 108.135 0.655273C105.096 0.655273 101.412 0.868097 98.7662 1.18733V26.1587H106.454V20.1996H109.208ZM130.878 7.57205C130.878 6.22417 132.237 5.58569 134.454 5.58569C136.885 5.58569 139.496 6.11775 141.284 6.82717L140.64 1.40015C138.637 0.974506 136.849 0.655273 133.595 0.655273C127.373 0.655273 123.19 3.06728 123.19 8.17506C123.19 16.9363 135.169 15.1628 135.169 19.2419C135.169 20.8026 134.024 21.6539 131.164 21.6539C128.661 21.6539 124.763 20.8026 122.439 19.6676L123.297 25.4138C125.621 26.2651 128.768 26.6553 131.307 26.6553C137.708 26.6553 143 24.5625 143 18.2842C142.964 9.98405 130.878 11.5448 130.878 7.57205ZM93.009 1.18733H85.3208V26.1587H93.009V1.18733ZM61.863 1.18733H54.1748V26.1587H61.863V1.18733ZM75.201 21.1218V1.18733H67.5129V26.1587H81.4231L82.5674 21.1573H75.201V21.1218ZM48.4891 1.18733H40.8009V11.1191H32.7909V1.18733H25.1028V26.1587H32.7909V16.3333H40.8009V26.1587H48.4891V1.18733Z" fill="#0070BA"/>
</svg>
