<svg width="141" height="33" viewBox="0 0 141 33" fill="none" xmlns="http://www.w3.org/2000/svg">
<path d="M37.4298 16.5786C38.595 17.02 39.6561 17.6452 40.6604 18.3716C41.693 19.1256 42.5835 20.0175 43.313 21.0566C45.331 23.9346 44.4878 27.4195 42.432 29.4332C41.3898 30.4538 40.1298 31.1343 38.7466 31.6216C37.2213 32.1549 35.6487 32.4216 34.0381 32.5595C32.5223 32.6882 31.0065 32.6698 29.4906 32.6055C28.2875 32.5503 27.0843 32.4124 25.9 32.2285C24.1095 31.9526 22.3379 31.5848 20.5947 31.1067C15.9051 29.8102 11.4524 27.9896 7.39755 25.3322C5.70173 24.2196 4.13854 22.9691 2.83114 21.4244C2.26271 20.7531 1.77007 20.0267 1.41006 19.2268C1.069 18.4728 0.860573 17.682 0.898469 16.8452C0.964786 15.4844 1.55217 14.381 2.71745 13.581C3.59852 12.9742 4.60276 12.6431 5.64488 12.4041C6.9807 12.1006 8.35441 11.9811 9.72813 11.9259C9.71865 11.9719 9.70918 12.0271 9.69971 12.073C9.25443 13.1673 9.31128 14.2339 9.87971 15.2729C10.4008 16.2292 11.1397 17.0292 11.9545 17.7464C13.404 19.0245 15.0524 20.0175 16.8146 20.8359C21.2294 22.8772 25.8621 23.8702 30.7601 23.622C31.8496 23.5668 32.9202 23.3737 33.9623 23.0427C34.9192 22.7392 35.8097 22.3071 36.5487 21.6266C37.5529 20.6888 37.9982 19.567 37.7519 18.2153C37.6382 17.6636 37.534 17.1211 37.4298 16.5786Z" fill="#ED2236"/>
<path d="M10.5049 10.0777C11.2723 7.88011 12.0587 5.6825 12.8829 3.50329C13.0345 3.09871 13.2334 2.72171 13.4797 2.36311C14.2755 1.17695 15.4124 0.818347 16.7861 1.30568C17.2409 1.47119 17.6577 1.69187 18.0935 1.88497C18.6146 2.11484 19.1356 2.31713 19.723 2.32633C20.2251 2.33552 20.6704 2.1976 21.0588 1.89416C21.381 1.6367 21.6746 1.36085 21.9968 1.10339C22.3662 0.809151 22.7831 0.616058 23.2757 0.662032C23.4936 0.680422 23.7115 0.726396 23.9294 0.772371C25.0663 1.01144 26.1747 1.38844 27.2642 1.78382C29.1116 2.45506 30.9306 3.18146 32.6454 4.11935C33.1191 4.37681 33.5738 4.67105 33.9907 5.02046C34.4549 5.42504 34.7865 5.91238 34.9855 6.48247C35.2034 7.08934 35.317 7.72379 35.4686 8.34905C35.9707 10.4363 36.4729 12.5328 36.9655 14.62C36.9844 14.6936 36.9844 14.7672 37.0034 14.8407C36.9371 15.0246 36.9655 15.2177 36.956 15.4016C36.9276 16.1832 36.6434 16.8636 36.0749 17.4337C35.5444 17.967 34.8907 18.2888 34.1896 18.5279C33.1759 18.8681 32.1243 19.0244 31.0633 19.0704C29.1401 19.1532 27.2263 19.0336 25.3316 18.7118C21.6178 18.0774 18.1693 16.8084 14.9861 14.8407C13.7924 14.0959 12.665 13.2684 11.6987 12.2569C11.0923 11.6409 10.5334 10.9972 10.5049 10.0777Z" fill="#ED2236"/>
<path d="M63.9376 18.4452C65.1598 20.5968 66.3629 22.7392 67.5851 24.8817C67.4524 24.9736 67.3482 24.9368 67.2535 24.946C65.9271 24.946 64.6103 24.946 63.2839 24.9552C63.0471 24.9552 62.9239 24.8817 62.8102 24.6702C61.8913 22.9231 60.9534 21.1853 60.0249 19.4474C59.9681 19.3463 59.9112 19.2543 59.8639 19.144C59.8165 19.0336 59.7407 18.9969 59.627 18.9969C58.708 18.9969 57.7891 18.9969 56.8606 18.9969C56.7091 18.9969 56.6617 19.0612 56.6617 19.2083C56.6617 19.5761 56.6617 19.9347 56.6617 20.3025C56.6617 21.737 56.6617 23.1714 56.6617 24.6058C56.6617 24.946 56.7091 24.946 56.2922 24.946C55.1364 24.946 53.9806 24.946 52.8248 24.946C52.4932 24.946 52.4932 24.946 52.4932 24.615C52.4932 21.5439 52.4932 18.4819 52.4932 15.4016C52.4932 13.2776 52.4932 11.1535 52.4932 9.02028C52.4932 8.88236 52.4648 8.74443 52.5216 8.6157C52.6258 8.56973 52.73 8.58812 52.8248 8.58812C55.6385 8.58812 58.4523 8.57892 61.266 8.58812C62.7345 8.59731 64.0797 8.99269 65.2261 9.92139C66.2777 10.7765 66.8651 11.8707 67.0166 13.1948C67.2914 15.5303 65.9935 17.4153 64.1176 18.2888C64.0703 18.3348 63.985 18.344 63.9376 18.4452ZM58.9449 15.6867C59.5607 15.6867 60.167 15.6867 60.7734 15.6867C61.0765 15.6867 61.3607 15.6407 61.645 15.5395C62.526 15.1993 62.8481 14.5833 62.8576 13.866C62.8576 13.1304 62.4597 12.4868 61.6355 12.1926C61.3228 12.0822 61.0007 12.0362 60.6786 12.0362C59.4281 12.027 58.187 12.0362 56.9364 12.0362C56.6522 12.0362 56.6522 12.0454 56.6522 12.3029C56.6522 13.3419 56.6522 14.3902 56.6522 15.4384C56.6522 15.6315 56.7091 15.6958 56.9175 15.6958C57.5901 15.6775 58.2628 15.6867 58.9449 15.6867Z" fill="#020202"/>
<path d="M101.341 16.7809C101.341 14.1971 101.341 11.6225 101.341 9.0387C101.341 8.93756 101.341 8.83641 101.341 8.73527C101.341 8.62493 101.397 8.58815 101.511 8.58815C101.72 8.58815 101.928 8.58815 102.136 8.58815C103.15 8.58815 104.164 8.58815 105.177 8.58815C105.509 8.58815 105.509 8.58815 105.509 8.92836C105.509 10.7398 105.509 12.5512 105.509 14.3626C105.509 14.4086 105.509 14.4638 105.509 14.5097C105.509 14.8959 105.471 14.8683 105.897 14.8683C106.835 14.8683 107.764 14.8683 108.702 14.8683C109.829 14.8683 110.957 14.8683 112.093 14.8683C112.463 14.8683 112.425 14.8867 112.425 14.5373C112.425 12.7259 112.425 10.9145 112.425 9.10307C112.425 9.02951 112.425 8.95595 112.425 8.87319C112.425 8.57895 112.416 8.58815 112.728 8.58815C113.922 8.58815 115.116 8.58815 116.309 8.58815C116.584 8.58815 116.584 8.59734 116.594 8.8548C116.594 8.92836 116.594 9.00192 116.594 9.08468C116.594 14.2247 116.594 19.3555 116.594 24.4863C116.594 25.0104 116.65 24.9461 116.11 24.9461C114.983 24.9461 113.856 24.9461 112.719 24.9461C112.425 24.9461 112.425 24.9461 112.416 24.6518C112.416 22.7852 112.416 20.9278 112.416 19.0704C112.416 19.0061 112.416 18.9417 112.416 18.8774C112.416 18.5279 112.444 18.5555 112.084 18.5555C110.009 18.5555 107.925 18.5555 105.85 18.5555C105.509 18.5555 105.509 18.5555 105.509 18.8774C105.509 20.7531 105.509 22.6289 105.509 24.5047C105.509 24.5874 105.509 24.6794 105.509 24.7713C105.509 24.9001 105.452 24.9552 105.32 24.9461C105.14 24.9461 104.96 24.9461 104.77 24.9461C103.747 24.9461 102.714 24.9461 101.691 24.9461C101.322 24.9461 101.341 24.9736 101.341 24.5966C101.341 21.9853 101.341 19.3831 101.341 16.7809Z" fill="#020202"/>
<path d="M91.6488 24.1369C91.4877 24.1185 91.4309 24.192 91.3551 24.238C90.2466 24.9001 89.0529 25.1759 87.755 25.0748C85.7466 24.9276 84.136 24.0633 82.9612 22.4818C81.957 21.1301 81.5591 19.6037 81.7959 17.9486C82.1465 15.466 83.5486 13.7373 85.9455 12.827C87.7266 12.1466 89.5266 12.2385 91.2698 13.0293C91.3551 13.0661 91.4309 13.1029 91.5161 13.1397C91.5256 13.1397 91.5351 13.1397 91.5635 13.1305C91.6393 13.0477 91.6014 12.9466 91.6014 12.8546C91.6014 11.5489 91.6014 10.234 91.6014 8.92835C91.6014 8.56974 91.5351 8.59733 91.933 8.51457C93.1078 8.25711 94.2825 8.02724 95.4573 7.77897C95.552 7.84334 95.5236 7.94448 95.5236 8.01804C95.5236 13.5534 95.5236 19.0888 95.5236 24.6334C95.5236 24.946 95.5236 24.946 95.211 24.946C94.1309 24.946 93.0604 24.946 91.9804 24.946C91.6582 24.946 91.6582 24.946 91.6488 24.6426C91.6488 24.4771 91.6488 24.3116 91.6488 24.1369ZM91.6014 18.7394C91.6014 18.1325 91.5825 17.5257 91.6109 16.928C91.6204 16.6521 91.5256 16.4866 91.2982 16.3395C90.3793 15.7234 89.3561 15.512 88.2666 15.7051C87.0161 15.9257 86.135 16.6154 85.756 17.8107C85.3771 18.9969 85.6423 20.0727 86.5613 20.9646C87.1866 21.5715 87.9729 21.8473 88.8445 21.8657C89.7635 21.8841 90.6161 21.6726 91.3551 21.1025C91.5256 20.9646 91.6109 20.8267 91.6109 20.5968C91.5919 19.9715 91.6014 19.3555 91.6014 18.7394Z" fill="#020202"/>
<path d="M10.5049 10.0777C10.5334 10.988 11.0923 11.6409 11.6892 12.2569C12.6555 13.2684 13.7829 14.0959 14.9766 14.8407C18.1504 16.8085 21.6084 18.0866 25.3221 18.7118C27.2264 19.0337 29.1306 19.1532 31.0538 19.0704C32.1244 19.0245 33.176 18.8773 34.1802 18.5279C34.8813 18.2889 35.535 17.9578 36.0655 17.4337C36.6339 16.8636 36.9181 16.1832 36.9466 15.4016C36.956 15.2085 36.9276 15.0246 36.9939 14.8407C37.1455 15.42 37.2876 15.9993 37.4298 16.5786C37.534 17.1211 37.6382 17.6636 37.7329 18.2061C37.9792 19.5578 37.5339 20.6888 36.5297 21.6174C35.7908 22.2979 34.9002 22.73 33.9433 23.0335C32.9012 23.3645 31.8402 23.5576 30.7412 23.6128C25.8432 23.861 21.2105 22.868 16.7956 20.8267C15.0335 20.0083 13.385 19.0153 11.9355 17.7372C11.1113 17.0199 10.3818 16.2292 9.86074 15.2637C9.29231 14.2247 9.22599 13.158 9.68074 12.0638C9.69969 12.0179 9.69969 11.9627 9.70916 11.9167C9.97443 11.3099 10.2397 10.6938 10.5049 10.0777Z" fill="#020202"/>
<path d="M71.4789 20.0727C71.6873 20.5968 72 20.9646 72.3979 21.2772C73.6674 22.3071 75.8274 22.1508 76.879 21.268C77.1159 21.0657 77.1254 21.0749 77.3717 21.2864C78.1391 21.9485 78.9064 22.6013 79.6644 23.2634C79.6644 23.3829 79.5791 23.4197 79.5128 23.4656C78.2527 24.4587 76.8222 25.038 75.1832 25.1575C73.8095 25.2679 72.4832 25.1024 71.2421 24.5231C69.1578 23.5576 67.8504 21.9669 67.4999 19.7417C66.8841 15.8614 69.8305 12.4316 73.9706 12.3673C77.0306 12.3213 79.5696 14.2155 80.3181 17.3418C80.517 18.1693 80.517 19.0153 80.517 19.852C80.517 20.0451 80.4317 20.0911 80.2612 20.0727C80.1854 20.0635 80.1096 20.0727 80.0244 20.0727C77.3338 20.0727 74.6527 20.0727 71.9621 20.0727C71.8295 20.0727 71.6873 20.0727 71.4789 20.0727ZM76.6138 17.3969C76.3106 16.22 75.0506 15.3648 73.8095 15.4752C72.5779 15.5855 71.5263 16.4315 71.4505 17.3969C73.1653 17.3969 74.8706 17.3969 76.6138 17.3969Z" fill="#020202"/>
<path d="M125.973 17.9027C125.973 17.6268 125.982 17.3877 125.973 17.1487C125.935 16.4131 125.527 15.8981 124.788 15.6867C124.012 15.4568 123.235 15.4936 122.448 15.6407C121.596 15.797 120.781 16.1004 119.976 16.4039C119.72 16.505 119.72 16.505 119.606 16.2751C119.208 15.4844 118.82 14.6936 118.412 13.9028C118.327 13.7373 118.365 13.673 118.536 13.5994C120.582 12.7259 122.704 12.2385 124.949 12.3581C125.821 12.404 126.674 12.5787 127.46 12.9557C128.881 13.6362 129.639 14.7672 129.838 16.2659C129.866 16.5142 129.885 16.7717 129.885 17.0199C129.885 19.5394 129.885 22.0496 129.885 24.569C129.885 24.5966 129.885 24.615 129.885 24.6426C129.885 24.9368 129.885 24.9368 129.592 24.9368C129.45 24.9368 129.307 24.9368 129.165 24.9368C128.246 24.9368 127.327 24.9368 126.399 24.9368C125.906 24.9368 125.992 24.9184 125.992 24.5598C125.992 24.4771 125.992 24.3851 125.992 24.3116C125.878 24.238 125.831 24.3116 125.764 24.3575C124.675 24.992 123.472 25.1851 122.221 25.1391C121.435 25.1115 120.686 24.9552 119.976 24.6058C118.09 23.6771 117.531 21.7738 118.052 20.1462C118.308 19.3555 118.839 18.767 119.578 18.3532C120.478 17.8475 121.463 17.6636 122.477 17.5992C123.566 17.5349 124.646 17.6176 125.717 17.8567C125.774 17.8751 125.849 17.8843 125.973 17.9027ZM125.717 21.1117C125.717 20.937 125.698 20.7531 125.717 20.5784C125.745 20.3485 125.622 20.2842 125.423 20.2382C124.76 20.1095 124.087 20.0267 123.424 20.0267C122.903 20.0267 122.363 20.0727 121.88 20.3485C121.15 20.7623 121.122 21.6634 121.833 22.114C122.06 22.2611 122.316 22.3438 122.59 22.3898C123.509 22.5369 124.4 22.4174 125.253 22.0956C125.717 21.9209 125.717 21.9117 125.717 21.4151C125.717 21.314 125.717 21.2221 125.717 21.1117Z" fill="#020202"/>
<path d="M140.771 21.645C140.771 22.2703 140.771 22.8496 140.771 23.4289C140.771 23.7783 140.752 24.1369 140.771 24.4863C140.78 24.6978 140.686 24.7713 140.496 24.8081C139.947 24.9184 139.407 25.0196 138.848 25.0656C137.948 25.1391 137.057 25.1299 136.186 24.9092C135.049 24.615 134.158 24.0265 133.703 22.9323C133.504 22.4358 133.4 21.9209 133.4 21.3876C133.4 19.6221 133.4 17.8659 133.4 16.1004C133.4 15.9993 133.4 15.8981 133.4 15.797C133.125 15.7326 132.87 15.7694 132.614 15.7694C132.093 15.7602 131.572 15.7602 131.06 15.7694C130.89 15.7694 130.804 15.7326 130.804 15.5395C130.814 14.6292 130.814 13.7281 130.804 12.827C130.804 12.6063 130.909 12.5788 131.089 12.5879C131.723 12.5971 132.358 12.5879 132.993 12.5879C133.069 12.5879 133.144 12.5879 133.23 12.5879C133.362 12.5971 133.41 12.5236 133.41 12.404C133.41 12.3213 133.41 12.2293 133.41 12.1374C133.41 11.319 133.41 10.5007 133.41 9.68233C133.41 9.5444 133.391 9.40648 133.59 9.36051C134.812 9.11224 136.043 8.85478 137.266 8.59732C137.37 8.71685 137.332 8.84558 137.332 8.96512C137.332 10.0593 137.332 11.1535 137.332 12.2477C137.332 12.5696 137.332 12.5788 137.673 12.5788C138.649 12.5788 139.615 12.5788 140.591 12.5788C140.885 12.5788 140.894 12.5788 140.894 12.873C140.894 13.7557 140.894 14.6384 140.894 15.512C140.894 15.7142 140.828 15.7694 140.629 15.7694C139.643 15.7602 138.658 15.7694 137.673 15.7694C137.303 15.7694 137.332 15.7602 137.332 16.0912C137.332 17.5624 137.332 19.0336 137.332 20.5048C137.332 21.4519 137.711 21.8289 138.677 21.8933C139.369 21.9301 140.051 21.8473 140.771 21.645Z" fill="#020202"/>
</svg>
