<svg width="121" height="42" viewBox="0 0 121 42" fill="none" xmlns="http://www.w3.org/2000/svg">
<path d="M120.094 32.2633C117.239 32.2633 114.425 32.3053 111.569 32.2633C110.309 32.2633 109.049 32.1373 107.831 31.7174C105.311 30.7934 103.632 29.1136 102.918 26.5098C102.204 23.864 102.288 21.2182 103.17 18.6143C104.135 15.7166 106.277 14.1627 109.217 13.6167C110.225 13.4067 111.191 13.3228 112.199 13.3228C114.677 13.3228 117.155 13.3228 119.674 13.3228C119.8 13.3228 119.926 13.3227 120.094 13.3647C120.094 14.4567 120.094 15.5906 120.094 16.6825C117.574 16.6825 115.013 16.6825 112.493 16.6825C111.779 16.6825 111.107 16.7665 110.477 16.9765C109.511 17.3124 108.797 17.9424 108.419 18.9083C107.873 20.1682 107.621 21.4282 107.579 22.7721C107.495 23.99 107.579 25.2499 108.041 26.3838C108.545 27.6857 109.385 28.5676 110.855 28.7356C111.485 28.8196 112.115 28.9036 112.745 28.9036C115.223 28.8616 117.7 28.8196 120.136 28.8616C120.094 29.9535 120.094 31.1294 120.094 32.2633Z" fill="black"/>
<path d="M66.17 0.177734C60.4584 13.6587 54.7888 27.1397 49.0773 40.6207C48.9933 40.5787 48.9512 40.5787 48.9512 40.5367C48.1533 38.4789 46.5154 37.387 44.5836 36.673C42.2738 35.7911 39.8799 35.5391 37.4021 35.4551C32.8244 35.3711 28.2468 35.7911 23.7111 36.463C16.4037 37.513 9.13823 38.9829 2.04076 41.0407C1.41081 41.2087 0.780837 41.4187 0.108887 41.5027C0.86483 41.1667 1.62078 40.8727 2.37673 40.5367C9.85217 37.387 17.2856 34.0272 24.4671 30.2475C31.0186 26.8038 37.5281 23.276 43.7016 19.1183C48.4893 15.8846 53.0669 12.3148 57.4346 8.49312C59.6185 6.60326 61.7603 4.62941 63.8182 2.57156C64.5741 1.81562 65.33 0.975675 66.17 0.177734Z" fill="#009EE2"/>
<path d="M74.6531 13.2813C76.669 13.2813 78.6848 13.2813 80.7007 13.2813C81.1626 13.2813 81.3306 13.4072 81.3306 13.8692C81.2886 14.6252 81.2886 15.3811 81.3306 16.137C81.3306 16.599 81.2046 16.767 80.7007 16.767C77.1729 16.767 73.6872 16.767 70.1595 16.767C69.3615 16.767 68.5636 16.893 67.8077 17.271C66.9257 17.6909 66.7577 18.4469 66.7997 19.3288C66.7997 20.0847 67.2197 20.5887 67.8917 20.8827C68.3956 21.0927 68.8996 21.1767 69.4455 21.1767C71.6294 21.1767 73.8132 21.1767 75.997 21.1767C76.921 21.1767 77.8869 21.3027 78.8108 21.4706C80.9107 21.9326 82.1706 23.5285 82.3386 25.8803C82.3806 26.7623 82.3386 27.6442 82.1286 28.4841C81.7086 30.29 80.4067 31.2559 78.7268 31.7599C77.5929 32.0959 76.375 32.2638 75.1991 32.2638C71.2934 32.2638 67.3877 32.2638 63.524 32.2638C62.81 32.2638 62.81 32.2638 62.81 31.5079C62.81 30.794 62.81 30.08 62.81 29.3241C62.81 28.9041 62.978 28.7361 63.398 28.7361C66.9257 28.7361 70.4535 28.7361 73.9812 28.7361C74.8211 28.7361 75.6611 28.6521 76.459 28.4001C77.2569 28.1062 77.5929 27.6022 77.5929 26.8042C77.551 25.7123 77.173 25.0824 76.375 24.8304C75.7871 24.6624 75.1991 24.5784 74.5691 24.5784C72.7633 24.5784 70.9574 24.5784 69.1935 24.5784C67.9336 24.5784 66.7157 24.4524 65.4978 24.0744C63.524 23.4865 62.3061 22.2266 62.0541 20.1267C61.9281 18.9508 61.9701 17.7749 62.3481 16.641C62.726 15.5491 63.398 14.7511 64.4479 14.2472C65.8338 13.5332 67.3037 13.2813 68.8156 13.2393C70.7055 13.2393 72.6793 13.2813 74.6531 13.2813Z" fill="black"/>
<path d="M96.8273 13.2812C98.0452 13.2812 99.3892 13.2812 100.733 13.2812C101.153 13.2812 101.279 13.4072 101.279 13.8272C101.237 14.5831 101.237 15.3391 101.279 16.095C101.279 16.557 101.111 16.683 100.691 16.683C98.3392 16.683 96.0294 16.683 93.6776 16.683C93.3416 16.683 93.0056 16.683 92.6696 16.725C90.8218 16.935 89.6879 17.9429 89.1839 19.7068C88.554 21.8906 88.386 24.0744 89.0579 26.2583C89.5619 27.8542 90.6958 28.6941 92.3757 28.8201C93.6356 28.9041 94.9375 28.9041 96.1974 28.8621C97.7093 28.7781 99.1792 28.8621 100.691 28.8201C101.153 28.8201 101.321 28.9881 101.279 29.45C101.237 30.206 101.237 30.9619 101.279 31.7179C101.279 32.1378 101.153 32.3058 100.733 32.3058C98.1293 32.3058 95.4834 32.3478 92.8796 32.2638C91.6617 32.2218 90.4018 32.1378 89.1839 31.7599C86.4961 30.8779 84.6902 29.0721 83.9763 26.3003C83.3043 23.7385 83.4303 21.2607 84.2283 18.7408C85.1942 15.7591 87.378 14.2052 90.3598 13.5752C92.5016 13.1553 94.6015 13.3232 96.8273 13.2812Z" fill="black"/>
</svg>
