<svg width="114" height="41" viewBox="0 0 114 41" fill="none" xmlns="http://www.w3.org/2000/svg">
<path d="M27.2353 20.8679C26.5277 21.016 26.2644 21.2135 26.2644 21.592C26.2644 21.987 26.5112 22.2174 26.972 22.2174C27.6467 22.2174 28.0746 21.7895 28.0746 21.0983V20.6211C27.8607 20.7363 27.6796 20.7857 27.2353 20.8679Z" fill="black"/>
<path d="M9.05101 18.9746C8.35985 18.9746 7.91553 19.5835 7.91553 20.505C7.91553 21.4595 8.34339 22.0519 9.05101 22.0519C9.75863 22.0519 10.1865 21.4431 10.1865 20.4886C10.1865 19.567 9.75863 18.9746 9.05101 18.9746Z" fill="black"/>
<path d="M113.927 21.3778C113.927 9.20013 106.357 0.840332 95.2655 0.840332C85.1613 0.840332 77.4598 7.37348 75.8965 17.2143V16.5067C75.8965 6.83042 70.7621 0.840332 62.4846 0.840332C57.7781 0.840332 54.2235 2.61761 51.0474 6.60004V1.95936H39.6761V17.0333C37.8824 7.63678 29.6213 0.840332 20.0273 0.840332C8.98514 0.840332 0 9.82547 0 20.8676C0 31.9098 8.98514 40.895 20.0273 40.895C29.6049 40.895 37.8824 34.0985 39.6761 24.702V39.7759H51.2614V17.7245C51.2614 13.2648 53.8615 10.3521 57.7945 10.3521C61.9909 10.3521 64.3277 12.9851 64.3277 17.7245V39.7759H75.88V24.5374C77.4763 34.3289 85.4082 40.895 95.6605 40.895C104.794 40.895 111.886 35.7935 113.384 28.1413H102.687C101.914 30.9554 99.3631 32.601 95.8086 32.601C90.9704 32.601 87.745 29.4578 86.9386 23.9285H113.91V21.3778H113.927ZM3.94951 23.188C2.53427 23.188 1.66209 22.5791 1.56335 21.5094H2.99505C3.07733 21.9867 3.35708 22.2006 3.93306 22.2006C4.41029 22.2006 4.7065 21.9538 4.7065 21.5917C4.7065 21.3284 4.49257 21.1474 4.08116 21.0816L3.52165 20.9828C2.23806 20.7689 1.67854 20.2917 1.67854 19.4195C1.67854 18.4979 2.58364 17.8397 3.86723 17.8397C5.15082 17.8397 5.92427 18.3663 6.10529 19.3537H4.67359C4.60776 18.9587 4.32801 18.7448 3.85077 18.7448C3.40645 18.7448 3.09378 18.9916 3.09378 19.3372C3.09378 19.5841 3.29126 19.7322 3.76849 19.8144L4.37738 19.9296C5.6116 20.1436 6.17111 20.6373 6.17111 21.5424C6.15466 22.5462 5.26602 23.188 3.94951 23.188ZM9.03451 23.188C7.47116 23.188 6.38504 22.1019 6.38504 20.5385C6.38504 18.9752 7.52053 17.8561 9.06742 17.8561C10.6143 17.8561 11.7004 18.9423 11.7004 20.5056C11.7169 22.069 10.5979 23.188 9.03451 23.188ZM22.2654 23.0399L21.4096 19.8144L20.5704 23.0399H19.1058L18.0032 19.0575H16.9006V21.3449C16.9006 21.7727 17.0487 21.9209 17.5095 21.9209C17.6412 21.9209 17.707 21.9209 17.8386 21.8879V22.9741C17.5918 23.0234 17.312 23.0563 17.0816 23.0563C15.8803 23.0563 15.4196 22.612 15.4196 21.493V19.041H13.9549V23.0234H12.4739V19.041H11.6511V17.9878H12.4739V17.4941C12.4739 16.3586 12.984 15.8649 14.1524 15.8649C14.3499 15.8649 14.5803 15.8814 14.7119 15.9143V16.984C14.6626 16.984 14.5967 16.984 14.5309 16.984C14.103 16.984 13.9714 17.0992 13.9714 17.4776V17.9878H15.436V16.408H16.9171V17.9878H19.2374L19.7805 20.3904C19.8628 20.736 19.9286 21.098 19.9944 21.4436C20.0767 21.0816 20.159 20.736 20.2412 20.3904L20.8666 18.0207H22.0844L22.7261 20.3904C22.8084 20.6866 22.8907 21.0651 22.973 21.3778C23.0553 20.9006 23.1046 20.6537 23.1705 20.3904L23.7135 17.9878H25.1781L23.7464 23.0234H22.2654V23.0399ZM28.2555 23.0399C28.1896 22.8753 28.1403 22.6778 28.1238 22.4145C27.7289 22.9247 27.2352 23.1551 26.5276 23.1551C25.4743 23.1551 24.8326 22.612 24.8326 21.7234C24.8326 20.8183 25.425 20.3575 26.939 20.0942C27.7618 19.9626 28.058 19.7651 28.058 19.3866C28.058 19.0081 27.7782 18.7612 27.301 18.7612C26.7909 18.7612 26.5111 18.9916 26.4782 19.4359H25.1123C25.2275 18.3992 26.001 17.8397 27.3175 17.8397C28.7821 17.8397 29.4897 18.5473 29.4897 19.9626V21.9538C29.4897 22.5791 29.5226 22.7601 29.6872 23.0234H28.2555V23.0399ZM31.7277 20.341V23.0399H30.2302V18.0043H31.6948V18.7777C32.0075 18.2017 32.4354 17.922 32.9949 17.922C33.0607 17.922 33.1924 17.9384 33.3075 17.9549V19.1891C33.2088 19.1726 33.1101 19.1562 32.9126 19.1562C32.205 19.1562 31.7277 19.617 31.7277 20.341ZM38.3596 20.8841H34.7557C34.8544 21.7234 35.2823 22.2006 35.957 22.2006C36.4507 22.2006 36.7798 21.9702 36.895 21.5424H38.2938C38.0963 22.5462 37.1583 23.2044 35.9406 23.2044C34.3608 23.2044 33.2746 22.1348 33.2746 20.555C33.2746 18.9587 34.3278 17.8726 35.8912 17.8726C37.3723 17.8726 38.3761 18.9752 38.3761 20.6373V20.8841H38.3596ZM87.1361 16.6219C88.0741 11.6521 90.9375 8.83809 95.0187 8.83809C99.0834 8.83809 101.897 11.7015 102.621 16.6219H87.1361Z" fill="black"/>
<path d="M35.8582 18.8271C35.2823 18.8271 34.9202 19.2386 34.7886 19.9955H36.8785C36.7962 19.2386 36.4342 18.8271 35.8582 18.8271Z" fill="black"/>
</svg>
