<svg width="162" height="33" viewBox="0 0 162 33" fill="none" xmlns="http://www.w3.org/2000/svg">
<path d="M0.0086529 21.0908C0.770106 21.0908 1.54021 21.0821 2.30166 21.0908C2.85545 21.0908 2.87275 21.0995 2.87275 21.6878C2.87275 24.128 2.87275 26.5594 2.87275 28.9995C2.87275 29.6571 2.87275 29.6571 3.54768 29.6571C9.76044 29.6571 15.9732 29.6571 22.1946 29.6571C22.8522 29.6571 22.8522 29.6571 22.8522 28.9822C22.8522 26.5421 22.8522 24.1107 22.8522 21.6705C22.8522 21.0995 22.8609 21.0908 23.432 21.0908C24.0117 21.0908 24.5828 21.1081 25.1625 21.0821C25.5606 21.0648 25.725 21.186 25.725 21.6186C25.7077 25.2528 25.7163 28.887 25.7163 32.5212C17.2711 32.5212 8.83458 32.5212 0.389379 32.5299C0.103835 32.5299 0 32.4953 0 32.1665C0.0173057 28.463 0.0086529 24.7769 0.0086529 21.0908Z" fill="#BBBBBB"/>
<path d="M161.471 15.1197C161.012 16.3657 160.675 17.6463 160.277 18.9096C159.515 21.3844 158.754 23.8677 158.01 26.3598C157.906 26.7059 157.733 26.853 157.37 26.8357C156.868 26.8097 156.357 26.8097 155.855 26.8357C155.492 26.853 155.319 26.7145 155.206 26.3684C154.531 24.2831 153.831 22.2064 153.138 20.1297C153.086 19.9826 153.034 19.8355 152.974 19.6711C152.81 19.7922 152.81 19.9566 152.766 20.0951C152.091 22.1198 151.416 24.1446 150.741 26.1694C150.525 26.827 150.525 26.827 149.807 26.827C149.392 26.827 148.968 26.8011 148.552 26.8357C148.172 26.8616 147.981 26.7232 147.869 26.3511C147.064 23.686 146.242 21.0296 145.429 18.3732C145.134 17.4127 144.832 16.4436 144.546 15.4831C144.399 14.9899 144.416 14.9553 144.918 14.9553C145.654 14.9553 146.389 14.9726 147.125 14.9466C147.479 14.938 147.635 15.0764 147.722 15.4052C148.267 17.5252 148.821 19.6451 149.374 21.7651C149.392 21.8343 149.418 21.9035 149.444 21.9728C149.591 21.9208 149.582 21.791 149.608 21.6959C150.292 19.6192 150.992 17.5338 151.659 15.4485C151.78 15.0591 151.97 14.912 152.368 14.938C152.758 14.9639 153.147 14.9639 153.536 14.938C153.9 14.912 154.073 15.0591 154.185 15.4052C154.852 17.4646 155.544 19.5153 156.227 21.5661C156.271 21.7045 156.323 21.8343 156.418 22.0852C156.53 21.6872 156.608 21.393 156.686 21.0988C157.179 19.2125 157.672 17.3348 158.148 15.4485C158.244 15.0764 158.399 14.9207 158.797 14.938C159.507 14.9639 160.208 14.9466 160.917 14.9466C161.108 14.9466 161.298 14.938 161.462 15.0331C161.471 15.0591 161.471 15.0937 161.471 15.1197Z" fill="black"/>
<path d="M107.572 21.8777C106.534 21.8777 105.495 21.8777 104.457 21.8777C103.946 21.8777 103.92 21.9037 104.016 22.3882C104.258 23.6343 105.106 24.3351 106.369 24.3784C107.338 24.413 108.195 24.188 108.905 23.4958C109.069 23.3401 109.207 23.3141 109.38 23.4872C109.839 23.9458 110.298 24.4044 110.774 24.8457C110.99 25.0533 110.877 25.1918 110.713 25.3389C109.986 26.0138 109.173 26.5416 108.186 26.7666C106.897 27.0608 105.616 27.0435 104.344 26.6541C102.96 26.2215 101.982 25.3216 101.489 23.9631C100.762 21.9729 100.728 19.9481 101.48 17.958C102.406 15.5092 104.587 14.6007 106.88 14.8775C109.597 15.2064 111.111 17.2657 111.284 19.9914C111.319 20.4673 111.275 20.9432 111.301 21.4191C111.319 21.7566 111.172 21.8777 110.843 21.8777C109.761 21.8691 108.671 21.8777 107.572 21.8777ZM106.118 19.7664C106.741 19.7664 107.356 19.7664 107.979 19.7664C108.204 19.7664 108.351 19.6972 108.307 19.4463C108.212 18.7973 107.987 18.2262 107.451 17.8109C106.283 16.911 104.284 17.4301 104.007 19.2905C103.955 19.6539 103.998 19.7924 104.388 19.7751C104.967 19.7491 105.547 19.7664 106.118 19.7664Z" fill="black"/>
<path d="M90.2752 20.8489C90.3011 21.645 90.2579 22.3891 90.1021 23.1246C89.6781 25.184 88.4235 26.43 86.3727 26.8367C84.746 27.1568 83.2145 26.8973 81.8992 25.807C81.0339 25.0802 80.5494 24.1283 80.3677 23.0294C80.1254 21.5844 80.1254 20.1307 80.3763 18.6857C80.757 16.4965 82.5395 14.9563 84.7633 14.8438C86.2083 14.7746 87.5409 15.0601 88.6571 16.0552C89.5743 16.8772 90.0156 17.9329 90.1627 19.127C90.2579 19.7154 90.3011 20.3038 90.2752 20.8489ZM87.2294 20.8835C87.2121 20.3124 87.2467 19.7327 87.1169 19.1616C86.9006 18.1579 86.2516 17.5868 85.2998 17.5695C84.2961 17.5522 83.6125 18.0713 83.4048 19.101C83.1712 20.2951 83.1712 21.5152 83.4135 22.7093C83.6298 23.739 84.2874 24.2235 85.3258 24.1976C86.2862 24.1803 86.8919 23.6438 87.1082 22.64C87.2467 22.0603 87.2121 21.4719 87.2294 20.8835Z" fill="black"/>
<path d="M134.457 20.9003C134.431 20.1389 134.466 19.3774 134.613 18.6246C135.011 16.6171 136.456 15.2067 138.498 14.9298C140.626 14.6356 142.452 15.1548 143.698 17.0411C144.148 17.7161 144.321 18.4948 144.408 19.2909C144.546 20.6148 144.555 21.9387 144.287 23.2452C143.871 25.2527 142.348 26.6631 140.315 26.9141C138.619 27.1217 137.07 26.8016 135.815 25.5469C134.82 24.5518 134.543 23.2885 134.457 21.956C134.44 21.5925 134.457 21.2464 134.457 20.9003ZM141.457 20.8744C141.466 20.3811 141.466 19.8966 141.371 19.412C141.345 19.2736 141.319 19.1265 141.284 18.988C141.042 18.0622 140.375 17.5517 139.424 17.5603C138.515 17.569 137.814 18.0968 137.632 19.014C137.382 20.2513 137.382 21.506 137.632 22.752C137.814 23.6606 138.454 24.1711 139.328 24.1971C140.367 24.2317 140.998 23.799 141.275 22.8472C141.457 22.2069 141.474 21.5406 141.457 20.8744Z" fill="black"/>
<path d="M95.7179 22.0159C95.9515 21.315 96.1765 20.6401 96.3928 19.9565C96.886 18.4509 97.3792 16.9453 97.8552 15.4311C97.9676 15.0677 98.1493 14.9206 98.5301 14.9379C99.2483 14.9638 99.9751 14.9379 100.693 14.9465C101.178 14.9465 101.204 14.9984 101.039 15.4484C99.8626 18.6673 98.6772 21.8861 97.4917 25.105C97.3273 25.555 97.1543 25.9963 97.0072 26.4462C96.912 26.7491 96.7303 26.8442 96.4274 26.8356C95.9342 26.8183 95.4497 26.8096 94.9564 26.8356C94.6017 26.8529 94.4373 26.7144 94.3248 26.3943C93.1999 23.3052 92.0577 20.2248 90.9242 17.1444C90.7079 16.5646 90.5089 15.9762 90.2839 15.4051C90.1368 15.0417 90.2579 14.9465 90.6127 14.9465C91.3309 14.9552 92.0577 14.9725 92.7759 14.9465C93.1739 14.9292 93.3643 15.0677 93.4855 15.4571C94.1344 17.4991 94.818 19.5412 95.4929 21.5746C95.5448 21.7044 95.5448 21.8775 95.7179 22.0159Z" fill="black"/>
<path d="M70.175 20.0611C71.0922 19.1698 71.9921 18.3132 72.8747 17.4566C73.5756 16.773 74.2765 16.0894 74.9687 15.3885C75.1677 15.1895 75.3754 15.0857 75.6609 15.103C76.033 15.1203 76.4137 15.0943 76.7858 15.1116C76.9589 15.1203 77.2098 15.0164 77.2963 15.2155C77.3655 15.3799 77.1319 15.4924 77.0194 15.6135C75.9032 16.7384 74.787 17.8632 73.6535 18.9708C73.4025 19.2217 73.3679 19.3861 73.5669 19.6976C75.0033 21.8955 76.4137 24.102 77.8328 26.3084C77.9193 26.4382 78.0837 26.568 77.9972 26.7238C77.9107 26.8882 77.7117 26.8103 77.5646 26.8103C77.1925 26.819 76.8118 26.793 76.4397 26.819C76.0676 26.8449 75.8686 26.6892 75.6782 26.3777C74.5793 24.5692 73.4544 22.7694 72.3555 20.961C72.1479 20.6235 72.0094 20.5716 71.7325 20.8831C71.3258 21.333 70.8932 21.757 70.4519 22.1724C70.201 22.406 70.0971 22.6656 70.0971 23.0117C70.1144 24.1106 70.0971 25.2009 70.1144 26.2998C70.1231 26.6892 69.9846 26.8276 69.5866 26.8276C68.28 26.819 68.28 26.8363 68.28 25.5297C68.28 20.5543 68.28 15.5789 68.28 10.6035C68.28 9.9199 68.28 9.91125 68.9376 9.9199C70.2615 9.92855 70.0971 9.74684 70.1058 11.0967C70.1144 13.8916 70.1058 16.6951 70.1058 19.49C70.0971 19.663 70.0539 19.8447 70.175 20.0611Z" fill="black"/>
<path d="M122.449 20.1452C122.449 18.181 122.441 16.2255 122.458 14.2613C122.458 13.8459 122.484 13.4219 122.562 13.0152C122.882 11.4058 124.024 10.48 125.798 10.3761C126.282 10.3502 126.776 10.3675 127.269 10.3675C127.528 10.3675 127.676 10.454 127.667 10.7395C127.658 11.3625 127.658 11.9769 127.667 12.5999C127.676 12.8855 127.528 12.9806 127.269 12.972C126.983 12.972 126.689 12.9633 126.404 12.9806C125.858 13.0066 125.564 13.2921 125.512 13.8373C125.374 15.1958 125.374 15.1958 126.724 15.1958C127.805 15.1958 127.658 15.1092 127.676 16.1389C127.676 16.4677 127.667 16.8052 127.676 17.134C127.684 17.4282 127.563 17.558 127.269 17.5494C126.853 17.5407 126.43 17.5667 126.014 17.5407C125.616 17.5147 125.495 17.6618 125.495 18.0599C125.512 20.7509 125.504 23.4506 125.504 26.1417C125.504 26.8166 125.504 26.8166 124.837 26.8166C124.275 26.8166 123.713 26.8166 123.15 26.8166C122.449 26.8166 122.449 26.8166 122.449 26.133C122.449 24.1515 122.449 22.144 122.449 20.1452Z" fill="black"/>
<path d="M54.4872 25.7715C53.8209 26.3686 53.1806 26.732 52.4191 26.8618C51.4414 27.0349 50.4636 27.0262 49.5031 26.7926C47.8245 26.3859 46.8986 25.0706 46.9765 23.2535C47.0457 21.6874 48.1706 20.4846 49.8406 20.2077C50.9308 20.026 52.0297 20.1472 53.12 20.1126C53.4488 20.1039 53.7863 20.1039 54.1151 20.1126C54.3574 20.1212 54.4872 20.0433 54.4872 19.7751C54.4958 19.2646 54.4699 18.7627 54.3833 18.2695C54.2535 17.5513 53.8382 17.0321 53.1287 16.7985C52.073 16.4437 51.0087 16.4437 49.9444 16.7899C49.4945 16.9369 49.131 17.2225 48.8455 17.6032C48.6811 17.8195 48.534 17.8282 48.3609 17.6292C48.2831 17.5427 48.1879 17.4734 48.1013 17.3956C47.3485 16.686 47.3485 16.6601 48.1446 15.9765C48.6811 15.5179 49.3127 15.2323 50.0136 15.1198C51.1212 14.9381 52.2288 14.9295 53.319 15.1804C55.2053 15.6131 56.2177 16.7985 56.2437 18.7281C56.2783 21.2807 56.2523 23.8333 56.261 26.3859C56.261 26.732 56.1226 26.8531 55.7937 26.8272C55.5169 26.8099 55.2486 26.8099 54.9717 26.8272C54.5997 26.8531 54.4352 26.7147 54.4785 26.334C54.5045 26.1955 54.4872 26.0484 54.4872 25.7715ZM52.5489 21.4624C52.0124 21.4711 51.4846 21.4624 50.9481 21.4711C50.7664 21.4711 50.5761 21.5143 50.3944 21.5489C49.3647 21.7047 48.759 22.3796 48.7417 23.3833C48.7157 24.5169 49.1743 25.0966 50.2992 25.3129C51.1039 25.4687 51.9086 25.4514 52.7047 25.287C53.6046 25.1053 54.2708 24.4476 54.4006 23.5997C54.4872 23.0026 54.5218 22.3969 54.5045 21.7912C54.4958 21.5489 54.392 21.4624 54.1584 21.4624C53.6132 21.4711 53.0767 21.4624 52.5489 21.4624Z" fill="black"/>
<path d="M128.738 17.2832C128.738 15.1632 128.738 13.0433 128.738 10.9233C128.738 10.3609 128.746 10.3522 129.326 10.3522C129.958 10.3522 130.598 10.3695 131.23 10.3436C131.628 10.3263 131.749 10.482 131.749 10.8714C131.74 14.7912 131.74 18.7109 131.74 22.6307C131.74 22.7778 131.74 22.9162 131.74 23.0633C131.749 23.9372 132.034 24.2401 132.9 24.2574C133.903 24.2747 133.903 24.2747 133.903 25.2698C133.903 25.6592 133.895 26.0485 133.903 26.4379C133.912 26.6802 133.825 26.8273 133.557 26.8186C132.839 26.7927 132.121 26.8792 131.403 26.7408C129.81 26.4466 128.755 25.2179 128.746 23.5911C128.729 21.4971 128.738 19.3858 128.738 17.2832Z" fill="black"/>
<path d="M115.637 16.0459C116.624 15.1114 117.723 14.7652 118.96 14.8431C119.765 14.895 120.474 15.1719 121.089 15.6911C121.331 15.8901 121.357 16.0545 121.115 16.2795C120.518 16.8506 119.947 17.439 119.367 18.0187C119.211 18.1745 119.099 18.2351 118.9 18.062C118.277 17.5169 117.558 17.3957 116.806 17.7505C116.027 18.1139 115.733 18.8148 115.724 19.6282C115.707 21.8087 115.715 23.9806 115.715 26.1611C115.715 26.8273 115.715 26.8274 115.049 26.8274C114.443 26.8274 113.838 26.8274 113.232 26.8274C112.678 26.8274 112.661 26.81 112.661 26.2303C112.661 23.6517 112.661 21.0732 112.661 18.486C112.661 17.4909 112.661 16.4958 112.661 15.5007C112.661 14.9816 112.704 14.947 113.232 14.9383C113.855 14.9383 114.469 14.9556 115.092 14.9297C115.508 14.9123 115.681 15.0594 115.629 15.4748C115.62 15.6305 115.637 15.769 115.637 16.0459Z" fill="black"/>
<path d="M35.8662 15.0083C37.1988 15.0083 38.4621 15.2765 39.6216 15.9861C39.959 16.1937 39.9936 16.3668 39.6821 16.6264C39.4139 16.8427 39.2149 17.1888 38.9207 17.3186C38.5832 17.4657 38.3236 17.0677 38.0035 16.9465C36.7921 16.4879 35.572 16.3235 34.3347 16.7735C33.4174 17.1109 33.0021 18.0282 33.305 18.954C33.4694 19.4559 33.8501 19.7068 34.326 19.8626C34.923 20.0529 35.5461 20.0529 36.1604 20.1135C36.8786 20.1914 37.5968 20.226 38.2977 20.4163C39.3879 20.7192 40.184 21.3422 40.4263 22.5103C40.6945 23.7823 40.4436 24.9331 39.4398 25.8157C38.3842 26.7502 37.069 26.9666 35.7278 26.9666C34.4644 26.9666 33.2357 26.7589 32.1109 26.1186C30.8735 25.4177 30.8475 25.2446 31.8772 24.3015C32.0589 24.1371 32.1801 24.1025 32.3878 24.2755C33.8241 25.4956 35.5028 25.5994 37.242 25.21C38.2544 24.9851 38.7649 24.3274 38.7736 23.4362C38.7822 22.5969 38.4275 22.121 37.6141 21.8873C36.9132 21.6883 36.1864 21.7056 35.4768 21.6277C34.9577 21.5758 34.4471 21.5326 33.9366 21.4114C32.4743 21.0567 31.6003 20.1221 31.5052 18.8415C31.384 17.258 32.0936 16.038 33.4867 15.4323C34.2222 15.1208 34.8625 15.0083 35.8662 15.0083Z" fill="black"/>
<path d="M19.6334 23.1506C18.9585 23.0121 18.1538 22.8391 17.349 22.6747C13.7667 21.9219 10.1845 21.1691 6.60217 20.4163C5.9359 20.2778 5.9359 20.2692 6.07435 19.6029C6.19549 19.0405 6.32528 18.478 6.42911 17.9069C6.49834 17.5262 6.65409 17.4224 7.05212 17.5002C11.2661 18.4001 15.4887 19.2741 19.7026 20.174C20.7583 20.399 20.6631 20.174 20.4381 21.3075C20.3343 21.8267 20.2131 22.3545 20.1093 22.8737C20.066 23.064 19.9882 23.2025 19.6334 23.1506Z" fill="#F58025"/>
<path d="M9.15458 10.9579C9.22381 10.9838 9.30168 11.0185 9.37956 11.0531C12.6503 12.576 15.9125 14.0902 19.1833 15.6131C20.0312 16.0112 20.8792 16.4092 21.7359 16.7986C21.9868 16.9111 22.0474 17.0495 21.9262 17.3004C21.6147 17.9494 21.3032 18.5984 21.0177 19.2646C20.8965 19.5415 20.7581 19.5848 20.4898 19.455C19.1487 18.8233 17.7988 18.209 16.449 17.5773C13.732 16.314 11.015 15.0334 8.29795 13.7874C7.89992 13.6057 7.81339 13.4326 8.02106 13.0432C8.33256 12.4462 8.6008 11.8232 8.895 11.2088C8.93826 11.0963 8.97287 10.9492 9.15458 10.9579Z" fill="#F58025"/>
<path d="M18.4565 0.427734C18.6641 0.44504 18.7334 0.600791 18.8286 0.721931C20.2303 2.60826 21.6321 4.49458 23.0339 6.38091C24.3058 8.09418 25.5778 9.80744 26.8584 11.5121C27.0747 11.7976 27.0747 11.9534 26.7632 12.161C26.1921 12.5504 25.647 12.9744 25.1019 13.3984C24.8683 13.5801 24.7212 13.5628 24.5394 13.3119C21.8398 9.66035 19.1314 6.01749 16.4144 2.38328C16.25 2.16696 16.2327 2.03717 16.475 1.86411C17.0634 1.44877 17.6345 1.00748 18.2142 0.574832C18.3007 0.514261 18.3873 0.470999 18.4565 0.427734Z" fill="#F58025"/>
<path d="M13.282 4.96143C13.3772 5.03065 13.4551 5.08257 13.5329 5.14314C17.0374 8.05915 20.5331 10.9752 24.0375 13.8825C24.2279 14.0383 24.2971 14.1508 24.1067 14.3671C23.6049 14.9468 23.1203 15.5352 22.6444 16.1323C22.4887 16.3313 22.3589 16.3053 22.1772 16.1582C19.5986 14.0037 17.02 11.8578 14.4328 9.71185C13.5156 8.9504 12.5984 8.17164 11.6726 7.41884C11.4909 7.27174 11.3784 7.1506 11.5687 6.92563C12.0706 6.32858 12.5638 5.73153 13.0657 5.13448C13.1263 5.06526 13.2041 5.022 13.282 4.96143Z" fill="#F58025"/>
<path d="M12.9012 23.9291C15.0904 23.9291 17.2796 23.9377 19.4687 23.9204C19.8754 23.9204 20.0398 24.0329 20.0139 24.4569C19.9879 25.0885 19.9966 25.7202 20.0139 26.3605C20.0225 26.6893 19.9187 26.8278 19.5726 26.8278C15.0904 26.8191 10.6169 26.8191 6.13467 26.8278C5.7799 26.8278 5.69337 26.6807 5.69337 26.3605C5.71068 25.7116 5.71933 25.0626 5.69337 24.4136C5.67607 24.0242 5.84047 23.9291 6.20389 23.9291C8.43633 23.9377 10.6688 23.9291 12.9012 23.9291Z" fill="#F58025"/>
<path d="M57.6974 21.0044C57.6628 20.1218 57.7753 19.2738 58.0435 18.4604C58.7012 16.4789 60.051 15.2935 62.1364 15.0339C63.7285 14.8349 65.1735 15.181 66.359 16.3491C66.6272 16.6173 66.7051 16.8077 66.3763 17.0759C66.0994 17.3009 65.883 17.6903 65.5802 17.7768C65.2514 17.8634 65.0524 17.4048 64.7841 17.1971C62.8026 15.7174 60.0424 16.8769 59.5924 19.4122C59.3934 20.5284 59.3847 21.6533 59.6443 22.7609C59.9299 23.9896 60.6394 24.8895 61.8768 25.2183C63.0882 25.5471 64.239 25.3567 65.1389 24.3963C65.4418 24.0761 65.6667 24.0502 65.9263 24.3963C65.9869 24.4742 66.0734 24.5347 66.1426 24.6126C66.7829 25.2356 66.757 25.201 66.0907 25.824C63.9794 27.8055 58.8396 27.4767 57.8705 22.8993C57.7407 22.2677 57.6628 21.6274 57.6974 21.0044Z" fill="black"/>
<path d="M41.7844 17.95C41.7844 16.0204 41.7844 14.0821 41.7844 12.1525C41.7844 11.5728 41.8017 11.5555 42.3555 11.5555C43.5669 11.5468 43.5669 11.5468 43.5669 12.7582C43.5669 13.4937 43.5755 14.2292 43.5669 14.9647C43.5582 15.2676 43.6794 15.3714 43.9736 15.3714C44.7696 15.3628 45.557 15.3628 46.3531 15.3714C46.4656 15.3714 46.604 15.3281 46.6646 15.4579C46.7252 15.5877 46.5867 15.657 46.5089 15.7348C46.3791 15.8733 46.232 15.9858 46.1195 16.1329C45.583 16.8424 44.9167 17.2058 43.9995 17.0414C43.6534 16.9722 43.5669 17.1626 43.5669 17.4914C43.5755 19.4642 43.5669 21.4457 43.5755 23.4186C43.5755 23.6868 43.6188 23.9637 43.6707 24.232C43.7919 24.7944 44.2072 25.1578 44.7869 25.2097C45.0984 25.2357 45.4359 25.1751 45.7388 25.253C46.3704 25.4087 45.981 25.9366 46.0589 26.2913C46.1108 26.5163 46.1108 26.8105 45.7301 26.8105C45.2715 26.8019 44.8042 26.8365 44.3456 26.7759C42.7622 26.5509 41.8103 25.4174 41.793 23.7387C41.7757 21.8178 41.7844 19.8882 41.7844 17.95Z" fill="black"/>
</svg>
