<svg width="164" height="36" viewBox="0 0 164 36" fill="none" xmlns="http://www.w3.org/2000/svg">
<path d="M34.431 17.9528C34.431 27.4425 26.7405 35.1683 17.2155 35.1683C7.72581 35.1683 0 27.4778 0 17.9528C0 8.46312 7.69054 0.737305 17.2155 0.737305C26.7052 0.737305 34.431 8.46312 34.431 17.9528Z" fill="white"/>
<path d="M2.89277 27.4778C1.05833 24.7614 0 21.4806 0 17.9528C0 8.46312 7.69053 0.737305 17.2155 0.737305C22.2249 0.737305 26.7052 2.88924 29.8802 6.2759C26.5641 4.01813 20.2141 5.07646 14.1816 8.957C19.6497 5.60562 25.4705 5.07646 27.7988 8.07506C30.4799 11.497 27.6577 18.1998 21.4841 23.0328C15.3105 27.8658 9.06636 28.7478 7.9022 25.5022C7.47887 24.3028 7.12609 22.7506 9.63081 17.847H12.5589L13.1233 16.6828H10.16L11.9591 12.767H10.5127C6.87915 16.0831 3.28082 16.7886 3.28082 16.7886L2.78694 17.9528H4.79776C2.53999 21.4806 1.86972 24.9731 2.89277 27.4778Z" fill="#D71920"/>
<path d="M34.4312 17.9527C34.4312 27.4424 26.7407 35.1682 17.2157 35.1682C12.3121 35.1682 7.90241 33.1221 4.7627 29.8413C8.53741 32.4518 16.2279 30.688 23.0013 25.361C29.704 20.1047 33.3023 13.155 31.7854 8.85107C33.4787 11.4969 34.4312 14.6013 34.4312 17.9527Z" fill="#D71920"/>
<path d="M153.352 26.2422L152.364 26.1363V26.1716L153.176 26.4891L155.045 27.5474V27.8649L153.176 28.9938L152.364 29.3113V29.3466L153.352 29.2055H155.963V30.1227H150.953V29.2408L153.246 27.9002L153.811 27.6533V27.618L153.211 27.4063L150.953 26.1363V25.2544H155.963V26.2422H153.352Z" fill="#231F20"/>
<path d="M150.953 23.7016V22.7139H155.963V23.7016H150.953Z" fill="#231F20"/>
<path d="M155.75 18.0576C155.856 18.1987 155.927 18.4104 155.997 18.6573C156.032 18.9043 156.068 19.1512 156.068 19.3982C156.068 19.6804 156.032 19.9979 155.927 20.2448C155.821 20.5271 155.68 20.7387 155.468 20.9504C155.256 21.1621 155.009 21.3032 154.657 21.4443C154.339 21.5501 153.916 21.6207 153.457 21.6207C152.963 21.6207 152.54 21.5501 152.223 21.409C151.905 21.2679 151.623 21.0915 151.411 20.8798C151.199 20.6682 151.058 20.4212 150.988 20.139C150.882 19.8568 150.847 19.6098 150.847 19.3276C150.847 19.0454 150.882 18.7984 150.917 18.5868C150.953 18.3751 150.988 18.234 151.058 18.0929L151.905 18.2693C151.834 18.3751 151.799 18.5162 151.799 18.6573C151.764 18.7984 151.764 18.9748 151.764 19.2218C151.764 19.6098 151.905 19.9273 152.187 20.1743C152.469 20.4212 152.893 20.5271 153.493 20.5271C153.739 20.5271 153.986 20.4918 154.198 20.4565C154.41 20.3859 154.586 20.3154 154.727 20.2096C154.868 20.1037 155.009 19.9626 155.08 19.7862C155.151 19.6098 155.221 19.3982 155.221 19.1865C155.221 18.9748 155.186 18.7984 155.151 18.6573C155.115 18.5162 155.045 18.3751 154.974 18.2693L155.75 18.0576Z" fill="#231F20"/>
<path d="M150.988 16.8932C150.953 16.7874 150.953 16.6816 150.917 16.5405C150.882 16.3994 150.882 16.2935 150.882 16.1524C150.882 16.0113 150.847 15.9055 150.847 15.7996C150.847 15.6938 150.847 15.588 150.847 15.4821C150.847 15.2352 150.882 15.0235 150.917 14.7766C150.953 14.5649 151.023 14.3533 151.129 14.1769C151.235 14.0005 151.376 13.8594 151.552 13.7535C151.729 13.6477 151.976 13.5771 152.258 13.5771C152.681 13.5771 152.999 13.683 153.246 13.8594C153.493 14.0358 153.669 14.318 153.775 14.6355L153.986 14.2827L155.891 13.1538V14.2827L153.916 15.4116L153.81 15.9407H155.856V16.8932H150.988ZM151.764 15.4116C151.764 15.5174 151.764 15.6232 151.764 15.6938C151.764 15.7996 151.764 15.8702 151.799 15.9055H153.246V15.4821C153.246 15.1999 153.175 14.9882 153.069 14.8471C152.928 14.6707 152.752 14.6002 152.434 14.6002C152.223 14.6002 152.046 14.6707 151.94 14.8119C151.799 14.953 151.764 15.1294 151.764 15.4116Z" fill="#231F20"/>
<path d="M153.457 12.5197C152.611 12.5197 151.976 12.3433 151.517 11.9553C151.058 11.6025 150.847 11.0733 150.847 10.3678C150.847 10.015 150.917 9.69748 151.023 9.41526C151.164 9.13304 151.341 8.92137 151.552 8.74499C151.764 8.5686 152.046 8.42749 152.364 8.35693C152.681 8.28637 153.034 8.21582 153.422 8.21582C154.269 8.21582 154.904 8.39221 155.362 8.78026C155.821 9.13304 156.032 9.66221 156.032 10.3325C156.032 10.6853 155.962 11.0028 155.856 11.285C155.715 11.5672 155.539 11.7789 155.327 11.9553C155.115 12.1316 154.833 12.2728 154.516 12.3433C154.198 12.4844 153.845 12.5197 153.457 12.5197ZM153.457 11.4966C153.704 11.4966 153.951 11.4614 154.163 11.4261C154.374 11.3908 154.551 11.3203 154.727 11.2144C154.868 11.1086 155.009 11.0028 155.08 10.8616C155.151 10.7205 155.221 10.5441 155.221 10.3678C155.221 10.015 155.08 9.76804 154.798 9.55637C154.516 9.37998 154.092 9.27415 153.457 9.27415C153.21 9.27415 152.999 9.30943 152.787 9.3447C152.575 9.37998 152.399 9.45054 152.223 9.52109C152.081 9.59165 151.94 9.73276 151.87 9.83859C151.799 9.9797 151.729 10.1561 151.729 10.3325C151.729 10.6853 151.87 10.9675 152.152 11.1439C152.434 11.3908 152.858 11.4966 153.457 11.4966Z" fill="#231F20"/>
<path d="M160.373 8.56787H159.561V10.6845H159.244V8.56787H158.468V8.28564H160.373V8.56787Z" fill="#231F20"/>
<path d="M163.265 10.6845H162.947V8.6737L162.242 10.6845H161.959L161.289 8.63842V10.6845H160.972V8.28564H161.43L161.995 9.97897C161.995 9.97897 162.03 10.0495 162.065 10.1906C162.101 10.2612 162.101 10.3318 162.101 10.3318L162.242 9.9437L162.806 8.28564H163.229V10.6845H163.265Z" fill="#231F20"/>
<path d="M83.502 8.25098H99.1652V11.8846H88.1939V17.0351H98.2833V20.6687H88.1939V26.4895H99.518V30.1231H83.502V8.25098Z" fill="#231F20"/>
<path d="M116.698 30.1231L108.654 15.5887L108.584 15.6593V30.1231H104.209V8.25098H110.03L118.003 22.5384L118.074 22.5032V8.25098H122.448V30.1231H116.698Z" fill="#231F20"/>
<path d="M134.901 8.25027H127.457V30.1224H134.901C141.709 30.193 145.943 26.8063 145.943 19.1864C145.943 11.6017 141.709 8.21499 134.901 8.25027ZM134.583 26.4888H132.149V12.0603H134.583C140.157 11.9897 140.968 15.6939 140.968 19.1864C140.968 22.6788 140.122 26.5594 134.583 26.4888Z" fill="#231F20"/>
<path d="M39.4404 8.25098H57.1145V11.8846H50.6235V30.1231H45.9315V11.8846H39.4404V8.25098Z" fill="#231F20"/>
<path d="M75.141 20.8798C77.5751 19.9978 79.3037 17.6342 79.3037 14.8473C79.3037 14.5298 79.2685 14.2123 79.2332 13.8948C78.9157 11.884 77.8574 10.3318 76.0229 9.27342C75.8113 9.13231 74.4354 8.28564 70.3785 8.28564C70.3079 8.28564 70.2374 8.28564 70.1315 8.28564H60.8535V30.1578H65.5454V21.4442H70.5196C70.5196 21.4442 73.5888 28.1823 73.9768 30.1225H79.7624L75.141 20.8798ZM65.5454 11.9898H71.084C72.9538 12.0251 74.1179 12.6954 74.3296 14.2476V14.2829C74.3296 14.3534 74.3296 14.3887 74.3296 14.4592C74.3296 14.5298 74.3296 14.5651 74.3296 14.6356C74.3296 14.6709 74.3296 14.7062 74.3296 14.7415C74.3296 14.7767 74.3296 14.812 74.3296 14.8473C74.2943 16.7523 73.0949 17.7401 71.084 17.7753H65.5454V11.9898Z" fill="#231F20"/>
</svg>
