<svg width="143" height="45" viewBox="0 0 143 45" fill="none" xmlns="http://www.w3.org/2000/svg">
<path d="M89.9756 14.883C86.722 16.481 85.4983 19.3171 85.4839 22.7579C85.4695 26.1699 86.4772 29.1068 89.7309 30.7624C87.6434 37.1113 80.2867 44.1368 70.5978 44.655C59.023 45.2741 51.0905 37.3992 48.8878 31.1367C48.9166 31.0791 48.9454 31.0071 49.003 30.9783C51.3497 29.6826 52.4438 27.5663 52.7893 25.0181C53.1204 22.5707 53.0484 20.1377 52.0983 17.8055C51.508 16.337 50.529 15.2429 49.0462 14.6238C48.9166 14.5662 48.8159 14.4799 48.7007 14.4079C50.7018 8.04461 58.6199 0.198489 69.5901 0.356851C80.1284 0.515213 87.9169 8.11659 89.9756 14.883ZM69.1294 22.7579C69.1294 22.6859 69.1438 22.4268 69.1294 22.1532C68.8847 18.5397 67.1283 15.6892 63.1836 15.0557C59.93 14.5375 56.7915 15.9627 55.4383 18.7556C54.4881 20.728 54.4593 22.8299 54.776 24.9462C54.992 26.3714 55.539 27.6815 56.5468 28.7325C58.116 30.3737 60.1172 30.8487 62.3198 30.7912C65.2855 30.7048 67.7329 28.934 68.6543 26.1267C68.9998 25.0901 69.1726 24.0392 69.1294 22.7579ZM70.8858 15.5164C70.8858 20.4688 70.8858 25.3637 70.8858 30.2441C72.3398 30.2441 73.7075 30.2441 75.0464 30.2441C75.2479 29.8698 75.1903 29.5531 75.1903 29.2507C75.1903 26.5154 75.2335 23.78 75.176 21.0447C75.1616 20.0657 75.5647 19.3891 76.2413 18.8132C76.8891 18.2662 77.6378 17.8775 78.4872 18.2662C79.3078 18.6405 79.2934 19.4323 79.2934 20.1953C79.2934 23.2474 79.2934 26.285 79.2934 29.3371C79.2934 29.6394 79.207 29.9706 79.4805 30.2729C80.8194 30.2729 82.2015 30.2729 83.5691 30.2729C83.6123 30.1145 83.6555 30.0281 83.6555 29.9418C83.6555 26.3138 83.7563 22.7003 83.6123 19.0724C83.4972 16.1931 81.7264 14.7678 78.9766 15.0125C77.6665 15.1277 76.5436 15.6892 75.5934 16.6106C75.4207 16.7833 75.3055 17.0712 74.96 17.0137C74.6433 16.5818 74.8736 15.9627 74.4129 15.4732C73.29 15.4732 72.1095 15.3725 70.8858 15.5164Z" fill="#2C9326"/>
<path d="M101.954 15.3867C103.307 15.3291 104.588 15.3291 105.841 15.3867C106.157 15.833 106.042 16.3369 106.316 16.8551C107.367 15.6314 108.662 14.8828 110.275 14.8252C111.945 14.7676 113.255 15.4299 114.061 16.9559C114.407 16.8983 114.522 16.596 114.723 16.4088C116.019 15.1563 117.545 14.6093 119.33 14.9116C121.274 15.2427 122.512 16.668 122.584 18.9858C122.685 22.6569 122.613 26.3281 122.613 29.9848C122.613 30.1 122.555 30.2151 122.512 30.4167C121.029 30.5463 119.546 30.5607 118.121 30.4167C117.919 30.028 117.977 29.7113 117.977 29.3945C117.977 26.544 117.977 23.6935 117.977 20.8286C117.977 20.5407 117.991 20.2527 117.977 19.9648C117.948 19.3026 117.891 18.5971 117.156 18.3524C116.451 18.122 115.846 18.4532 115.371 19.0002C114.867 19.5761 114.579 20.1951 114.594 21.0157C114.637 23.7943 114.608 26.5728 114.608 29.3657C114.608 29.6681 114.651 29.9848 114.479 30.4167C113.053 30.5894 111.571 30.5319 110.145 30.4455C109.886 30.0712 109.944 29.7544 109.944 29.4377C109.944 26.5872 109.944 23.7367 109.944 20.8718C109.944 20.5119 109.944 20.1519 109.929 19.792C109.901 19.2306 109.829 18.6403 109.238 18.3956C108.605 18.122 108 18.3524 107.525 18.8131C106.906 19.4177 106.517 20.0944 106.532 21.0301C106.575 23.8375 106.546 26.6448 106.546 29.4521C106.546 29.7401 106.589 30.028 106.417 30.4455C105.02 30.5463 103.552 30.5175 101.997 30.4455C101.954 25.4067 101.954 20.4255 101.954 15.3867Z" fill="black"/>
<path d="M38.292 9.34032C39.818 9.12437 41.2865 8.93722 42.8269 8.86523C42.8269 11.4278 42.8269 13.9184 42.8269 16.4522C43.158 16.409 43.2876 16.1787 43.4604 16.0347C46.1813 13.7889 50.054 14.5663 51.508 17.7767C52.8901 20.8144 52.9045 23.9816 51.7528 27.0913C50.2411 31.1367 45.6054 32.2164 42.6541 29.3083C42.3806 29.5819 42.539 30.0138 42.3086 30.2873C41.7472 30.4457 39.127 30.4745 38.3064 30.3017C38.292 23.377 38.292 16.409 38.292 9.34032ZM47.6785 22.8299C47.6929 21.7645 47.6354 20.7136 47.2754 19.7058C46.8579 18.5253 46.1237 18.1078 44.8712 18.3094C43.8491 18.4677 42.8701 19.5475 42.8557 20.5264C42.8557 22.182 42.8701 23.8376 42.8413 25.4789C42.8269 26.0691 43.0573 26.4866 43.4748 26.8465C44.8424 27.9983 46.5556 27.5808 47.2179 25.9395C47.6354 24.9462 47.7073 23.8952 47.6785 22.8299Z" fill="black"/>
<path d="M100.903 23.0601C100.946 23.8087 100.831 24.7157 100.601 25.5939C99.5497 29.6537 96.1377 31.3093 92.6538 30.9062C88.5939 30.4311 86.3913 27.9549 86.1033 23.8231C86.0025 22.369 86.1033 20.9438 86.5784 19.5761C87.8453 15.9194 90.9694 14.5373 94.2662 14.8828C98.6715 15.3291 100.903 18.1077 100.903 23.0601ZM90.8974 22.9017C90.9118 23.8519 90.9118 24.8165 91.2285 25.7378C91.6604 26.9759 92.337 27.4798 93.5463 27.4654C94.6837 27.451 95.4179 26.8896 95.749 25.6803C96.2529 23.8231 96.2385 21.9371 95.749 20.08C95.4323 18.8851 94.6981 18.338 93.6039 18.3092C92.3802 18.2804 91.6748 18.7843 91.2429 19.9936C90.9118 20.9438 90.9118 21.9228 90.8974 22.9017Z" fill="black"/>
<path d="M12.7663 15.3008C14.2347 15.3008 15.6888 15.3008 17.0852 15.3008C17.3012 15.6607 17.2436 15.9774 17.2436 16.2797C17.2436 19.231 17.2436 22.1823 17.2436 25.1336C17.2436 25.4647 17.258 25.8103 17.3156 26.1414C17.5315 27.3075 18.2369 27.6962 19.3455 27.2931C20.31 26.9476 20.9435 26.0262 20.9435 24.9753C20.9435 22.096 20.9435 19.2166 20.9435 16.3373C20.9435 16.0062 20.9003 15.6607 21.1307 15.3008C22.5415 15.3008 23.9956 15.3008 25.4208 15.3008C25.6224 15.8622 25.6944 29.2366 25.4928 30.3452C24.2403 30.5035 22.959 30.4172 21.7497 30.4028C21.3466 29.9277 21.5626 29.395 21.3754 28.9775C21.0299 28.9775 20.9291 29.2366 20.7707 29.395C19.3023 30.8347 17.5315 31.1946 15.588 30.7627C13.9036 30.3884 12.8814 29.0351 12.6799 27.1635C12.5935 26.3285 12.5791 25.4935 12.5791 24.6441C12.5791 21.88 12.5791 19.1303 12.5791 16.3661C12.6079 16.0206 12.5647 15.6895 12.7663 15.3008Z" fill="black"/>
<path d="M0.789 15.3722C1.46564 15.0987 2.09909 15.3722 2.71814 15.1131C2.93409 14.1485 2.67495 13.1263 2.8909 12.0466C4.35935 11.7875 5.82779 11.6435 7.44021 11.5283C7.44021 12.7664 7.44021 13.9325 7.44021 15.1275C8.62073 15.3722 9.72926 15.0987 10.8666 15.329C10.8234 16.3944 10.6218 17.3877 10.4059 18.4099C9.47012 18.741 8.47676 18.3955 7.61297 18.6402C7.39702 18.9425 7.45461 19.2161 7.45461 19.4608C7.45461 21.3612 7.45461 23.2471 7.45461 25.1475C7.45461 25.3202 7.4546 25.4786 7.469 25.6513C7.58417 26.9902 8.304 27.4797 9.5853 27.0622C9.85883 26.9758 10.118 26.875 10.4779 26.7311C10.9818 27.6957 11.4712 28.6314 11.9607 29.5384C11.6872 29.9847 11.2841 30.1143 10.9242 30.2726C9.5709 30.8485 8.16004 31.0357 6.70599 30.8197C4.53211 30.4886 3.15004 28.9625 2.91969 26.6591C2.67495 24.3125 2.8621 21.9658 2.80452 19.6192C2.79012 19.3169 2.84771 19.0001 2.70374 18.6978C2.11348 18.3811 1.43685 18.7266 0.789 18.3811C0.717017 17.4021 0.702621 16.3944 0.789 15.3722Z" fill="black"/>
<path d="M140.349 26.1696C141.055 27.1486 141.717 28.0843 142.408 29.0489C141.371 29.9991 140.234 30.4886 138.982 30.7621C135.642 31.4819 132.474 30.2438 130.862 27.5373C128.933 24.298 129.35 18.2371 133.209 15.8761C135.786 14.2924 139.644 14.494 142.019 16.3799C142.134 16.4663 142.264 16.5383 142.466 16.6679C141.746 17.6468 141.112 18.525 140.508 19.36C140.09 19.4032 139.889 19.1585 139.658 19.0145C138.78 18.4386 137.815 18.3235 136.822 18.4962C135.944 18.6402 135.354 19.2161 135.066 20.0367C134.432 21.8218 134.389 23.6646 134.951 25.4786C135.498 27.2781 137.211 27.5229 138.866 26.9614C139.341 26.7886 139.773 26.4719 140.349 26.1696Z" fill="black"/>
<path d="M31.7413 30.3594C30.2728 30.3594 28.8188 30.3594 27.3071 30.3594C27.3071 25.335 27.3071 20.3538 27.3071 15.3006C28.646 15.1998 29.9129 15.2286 31.1942 15.2718C31.5685 16.078 31.4389 16.8986 31.6837 17.7192C32.202 16.7115 32.7922 15.8045 33.8 15.2718C34.8221 14.7248 35.8875 14.6672 36.9672 15.0703C37.0248 15.7613 36.5785 18.6262 36.305 19.3461C36.0602 19.5188 35.8011 19.418 35.542 19.3748C34.1311 19.1445 33.1521 19.634 32.5475 20.9153C32.1588 21.7359 31.8996 22.6141 31.914 23.5498C31.9284 25.4934 31.9284 27.4369 31.914 29.3805C31.914 29.6972 31.9716 30.0139 31.7413 30.3594Z" fill="black"/>
<path d="M128.601 30.3741C127.046 30.3741 125.607 30.3741 124.066 30.3741C124.066 25.3641 124.066 20.3973 124.066 15.3441C125.592 15.2145 127.075 15.2289 128.601 15.3297C128.601 20.3829 128.601 25.3209 128.601 30.3741Z" fill="black"/>
<path d="M129.047 9.98796C129.062 11.442 127.823 12.6513 126.312 12.6657C124.8 12.6657 123.605 11.5428 123.562 10.0887C123.533 8.60589 124.656 7.45417 126.182 7.42537C127.838 7.39658 129.033 8.46193 129.047 9.98796Z" fill="black"/>
<path d="M64.6377 22.8871C64.6377 23.9524 64.5801 25.0034 64.177 25.9967C63.7451 27.1053 62.9533 27.6667 61.8303 27.6523C60.7506 27.6523 59.858 27.0333 59.5125 25.9392C58.8934 23.938 58.879 21.9225 59.4837 19.9214C59.8436 18.7409 60.7506 18.1074 61.8879 18.1218C63.0253 18.1218 63.8171 18.7265 64.2202 19.907C64.3497 20.2957 64.4505 20.6844 64.5081 21.0875C64.5945 21.6922 64.6089 22.2824 64.6377 22.8871Z" fill="#2C9326"/>
</svg>
