<svg width="103" height="77" viewBox="0 0 103 77" fill="none" xmlns="http://www.w3.org/2000/svg">
<path d="M48.4657 14.8294C52.1622 12.9372 56.4086 12.8932 60.1271 14.7194C61.2052 15.2474 62.5253 14.7854 63.0534 13.7072C63.5815 12.6291 63.1194 11.309 62.0413 10.7809C57.0687 8.36064 51.3921 8.42664 46.4635 10.9349C37.9045 15.3134 34.5162 25.8526 38.8946 34.4116C41.0069 38.5481 44.6373 41.6284 49.0598 43.0586C50.82 43.6307 52.6242 43.9167 54.4284 43.9167C57.1567 43.9167 59.863 43.2786 62.3493 42.0025C63.4274 41.4524 63.8455 40.1323 63.2954 39.0541C62.7454 37.976 61.4252 37.558 60.3471 38.108C57.2447 39.6922 53.7023 39.9782 50.38 38.9221C47.0576 37.844 44.3513 35.5557 42.7671 32.4314C39.4887 26.0066 42.041 18.1077 48.4657 14.8294Z" fill="#FFCD00"/>
<path d="M76.4536 38.2185C76.2995 35.1821 73.9893 33.5099 70.7769 31.1997C69.3247 30.1435 67.4985 28.8454 65.4743 27.1292C64.0661 25.9411 61.9539 26.1171 60.7878 27.5252C59.5996 28.9334 59.7757 31.0456 61.1838 32.2118C63.4061 34.082 65.3203 35.4682 66.8825 36.5903C67.8726 37.3164 68.9727 38.1085 69.5668 38.6365C69.0827 39.2746 67.9606 40.4627 65.4743 42.663C65.4303 42.707 65.4083 42.751 65.3643 42.795C57.5754 48.3176 46.7282 47.5915 39.7534 40.6387C31.9865 32.8719 31.9865 20.2644 39.7534 12.4975C44.2199 8.03103 50.3586 5.9848 56.6073 6.8649C60.8978 7.48097 64.8142 9.41719 67.8946 12.4975C69.1927 13.7957 71.305 13.7957 72.6031 12.4975C73.9013 11.1994 73.9013 9.08715 72.6031 7.789C68.5107 3.67453 63.2961 1.07824 57.5534 0.264144C49.2145 -0.901989 41.0075 1.82632 35.0448 7.789C24.6817 18.1522 24.6817 35.0061 35.0448 45.3473C40.2154 50.5179 47.0362 53.1142 53.835 53.1142C60.6338 53.1142 67.4325 50.5179 72.6251 45.3473C72.8451 45.1273 73.0652 44.9292 73.3292 44.6212C75.4635 42.443 76.5636 40.4847 76.4536 38.2185Z" fill="#FFCD00"/>
<path d="M7.40934 70.078C7.18932 69.902 6.90329 69.704 6.57325 69.44C6.39723 69.3079 6.19921 69.2199 5.97918 69.2419C5.75916 69.2639 5.56113 69.3739 5.42912 69.528C5.14309 69.88 5.18709 70.3861 5.53913 70.6941C5.89117 71.0021 6.22121 71.2222 6.46324 71.4202C6.52924 71.4642 6.59525 71.5082 6.63926 71.5522C6.55125 71.6402 6.41923 71.7722 6.22121 71.9482C5.05508 72.7623 3.4929 72.6303 2.48078 71.6402C1.33665 70.4961 1.33665 68.6699 2.48078 67.5257C3.14086 66.8657 4.02096 66.5796 4.94506 66.7116C5.58314 66.7997 6.1332 67.0857 6.59525 67.5257C6.92529 67.8558 7.43135 67.8558 7.76138 67.5257C8.09142 67.1957 8.09142 66.6896 7.76138 66.3596C7.0573 65.6555 6.1552 65.2155 5.18709 65.0615C3.75693 64.8634 2.34877 65.3255 1.33665 66.3596C-0.445551 68.1418 -0.445551 71.0241 1.33665 72.8063C2.19475 73.6644 3.33888 74.1485 4.54902 74.1485C5.75916 74.1485 6.90329 73.6864 7.78339 72.7843C7.80539 72.7623 7.84939 72.7183 7.8714 72.6963C8.15743 72.4103 8.48747 71.9922 8.46546 71.4422C8.42146 70.8041 7.95941 70.4521 7.40934 70.078Z" fill="#FFCD00"/>
<path d="M16.9144 69.4179C16.9144 69.7259 16.8924 69.99 16.8704 70.166H11.4137C11.5898 71.7942 12.4919 72.4763 13.482 72.4763C14.1641 72.4763 14.7361 72.2122 15.2862 71.7942L16.2543 72.8503C15.5282 73.5544 14.6701 73.9724 13.416 73.9724C11.4797 73.9724 9.85156 72.3662 9.85156 69.5719C9.85156 66.7116 11.3257 65.1494 13.482 65.1494C15.7922 65.1934 16.9144 67.1296 16.9144 69.4179ZM15.2862 68.8238C15.1982 67.6577 14.6701 66.6896 13.328 66.6896C12.2498 66.6896 11.5898 67.4597 11.4357 68.8238H15.2862Z" fill="#FFCD00"/>
<path d="M25.5835 73.8198H23.9553V69.0233C23.9553 67.3071 23.3172 66.713 22.2611 66.713C21.183 66.713 20.5669 67.5051 20.5669 68.8693V73.8198H18.9387V65.3489H20.5669V66.163C20.985 65.5469 21.799 65.1729 22.6351 65.1729C24.5494 65.1729 25.5835 66.471 25.5835 68.9573V73.8198Z" fill="#FFCD00"/>
<path d="M34.6043 69.4179C34.6043 69.7259 34.5823 69.99 34.5603 70.166H29.1037C29.2797 71.7942 30.1818 72.4763 31.1719 72.4763C31.854 72.4763 32.4261 72.2122 32.9761 71.7942L33.9442 72.8503C33.2182 73.5544 32.3601 73.9724 31.1059 73.9724C29.1697 73.9724 27.5415 72.3662 27.5415 69.5719C27.5415 66.7116 29.0157 65.1494 31.1719 65.1494C33.4822 65.1934 34.6043 67.1296 34.6043 69.4179ZM32.9761 68.8238C32.8881 67.6577 32.3601 66.6896 31.0179 66.6896C29.9398 66.6896 29.2797 67.4597 29.1257 68.8238H32.9761Z" fill="#FFCD00"/>
<path d="M42.24 71.5085C42.24 73.3787 40.7658 74.0168 39.1376 74.0168C38.0155 74.0168 36.8053 73.5768 35.9692 72.9387L36.7173 71.6846C37.4874 72.2346 38.3455 72.5206 39.1156 72.5206C40.1277 72.5206 40.6338 72.1906 40.6338 71.5965C40.6338 70.9585 39.9077 70.6504 38.7196 70.1884C36.9373 69.4843 36.2993 68.8682 36.2993 67.5261C36.2993 66.0079 37.4654 65.2158 39.1156 65.2158C40.1497 65.2158 41.1838 65.6119 41.9099 66.1399L41.2058 67.4161C40.5238 66.932 39.8417 66.69 39.0716 66.69C38.3015 66.69 37.9275 67.02 37.9275 67.4601C37.9275 67.8781 38.2135 68.1862 39.4456 68.6922C41.2938 69.3963 42.24 69.9023 42.24 71.5085Z" fill="#FFCD00"/>
<path d="M46.266 63.2139C46.266 63.7859 45.804 64.27 45.2319 64.27C44.6598 64.27 44.1758 63.7859 44.1758 63.2139C44.1758 62.6198 44.6378 62.1357 45.2319 62.1357C45.782 62.1357 46.266 62.6198 46.266 63.2139ZM46.024 73.8191H44.3958V65.3481H46.024V73.8191Z" fill="#FFCD00"/>
<path d="M54.2749 71.5085C54.2749 73.3787 52.8007 74.0168 51.1725 74.0168C50.0504 74.0168 48.8402 73.5768 48.0042 72.9387L48.7522 71.6846C49.5223 72.2346 50.3804 72.5206 51.1505 72.5206C52.1626 72.5206 52.6687 72.1906 52.6687 71.5965C52.6687 70.9585 51.9426 70.6504 50.7545 70.1884C48.9723 69.4843 48.3342 68.8682 48.3342 67.5261C48.3342 66.0079 49.5003 65.2158 51.1505 65.2158C52.1846 65.2158 53.2187 65.6119 53.9448 66.1399L53.2407 67.4161C52.5587 66.932 51.8766 66.69 51.1065 66.69C50.3364 66.69 49.9624 67.02 49.9624 67.4601C49.9624 67.8781 50.2484 68.1862 51.4805 68.6922C53.3288 69.3963 54.2749 69.9023 54.2749 71.5085Z" fill="#FFCD00"/>
<path d="M62.35 66.624L61.3818 67.7901C60.6998 67.0861 60.1057 66.756 59.3576 66.756C58.1695 66.756 57.4214 67.8341 57.4214 69.5503C57.4214 71.2005 58.1035 72.4107 59.4016 72.4107C60.1717 72.4107 60.6338 72.0586 61.2718 71.3545L62.306 72.4107C61.6679 73.2468 60.8318 73.9949 59.3576 73.9949C57.3334 73.9949 55.7932 72.2567 55.7932 69.6164C55.7932 66.822 57.3994 65.1938 59.4236 65.1938C60.6338 65.1938 61.5799 65.6779 62.35 66.624Z" fill="#FFCD00"/>
<path d="M70.4686 73.8198H68.8844V72.9837C68.3123 73.5558 67.5202 73.9959 66.6181 73.9959C65.276 73.9959 63.7578 73.2258 63.7578 71.1355C63.7578 69.2433 65.166 68.3852 67.0582 68.3852C67.8283 68.3852 68.4443 68.4952 68.9064 68.7153V68.0772C68.9064 67.1531 68.3563 66.647 67.3442 66.647C66.4861 66.647 65.826 66.801 65.188 67.1751L64.5499 65.9209C65.342 65.4149 66.2221 65.1729 67.3882 65.1729C69.2364 65.1729 70.4906 66.097 70.4906 68.0112V73.8198H70.4686ZM68.8844 71.4216V70.2114C68.4443 69.9914 67.8723 69.8374 66.9922 69.8374C65.9581 69.8374 65.298 70.3214 65.298 71.0915C65.298 71.9276 65.826 72.4997 66.8822 72.4997C67.7403 72.4997 68.5104 71.9496 68.8844 71.4216Z" fill="#FFCD00"/>
<path d="M79.7533 69.7274C79.7533 72.6317 78.2131 73.9959 76.4969 73.9959C75.6608 73.9959 74.8687 73.5558 74.4287 73.0277V76.0641L72.8225 76.9222V65.3489H74.4287V66.163C75.0228 65.5909 75.7268 65.1729 76.5849 65.1729C78.3451 65.1949 79.7533 66.515 79.7533 69.7274ZM78.1251 69.7714C78.1251 67.6371 77.465 66.713 76.2769 66.713C75.5068 66.713 74.8247 67.2411 74.4067 67.7911V71.3556C74.7587 71.8616 75.5288 72.4777 76.3429 72.4777C77.487 72.4777 78.1251 71.5756 78.1251 69.7714Z" fill="#FFCD00"/>
<path d="M83.7143 63.2139C83.7143 63.7859 83.2522 64.27 82.6801 64.27C82.1081 64.27 81.624 63.7859 81.624 63.2139C81.624 62.6198 82.0861 62.1357 82.6801 62.1357C83.2302 62.1357 83.7143 62.6198 83.7143 63.2139ZM83.4722 73.8191H81.844V65.3481H83.4722V73.8191Z" fill="#FFCD00"/>
<path d="M90.0949 72.1465L89.8969 73.6207C89.5008 73.8407 88.9508 74.0167 88.3127 74.0167C87.1686 74.0167 86.4645 73.2906 86.4645 71.7724V66.8879H85.2764V65.3697H86.4645V62.9494L88.0487 62.0693V65.3477H90.0949V66.8659H88.0487V71.4644C88.0487 72.2565 88.2907 72.4765 88.9068 72.4765C89.3248 72.4985 89.7869 72.3225 90.0949 72.1465Z" fill="#FFCD00"/>
<path d="M98.3902 73.8198H96.806V72.9837C96.234 73.5558 95.4419 73.9959 94.5398 73.9959C93.1976 73.9959 91.6794 73.2258 91.6794 71.1355C91.6794 69.2433 93.0876 68.3852 94.9798 68.3852C95.7499 68.3852 96.366 68.4952 96.828 68.7153V68.0772C96.828 67.1531 96.278 66.647 95.2658 66.647C94.4078 66.647 93.7477 66.801 93.1096 67.1751L92.4715 65.9209C93.2636 65.4149 94.1437 65.1729 95.3099 65.1729C97.1581 65.1729 98.4122 66.097 98.4122 68.0112V73.8198H98.3902ZM96.784 71.4216V70.2114C96.344 69.9914 95.7719 69.8374 94.8918 69.8374C93.8577 69.8374 93.1976 70.3214 93.1976 71.0915C93.1976 71.9276 93.7257 72.4997 94.7818 72.4997C95.6619 72.4997 96.41 71.9496 96.784 71.4216Z" fill="#FFCD00"/>
<path d="M102.417 73.8187H100.788V62.9494L102.417 62.0693V73.8187Z" fill="#FFCD00"/>
</svg>
