<svg width="137" height="56" viewBox="0 0 137 56" fill="none" xmlns="http://www.w3.org/2000/svg">
<mask id="mask0_180_579" style="mask-type:luminance" maskUnits="userSpaceOnUse" x="10" y="26" width="27" height="18">
<path d="M36.9277 26.8188V33.1042L18.4627 43.6759L10.7031 39.0114V32.9704L18.4627 37.5217L36.9277 26.8188Z" fill="white"/>
</mask>
<g mask="url(#mask0_180_579)">
<path d="M55.7631 -6.38037H-18.8379V68.2206H55.7631V-6.38037Z" fill="url(#paint0_linear_180_579)"/>
</g>
<mask id="mask1_180_579" style="mask-type:luminance" maskUnits="userSpaceOnUse" x="5" y="0" width="32" height="32">
<path d="M18.7297 0.831055L5.35889 8.46971L10.471 11.7475L18.4622 6.9852L31.707 14.4772V17.4205L18.4622 24.9125L10.7026 20.3638V26.4047L18.4622 31.0666L36.9272 20.4976V11.6677L18.7297 0.831055Z" fill="white"/>
</mask>
<g mask="url(#mask1_180_579)">
<path d="M55.7631 -6.38037H-18.8379V68.2206H55.7631V-6.38037Z" fill="url(#paint1_linear_180_579)"/>
</g>
<mask id="mask2_180_579" style="mask-type:luminance" maskUnits="userSpaceOnUse" x="0" y="11" width="6" height="10">
<path d="M5.21765 20.2684L0 17.4203V11.6289L5.21765 14.477V20.2684Z" fill="white"/>
</mask>
<g mask="url(#mask2_180_579)">
<path d="M57.7724 -7.5459H-16.8286V67.0551H57.7724V-7.5459Z" fill="url(#paint2_linear_180_579)"/>
</g>
<mask id="mask3_180_579" style="mask-type:luminance" maskUnits="userSpaceOnUse" x="0" y="20" width="6" height="29">
<path d="M0 20.2686L5.21765 23.2196V48.2684L0 45.1373V20.2686Z" fill="white"/>
</mask>
<g mask="url(#mask3_180_579)">
<path d="M57.7724 -7.54492H-16.8286V67.0561H57.7724V-7.54492Z" fill="url(#paint3_linear_180_579)"/>
</g>
<path d="M44.5485 21.4986H44.8058V21.2413V11.7065V11.4492H44.5485H43.1489H42.8916V11.7065V21.2413V21.4986H43.1489H44.5485Z" fill="#192C4C"/>
<path d="M49.3389 21.4989H49.5962V21.2417V15.3319L53.3216 21.378L53.3962 21.5015H53.5403H54.8653H55.1225V21.2442V11.7094V11.4521H54.8653H53.4682H53.211V11.7094V17.6217L49.4804 11.5756L49.4058 11.4547H49.2617H47.9419H47.6846V11.712V21.2468V21.5041H47.9419H49.3389V21.4989Z" fill="#192C4C"/>
<path d="M61.5773 21.4989C62.3157 21.4989 62.9538 21.3266 63.4709 20.9895C63.9829 20.6782 64.392 20.2743 64.6827 19.7932C64.7882 19.6157 64.8808 19.4433 64.9554 19.276L64.958 19.2735L64.9606 19.2683C65.0352 19.0908 65.0918 18.8876 65.1278 18.6637C65.2024 18.2392 65.2384 17.524 65.2384 16.4768C65.2384 15.494 65.2153 14.82 65.1664 14.4134V14.4083V14.4032C65.1021 13.9786 64.9477 13.567 64.7084 13.1836C64.0369 12.0439 63.0181 11.4599 61.6777 11.4521H58.4462H58.189V11.7094V21.2442V21.5015H58.4462H61.5773V21.4989ZM63.5661 15.4554C63.5661 15.494 63.5687 15.5352 63.5687 15.5764C63.5687 15.5352 63.5687 15.494 63.5661 15.4554ZM63.5738 15.8156C63.5738 15.8594 63.5764 15.9057 63.5764 15.9494C63.5764 15.9031 63.5764 15.8594 63.5738 15.8156ZM63.5481 15.0566C63.5507 15.0875 63.5507 15.121 63.5533 15.1544C63.5533 15.121 63.5507 15.0875 63.5481 15.0566ZM62.9589 14.0301L62.9667 14.0404C63.1236 14.2231 63.2239 14.47 63.2677 14.7762C63.3037 15.1261 63.3217 15.7127 63.3217 16.5257C63.3217 17.3619 63.3037 17.9356 63.2677 18.2366C63.2317 18.5042 63.1493 18.7255 63.0207 18.8927L63.0155 18.9004L63.0104 18.9081C62.7042 19.3892 62.2128 19.6208 61.5156 19.6208H60.098V13.3252H61.5156H61.5182H61.5207C61.5413 13.3252 61.5593 13.3252 61.5799 13.3252C62.1742 13.3252 62.6245 13.5541 62.9538 14.0224L62.9589 14.0301ZM62.9512 13.6184C62.9589 13.6262 62.9641 13.6313 62.9718 13.639C62.9641 13.6313 62.9589 13.6236 62.9512 13.6184ZM62.9924 13.6622C62.9975 13.6699 63.0053 13.675 63.0104 13.6828C63.0053 13.675 63.0001 13.6673 62.9924 13.6622ZM63.0336 13.7059C63.0387 13.7136 63.0438 13.7188 63.0516 13.7265C63.0438 13.7214 63.0387 13.7136 63.0336 13.7059ZM63.0721 13.7548C63.0773 13.76 63.0824 13.7677 63.0876 13.7728C63.0824 13.7677 63.0773 13.7625 63.0721 13.7548ZM63.3191 14.1021C63.3552 14.169 63.3886 14.2385 63.4169 14.3131C63.3886 14.2385 63.3577 14.169 63.3191 14.1021ZM63.5816 16.5257C63.5816 16.4228 63.5816 16.3199 63.5816 16.2247C63.5816 16.3225 63.5816 16.4228 63.5816 16.5257ZM62.7788 13.4615C62.7866 13.4667 62.7943 13.4744 62.802 13.4795C62.7943 13.4718 62.7866 13.4667 62.7788 13.4615ZM62.8252 13.4975C62.8329 13.5027 62.8406 13.5104 62.8457 13.5155C62.838 13.5104 62.8303 13.5027 62.8252 13.4975ZM62.8663 13.5361C62.874 13.5413 62.8792 13.549 62.8869 13.5541C62.8818 13.549 62.874 13.5413 62.8663 13.5361ZM61.6417 13.0679C61.6494 13.0679 61.6597 13.0679 61.6674 13.0679C61.6597 13.0679 61.652 13.0679 61.6417 13.0679ZM61.7677 13.073C61.778 13.073 61.7857 13.0756 61.796 13.0756C61.7883 13.0756 61.778 13.0756 61.7677 13.073ZM61.8295 13.0807C61.8398 13.0807 61.8475 13.0833 61.8578 13.0833C61.8475 13.0807 61.8398 13.0807 61.8295 13.0807ZM61.8912 13.0859C61.9015 13.0885 61.9092 13.0885 61.9195 13.091C61.9092 13.0885 61.8989 13.0885 61.8912 13.0859ZM61.9504 13.0962C61.9607 13.0987 61.9684 13.0987 61.9787 13.1013C61.9684 13.0987 61.9607 13.0962 61.9504 13.0962ZM62.0096 13.1065C62.0199 13.109 62.0276 13.1116 62.0379 13.1116C62.0276 13.109 62.0173 13.109 62.0096 13.1065ZM62.0662 13.1193C62.0765 13.1219 62.0842 13.1245 62.0945 13.127C62.0842 13.1219 62.0765 13.1219 62.0662 13.1193ZM62.3929 13.2248C62.4006 13.23 62.4109 13.2325 62.4187 13.2377C62.4109 13.2325 62.4032 13.23 62.3929 13.2248ZM62.4444 13.2505C62.4521 13.2557 62.4624 13.2583 62.4701 13.2634C62.4624 13.2583 62.4547 13.2531 62.4444 13.2505ZM62.4958 13.2737C62.5036 13.2788 62.5138 13.2814 62.5216 13.2866C62.5138 13.284 62.5036 13.2788 62.4958 13.2737ZM62.5447 13.302C62.5524 13.3071 62.5602 13.3123 62.5705 13.3174C62.5627 13.3097 62.5524 13.3071 62.5447 13.302ZM62.5936 13.3303C62.6013 13.3354 62.609 13.3406 62.6193 13.3457C62.6116 13.3406 62.6013 13.3354 62.5936 13.3303ZM61.5773 13.0653C61.5851 13.0653 61.5902 13.0653 61.5979 13.0653C61.5928 13.0653 61.5851 13.0653 61.5773 13.0653ZM63.5919 20.5985C63.6742 20.5393 63.7539 20.475 63.8286 20.4081C63.7539 20.475 63.6742 20.5367 63.5919 20.5985Z" fill="#192C4C"/>
<path d="M68.8303 20.5854C69.4966 21.2337 70.3354 21.5682 71.3233 21.5759H71.3259H71.3285C72.3345 21.5656 73.1809 21.2311 73.8421 20.5802C74.5033 19.9447 74.8455 19.0829 74.8635 18.0126V18.01V18.0074V11.7041V11.4468H74.6062H73.2092H72.9519V11.7041V17.8531C72.9442 18.4294 72.7898 18.8667 72.4965 19.1575C72.1878 19.4688 71.807 19.618 71.3285 19.618C70.8525 19.618 70.4743 19.4688 70.1759 19.16L70.1733 19.1575L70.1707 19.1549C69.8697 18.8667 69.7128 18.4294 69.705 17.8531V11.7041V11.4468H69.4478H68.0507H67.7935V11.7041V18.0126C67.796 19.0854 68.1485 19.9499 68.8303 20.5854ZM68.1639 18.9748C68.1768 19.0288 68.1922 19.0803 68.2103 19.1343C68.1948 19.0803 68.1794 19.0288 68.1639 18.9748ZM68.0636 18.3882C68.0687 18.4422 68.0739 18.4937 68.0816 18.5451C68.0765 18.4937 68.0687 18.4422 68.0636 18.3882ZM68.0996 18.6558C68.1125 18.7304 68.1253 18.805 68.1434 18.877C68.1253 18.805 68.1099 18.733 68.0996 18.6558ZM68.3337 19.4585C68.3518 19.4997 68.3698 19.5408 68.3903 19.5794C68.3723 19.5408 68.3518 19.4997 68.3337 19.4585ZM68.5061 19.7878C68.5344 19.8315 68.5627 19.8779 68.591 19.919C68.5627 19.8753 68.5344 19.8315 68.5061 19.7878ZM69.2497 20.6111C69.2908 20.6445 69.332 20.6754 69.3757 20.7063C69.332 20.678 69.2908 20.6445 69.2497 20.6111ZM70.2762 21.1617C70.1501 21.1231 70.0292 21.0768 69.9109 21.0228C69.7925 20.9687 69.6793 20.907 69.5687 20.8401C69.6793 20.9096 69.7925 20.9687 69.9109 21.0228C70.0292 21.0768 70.1501 21.1231 70.2762 21.1617ZM70.6621 21.2569C70.7162 21.2672 70.7676 21.2749 70.8242 21.2826C70.7702 21.2749 70.7162 21.2672 70.6621 21.2569ZM70.904 21.2929C70.958 21.298 71.0146 21.3032 71.0712 21.3083C71.0146 21.3058 70.9606 21.3006 70.904 21.2929ZM71.3285 21.3186C71.3877 21.3186 71.4468 21.3161 71.5034 21.3135C71.4443 21.3186 71.3877 21.3186 71.3285 21.3186ZM71.5883 21.3083C71.6732 21.3032 71.7581 21.2929 71.8405 21.2826C71.7581 21.2955 71.6732 21.3032 71.5883 21.3083ZM72.8336 20.9893C72.8799 20.9661 72.9262 20.943 72.9725 20.9173C72.9262 20.9404 72.8799 20.9661 72.8336 20.9893ZM74.4647 19.052C74.4493 19.106 74.4339 19.1575 74.4159 19.2089C74.4339 19.1575 74.4493 19.1034 74.4647 19.052ZM72.6097 19.4096C72.5171 19.4945 72.4194 19.5665 72.3164 19.6283C72.4219 19.5665 72.5197 19.4945 72.6097 19.4096ZM72.0746 19.7466C72.1312 19.7235 72.1852 19.7003 72.2393 19.672C72.1852 19.7003 72.1312 19.7261 72.0746 19.7466ZM70.5849 19.7466C70.6699 19.7801 70.7548 19.8084 70.8474 19.829C70.7548 19.8084 70.6673 19.7801 70.5849 19.7466C70.5283 19.7235 70.4743 19.7003 70.4229 19.672C70.4743 19.7003 70.5283 19.7261 70.5849 19.7466Z" fill="#192C4C"/>
<path d="M80.711 21.5755H80.7136C81.8276 21.5627 82.6895 21.3003 83.2735 20.8011C83.8678 20.2917 84.1843 19.5353 84.2075 18.5499V18.5474V18.5448C84.2075 17.8115 83.981 17.158 83.536 16.6049C83.0831 16.0363 82.3808 15.6813 81.452 15.55H81.4494H81.4468C81.0146 15.4934 80.6698 15.4446 80.4203 15.4008C80.0241 15.3236 79.7359 15.1924 79.5687 15.0098C79.4066 14.8348 79.3268 14.6496 79.3268 14.4412C79.3346 14.063 79.4529 13.7902 79.6896 13.6076C79.9315 13.4198 80.2325 13.3271 80.6081 13.3271C81.3851 13.3451 82.1055 13.5767 82.7538 14.0166L82.9699 14.1633L83.114 13.9446L83.8936 12.7585L84.0274 12.5553L83.8318 12.4112C82.9442 11.7526 81.8868 11.4027 80.6904 11.377H80.6853H80.6801C79.6639 11.3872 78.8612 11.6703 78.2952 12.2208C77.7086 12.7791 77.4127 13.5201 77.4127 14.4206C77.4127 15.1744 77.6494 15.8279 78.1176 16.3579C78.5704 16.8725 79.2291 17.2069 80.0781 17.351H80.0807H80.0833C80.5258 17.4153 80.9348 17.4745 81.3028 17.5285C81.6475 17.5903 81.9048 17.7086 82.0643 17.8784C82.2187 18.0431 82.2933 18.2643 82.2881 18.5525C82.2779 19.0053 82.1055 19.6074 80.7187 19.6279C80.2453 19.6228 79.7977 19.5456 79.3912 19.399C78.9847 19.2523 78.6039 19.0285 78.2617 18.7377L78.0662 18.5705L77.8989 18.7686L76.9804 19.8543L76.8184 20.0473L77.0062 20.2145C78.043 21.1176 79.2857 21.5755 80.711 21.5755ZM77.8578 20.5258C77.6237 20.3766 77.3998 20.2094 77.1863 20.019C77.4024 20.2068 77.6262 20.3766 77.8578 20.5258C77.9247 20.567 77.9916 20.6082 78.061 20.6468C77.9941 20.6082 77.9247 20.567 77.8578 20.5258ZM79.1416 21.1047C78.802 21.0044 78.4752 20.8732 78.1665 20.7034C78.4752 20.8732 78.7994 21.0044 79.1416 21.1047C79.633 21.2488 80.1579 21.3183 80.7136 21.3183C80.1553 21.3183 79.633 21.2488 79.1416 21.1047ZM82.5531 18.5525C82.5557 18.3981 82.5377 18.2541 82.4991 18.1254C82.4888 18.0945 82.4785 18.0637 82.4682 18.0328C82.4811 18.0637 82.4914 18.0945 82.4991 18.1254C82.5377 18.2541 82.5531 18.3956 82.5531 18.5525ZM82.4554 17.9993C82.4451 17.9736 82.4322 17.9453 82.4194 17.9222C82.4297 17.9453 82.4425 17.971 82.4554 17.9993ZM83.0651 16.4814C83.006 16.4299 82.9468 16.3811 82.8825 16.3373C82.9468 16.3811 83.0085 16.4299 83.0651 16.4814ZM80.747 17.1838C80.6081 17.1632 80.464 17.1426 80.3174 17.122C80.464 17.1426 80.6055 17.1632 80.747 17.1838ZM79.0747 14.4334C79.0773 14.3177 79.0876 14.2122 79.1082 14.1118C79.0876 14.2122 79.0747 14.3202 79.0747 14.4334ZM79.1519 13.942C79.1699 13.888 79.1905 13.8366 79.2162 13.7877C79.1931 13.8391 79.1699 13.8906 79.1519 13.942ZM79.2471 15.0098C79.2188 14.966 79.1931 14.9197 79.1699 14.8734C79.1931 14.9197 79.2188 14.9634 79.2471 15.0098ZM80.3045 13.0879C80.4023 13.075 80.5078 13.0673 80.6132 13.0673C80.5052 13.0673 80.4023 13.0724 80.3045 13.0879ZM81.5214 13.1831C81.6192 13.2062 81.7144 13.2345 81.8096 13.2654C81.7144 13.2319 81.6192 13.2062 81.5214 13.1831ZM82.5043 13.5587C82.3242 13.4609 82.1415 13.3786 81.9511 13.3117C82.1415 13.3812 82.3242 13.4635 82.5043 13.5587C82.638 13.6307 82.7718 13.7105 82.9005 13.8005C82.7718 13.7131 82.638 13.6307 82.5043 13.5587ZM81.434 11.6908C81.5317 11.7063 81.6269 11.7217 81.7196 11.7423C81.6244 11.7217 81.5292 11.7063 81.434 11.6908ZM79.0284 11.9996C79.1931 11.9121 79.3706 11.8401 79.561 11.7835C79.8954 11.6857 80.2711 11.6342 80.6879 11.6291C80.8294 11.6317 80.9657 11.6394 81.1021 11.6522C80.9657 11.6394 80.8268 11.6317 80.6879 11.6291C80.2711 11.6317 79.8954 11.6831 79.561 11.7835C79.3706 11.8401 79.1931 11.9121 79.0284 11.9996C78.9461 12.0433 78.8689 12.0922 78.7943 12.1436C78.8689 12.0896 78.9486 12.0433 79.0284 11.9996ZM81.3053 11.6728C81.2436 11.6651 81.1844 11.6574 81.1227 11.6522C81.1844 11.66 81.2436 11.6651 81.3053 11.6728ZM79.1956 16.8184C79.4709 16.9419 79.7822 17.032 80.1296 17.0911C80.1759 17.0989 80.2248 17.104 80.2711 17.1117C80.2248 17.104 80.1784 17.0989 80.1296 17.0911C79.7797 17.0345 79.4684 16.9419 79.1956 16.8184ZM82.2393 19.4015C82.193 19.4504 82.1415 19.4967 82.0849 19.5379C82.1415 19.4941 82.193 19.4504 82.2393 19.4015ZM81.4314 19.808C81.4906 19.7952 81.5472 19.7797 81.6012 19.7643C81.5472 19.7823 81.4906 19.7952 81.4314 19.808C81.3722 19.8209 81.3105 19.8312 81.2487 19.8415C81.3105 19.8338 81.3722 19.8209 81.4314 19.808Z" fill="#192C4C"/>
<path d="M88.3243 21.2408V21.4981H88.5815H89.9786H90.2358V21.2408V13.2445H92.5102H92.7675V12.9873V11.706V11.4487H92.5102H86.0473H85.79V11.706V12.9873V13.2445H86.0473H88.3217V21.2408H88.3243Z" fill="#192C4C"/>
<path d="M96.4442 21.4989H96.7015V21.2417V17.4236H98.0702L99.9124 21.3497L99.9818 21.4989H100.146H101.809H102.228L102.04 21.1259L100.026 17.138C100.532 16.8936 100.931 16.5592 101.212 16.1449C101.536 15.6638 101.706 15.0695 101.713 14.3723V14.3671V14.362C101.685 13.4075 101.348 12.6614 100.705 12.1391C100.172 11.6837 99.4853 11.4521 98.6568 11.4521H95.0498H94.7925V11.7094V21.2442V21.5015H95.0498H96.4442V21.4989ZM99.511 13.4872L99.5162 13.4924C99.7503 13.6673 99.8686 13.9529 99.8763 14.3697C99.8763 14.7222 99.7709 15.0078 99.5547 15.2445L99.5522 15.247L99.5496 15.2496C99.336 15.4992 99.0119 15.6252 98.5616 15.633H96.7015V13.2505H98.6414C99.0273 13.2505 99.318 13.3303 99.5059 13.4872H99.511ZM99.6422 15.5223C99.6602 15.5043 99.6782 15.4889 99.6962 15.4709C99.6782 15.4889 99.6602 15.5069 99.6422 15.5223ZM99.8558 15.2805C99.8249 15.3242 99.7914 15.3654 99.7528 15.4065C99.7889 15.368 99.8249 15.3242 99.8558 15.2805ZM99.6705 13.284C99.6551 13.2711 99.6396 13.2608 99.6242 13.248C99.6422 13.2608 99.6551 13.2711 99.6705 13.284ZM100.442 16.5823C100.221 16.7496 99.9638 16.8936 99.6705 17.0094C99.9638 16.8936 100.221 16.7521 100.442 16.5823C100.525 16.518 100.602 16.4537 100.676 16.3816C100.602 16.4537 100.525 16.5206 100.442 16.5823ZM101.147 15.741C101.116 15.8002 101.086 15.8594 101.05 15.916C101.014 15.9726 100.977 16.0266 100.939 16.0806C100.9 16.1347 100.857 16.1861 100.813 16.235C100.857 16.1835 100.898 16.1321 100.939 16.0806C100.977 16.0266 101.016 15.9726 101.05 15.916C101.086 15.8594 101.116 15.8028 101.147 15.741ZM101.384 15.0541C101.369 15.1261 101.353 15.1956 101.333 15.2625C101.315 15.3294 101.291 15.3963 101.268 15.4606C101.291 15.3963 101.312 15.3294 101.333 15.2625C101.353 15.1956 101.369 15.1261 101.384 15.0541C101.399 14.982 101.41 14.91 101.42 14.8354C101.425 14.7942 101.43 14.7531 101.435 14.7119C101.43 14.7531 101.428 14.7942 101.42 14.8354C101.41 14.91 101.399 14.982 101.384 15.0541ZM101.235 13.2634C101.217 13.2197 101.199 13.1785 101.178 13.1373C101.196 13.1785 101.217 13.2222 101.235 13.2634ZM101.006 12.8415C101.057 12.9161 101.104 12.9958 101.147 13.0756C101.104 12.9933 101.057 12.9161 101.006 12.8415C100.954 12.7669 100.898 12.6948 100.839 12.6253C100.898 12.6922 100.954 12.7643 101.006 12.8415ZM100.249 12.1211C100.183 12.0773 100.113 12.0388 100.041 12.0027C100.113 12.0413 100.183 12.0799 100.249 12.1211ZM99.9329 11.9538C99.8583 11.9204 99.7837 11.8921 99.704 11.8664C99.7811 11.8895 99.8583 11.9204 99.9329 11.9538Z" fill="#192C4C"/>
<path d="M105.951 21.4981H106.208V21.2408V11.706V11.4487H105.951H104.554H104.296V11.706V21.2408V21.4981H104.554H105.951Z" fill="#192C4C"/>
<path d="M113.154 11.6211L113.092 11.4487H112.91H111.739H111.556L111.495 11.6211L108.137 21.1559L108.016 21.4981H108.379H109.861H110.046L110.105 21.3231L110.756 19.3678H113.887L114.543 21.3257L114.602 21.5007H114.788H116.265H116.627L116.506 21.1585L113.154 11.6211ZM111.332 17.5694L112.328 14.4589L113.324 17.5694H111.332Z" fill="#192C4C"/>
<path d="M124.749 21.4989H125.007V21.2417V19.8832V19.6259H124.749H120.504V11.7094V11.4521H120.247H118.85H118.593V11.7094V21.2442V21.5015H118.85H124.749V21.4989Z" fill="#192C4C"/>
<path d="M49.0483 33.6239H49.3056V33.3667V32.0082V31.7509H49.0483H44.8058V29.4586H48.3897H48.647V29.2013V27.92V27.6628H48.3897H44.8058V25.4502H49.0483H49.3056V25.1929V23.8344V23.5771H49.0483H43.1489H42.8916V23.8344V33.3667V33.6239H43.1489H49.0483Z" fill="#192C4C"/>
<path d="M57.4608 23.5771H57.2035V23.8344V29.7467L53.4729 23.7006L53.3983 23.5797H53.2542H51.937H51.6797V23.837V33.3667V33.6239H51.937H53.334H53.5913V33.3667V27.4569L57.3167 33.503L57.3913 33.6265H57.5354H58.8604H59.1177V33.3692V23.8344V23.5771H58.8604H57.4608Z" fill="#192C4C"/>
<path d="M63.8754 26.7285C63.9269 26.4507 64.0272 26.2268 64.1765 26.057L64.1842 26.0493L64.1893 26.0416C64.3128 25.8769 64.4826 25.7354 64.6884 25.6222C64.8865 25.5167 65.131 25.4576 65.4165 25.4498C65.8025 25.4576 66.1215 25.5682 66.3891 25.7869C66.6541 26.0287 66.8316 26.3091 66.9319 26.6513L66.986 26.8366H67.1789H68.6634H68.9722L68.9156 26.533C68.7586 25.684 68.3753 24.9636 67.7784 24.3873C67.1712 23.8058 66.3788 23.5074 65.4243 23.4971H65.4217H65.4191C64.6447 23.5074 63.9835 23.7029 63.4561 24.0811C62.9338 24.4464 62.5453 24.8709 62.3035 25.3443C62.1517 25.5991 62.0385 25.9335 61.9664 26.3323V26.3349V26.3374C61.8995 26.7285 61.8687 27.4721 61.8687 28.6041C61.8687 29.7181 61.8995 30.4565 61.9664 30.8553C62.0024 31.0766 62.0487 31.2644 62.1053 31.4136L62.1079 31.4187L62.1105 31.4239C62.1671 31.5577 62.2288 31.6992 62.2983 31.8458L62.3009 31.8484L62.3035 31.851C62.5453 32.3269 62.9364 32.7514 63.4612 33.1091C63.9861 33.4847 64.6447 33.6854 65.4191 33.7034H65.4243H65.4294C66.4354 33.6854 67.2844 33.3278 67.9508 32.6382C68.6094 31.9487 68.9542 31.0843 68.9722 30.068V30.0654V30.0629V28.123V27.8657H68.7149H65.432H65.1747V28.123V29.4814V29.7387H65.432H67.058V29.978C67.0503 30.5131 66.8959 30.9299 66.5846 31.2515L66.582 31.2541L66.5795 31.2566C66.2733 31.5885 65.8925 31.7506 65.4165 31.7506C65.1361 31.7506 64.8943 31.6915 64.7013 31.5731L64.6936 31.568L64.6859 31.5628C64.48 31.4599 64.3154 31.3235 64.1919 31.1589L64.1867 31.1512L64.179 31.1434C64.0298 30.9736 63.9295 30.7447 63.878 30.4617V30.4591V30.4565C63.8137 30.1426 63.7828 29.52 63.7828 28.6015C63.7777 27.683 63.8111 27.0527 63.8754 26.7285ZM63.6002 26.8237C63.6027 26.798 63.6079 26.7723 63.6104 26.7491C63.6053 26.7723 63.6027 26.7954 63.6002 26.8237C63.5976 26.8494 63.5924 26.8777 63.5899 26.906C63.5924 26.8752 63.595 26.8494 63.6002 26.8237ZM63.5821 26.9472C63.5796 26.9755 63.5744 27.0064 63.5718 27.0398C63.577 27.0064 63.5796 26.9781 63.5821 26.9472ZM63.5487 27.3563C63.5461 27.3949 63.5435 27.436 63.541 27.4798C63.5461 27.4386 63.5487 27.3974 63.5487 27.3563ZM64.1044 25.7457C64.2125 25.6325 64.336 25.5322 64.48 25.4473C64.336 25.5347 64.2099 25.6351 64.1044 25.7457ZM65.0666 25.2286C65.1413 25.2157 65.2159 25.2054 65.2956 25.2003C65.2159 25.2054 65.1387 25.2157 65.0666 25.2286ZM66.0392 25.3006C66.0855 25.316 66.1344 25.3366 66.1781 25.3572C66.1318 25.3366 66.0855 25.316 66.0392 25.3006ZM66.811 25.8666C66.7801 25.828 66.7493 25.7894 66.7158 25.7534C66.6669 25.6994 66.6129 25.6454 66.5563 25.5939C66.4971 25.545 66.4354 25.5013 66.3736 25.4627C66.4379 25.5013 66.4971 25.5476 66.5563 25.5939C66.6129 25.6454 66.6644 25.6968 66.7158 25.7534C66.7493 25.7894 66.7827 25.828 66.811 25.8666C66.8573 25.9232 66.8985 25.985 66.9371 26.0441C66.8985 25.9824 66.8573 25.9232 66.811 25.8666ZM67.1789 26.5793C67.1635 26.5304 67.148 26.4841 67.1326 26.4378C67.1172 26.3915 67.0966 26.3452 67.076 26.3014C67.0966 26.3452 67.1146 26.3915 67.1326 26.4378C67.1506 26.4841 67.1661 26.5304 67.1789 26.5793ZM65.1541 23.7672C65.2416 23.7621 65.3291 23.7569 65.4217 23.7569C65.5606 23.7595 65.697 23.7672 65.8282 23.7801C65.908 23.7878 65.9851 23.8007 66.0597 23.8135C65.9851 23.8007 65.908 23.7904 65.8282 23.7801C65.697 23.7646 65.5632 23.7569 65.4217 23.7569C65.3316 23.7569 65.2416 23.7595 65.1541 23.7672C65.0229 23.7775 64.8968 23.7929 64.7759 23.8135C64.8968 23.7929 65.0255 23.7775 65.1541 23.7672ZM62.1234 28.8974C62.1234 28.9617 62.1234 29.0235 62.1259 29.0852C62.1259 29.0235 62.1234 28.9617 62.1234 28.8974ZM62.1311 29.4377C62.1311 29.4943 62.1337 29.5483 62.1337 29.5998C62.1337 29.5457 62.1311 29.4917 62.1311 29.4377ZM62.1568 30.1684C62.1517 30.0834 62.1491 29.996 62.1439 29.9008C62.1465 29.996 62.1517 30.086 62.1568 30.1684ZM62.3858 31.4213C62.4141 31.4882 62.445 31.5577 62.4784 31.6271C62.4475 31.5551 62.4167 31.4882 62.3858 31.4213ZM63.6053 32.8981C63.4509 32.7926 63.3094 32.682 63.1808 32.5688C63.0779 32.4762 62.9852 32.381 62.8978 32.2832C62.854 32.2343 62.8154 32.1829 62.7769 32.134C62.8154 32.1854 62.8566 32.2343 62.8978 32.2832C62.9827 32.381 63.0779 32.4762 63.1808 32.5688C63.3094 32.682 63.4509 32.7926 63.6053 32.8981C63.6953 32.9624 63.7905 33.0242 63.8909 33.0756C63.7905 33.0216 63.6953 32.9624 63.6053 32.8981ZM62.6379 31.9256C62.6559 31.9539 62.6714 31.9796 62.6894 32.0079C62.6714 31.9796 62.6534 31.9513 62.6379 31.9256ZM67.1352 32.9676C67.1815 32.9393 67.2252 32.911 67.269 32.8801C67.2252 32.911 67.1789 32.9418 67.1352 32.9676ZM67.7629 32.4607C67.8581 32.3604 67.9482 32.2549 68.0305 32.1468C67.9482 32.2549 67.8607 32.3604 67.7629 32.4607ZM68.5451 31.1486C68.5296 31.2 68.5116 31.2515 68.4936 31.303C68.4756 31.3544 68.455 31.4033 68.4344 31.4522C68.455 31.4033 68.4756 31.3518 68.4936 31.303C68.5116 31.2515 68.5271 31.2 68.5451 31.1486C68.5785 31.0457 68.6043 30.9402 68.6274 30.8321C68.6043 30.9402 68.576 31.0457 68.5451 31.1486ZM68.7123 30.0629C68.7097 30.1812 68.7046 30.2996 68.6917 30.4128C68.7046 30.2996 68.7097 30.1838 68.7123 30.0629Z" fill="#192C4C"/>
<path d="M71.686 23.5768V23.8341V33.3663V33.6236H71.9433H73.3403H73.5976V33.3663V23.8315V23.5742H73.3403H71.9433H71.686V23.5768Z" fill="#192C4C"/>
<path d="M82.19 33.6236H82.3341H83.6591H83.9164V33.3663V23.8315V23.5742H83.6591H82.262H82.0048V23.8315V29.7438L78.2742 23.6977L78.1996 23.5768H78.0555H76.7382H76.481V23.8341V33.3663V33.6236H76.7382H78.1353H78.3926V33.3663V27.4566L82.118 33.5027L82.19 33.6236Z" fill="#192C4C"/>
<path d="M93.3906 33.6239V33.3667V32.0082V31.7509H93.1333H88.8882V29.4586H92.4721H92.7294V29.2013V27.92V27.6628H92.4721H88.8882V25.4502H93.1333H93.3906V25.1929V23.8344V23.5771H93.1333H87.2338H86.9766V23.8344V33.3667V33.6239H87.2338H93.1333H93.3906Z" fill="#192C4C"/>
<path d="M101.922 25.4502H102.179V25.1929V23.8344V23.5771H101.922H96.0224H95.7651V23.8344V33.3667V33.6239H96.0224H101.922H102.179V33.3667V32.0082V31.7509H101.922H97.6767V29.4586H101.261H101.518V29.2013V27.92V27.6628H101.261H97.6767V25.4502H101.922Z" fill="#192C4C"/>
<path d="M109.784 29.263C110.291 29.0186 110.689 28.6842 110.97 28.2699C111.294 27.7888 111.464 27.1945 111.472 26.4973V26.4921V26.487C111.443 25.5325 111.106 24.7864 110.463 24.2641C109.931 23.8087 109.244 23.5771 108.415 23.5771H104.808H104.551V23.8344V33.3667V33.6239H104.808H106.205H106.462V33.3667V29.5486H107.831L109.673 33.4747L109.743 33.6239H109.907H111.569H111.989L111.801 33.2509L109.784 29.263ZM106.462 25.373H108.402C108.788 25.373 109.079 25.4527 109.267 25.6097L109.272 25.6148L109.277 25.62C109.511 25.7949 109.63 26.0805 109.637 26.4973C109.637 26.8498 109.532 27.1353 109.316 27.372L109.313 27.3746L109.31 27.3772C109.097 27.6267 108.773 27.7528 108.323 27.7605H106.462V25.373ZM109.817 25.9724C109.828 26.0033 109.835 26.0342 109.843 26.065C109.838 26.0342 109.828 26.0033 109.817 25.9724ZM109.385 25.3755C109.308 25.3189 109.218 25.2701 109.12 25.2315C109.22 25.2701 109.308 25.3164 109.385 25.3755ZM108.608 27.9921C108.551 27.9998 108.495 28.0049 108.436 28.0075C108.495 28.0049 108.554 27.9998 108.608 27.9921ZM109.089 27.8583C109.184 27.8146 109.269 27.7605 109.346 27.6988C109.269 27.7605 109.182 27.8146 109.089 27.8583C109.02 27.8917 108.943 27.92 108.863 27.9406C108.943 27.9175 109.017 27.8892 109.089 27.8583ZM109.938 28.8874C110 28.8514 110.059 28.8102 110.118 28.7716C110.062 28.8128 110 28.8514 109.938 28.8874ZM110.574 28.3626C110.617 28.3111 110.659 28.2597 110.7 28.2082C110.659 28.2622 110.617 28.3137 110.574 28.3626ZM110.756 28.1259C110.792 28.0718 110.828 28.0152 110.862 27.9561C110.828 28.0152 110.795 28.0718 110.756 28.1259ZM110.952 27.7785C110.98 27.7168 111.006 27.655 111.029 27.5881C111.006 27.6525 110.98 27.7168 110.952 27.7785ZM110.875 25.1414C110.931 25.2418 110.98 25.3472 111.021 25.4553C110.978 25.3472 110.929 25.2418 110.875 25.1414C110.731 24.8816 110.538 24.6552 110.301 24.4622C110.221 24.3927 110.134 24.3284 110.046 24.2718C110.136 24.331 110.221 24.3927 110.301 24.4622C110.538 24.6552 110.728 24.8816 110.875 25.1414ZM109.969 24.2229C109.915 24.1895 109.858 24.1586 109.802 24.1303C109.858 24.1586 109.915 24.1921 109.969 24.2229Z" fill="#192C4C"/>
<path d="M114.315 23.5768H114.058V23.8341V33.3663V33.6236H114.315H115.712H115.969V33.3663V23.8315V23.5742H115.712H114.315V23.5768Z" fill="#192C4C"/>
<path d="M124.632 23.5771H124.375V23.8344V29.7467L120.644 23.7006L120.569 23.5797H120.425H119.105H118.848V23.837V33.3667V33.6239H119.105H120.502H120.76V33.3667V27.4569L124.485 33.503L124.56 33.6265H124.704H126.029H126.286V33.3692V23.8344V23.5771H126.029H124.632Z" fill="#192C4C"/>
<path d="M132.6 27.8657H132.342V28.123V29.4814V29.7387H132.6H134.226V29.978C134.218 30.5131 134.064 30.9299 133.752 31.2515L133.75 31.2541L133.747 31.2566C133.441 31.5885 133.06 31.7506 132.584 31.7506C132.304 31.7506 132.062 31.6915 131.869 31.5731L131.861 31.568L131.854 31.5628C131.648 31.4599 131.483 31.3235 131.36 31.1589L131.354 31.1512L131.347 31.1434C131.198 30.9736 131.097 30.7447 131.046 30.4617V30.4591V30.4565C130.981 30.1426 130.951 29.52 130.951 28.6015C130.951 27.683 130.984 27.0553 131.048 26.7311V26.7285V26.7259C131.1 26.4506 131.2 26.2268 131.349 26.057L131.357 26.0493L131.362 26.0416C131.486 25.8769 131.655 25.7354 131.861 25.6222C132.059 25.5167 132.304 25.4576 132.589 25.4498C132.975 25.4576 133.294 25.5682 133.562 25.7869C133.827 26.0287 134.004 26.3091 134.105 26.6513L134.159 26.8366H134.352H135.836H136.145L136.088 26.533C135.931 25.684 135.548 24.9636 134.951 24.3873C134.344 23.8058 133.552 23.5074 132.597 23.4971H132.595H132.592C131.818 23.5074 131.156 23.7029 130.629 24.0811C130.107 24.4464 129.718 24.8709 129.476 25.3443C129.325 25.5991 129.211 25.9335 129.139 26.3323V26.3349V26.3374C129.072 26.7285 129.042 27.4721 129.042 28.6041C129.042 29.7181 129.072 30.4565 129.139 30.8553C129.175 31.0766 129.222 31.2644 129.278 31.4136L129.281 31.4187L129.283 31.4239C129.34 31.5577 129.402 31.6992 129.471 31.8458L129.474 31.8484L129.476 31.851C129.718 32.3269 130.109 32.7514 130.634 33.1091C131.159 33.4847 131.818 33.6854 132.592 33.7034H132.597H132.602C133.608 33.6854 134.457 33.3278 135.124 32.6382C135.782 31.9487 136.127 31.0843 136.145 30.068V30.0654V30.0629V28.123V27.8657H135.888H132.6ZM132.978 31.9719C133.351 31.8999 133.673 31.7198 133.938 31.4316C133.673 31.7198 133.354 31.8999 132.978 31.9719ZM130.817 26.5613C130.806 26.5999 130.799 26.6385 130.791 26.6796C130.75 26.8932 130.719 27.2225 130.704 27.6702C130.719 27.2225 130.747 26.8932 130.791 26.6796C130.799 26.641 130.809 26.5999 130.817 26.5613ZM130.704 27.7371C130.701 27.7834 130.701 27.8297 130.698 27.8786C130.701 27.8322 130.701 27.7834 130.704 27.7371ZM130.696 28.0278C130.696 28.0792 130.693 28.1307 130.693 28.1821C130.693 28.1307 130.696 28.0767 130.696 28.0278ZM130.691 28.3442C130.691 28.3983 130.691 28.4549 130.691 28.514C130.691 28.4549 130.691 28.4008 130.691 28.3442ZM130.696 29.1727C130.696 29.1212 130.693 29.0698 130.693 29.0183C130.693 29.0723 130.696 29.1238 130.696 29.1727ZM130.704 29.4608C130.701 29.4145 130.701 29.3682 130.698 29.3193C130.701 29.3682 130.701 29.4171 130.704 29.4608ZM130.794 30.508C130.801 30.5491 130.809 30.5903 130.819 30.6289C130.809 30.5903 130.799 30.5491 130.794 30.508C130.752 30.2996 130.722 29.9754 130.706 29.5303C130.722 29.9728 130.75 30.2996 130.794 30.508ZM130.925 32.9959C130.891 32.9753 130.858 32.9547 130.824 32.9315C130.858 32.9547 130.889 32.9753 130.925 32.9959ZM131.738 25.3958C131.558 25.4936 131.403 25.6119 131.275 25.7457C131.231 25.792 131.192 25.8383 131.156 25.8872C131.133 25.9129 131.113 25.9387 131.092 25.967C131.113 25.9387 131.136 25.9129 131.156 25.8872C131.192 25.8383 131.234 25.792 131.275 25.7457C131.401 25.6119 131.555 25.4936 131.738 25.3958C131.856 25.3315 131.985 25.2826 132.129 25.2492C131.985 25.2852 131.856 25.3341 131.738 25.3958ZM132.234 25.2286C132.309 25.2157 132.384 25.2054 132.463 25.2003C132.386 25.2054 132.309 25.2157 132.234 25.2286ZM133.207 25.3006C133.253 25.316 133.302 25.3366 133.346 25.3572C133.302 25.3366 133.256 25.316 133.207 25.3006ZM133.981 25.8666C134.017 25.9129 134.051 25.9592 134.084 26.0081C134.051 25.9592 134.017 25.9104 133.981 25.8666ZM134.161 24.13C134.203 24.1506 134.241 24.1737 134.28 24.1969C134.241 24.1737 134.2 24.1506 134.161 24.13ZM134.596 24.4207C134.563 24.3924 134.529 24.3667 134.493 24.341C134.527 24.3667 134.563 24.3924 134.596 24.4207ZM132.324 23.7672C132.412 23.7621 132.499 23.7569 132.592 23.7569C132.731 23.7595 132.867 23.7672 132.998 23.7801C132.867 23.7646 132.733 23.7569 132.592 23.7569C132.499 23.7569 132.412 23.7595 132.324 23.7672ZM129.389 26.3786C129.397 26.3323 129.407 26.286 129.417 26.2423C129.427 26.1985 129.438 26.1548 129.448 26.111C129.438 26.1522 129.427 26.1959 129.417 26.2423C129.404 26.286 129.397 26.3297 129.389 26.3786C129.379 26.4378 129.371 26.5047 129.361 26.5819C129.368 26.5047 129.379 26.4352 129.389 26.3786ZM129.332 30.2867C129.335 30.3279 129.337 30.3665 129.34 30.405C129.34 30.3665 129.335 30.3279 129.332 30.2867ZM129.389 30.8116C129.379 30.7524 129.371 30.6829 129.361 30.6057C129.368 30.6829 129.379 30.7524 129.389 30.8116ZM130.351 32.5662C130.276 32.4993 130.204 32.4273 130.138 32.3578C130.204 32.4298 130.274 32.4993 130.351 32.5662ZM132.592 33.4461C132.744 33.4435 132.89 33.4332 133.032 33.4127C132.888 33.4332 132.741 33.4435 132.592 33.4461ZM134.933 32.4607C134.812 32.5868 134.684 32.6974 134.552 32.8003C134.684 32.6974 134.812 32.5842 134.933 32.4607ZM135.713 31.1486C135.679 31.2515 135.643 31.3544 135.602 31.4522C135.582 31.5011 135.558 31.5499 135.535 31.5988C135.512 31.6477 135.486 31.694 135.461 31.7403C135.486 31.694 135.51 31.6451 135.535 31.5988C135.558 31.5499 135.582 31.5011 135.602 31.4522C135.643 31.3544 135.682 31.2515 135.713 31.1486C135.746 31.0457 135.772 30.9402 135.795 30.8321C135.775 30.9402 135.746 31.0457 135.713 31.1486ZM135.883 30.0629C135.88 30.1812 135.875 30.2996 135.862 30.4128C135.852 30.526 135.834 30.6392 135.813 30.7498C135.834 30.6392 135.849 30.5285 135.862 30.4128C135.875 30.2996 135.88 30.1838 135.883 30.0629Z" fill="#192C4C"/>
<path d="M48.7338 36.4261C48.3633 36.1225 47.9851 35.9192 47.6172 35.8189L47.6095 35.8163L47.6018 35.8138C47.2467 35.7417 46.8763 35.7031 46.4981 35.7031H43.1508H42.8936V35.9604V45.4952V45.7525H43.1508H44.5479H44.8051V45.4952V42.0322H46.6781H46.6807H46.6833C47.7098 42.0142 48.5048 41.6643 49.0451 40.9954C49.5623 40.3702 49.8273 39.6678 49.8273 38.9037C49.8273 38.3454 49.7243 37.8514 49.5185 37.432C49.3178 37.0024 49.0554 36.6628 48.7338 36.4261ZM49.2844 37.5427C49.2612 37.4938 49.2381 37.4449 49.2149 37.3986C49.2381 37.4475 49.2612 37.4938 49.2844 37.5427ZM48.6824 36.7142C48.7158 36.7425 48.7518 36.776 48.7827 36.8069C48.7518 36.7734 48.7184 36.7425 48.6824 36.7142C48.6489 36.6859 48.6129 36.6576 48.5769 36.6293C48.6129 36.6551 48.6489 36.6834 48.6824 36.7142ZM48.1704 38.8651C48.1704 38.6644 48.1498 38.4843 48.1112 38.3248C48.1524 38.4843 48.1704 38.6644 48.1704 38.8651ZM46.619 40.1592H44.8026V37.5787H46.5701H46.5727H46.5752C46.5907 37.5787 46.6035 37.5787 46.619 37.5787C46.9303 37.5787 47.1953 37.6533 47.432 37.8077L47.4371 37.8102L47.4423 37.8128C47.5915 37.9029 47.7047 38.0212 47.7896 38.173C47.8719 38.3557 47.9157 38.5898 47.9157 38.8651C47.9157 39.1944 47.8128 39.4851 47.5966 39.7553C47.3831 40.0177 47.0641 40.1489 46.619 40.1592ZM47.4448 37.5144C47.4526 37.5195 47.4603 37.5221 47.468 37.5272C47.4603 37.5221 47.4526 37.5169 47.4448 37.5144ZM47.504 37.5478C47.5092 37.5504 47.5169 37.5555 47.522 37.5581C47.5143 37.553 47.5092 37.5504 47.504 37.5478ZM46.7013 37.3214C46.7116 37.3214 46.7219 37.3214 46.7322 37.324C46.7219 37.324 46.7116 37.3214 46.7013 37.3214ZM46.7682 37.3266C46.7785 37.3266 46.7888 37.3291 46.7991 37.3291C46.7888 37.3266 46.7785 37.3266 46.7682 37.3266ZM46.9637 37.3497C46.974 37.3523 46.9843 37.3523 46.9946 37.3549C46.9843 37.3549 46.974 37.3523 46.9637 37.3497ZM47.028 37.3626C47.0383 37.3652 47.0486 37.3677 47.0564 37.3703C47.0461 37.3677 47.0383 37.3652 47.028 37.3626ZM47.1515 37.3935C47.1618 37.396 47.1696 37.3986 47.1798 37.4012C47.1696 37.4012 47.1593 37.3986 47.1515 37.3935ZM47.2699 37.4346C47.2776 37.4372 47.2879 37.4423 47.2956 37.4449C47.2879 37.4423 47.2802 37.4398 47.2699 37.4346ZM47.3291 37.4604C47.3368 37.4629 47.3471 37.4681 47.3548 37.4706C47.3471 37.4655 47.3368 37.4629 47.3291 37.4604ZM47.3882 37.4861C47.396 37.4912 47.4037 37.4938 47.4114 37.4989C47.4037 37.4938 47.396 37.4887 47.3882 37.4861ZM47.1181 41.7441C47.0564 41.7518 46.9972 41.7595 46.9329 41.7621C46.9972 41.7569 47.0564 41.7518 47.1181 41.7441ZM47.257 41.7235C47.3677 41.7055 47.4757 41.6823 47.5786 41.6514C47.4731 41.6797 47.3677 41.7029 47.257 41.7235ZM47.6507 41.6309C47.7227 41.6077 47.7947 41.5846 47.8642 41.5563C47.7947 41.582 47.7253 41.6077 47.6507 41.6309ZM47.9337 41.5254C47.98 41.5048 48.0237 41.4842 48.0675 41.4636C48.0237 41.4842 47.9774 41.5074 47.9337 41.5254ZM48.4894 41.1909C48.5254 41.16 48.564 41.1292 48.5975 41.0983C48.5614 41.1292 48.5254 41.16 48.4894 41.1909Z" fill="#192C4C"/>
<path d="M54.0826 43.8789V35.9624V35.7051H53.8253H52.4257H52.1685V35.9624V45.4946V45.7519H52.4257H58.3252H58.5825V45.4946V44.1362V43.8789H58.3252H54.0826Z" fill="#192C4C"/>
<path d="M65.0225 35.8755L64.9608 35.7031H64.7781H63.6101H63.4274L63.3656 35.8755L60.0081 45.4103L59.8872 45.7525H60.25H61.7319H61.9171L61.9763 45.5775L62.6272 43.6222H65.7583L66.4144 45.5801L66.4736 45.7551H66.6588H68.1356H68.4984L68.3775 45.4129L65.0225 35.8755ZM63.201 41.8264L64.1967 38.7159L65.1923 41.8264H63.201Z" fill="#192C4C"/>
<path d="M74.1843 39.8015H74.1817C73.7495 39.7449 73.4047 39.696 73.1551 39.6523C72.7589 39.5751 72.4708 39.4439 72.3035 39.2612C72.1415 39.0863 72.0617 38.901 72.0617 38.6926C72.0694 38.3144 72.1878 38.0417 72.4245 37.859C72.6663 37.6712 72.9673 37.5786 73.343 37.5786C74.12 37.5966 74.8403 37.8282 75.4887 38.2681L75.7048 38.4148L75.8489 38.1961L76.6284 37.01L76.7622 36.8068L76.5667 36.6627C75.6791 36.0041 74.6216 35.6541 73.4253 35.6284H73.4201H73.415C72.3987 35.6387 71.596 35.9217 71.03 36.4723C70.4434 37.0306 70.1475 37.7716 70.1475 38.672C70.1475 39.4259 70.3842 40.0794 70.8525 40.6094C71.3053 41.1239 71.9639 41.4584 72.813 41.6025H72.8155H72.8181C73.2864 41.6719 73.6851 41.7285 74.0376 41.78C74.3824 41.8417 74.6397 41.9601 74.7992 42.1299C74.9535 42.2946 75.0282 42.5158 75.023 42.804C75.0127 43.2568 74.8403 43.8588 73.4536 43.8794C72.9802 43.8743 72.5325 43.7971 72.126 43.6504C71.7195 43.5038 71.3388 43.2799 70.9966 42.9892L70.801 42.822L70.6338 43.0201L69.7153 44.1058L69.5532 44.2988L69.741 44.466C70.7676 45.3716 72.0102 45.8322 73.4356 45.8322H73.4382H73.4407C74.5548 45.8193 75.4166 45.5569 76.0007 45.0577C76.595 44.5483 76.9114 43.7919 76.9346 42.8065V42.804V42.8014C76.9346 42.0681 76.7082 41.4147 76.2631 40.8615C75.8154 40.2878 75.1131 39.9327 74.1843 39.8015ZM75.1954 42.274C75.2082 42.3074 75.2211 42.3434 75.2314 42.3795C75.2211 42.3434 75.2082 42.31 75.1954 42.274ZM73.8369 40.015C73.7881 40.0073 73.7392 40.0022 73.6929 39.9945C73.7392 40.0022 73.7881 40.0099 73.8369 40.015ZM73.1654 39.9147C73.1603 39.9147 73.1551 39.9121 73.15 39.9121C73.1551 39.9147 73.1603 39.9147 73.1654 39.9147ZM72.4579 39.6934C72.5377 39.7346 72.6226 39.7732 72.7178 39.8041C72.7641 39.8195 72.8155 39.835 72.8644 39.8504C72.813 39.835 72.7641 39.8221 72.7178 39.8041C72.6226 39.7706 72.5377 39.7346 72.4579 39.6934ZM71.8765 38.2218C71.8919 38.1755 71.9073 38.1292 71.9279 38.088C71.9073 38.1292 71.8893 38.1755 71.8765 38.2218ZM76.2502 36.7527C76.3043 36.7888 76.3583 36.8273 76.4097 36.8685L75.6302 38.0546C75.4578 37.9362 75.2803 37.8333 75.0976 37.7433C75.0076 37.6995 74.9149 37.6584 74.8223 37.6198C74.6371 37.5452 74.4441 37.4834 74.2512 37.4371C73.9579 37.3676 73.6568 37.329 73.343 37.3213C73.1268 37.3213 72.9287 37.3496 72.7512 37.4037C72.9313 37.3471 73.1294 37.3213 73.343 37.3213C73.6543 37.329 73.9579 37.3676 74.2512 37.4371C74.4467 37.4834 74.6371 37.5452 74.8223 37.6198C74.9149 37.6584 75.0076 37.6995 75.0976 37.7433C75.2803 37.8333 75.4578 37.9362 75.6302 38.0546L76.4097 36.8685C76.3583 36.8273 76.3043 36.7913 76.2502 36.7527ZM74.8378 36.0915C74.9638 36.1275 75.0899 36.1687 75.2108 36.215C75.2726 36.2382 75.3317 36.2613 75.3935 36.2871C75.3343 36.2613 75.2726 36.2382 75.2108 36.215C75.0899 36.1687 74.9664 36.1275 74.8378 36.0915C74.7117 36.0555 74.5805 36.0246 74.4493 35.9963C74.5831 36.0221 74.7117 36.0555 74.8378 36.0915ZM73.7366 35.8986C73.6671 35.8934 73.5951 35.8883 73.5256 35.8857C73.5977 35.8883 73.6671 35.8934 73.7366 35.8986ZM72.9056 35.914C73.0702 35.896 73.2401 35.8857 73.4201 35.8831C73.2401 35.8857 73.0677 35.896 72.9056 35.914C72.7975 35.9269 72.692 35.9423 72.5891 35.9629C72.6895 35.9449 72.795 35.9269 72.9056 35.914ZM72.1518 36.0838C72.2444 36.0504 72.3396 36.0221 72.4373 35.9989C72.3396 36.0221 72.2418 36.0504 72.1518 36.0838C72.0617 36.1173 71.9717 36.1533 71.8868 36.1919C71.9717 36.1507 72.0591 36.1147 72.1518 36.0838ZM70.8345 37.1052C70.8139 37.1387 70.7933 37.1721 70.7727 37.2055C70.7907 37.1721 70.8113 37.1387 70.8345 37.1052ZM70.7419 37.2596C70.729 37.2853 70.7136 37.311 70.7007 37.3368C70.7136 37.311 70.7264 37.2853 70.7419 37.2596ZM70.6004 37.5606C70.5695 37.6404 70.5438 37.7201 70.518 37.8024C70.5438 37.7201 70.5695 37.6378 70.6004 37.5606ZM70.4074 38.672C70.4074 38.3916 70.4383 38.1292 70.4974 37.8873C70.4357 38.1292 70.4074 38.3916 70.4074 38.672ZM70.4974 39.4079C70.518 39.4851 70.5412 39.5597 70.5669 39.6343C70.5386 39.5597 70.5154 39.4851 70.4974 39.4079ZM70.6235 39.7758C70.6492 39.8375 70.6775 39.8967 70.7084 39.9533C70.6775 39.8941 70.6492 39.835 70.6235 39.7758ZM71.0454 40.437C70.9914 40.3752 70.9425 40.3135 70.8962 40.2518C70.8499 40.1874 70.8062 40.1231 70.765 40.0562C70.8062 40.1231 70.8473 40.19 70.8962 40.2518C70.9425 40.3161 70.9914 40.3778 71.0454 40.437C71.1741 40.5836 71.3233 40.7149 71.488 40.8306C71.3233 40.7174 71.1741 40.5862 71.0454 40.437ZM71.8096 41.0184C71.8842 41.057 71.9639 41.0905 72.0437 41.1239C72.1106 41.1522 72.1826 41.1754 72.2547 41.1985C72.1826 41.1754 72.1132 41.1497 72.0437 41.1239C71.9639 41.0931 71.8842 41.057 71.8096 41.0184ZM74.8198 41.8057C74.6319 41.6719 74.3849 41.5793 74.0814 41.5253C74.035 41.5176 73.9887 41.5124 73.9399 41.5047C73.8447 41.4918 73.7469 41.4764 73.6466 41.4635C73.7469 41.479 73.8447 41.4918 73.9399 41.5047C73.9862 41.5124 74.035 41.5176 74.0814 41.5253C74.3849 41.5793 74.6319 41.6719 74.8198 41.8057C74.8815 41.8495 74.9381 41.8983 74.9896 41.9524C74.9381 41.8983 74.8841 41.8495 74.8198 41.8057ZM74.9947 41.9575C75.0281 41.9935 75.0564 42.0296 75.0848 42.0681C75.0564 42.0296 75.0256 41.9935 74.9947 41.9575ZM74.758 45.4076C75.4449 45.2198 75.9492 44.8699 76.2682 44.3605C75.9492 44.8699 75.4449 45.2173 74.758 45.4076ZM76.631 43.3648C76.6001 43.5424 76.559 43.7096 76.5049 43.8665C76.4895 43.9103 76.4715 43.954 76.4561 43.9978C76.4123 44.1058 76.3609 44.2062 76.3043 44.3039C76.3609 44.2087 76.4123 44.1058 76.4561 43.9978C76.4741 43.954 76.4895 43.9103 76.5049 43.8665C76.559 43.7096 76.6027 43.5424 76.631 43.3648Z" fill="#192C4C"/>
<path d="M78.7817 35.7051H78.5244V35.9624V37.2436V37.5009H78.7817H81.0561V45.4972V45.7545H81.3133H82.7104H82.9676V45.4972V37.5009H85.242H85.4993V37.2436V35.9624V35.7051H85.242H78.7817Z" fill="#192C4C"/>
<path d="M87.7758 35.7051H87.5186V35.9624V45.4946V45.7519H87.7758H89.1754H89.4327V45.4946V35.9624V35.7051H89.1754H87.7758Z" fill="#192C4C"/>
<path d="M97.3138 42.5744H97.1466L97.0797 42.7262C96.7324 43.5006 96.2332 43.8788 95.5514 43.8788C95.271 43.8788 95.0292 43.8196 94.8336 43.7013L94.8259 43.6961L94.8182 43.691C94.6124 43.5881 94.4477 43.4517 94.3242 43.287L94.3191 43.2793L94.3114 43.2716C94.1621 43.1044 94.0618 42.8754 94.0103 42.5924V42.5898V42.5872C93.946 42.2733 93.9151 41.6507 93.9151 40.7322C93.9151 39.8138 93.9486 39.186 94.0129 38.8618V38.8592V38.8567C94.0644 38.5814 94.1647 38.3575 94.3139 38.1877L94.3216 38.18L94.3268 38.1723C94.4529 38.0076 94.6201 37.8661 94.8259 37.7529C95.024 37.6474 95.2684 37.5883 95.554 37.5806C95.9425 37.5883 96.259 37.6989 96.5265 37.9176C96.7915 38.1569 96.9691 38.4399 97.0694 38.7795L97.1234 38.9647H97.3164H98.8009H99.1096L99.053 38.6611C98.8961 37.8147 98.5127 37.0943 97.9133 36.518C97.3035 35.9391 96.5137 35.6407 95.5592 35.6304H95.5566H95.554C94.777 35.6407 94.1184 35.8362 93.591 36.2144C93.0687 36.5797 92.6802 37.0042 92.4384 37.4776C92.2866 37.7324 92.1708 38.0668 92.0987 38.4656V38.4682V38.4707C92.0319 38.8644 92.001 39.6054 92.001 40.7374C92.001 41.8514 92.0319 42.5898 92.0987 42.9886C92.1348 43.2099 92.1811 43.3977 92.2377 43.5469L92.2402 43.552L92.2428 43.5572C92.2994 43.6935 92.3637 43.835 92.4306 43.9791L92.4332 43.9817L92.4358 43.9843C92.6776 44.4602 93.0687 44.8848 93.5935 45.2424C94.1184 45.618 94.777 45.8187 95.5514 45.8367H95.554H95.5566C96.4159 45.8367 97.1697 45.5794 97.8026 45.0751L97.8052 45.0726L97.8078 45.07C98.4201 44.5606 98.8395 43.8299 99.053 42.8934L99.1251 42.5795H98.8009H97.3138V42.5744ZM95.2093 44.1052C95.2015 44.1052 95.1964 44.1026 95.1887 44.1026C95.1938 44.1026 95.2015 44.1052 95.2093 44.1052ZM94.9546 44.0383C94.9082 44.0203 94.8619 44.0023 94.8156 43.9817C94.8594 44.0023 94.9057 44.0229 94.9546 44.0383ZM94.6587 43.8968C94.5841 43.8556 94.512 43.8119 94.4477 43.7656C94.5146 43.8145 94.5841 43.8582 94.6587 43.8968ZM93.7299 38.9493C93.7273 38.975 93.7222 39.0033 93.7196 39.0316C93.7119 39.0882 93.7067 39.15 93.7016 39.2143C93.7067 39.1474 93.7145 39.0882 93.7196 39.0316C93.7248 39.0033 93.7273 38.975 93.7299 38.9493ZM93.6862 39.4278C93.6836 39.4664 93.681 39.505 93.6784 39.5436C93.681 39.5024 93.6836 39.4639 93.6862 39.4278ZM93.7093 42.33C93.7042 42.2862 93.7016 42.2399 93.6965 42.191C93.7016 42.2373 93.7067 42.2836 93.7093 42.33ZM93.7556 42.6335C93.7659 42.6953 93.7788 42.757 93.7942 42.8136C93.7788 42.757 93.7659 42.6979 93.7556 42.6335C93.7428 42.5718 93.7325 42.4972 93.7222 42.4149C93.7299 42.4998 93.7428 42.5718 93.7556 42.6335ZM94.3011 37.807C94.3036 37.8044 94.3062 37.8018 94.3088 37.7992C94.3088 37.8044 94.3036 37.8044 94.3011 37.807ZM94.6998 37.524C94.6304 37.5625 94.5661 37.6011 94.5043 37.6449C94.5661 37.6011 94.6304 37.56 94.6998 37.524ZM96.241 37.4545C96.1946 37.4365 96.1458 37.4185 96.0995 37.4056C96.0274 37.3825 95.9502 37.367 95.873 37.3516C95.8216 37.3439 95.7676 37.3361 95.7135 37.331C95.6595 37.3259 95.6055 37.3233 95.5489 37.3207C95.4665 37.3233 95.3868 37.3284 95.3096 37.3387C95.2324 37.349 95.1604 37.3619 95.0883 37.3773C95.1604 37.3593 95.2324 37.3464 95.3096 37.3387C95.3868 37.3284 95.4665 37.3233 95.5489 37.3207C95.6055 37.3207 95.6595 37.3259 95.7135 37.331C95.7676 37.3361 95.8216 37.3439 95.873 37.3516C95.9502 37.3644 96.0248 37.3825 96.0995 37.4056C96.1483 37.4185 96.1946 37.4339 96.241 37.4545C96.3104 37.4828 96.3773 37.5137 96.4442 37.5523C96.3799 37.5137 96.313 37.4802 96.241 37.4545ZM95.1707 35.9057C95.2504 35.8979 95.3302 35.8902 95.4151 35.8877C95.3302 35.8902 95.2504 35.8954 95.1707 35.9057ZM97.1466 38.2958C97.1234 38.2521 97.1003 38.2109 97.072 38.1697C97.0205 38.0874 96.9613 38.0102 96.8996 37.9356C96.9639 38.0102 97.0205 38.09 97.072 38.1697C97.0977 38.2109 97.1234 38.2521 97.1466 38.2958C97.1929 38.3807 97.2341 38.4707 97.2675 38.5634C97.2315 38.4682 97.1929 38.3807 97.1466 38.2958ZM97.1594 36.2736C97.0977 36.2376 97.0334 36.2067 96.9691 36.1758C97.0334 36.2067 97.0977 36.2401 97.1594 36.2736ZM96.56 36.024C96.6063 36.0369 96.6552 36.0523 96.6989 36.0677C96.6526 36.0523 96.6063 36.0369 96.56 36.024C96.5137 36.0111 96.4648 35.9983 96.4159 35.9854C96.4648 35.9957 96.5111 36.0086 96.56 36.024ZM95.7213 35.8877C95.7753 35.8902 95.8293 35.8928 95.8833 35.8979C95.9631 35.9057 96.0403 35.9134 96.1175 35.9262C96.1946 35.9391 96.2693 35.952 96.3439 35.9674C96.2693 35.952 96.1946 35.9365 96.1175 35.9262C96.0403 35.9134 95.9631 35.9057 95.8833 35.8979C95.8293 35.8928 95.7753 35.8902 95.7213 35.8877C95.6672 35.8851 95.6106 35.8825 95.5566 35.8825C95.6106 35.8825 95.6647 35.8851 95.7213 35.8877ZM95.0163 35.9237C94.6896 35.97 94.3937 36.06 94.1235 36.1887C94.3911 36.06 94.6896 35.97 95.0163 35.9237ZM92.3432 38.5454C92.3406 38.5685 92.3354 38.5891 92.3329 38.6148C92.338 38.5917 92.3406 38.5685 92.3432 38.5454ZM92.2891 39.1474C92.2866 39.1886 92.284 39.2297 92.284 39.2709C92.284 39.2272 92.2866 39.186 92.2891 39.1474ZM92.2608 40.0556C92.2608 40.1148 92.2583 40.1739 92.2583 40.2357C92.2583 40.1739 92.2583 40.1148 92.2608 40.0556ZM92.2634 41.6456C92.2634 41.6996 92.266 41.7536 92.2685 41.8051C92.2685 41.8308 92.2711 41.8591 92.2711 41.8849C92.2711 41.8591 92.2685 41.8334 92.2685 41.8051C92.266 41.7536 92.266 41.6996 92.2634 41.6456ZM92.4769 43.4491C92.4461 43.3694 92.4203 43.2767 92.3946 43.1713C92.4203 43.2742 92.4461 43.3668 92.4769 43.4491C92.4898 43.4826 92.5052 43.516 92.5181 43.5495C92.5052 43.5134 92.4898 43.48 92.4769 43.4491ZM92.8011 44.1026C92.7677 44.0512 92.7342 43.9971 92.7034 43.9431C92.6879 43.9148 92.6751 43.8891 92.6596 43.8608C92.6493 43.835 92.6365 43.8119 92.6262 43.7887C92.6365 43.8119 92.6493 43.8376 92.6596 43.8608C92.6725 43.8891 92.6879 43.9148 92.7034 43.9431C92.7342 43.9971 92.7651 44.0486 92.8011 44.1026C92.8706 44.2081 92.9478 44.3084 93.0327 44.4088C92.9452 44.3084 92.868 44.2081 92.8011 44.1026ZM93.7376 45.0237C93.5524 44.8976 93.3851 44.7638 93.2385 44.6249C93.2025 44.5889 93.1665 44.5554 93.133 44.5194C93.1665 44.5554 93.2025 44.5915 93.2385 44.6249C93.3851 44.7638 93.5524 44.8976 93.7376 45.0237C93.8277 45.088 93.9229 45.1497 94.0232 45.2012C93.9229 45.1497 93.8277 45.0906 93.7376 45.0237ZM94.3345 45.3453C94.4065 45.3736 94.4812 45.3993 94.5558 45.4225C94.4786 45.3993 94.4065 45.3736 94.3345 45.3453ZM95.554 45.5743C95.4177 45.5717 95.2864 45.5614 95.1578 45.546C95.2864 45.5614 95.4177 45.5691 95.554 45.5743C96.1561 45.5743 96.6963 45.443 97.1775 45.1781C96.6963 45.4405 96.1561 45.5743 95.554 45.5743ZM97.4142 45.034C97.4913 44.9825 97.566 44.9285 97.6406 44.8693C97.566 44.9259 97.4888 44.9825 97.4142 45.034ZM97.8438 44.6815C97.9081 44.6146 97.9725 44.5477 98.0316 44.4757C97.9725 44.5451 97.9081 44.6146 97.8438 44.6815ZM98.7134 43.1532C98.6825 43.2562 98.6491 43.3591 98.6105 43.4568C98.5565 43.6035 98.4947 43.7424 98.4253 43.8736C98.379 43.9611 98.3327 44.046 98.2812 44.1283C98.3327 44.046 98.3815 43.9611 98.4253 43.8736C98.4922 43.7424 98.5539 43.6035 98.6105 43.4568C98.6491 43.3591 98.6825 43.2562 98.7134 43.1532C98.7443 43.0503 98.7726 42.9423 98.7983 42.8316C98.7726 42.9423 98.7443 43.0478 98.7134 43.1532Z" fill="#192C4C"/>
<path d="M104.821 39.8015H104.818C104.386 39.7449 104.041 39.696 103.792 39.6523C103.396 39.5751 103.108 39.4439 102.94 39.2612C102.778 39.0863 102.698 38.901 102.698 38.6926C102.706 38.3144 102.824 38.0417 103.061 37.859C103.303 37.6712 103.604 37.5786 103.98 37.5786C104.757 37.5966 105.477 37.8282 106.125 38.2681L106.342 38.4148L106.486 38.1961L107.265 37.01L107.399 36.8068L107.203 36.6627C106.316 36.0041 105.258 35.6541 104.062 35.6284H104.057H104.052C103.035 35.6387 102.233 35.9217 101.667 36.4723C101.08 37.0306 100.784 37.7716 100.784 38.672C100.784 39.4259 101.021 40.0794 101.489 40.6094C101.942 41.1239 102.601 41.4584 103.45 41.6025H103.452H103.455C103.923 41.6719 104.322 41.7285 104.674 41.78C105.019 41.8417 105.276 41.9601 105.436 42.1299C105.59 42.2946 105.665 42.5158 105.66 42.804C105.649 43.2568 105.477 43.8588 104.09 43.8794C103.617 43.8743 103.169 43.7971 102.763 43.6504C102.356 43.5038 101.975 43.2799 101.633 42.9892L101.438 42.822L101.271 43.0201L100.352 44.1058L100.19 44.2988L100.378 44.466C101.404 45.3716 102.647 45.8322 104.072 45.8322H104.075H104.077C105.191 45.8193 106.053 45.5569 106.637 45.0577C107.232 44.5483 107.548 43.7919 107.571 42.8065V42.804V42.8014C107.571 42.0681 107.345 41.4147 106.9 40.8615C106.45 40.2878 105.75 39.9327 104.821 39.8015ZM106.704 41.0184C106.817 41.1599 106.918 41.3117 107 41.4661C106.915 41.3117 106.817 41.1625 106.704 41.0184ZM105.436 40.2003C105.328 40.1668 105.217 40.1385 105.099 40.1128C105.215 40.136 105.328 40.1668 105.436 40.2003ZM103.8 39.9147C103.794 39.9147 103.789 39.9121 103.784 39.9121C103.789 39.9147 103.794 39.9147 103.8 39.9147ZM103.329 39.7938C103.29 39.7809 103.254 39.7655 103.218 39.7501C103.254 39.7681 103.29 39.7809 103.329 39.7938ZM103.061 39.6754C103.046 39.6677 103.03 39.6574 103.015 39.6471C103.03 39.6574 103.046 39.6651 103.061 39.6754ZM103.98 37.3213C103.764 37.3213 103.565 37.3496 103.388 37.4037C103.568 37.3496 103.764 37.3213 103.98 37.3213ZM103.105 37.5246C103.149 37.5014 103.192 37.4808 103.239 37.4603C103.192 37.4783 103.146 37.5014 103.105 37.5246ZM106.887 36.7527C106.941 36.7888 106.995 36.8273 107.046 36.8685C106.995 36.8273 106.941 36.7913 106.887 36.7527C106.833 36.7141 106.779 36.6807 106.722 36.6447C106.776 36.6807 106.833 36.7167 106.887 36.7527ZM106.47 36.498C106.414 36.4672 106.354 36.4363 106.298 36.408C106.354 36.4363 106.411 36.4672 106.47 36.498ZM105.474 36.0915C105.57 36.1198 105.665 36.1481 105.757 36.1816C105.662 36.1481 105.57 36.1173 105.474 36.0915ZM102.786 36.0838C102.693 36.1173 102.606 36.1533 102.521 36.1919C102.606 36.1507 102.696 36.1147 102.786 36.0838ZM101.749 36.7527C101.746 36.7553 101.746 36.7553 101.744 36.7579C101.746 36.7553 101.749 36.7527 101.749 36.7527ZM101.042 38.672C101.042 38.8033 101.049 38.9293 101.065 39.0502C101.049 38.9268 101.042 38.8007 101.042 38.672ZM101.533 40.2518C101.487 40.1874 101.443 40.1231 101.402 40.0562C101.443 40.1231 101.484 40.1874 101.533 40.2518C101.582 40.3161 101.631 40.3778 101.682 40.437C101.705 40.4653 101.731 40.491 101.757 40.5167C101.731 40.491 101.708 40.4653 101.682 40.437C101.628 40.3778 101.579 40.3161 101.533 40.2518ZM101.762 40.5245C101.873 40.6377 101.993 40.738 102.125 40.8306C101.993 40.738 101.87 40.6377 101.762 40.5245ZM102.5 41.0442C102.56 41.0725 102.619 41.0982 102.68 41.1239C102.747 41.1522 102.819 41.1754 102.891 41.1985C102.819 41.1754 102.75 41.1497 102.68 41.1239C102.619 41.1008 102.56 41.0725 102.5 41.0442ZM104.556 41.5021C104.466 41.4893 104.376 41.4764 104.281 41.4635C104.376 41.4764 104.469 41.4893 104.556 41.5021ZM104.716 41.5253C104.677 41.5201 104.638 41.515 104.597 41.5099C104.638 41.5124 104.677 41.5201 104.716 41.5253ZM104.077 45.5749C104.566 45.5697 104.999 45.5157 105.377 45.4128C104.999 45.5131 104.566 45.5672 104.077 45.5749ZM106.622 44.7207C106.65 44.6924 106.679 44.6615 106.704 44.6307C106.676 44.6641 106.648 44.6924 106.622 44.7207ZM106.841 44.4557C106.854 44.4351 106.869 44.4171 106.882 44.3965C106.869 44.4145 106.856 44.4351 106.841 44.4557ZM106.959 44.2653C106.969 44.2473 106.98 44.2293 106.987 44.2113C106.98 44.2319 106.969 44.2499 106.959 44.2653ZM107.216 43.6015C107.224 43.5732 107.229 43.5424 107.237 43.5141C107.232 43.5449 107.224 43.5732 107.216 43.6015ZM107.311 42.9738C107.311 42.9712 107.311 42.9661 107.311 42.9635C107.311 42.9661 107.311 42.9686 107.311 42.9738Z" fill="#192C4C"/>
<mask id="mask4_180_579" style="mask-type:luminance" maskUnits="userSpaceOnUse" x="31" y="46" width="1" height="1">
<path d="M31.0787 46.9117C31.2097 46.8167 31.2508 46.6728 31.2662 46.5264C31.2791 46.3928 31.3022 46.2515 31.1995 46.1333C31.0119 46.254 30.9323 46.7473 31.0787 46.9117Z" fill="white"/>
</mask>
<g mask="url(#mask4_180_579)">
<path d="M55.7622 -6.37891H-18.8389V68.2221H55.7622V-6.37891Z" fill="url(#paint4_linear_180_579)"/>
</g>
<mask id="mask5_180_579" style="mask-type:luminance" maskUnits="userSpaceOnUse" x="29" y="45" width="2" height="2">
<path d="M29.909 46.3969C30.0709 46.3096 30.1582 45.7418 30.0349 45.5723C29.8602 45.6776 29.7805 46.1914 29.909 46.3969Z" fill="white"/>
</mask>
<g mask="url(#mask5_180_579)">
<path d="M55.7636 -6.37988H-18.8374V68.2211H55.7636V-6.37988Z" fill="url(#paint5_linear_180_579)"/>
</g>
<mask id="mask6_180_579" style="mask-type:luminance" maskUnits="userSpaceOnUse" x="31" y="44" width="1" height="2">
<path d="M31.1975 44.8853C31.0357 44.9829 30.9689 45.3734 31.0845 45.5635C31.2412 45.453 31.3106 45.0266 31.1975 44.8853Z" fill="white"/>
</mask>
<g mask="url(#mask6_180_579)">
<path d="M55.7626 -6.38086H-18.8384V68.2202H55.7626V-6.38086Z" fill="url(#paint6_linear_180_579)"/>
</g>
<mask id="mask7_180_579" style="mask-type:luminance" maskUnits="userSpaceOnUse" x="32" y="45" width="1" height="2">
<path d="M32.2638 46.1986C32.459 46.1292 32.5515 45.546 32.4 45.3765C32.2432 45.451 32.1533 45.9828 32.2638 46.1986Z" fill="white"/>
</mask>
<g mask="url(#mask7_180_579)">
<path d="M55.7641 -6.38037H-18.8369V68.2206H55.7641V-6.38037Z" fill="url(#paint7_linear_180_579)"/>
</g>
<mask id="mask8_180_579" style="mask-type:luminance" maskUnits="userSpaceOnUse" x="10" y="39" width="27" height="17">
<path d="M18.4627 49.8297L10.7031 45.281V51.3219L18.4627 55.9864L36.9251 45.4173V39.1294L18.4627 49.8297Z" fill="white"/>
</mask>
<g mask="url(#mask8_180_579)">
<path d="M55.7631 -6.38037H-18.8379V68.2206H55.7631V-6.38037Z" fill="url(#paint8_linear_180_579)"/>
</g>
<defs>
<linearGradient id="paint0_linear_180_579" x1="-18.8372" y1="68.2188" x2="55.7631" y2="-6.38143" gradientUnits="userSpaceOnUse">
<stop stop-color="#E84339"/>
<stop offset="0.5333" stop-color="#EF7C40"/>
<stop offset="1" stop-color="#F7A942"/>
</linearGradient>
<linearGradient id="paint1_linear_180_579" x1="-18.8372" y1="68.2188" x2="55.7631" y2="-6.38143" gradientUnits="userSpaceOnUse">
<stop stop-color="#E84339"/>
<stop offset="0.5333" stop-color="#EF7C40"/>
<stop offset="1" stop-color="#F7A942"/>
</linearGradient>
<linearGradient id="paint2_linear_180_579" x1="-16.8288" y1="67.0534" x2="57.7715" y2="-7.5468" gradientUnits="userSpaceOnUse">
<stop stop-color="#E84339"/>
<stop offset="0.5333" stop-color="#EF7C40"/>
<stop offset="1" stop-color="#F7A942"/>
</linearGradient>
<linearGradient id="paint3_linear_180_579" x1="-16.8288" y1="67.0544" x2="57.7715" y2="-7.54582" gradientUnits="userSpaceOnUse">
<stop stop-color="#E84339"/>
<stop offset="0.5333" stop-color="#EF7C40"/>
<stop offset="1" stop-color="#F7A942"/>
</linearGradient>
<linearGradient id="paint4_linear_180_579" x1="-18.8382" y1="68.2203" x2="55.7621" y2="-6.37997" gradientUnits="userSpaceOnUse">
<stop stop-color="#E84339"/>
<stop offset="0.5333" stop-color="#EF7C40"/>
<stop offset="1" stop-color="#F7A942"/>
</linearGradient>
<linearGradient id="paint5_linear_180_579" x1="-18.8367" y1="68.2193" x2="55.7635" y2="-6.38095" gradientUnits="userSpaceOnUse">
<stop stop-color="#E84339"/>
<stop offset="0.5333" stop-color="#EF7C40"/>
<stop offset="1" stop-color="#F7A942"/>
</linearGradient>
<linearGradient id="paint6_linear_180_579" x1="-18.8377" y1="68.2183" x2="55.7626" y2="-6.38192" gradientUnits="userSpaceOnUse">
<stop stop-color="#E84339"/>
<stop offset="0.5333" stop-color="#EF7C40"/>
<stop offset="1" stop-color="#F7A942"/>
</linearGradient>
<linearGradient id="paint7_linear_180_579" x1="-18.8362" y1="68.2188" x2="55.764" y2="-6.38143" gradientUnits="userSpaceOnUse">
<stop stop-color="#E84339"/>
<stop offset="0.5333" stop-color="#EF7C40"/>
<stop offset="1" stop-color="#F7A942"/>
</linearGradient>
<linearGradient id="paint8_linear_180_579" x1="-18.8372" y1="68.2188" x2="55.7631" y2="-6.38143" gradientUnits="userSpaceOnUse">
<stop stop-color="#E84339"/>
<stop offset="0.5333" stop-color="#EF7C40"/>
<stop offset="1" stop-color="#F7A942"/>
</linearGradient>
</defs>
</svg>
