<svg width="145" height="51" viewBox="0 0 145 51" fill="none" xmlns="http://www.w3.org/2000/svg">
<path d="M0.341797 38.1034V13.3125L21.9122 0.869141L43.3592 13.3125V38.1308L21.8573 50.5331L0.341797 38.1034Z" fill="#0052A3"/>
<path d="M21.913 1.26652L43.0311 13.5043V37.9252L21.8582 50.1356L0.685208 37.9115V13.5181L21.913 1.26652ZM21.913 0.47168L21.5704 0.663537L0.342604 12.9151L0 13.1069V13.5043V37.8978V38.2952L0.342604 38.487L21.5155 50.7112L21.8582 50.903L22.2008 50.7112L43.3737 38.5008L43.7163 38.3089V37.9115V13.5043V13.1069L43.3737 12.9151L22.2556 0.677242L21.913 0.47168Z" fill="black"/>
<mask id="mask0_180_469" style="mask-type:luminance" maskUnits="userSpaceOnUse" x="3" y="3" width="37" height="22">
<path d="M18.2811 5.55618L16.4721 10.7638L7.45478 11.8053L3.85059 13.8883L21.8853 24.3035L25.4895 22.2204L11.1001 13.9157L17.1162 13.2168L29.0937 20.1374L32.6979 18.0544L20.7204 11.1338L21.9264 7.66662L36.3021 15.9713L39.9063 13.8883L21.8853 3.47314L18.2811 5.55618Z" fill="white"/>
</mask>
<g mask="url(#mask0_180_469)">
<path d="M0.685059 13.5049L21.9128 1.26709L43.0172 13.5049V37.9257L21.858 50.1362L0.685059 37.8983V13.5049Z" fill="url(#paint0_linear_180_469)"/>
</g>
<path d="M4.31676 17.1899L2.50781 18.2315V36.9651L6.11201 39.0481V32.429L16.9383 38.6644V34.512L6.11201 28.2629V22.3975L20.5425 30.7297V26.5636L4.31676 17.1899Z" fill="url(#paint1_linear_180_469)"/>
<path d="M23.1323 26.5636V47.3802L26.7365 45.2972V41.1311L39.3581 33.8405L41.167 30.716V18.2315L39.3581 17.1899L23.1323 26.5636ZM26.7365 36.9651V28.6466L37.5491 22.3975V30.7297L26.7365 36.9651Z" fill="url(#paint2_linear_180_469)"/>
<path d="M55.4058 27.2763V16.5322H60.2159L61.2026 20.3146C61.2437 20.4516 61.2986 20.6709 61.3808 20.9861C61.463 21.3013 61.5452 21.6302 61.6275 22.0002C61.7097 22.3702 61.7919 22.6991 61.8741 23.0143H61.9975C62.0523 22.7813 62.1208 22.5072 62.1893 22.1921C62.2716 21.8769 62.3538 21.548 62.436 21.2191C62.5182 20.8902 62.5868 20.5887 62.6553 20.3146L63.642 16.5322H68.274V27.2763H64.985V23.398C64.985 22.9869 64.985 22.5484 64.9987 22.1098C64.9987 21.6713 65.0124 21.2465 65.0124 20.849C65.0124 20.4516 65.0261 20.1227 65.0261 19.8623H64.9028C64.8753 20.0679 64.8205 20.3146 64.7657 20.6024C64.7109 20.8764 64.6424 21.1642 64.5876 21.4383C64.519 21.7124 64.4642 21.9591 64.3957 22.1646L62.9842 27.2763H60.4078L58.9963 22.1646C58.9414 21.9591 58.8866 21.7124 58.8181 21.4383C58.7496 21.1642 58.6948 20.8902 58.64 20.6024C58.5851 20.3283 58.544 20.0816 58.5029 19.8897H58.3796C58.3933 20.1501 58.3933 20.479 58.407 20.8764C58.4207 21.2739 58.4207 21.685 58.4344 22.1235C58.4344 22.5621 58.4481 22.9869 58.4481 23.398V27.2763H55.4058Z" fill="black"/>
<path d="M72.7007 27.2763L76.6201 16.5322H80.6354L84.5548 27.2763H80.8958L80.4435 25.7551H76.6749L76.2227 27.2763H72.7007ZM77.4012 23.3569H79.7446L79.2239 21.6439C79.1828 21.5205 79.1416 21.3698 79.0868 21.1916C79.032 21.0135 78.9772 20.8216 78.9361 20.6298C78.8813 20.4379 78.8265 20.2324 78.7853 20.0405C78.7305 19.8486 78.6894 19.6842 78.6483 19.5334H78.525C78.4838 19.7253 78.429 19.9309 78.3605 20.1775C78.292 20.4242 78.2235 20.6709 78.1549 20.9176C78.0864 21.1779 78.0042 21.4109 77.9357 21.6439L77.4012 23.3569Z" fill="black"/>
<path d="M88.9673 27.2763V16.5322H95.696C96.4909 16.5322 97.1624 16.6967 97.6969 17.0119C98.2313 17.3408 98.6424 17.7519 98.9028 18.2727C99.1769 18.7934 99.3139 19.3553 99.3139 19.9583C99.3139 20.6435 99.1495 21.2602 98.8343 21.7946C98.5054 22.3291 98.0806 22.7539 97.5187 23.0828L99.6291 27.2626H95.7508L94.1063 23.6584H92.407V27.2763H88.9673ZM92.4207 21.2876H94.8464C95.1205 21.2876 95.3397 21.1779 95.5316 20.9724C95.7234 20.7531 95.8057 20.479 95.8057 20.1227C95.8057 19.9035 95.7646 19.7116 95.6823 19.5471C95.6001 19.3827 95.4905 19.2457 95.3397 19.1497C95.189 19.0538 95.0245 18.999 94.8464 18.999H92.4207V21.2876Z" fill="black"/>
<path d="M109.359 27.4676C108.139 27.4676 107.111 27.2621 106.289 26.8372C105.467 26.4261 104.836 25.7957 104.412 24.9735C103.987 24.1512 103.781 23.1234 103.781 21.9037C103.781 20.0674 104.247 18.6833 105.193 17.7514C106.138 16.8195 107.522 16.3398 109.359 16.3398C110.4 16.3398 111.305 16.518 112.086 16.8606C112.867 17.2032 113.456 17.724 113.895 18.4092C114.32 19.0944 114.539 19.944 114.539 20.9444H111.25C111.25 20.5333 111.181 20.1633 111.031 19.8618C110.88 19.5603 110.674 19.3273 110.4 19.1629C110.126 18.9984 109.784 18.9162 109.359 18.9162C108.865 18.9162 108.482 19.0259 108.18 19.2314C107.879 19.437 107.673 19.7248 107.536 20.1085C107.399 20.4785 107.331 20.917 107.331 21.4104V22.4108C107.331 22.9041 107.399 23.329 107.536 23.7127C107.673 24.0827 107.892 24.3842 108.18 24.5898C108.468 24.7953 108.852 24.905 109.318 24.905C109.77 24.905 110.154 24.8227 110.455 24.672C110.757 24.5212 110.976 24.2883 111.127 23.9868C111.277 23.6853 111.36 23.3427 111.36 22.9315H114.539C114.539 23.9045 114.333 24.7405 113.936 25.412C113.525 26.0835 112.936 26.6043 112.168 26.9469C111.387 27.2895 110.455 27.4676 109.359 27.4676Z" fill="black"/>
<path d="M124.858 27.4676C123.639 27.4676 122.597 27.2621 121.734 26.8372C120.87 26.4261 120.213 25.7957 119.747 24.9735C119.294 24.1512 119.062 23.1234 119.062 21.9037C119.062 20.6704 119.294 19.6563 119.747 18.834C120.199 18.0117 120.87 17.3951 121.734 16.9702C122.597 16.5591 123.639 16.3398 124.858 16.3398C126.092 16.3398 127.133 16.5454 127.997 16.9702C128.86 17.3951 129.518 18.0117 129.984 18.834C130.436 19.6563 130.669 20.6841 130.669 21.9037C130.669 23.1234 130.436 24.1375 129.984 24.9735C129.532 25.7957 128.86 26.4261 127.997 26.8372C127.133 27.2484 126.078 27.4676 124.858 27.4676ZM124.858 24.8912C125.228 24.8912 125.557 24.8364 125.845 24.7131C126.133 24.5898 126.366 24.4253 126.558 24.206C126.75 23.9868 126.887 23.7264 126.983 23.4249C127.078 23.1234 127.12 22.7808 127.12 22.4108V21.4104C127.12 21.0404 127.078 20.7115 126.983 20.3963C126.887 20.0948 126.75 19.8207 126.558 19.6151C126.366 19.3959 126.119 19.2314 125.845 19.1081C125.557 18.9847 125.228 18.9299 124.858 18.9299C124.488 18.9299 124.146 18.9847 123.872 19.1081C123.584 19.2314 123.351 19.3959 123.159 19.6151C122.967 19.8344 122.83 20.0948 122.734 20.3963C122.638 20.6978 122.597 21.0404 122.597 21.4104V22.4108C122.597 22.7808 122.638 23.1097 122.734 23.4249C122.83 23.7264 122.967 24.0005 123.159 24.206C123.351 24.4253 123.584 24.5898 123.872 24.7131C124.146 24.8364 124.475 24.8912 124.858 24.8912Z" fill="black"/>
<path d="M135.645 27.2763V16.5322H139.098V24.5355H144.607V27.2763H135.645Z" fill="black"/>
<path d="M55.4058 34.909V31.4692H57.941V32.0859H56.1458V32.9356H57.7492V33.5386H56.1458V34.909H55.4058Z" fill="black"/>
<path d="M58.9004 34.909L60.2297 31.4692H61.1479L62.4772 34.909H61.6686L61.422 34.2375H59.9145L59.6678 34.909H58.9004ZM60.1338 33.6208H61.2027L60.9012 32.7711C60.8875 32.73 60.8738 32.6889 60.8601 32.6341C60.8464 32.5793 60.819 32.5245 60.8053 32.4559C60.7916 32.3874 60.7642 32.3326 60.7505 32.2641C60.7367 32.1956 60.7093 32.1407 60.6956 32.0996H60.6682C60.6545 32.1682 60.6271 32.2367 60.5997 32.3189C60.5723 32.4011 60.5449 32.4833 60.5175 32.5656C60.4901 32.6478 60.4627 32.7026 60.449 32.7574L60.1338 33.6208Z" fill="black"/>
<path d="M63.8887 34.909V31.4692H65.8621C66.0402 31.4692 66.2047 31.5104 66.3554 31.5789C66.5062 31.6474 66.6158 31.7433 66.698 31.8804C66.7803 32.0037 66.8214 32.1545 66.8214 32.3326C66.8214 32.4696 66.794 32.593 66.7528 32.7026C66.698 32.8122 66.6295 32.8945 66.5473 32.963C66.4651 33.0315 66.3691 33.0863 66.2595 33.1137V33.1274C66.3828 33.1549 66.5062 33.2097 66.6021 33.2782C66.698 33.3467 66.7803 33.4426 66.8351 33.566C66.8899 33.6756 66.9173 33.8127 66.9173 33.9771C66.9173 34.1827 66.8762 34.3608 66.7802 34.4979C66.6843 34.6349 66.561 34.7445 66.3965 34.8131C66.2458 34.8816 66.0676 34.9227 65.8758 34.9227H63.8887V34.909ZM64.6424 32.8534H65.6428C65.7387 32.8534 65.8073 32.8397 65.8758 32.7985C65.9443 32.7574 65.9854 32.7163 66.0128 32.6615C66.0402 32.6067 66.0539 32.5382 66.0539 32.4559C66.0539 32.3189 66.0128 32.223 65.9443 32.1544C65.8758 32.0859 65.7798 32.0585 65.6565 32.0585H64.6424V32.8534ZM64.6424 34.2923H65.725C65.8484 34.2923 65.9443 34.2512 66.0265 34.1827C66.1087 34.1141 66.1499 34.0045 66.1499 33.8538C66.1499 33.7715 66.1362 33.6893 66.095 33.6345C66.0676 33.566 66.0128 33.5249 65.9443 33.4838C65.8758 33.4426 65.7935 33.4289 65.6839 33.4289H64.6424V34.2923Z" fill="black"/>
<path d="M68.5205 34.909V31.4692H70.4117C70.6721 31.4692 70.8776 31.5104 71.0421 31.6063C71.2065 31.7022 71.3436 31.8256 71.4258 31.99C71.508 32.1545 71.5491 32.3326 71.5491 32.5519C71.5491 32.7711 71.4943 32.9767 71.3984 33.1411C71.3025 33.3193 71.1517 33.4426 70.9598 33.5386L71.6588 34.9227H70.8365L70.2335 33.6619H69.2742V34.9227H68.5205V34.909ZM69.2605 33.0589H70.302C70.4528 33.0589 70.5761 33.0178 70.6584 32.9219C70.7406 32.826 70.7817 32.7026 70.7817 32.5519C70.7817 32.4559 70.768 32.36 70.7269 32.2915C70.6858 32.223 70.631 32.1682 70.5624 32.127C70.4939 32.0859 70.4117 32.0722 70.302 32.0722H69.2605V33.0589Z" fill="black"/>
<path d="M73.1797 34.909V31.4692H73.9334V34.909H73.1797Z" fill="black"/>
<path d="M77.2369 34.964C76.8806 34.964 76.5791 34.8955 76.3187 34.7721C76.0583 34.6488 75.8665 34.4569 75.7431 34.1829C75.6061 33.9225 75.5513 33.5799 75.5513 33.1687C75.5513 32.5658 75.702 32.1135 75.9898 31.8257C76.2913 31.538 76.7024 31.3872 77.2369 31.3872C77.5247 31.3872 77.7988 31.442 78.0317 31.5379C78.2647 31.6339 78.4566 31.7846 78.5799 31.9902C78.7169 32.1958 78.7855 32.4424 78.7855 32.7439H78.0317C78.0317 32.5795 78.0043 32.4424 77.9358 32.3328C77.8673 32.2232 77.7851 32.1409 77.6617 32.0861C77.5384 32.0313 77.4013 32.0039 77.2506 32.0039C77.0313 32.0039 76.8532 32.045 76.7161 32.1272C76.5791 32.2095 76.4694 32.3328 76.4146 32.4972C76.3461 32.6617 76.3187 32.8536 76.3187 33.0865V33.2373C76.3187 33.4839 76.3461 33.6758 76.4146 33.8403C76.4832 34.0047 76.5791 34.128 76.7161 34.2103C76.8532 34.2925 77.0313 34.3336 77.2369 34.3336C77.4013 34.3336 77.5521 34.3062 77.6754 34.2514C77.7988 34.1966 77.8947 34.1143 77.9632 34.0047C78.0317 33.8951 78.0591 33.758 78.0591 33.5936H78.7855C78.7855 33.8951 78.7169 34.1554 78.5936 34.3473C78.4703 34.5392 78.2784 34.7036 78.0454 34.7995C77.8125 34.9092 77.5384 34.964 77.2369 34.964Z" fill="black"/>
<path d="M80.0049 34.909L81.3342 31.4692H82.2524L83.5817 34.909H82.7731L82.5264 34.2375H81.019L80.7723 34.909H80.0049ZM81.2383 33.6208H82.3072L82.0057 32.7711C81.992 32.73 81.9783 32.6889 81.9646 32.6341C81.9509 32.5793 81.9235 32.5245 81.9098 32.4559C81.8961 32.3874 81.8687 32.3326 81.855 32.2641C81.8413 32.1956 81.8138 32.1407 81.8001 32.0996H81.7727C81.759 32.1682 81.7316 32.2367 81.7042 32.3189C81.6768 32.4011 81.6494 32.4833 81.622 32.5656C81.5946 32.6478 81.5672 32.7026 81.5535 32.7574L81.2383 33.6208Z" fill="black"/>
<path d="M85.4182 34.909V32.0996H84.3081V31.4692H87.2682V32.0996H86.1582V34.909H85.4182Z" fill="black"/>
<path d="M88.8032 34.909V31.4692H89.557V34.909H88.8032Z" fill="black"/>
<path d="M92.9138 34.9645C92.5438 34.9645 92.2286 34.8959 91.9682 34.7726C91.7078 34.6356 91.5023 34.4437 91.3652 34.1833C91.2282 33.9229 91.1597 33.594 91.1597 33.1829C91.1597 32.7718 91.2282 32.4429 91.3652 32.1825C91.5023 31.9221 91.7078 31.7303 91.9682 31.5932C92.2286 31.4699 92.5438 31.4014 92.9138 31.4014C93.2838 31.4014 93.599 31.4699 93.8594 31.5932C94.1198 31.7166 94.3253 31.9221 94.4624 32.1825C94.5994 32.4429 94.6679 32.7855 94.6679 33.1829C94.6679 33.5803 94.5994 33.9092 94.4624 34.1833C94.3253 34.4437 94.1198 34.6493 93.8594 34.7726C93.599 34.8959 93.2838 34.9645 92.9138 34.9645ZM92.9138 34.3478C93.0783 34.3478 93.2153 34.3204 93.3386 34.2792C93.462 34.2381 93.5716 34.1559 93.6538 34.0737C93.7361 33.9778 93.8046 33.8681 93.8457 33.7311C93.8868 33.594 93.9142 33.4433 93.9142 33.2651V33.1144C93.9142 32.9362 93.8868 32.7855 93.8457 32.6485C93.8046 32.5114 93.7361 32.4018 93.6538 32.3058C93.5716 32.2099 93.462 32.1414 93.3386 32.1003C93.2153 32.0592 93.0646 32.0318 92.9138 32.0318C92.7494 32.0318 92.6123 32.0592 92.489 32.1003C92.3656 32.1414 92.256 32.2099 92.1738 32.3058C92.0916 32.4018 92.023 32.5114 91.9819 32.6485C91.9408 32.7855 91.9134 32.9362 91.9134 33.1144V33.2651C91.9134 33.4433 91.9408 33.594 91.9819 33.7311C92.023 33.8681 92.0916 33.9778 92.1738 34.0737C92.256 34.1696 92.3656 34.2381 92.489 34.2792C92.6123 34.3341 92.7494 34.3478 92.9138 34.3478Z" fill="black"/>
<path d="M96.2993 34.909V31.4692H96.9845L98.3687 33.333C98.3824 33.3604 98.4098 33.3878 98.4372 33.4289C98.4646 33.4701 98.492 33.5112 98.5194 33.5523C98.5468 33.5934 98.5605 33.6208 98.5742 33.6482H98.6016C98.6016 33.5934 98.6016 33.5386 98.6016 33.4838C98.6016 33.4289 98.6016 33.3741 98.6016 33.333V31.4692H99.3142V34.909H98.629L97.2175 33.0041C97.1901 32.963 97.149 32.9082 97.1079 32.8534C97.0668 32.7985 97.0393 32.7574 97.0256 32.7163H96.9982C96.9982 32.7711 96.9982 32.8122 96.9982 32.8671C96.9982 32.9219 96.9982 32.963 96.9982 33.0041V34.909H96.2993Z" fill="black"/>
<path d="M102.425 34.9645C102.219 34.9645 102.028 34.9508 101.849 34.9097C101.671 34.8686 101.507 34.8001 101.37 34.7178C101.233 34.6356 101.123 34.5123 101.041 34.3752C100.959 34.2382 100.917 34.0737 100.917 33.8819C100.917 33.8682 100.917 33.8408 100.917 33.8271C100.917 33.8134 100.917 33.7997 100.917 33.786H101.658C101.658 33.7997 101.658 33.8134 101.658 33.8271C101.658 33.8408 101.658 33.8545 101.658 33.8682C101.658 33.9778 101.685 34.06 101.74 34.1423C101.795 34.2108 101.89 34.2656 102 34.3067C102.11 34.3478 102.247 34.3615 102.398 34.3615C102.493 34.3615 102.576 34.3615 102.658 34.3478C102.726 34.3341 102.795 34.3204 102.863 34.293C102.918 34.2656 102.973 34.2519 103.014 34.2108C103.055 34.1834 103.083 34.1423 103.096 34.1011C103.11 34.06 103.124 34.0189 103.124 33.9641C103.124 33.8682 103.096 33.7997 103.042 33.7448C102.987 33.69 102.905 33.6352 102.795 33.5941C102.699 33.553 102.576 33.5119 102.452 33.4845C102.329 33.4571 102.192 33.4159 102.055 33.3748C101.918 33.3337 101.795 33.2926 101.658 33.2378C101.534 33.183 101.411 33.1282 101.315 33.0459C101.219 32.9774 101.137 32.8815 101.068 32.7581C101.013 32.6485 100.972 32.5115 100.972 32.347C100.972 32.1826 101.013 32.0318 101.082 31.9085C101.15 31.7851 101.26 31.6892 101.383 31.607C101.52 31.5248 101.671 31.4699 101.836 31.4288C102 31.3877 102.192 31.374 102.398 31.374C102.589 31.374 102.768 31.3877 102.932 31.4288C103.096 31.4699 103.247 31.5248 103.371 31.607C103.494 31.6892 103.603 31.7989 103.672 31.9222C103.741 32.0455 103.782 32.1963 103.782 32.3744V32.4292H103.055V32.3881C103.055 32.2922 103.028 32.2237 102.973 32.1552C102.918 32.0866 102.85 32.0455 102.754 32.0044C102.658 31.9633 102.548 31.9496 102.411 31.9496C102.274 31.9496 102.151 31.9633 102.055 31.9907C101.959 32.0181 101.877 32.0592 101.836 32.114C101.781 32.1689 101.753 32.2237 101.753 32.2922C101.753 32.3744 101.781 32.4429 101.836 32.4841C101.89 32.5252 101.973 32.58 102.082 32.6211C102.178 32.6622 102.302 32.6896 102.425 32.7307C102.548 32.7718 102.685 32.7993 102.822 32.8267C102.959 32.8678 103.083 32.9089 103.22 32.9637C103.343 33.0185 103.466 33.0733 103.562 33.1556C103.658 33.2241 103.741 33.32 103.809 33.4296C103.864 33.5393 103.905 33.6763 103.905 33.8271C103.905 34.0874 103.836 34.3067 103.713 34.4712C103.59 34.6356 103.412 34.7452 103.192 34.8275C102.959 34.9234 102.713 34.9645 102.425 34.9645Z" fill="black"/>
<path d="M108.276 35.7045C108.002 35.3893 107.783 35.0467 107.632 34.6493C107.482 34.2655 107.413 33.8681 107.413 33.4433C107.413 33.0185 107.482 32.6347 107.632 32.2373C107.783 31.8536 107.989 31.4973 108.276 31.1958H108.715C108.592 31.4014 108.468 31.6206 108.372 31.881C108.263 32.1277 108.194 32.3881 108.126 32.6484C108.071 32.9088 108.043 33.1829 108.043 33.4296C108.043 33.69 108.071 33.9503 108.126 34.2107C108.181 34.4848 108.263 34.7452 108.372 34.9919C108.482 35.2385 108.592 35.4715 108.715 35.6771H108.276V35.7045Z" fill="black"/>
<path d="M110.319 34.909V31.4692H112.115C112.361 31.4692 112.567 31.5104 112.731 31.6063C112.896 31.7022 113.019 31.8256 113.101 31.99C113.184 32.1545 113.225 32.3463 113.225 32.5793C113.225 32.8123 113.184 33.0041 113.088 33.1686C113.005 33.333 112.868 33.4701 112.704 33.566C112.539 33.6619 112.32 33.703 112.073 33.703H111.059V34.909H110.319ZM111.059 33.0863H111.978C112.128 33.0863 112.252 33.0452 112.348 32.9493C112.43 32.8534 112.471 32.73 112.471 32.5793C112.471 32.4696 112.457 32.3737 112.416 32.3052C112.375 32.2367 112.32 32.1682 112.252 32.1407C112.183 32.0996 112.087 32.0859 111.978 32.0859H111.059V33.0863Z" fill="black"/>
<path d="M114.732 34.909V31.4692H115.486V34.2649H117.226V34.909H114.732Z" fill="black"/>
<path d="M118.349 34.909L119.678 31.4692H120.597L121.926 34.909H121.117L120.871 34.2375H119.363L119.117 34.909H118.349ZM119.582 33.6208H120.651L120.35 32.7711C120.336 32.73 120.323 32.6889 120.309 32.6341C120.295 32.5793 120.268 32.5245 120.254 32.4559C120.24 32.3874 120.213 32.3326 120.199 32.2641C120.185 32.1956 120.158 32.1407 120.144 32.0996H120.117C120.103 32.1682 120.076 32.2367 120.048 32.3189C120.021 32.4011 119.994 32.4833 119.966 32.5656C119.939 32.6478 119.911 32.7026 119.898 32.7574L119.582 33.6208Z" fill="black"/>
<path d="M124.681 34.9645C124.476 34.9645 124.284 34.9508 124.106 34.9097C123.928 34.8686 123.763 34.8001 123.626 34.7178C123.489 34.6356 123.379 34.5123 123.297 34.3752C123.215 34.2382 123.174 34.0737 123.174 33.8819C123.174 33.8682 123.174 33.8408 123.174 33.8271C123.174 33.8134 123.174 33.7997 123.174 33.786H123.914C123.914 33.7997 123.914 33.8134 123.914 33.8271C123.914 33.8408 123.914 33.8545 123.914 33.8682C123.914 33.9778 123.941 34.06 123.996 34.1423C124.051 34.2108 124.147 34.2656 124.256 34.3067C124.366 34.3478 124.503 34.3615 124.654 34.3615C124.75 34.3615 124.832 34.3615 124.914 34.3478C124.983 34.3341 125.051 34.3204 125.12 34.293C125.175 34.2656 125.229 34.2519 125.271 34.2108C125.312 34.1834 125.339 34.1423 125.353 34.1011C125.366 34.06 125.38 34.0189 125.38 33.9641C125.38 33.8682 125.353 33.7997 125.298 33.7448C125.243 33.69 125.161 33.6352 125.051 33.5941C124.955 33.553 124.832 33.5119 124.709 33.4845C124.585 33.4571 124.448 33.4159 124.311 33.3748C124.174 33.3337 124.051 33.2926 123.914 33.2378C123.791 33.183 123.667 33.1282 123.571 33.0459C123.475 32.9774 123.393 32.8815 123.325 32.7581C123.27 32.6485 123.229 32.5115 123.229 32.347C123.229 32.1826 123.27 32.0318 123.338 31.9085C123.407 31.7851 123.516 31.6892 123.64 31.607C123.777 31.5248 123.928 31.4699 124.092 31.4288C124.256 31.3877 124.448 31.374 124.654 31.374C124.846 31.374 125.024 31.3877 125.188 31.4288C125.353 31.4699 125.504 31.5248 125.627 31.607C125.75 31.6892 125.86 31.7989 125.928 31.9222C125.997 32.0455 126.038 32.1963 126.038 32.3744V32.4292H125.312V32.3881C125.312 32.2922 125.284 32.2237 125.229 32.1552C125.175 32.0866 125.106 32.0455 125.01 32.0044C124.914 31.9633 124.805 31.9496 124.668 31.9496C124.531 31.9496 124.407 31.9633 124.311 31.9907C124.215 32.0181 124.133 32.0592 124.092 32.114C124.037 32.1689 124.01 32.2237 124.01 32.2922C124.01 32.3744 124.037 32.4429 124.092 32.4841C124.147 32.5252 124.229 32.58 124.339 32.6211C124.435 32.6622 124.558 32.6896 124.681 32.7307C124.805 32.7581 124.942 32.7993 125.079 32.8267C125.216 32.8678 125.339 32.9089 125.476 32.9637C125.599 33.0185 125.723 33.0733 125.819 33.1556C125.915 33.2241 125.997 33.32 126.065 33.4296C126.12 33.5393 126.161 33.6763 126.161 33.8271C126.161 34.0874 126.093 34.3067 125.969 34.4712C125.846 34.6356 125.668 34.7452 125.449 34.8275C125.216 34.9234 124.969 34.9645 124.681 34.9645Z" fill="black"/>
<path d="M128.6 34.909V32.0996H127.49V31.4692H130.45V32.0996H129.34V34.909H128.6Z" fill="black"/>
<path d="M131.971 34.909V31.4692H132.724V34.909H131.971Z" fill="black"/>
<path d="M136.028 34.964C135.672 34.964 135.37 34.8955 135.11 34.7721C134.849 34.6488 134.657 34.4569 134.534 34.1829C134.411 33.9088 134.342 33.5799 134.342 33.1687C134.342 32.5658 134.493 32.1135 134.781 31.8257C135.082 31.538 135.493 31.3872 136.028 31.3872C136.316 31.3872 136.59 31.442 136.823 31.5379C137.056 31.6339 137.248 31.7846 137.371 31.9902C137.508 32.1958 137.576 32.4424 137.576 32.7439H136.823C136.823 32.5795 136.795 32.4424 136.727 32.3328C136.658 32.2232 136.576 32.1409 136.453 32.0861C136.329 32.0313 136.192 32.0039 136.042 32.0039C135.822 32.0039 135.644 32.045 135.507 32.1272C135.37 32.2095 135.26 32.3328 135.206 32.4972C135.137 32.6617 135.11 32.8536 135.11 33.0865V33.2373C135.11 33.4839 135.137 33.6758 135.206 33.8403C135.274 34.0047 135.37 34.128 135.507 34.2103C135.644 34.2925 135.822 34.3336 136.028 34.3336C136.192 34.3336 136.343 34.3062 136.466 34.2514C136.59 34.1966 136.686 34.1143 136.754 34.0047C136.823 33.8951 136.85 33.758 136.85 33.5936H137.576C137.576 33.8951 137.508 34.1554 137.385 34.3473C137.261 34.5392 137.069 34.7036 136.836 34.7995C136.603 34.9092 136.329 34.964 136.028 34.964Z" fill="black"/>
<path d="M140.509 34.9645C140.303 34.9645 140.111 34.9508 139.933 34.9097C139.755 34.8686 139.591 34.8001 139.454 34.7178C139.317 34.6356 139.207 34.5123 139.125 34.3752C139.043 34.2382 139.001 34.0737 139.001 33.8819C139.001 33.8682 139.001 33.8408 139.001 33.8271C139.001 33.8134 139.001 33.7997 139.001 33.786H139.741C139.741 33.7997 139.741 33.8134 139.741 33.8271C139.741 33.8408 139.741 33.8545 139.741 33.8682C139.741 33.9778 139.769 34.06 139.824 34.1423C139.879 34.2108 139.974 34.2656 140.084 34.3067C140.194 34.3478 140.331 34.3615 140.482 34.3615C140.577 34.3615 140.66 34.3615 140.742 34.3478C140.81 34.3341 140.879 34.3204 140.947 34.293C141.002 34.2656 141.057 34.2519 141.098 34.2108C141.139 34.1834 141.167 34.1423 141.18 34.1011C141.194 34.06 141.208 34.0189 141.208 33.9641C141.208 33.8682 141.18 33.7997 141.126 33.7448C141.071 33.69 140.989 33.6352 140.879 33.5941C140.783 33.553 140.66 33.5119 140.536 33.4845C140.413 33.4571 140.276 33.4159 140.139 33.3748C140.002 33.3337 139.879 33.2926 139.741 33.2378C139.618 33.183 139.495 33.1282 139.399 33.0459C139.303 32.9774 139.221 32.8815 139.152 32.7581C139.097 32.6485 139.056 32.5115 139.056 32.347C139.056 32.1826 139.097 32.0318 139.166 31.9085C139.234 31.7851 139.344 31.6892 139.467 31.607C139.604 31.5248 139.755 31.4699 139.92 31.4288C140.084 31.3877 140.276 31.374 140.482 31.374C140.673 31.374 140.852 31.3877 141.016 31.4288C141.18 31.4699 141.331 31.5248 141.454 31.607C141.578 31.6892 141.687 31.7989 141.756 31.9222C141.825 32.0455 141.866 32.1963 141.866 32.3744V32.4292H141.139V32.3881C141.139 32.2922 141.112 32.2237 141.057 32.1552C141.002 32.0866 140.934 32.0455 140.838 32.0044C140.742 31.9633 140.632 31.9496 140.495 31.9496C140.358 31.9496 140.235 31.9633 140.139 31.9907C140.043 32.0181 139.961 32.0592 139.92 32.114C139.865 32.1689 139.837 32.2237 139.837 32.2922C139.837 32.3744 139.865 32.4429 139.92 32.4841C139.974 32.5252 140.057 32.58 140.166 32.6211C140.262 32.6622 140.386 32.6896 140.509 32.7307C140.632 32.7581 140.769 32.7993 140.906 32.8267C141.043 32.8678 141.167 32.9089 141.304 32.9637C141.427 33.0185 141.55 33.0733 141.646 33.1556C141.742 33.2241 141.825 33.32 141.893 33.4296C141.948 33.5393 141.989 33.6763 141.989 33.8271C141.989 34.0874 141.92 34.3067 141.797 34.4712C141.674 34.6356 141.496 34.7452 141.276 34.8275C141.043 34.9234 140.797 34.9645 140.509 34.9645Z" fill="black"/>
<path d="M143.852 31.2095C144.126 31.5247 144.345 31.8673 144.496 32.2647C144.647 32.6621 144.715 33.0458 144.715 33.4707C144.715 33.8955 144.647 34.2792 144.496 34.6629C144.345 35.0466 144.14 35.4029 143.852 35.7044H143.414C143.551 35.4989 143.66 35.2796 143.756 35.0192C143.852 34.7726 143.934 34.5122 143.989 34.2518C144.044 33.9914 144.071 33.7173 144.071 33.4707C144.071 33.2103 144.044 32.9499 143.989 32.6758C143.934 32.4017 143.852 32.1551 143.756 31.8947C143.66 31.648 143.537 31.415 143.414 31.2095H143.852Z" fill="black"/>
<defs>
<linearGradient id="paint0_linear_180_469" x1="21.9848" y1="-12.2957" x2="21.8392" y2="30.0413" gradientUnits="userSpaceOnUse">
<stop offset="0.3223" stop-color="#E5E5E5"/>
<stop offset="1" stop-color="#989898"/>
</linearGradient>
<linearGradient id="paint1_linear_180_469" x1="0.88639" y1="33.2878" x2="16.6836" y2="24.6003" gradientUnits="userSpaceOnUse">
<stop stop-color="#E5E5E5"/>
<stop offset="1" stop-color="#989898"/>
</linearGradient>
<linearGradient id="paint2_linear_180_469" x1="37.9386" y1="37.3126" x2="23.7126" y2="26.238" gradientUnits="userSpaceOnUse">
<stop stop-color="#E5E5E5"/>
<stop offset="1" stop-color="#989898"/>
</linearGradient>
</defs>
</svg>
