<svg width="143" height="28" viewBox="0 0 143 28" fill="none" xmlns="http://www.w3.org/2000/svg">
<g clip-path="url(#clip0_180_518)">
<path d="M17.6081 10.3542L13.0886 7.82591C12.7125 7.61793 12.2492 7.61793 11.8731 7.82591L7.25955 10.4062C6.88348 10.6142 6.64844 11.0042 6.64844 11.4267V16.5808C6.64844 17.0033 6.88348 17.3932 7.25955 17.6012L11.8731 20.1815C12.0544 20.2855 12.2693 20.3375 12.4842 20.3375C12.6991 20.3375 12.9073 20.2855 13.0953 20.1815L17.7089 17.6012C18.0849 17.3932 18.32 17.0033 18.32 16.5808V11.5241C18.32 11.0432 18.0514 10.5882 17.6216 10.3477L17.6081 10.3542ZM17.7492 11.5306V16.5873C17.7492 16.8148 17.6216 17.0228 17.4201 17.1397L12.8066 19.7201C12.6051 19.8306 12.3499 19.8306 12.1484 19.7201L7.53488 17.1397C7.33342 17.0293 7.20582 16.8148 7.20582 16.5873V11.4332C7.20582 11.2057 7.33342 10.9977 7.53488 10.8807L12.1484 8.30038C12.2492 8.24188 12.3633 8.21588 12.4775 8.21588C12.5917 8.21588 12.7058 8.24838 12.8066 8.30038L17.3261 10.8287C17.588 10.9717 17.7492 11.2447 17.7492 11.5306Z" fill="#6E9DC6"/>
<path d="M20.207 14.8125L17.9439 13.5516C17.7559 13.4476 17.5208 13.4476 17.3328 13.5516L15.0227 14.8385C14.8346 14.9425 14.7205 15.1375 14.7205 15.352V17.9323C14.7205 18.1403 14.8346 18.3353 15.0227 18.4458L17.3328 19.7327C17.4268 19.7847 17.5275 19.8107 17.635 19.8107C17.7424 19.8107 17.8499 19.7847 17.9372 19.7327L20.2473 18.4458C20.4354 18.3418 20.5495 18.1468 20.5495 17.9323V15.404C20.5495 15.1635 20.4152 14.936 20.2003 14.819L20.207 14.8125Z" fill="#6E9DC6"/>
<path d="M21.8858 11.5956L20.8381 11.0107C20.7508 10.9652 20.6434 10.9652 20.5561 11.0107L19.4816 11.6086C19.3943 11.6541 19.3406 11.7451 19.3406 11.8426V13.0385C19.3406 13.136 19.3943 13.227 19.4816 13.2725L20.5561 13.8705C20.5964 13.8965 20.6501 13.9095 20.6971 13.9095C20.7441 13.9095 20.7978 13.8965 20.8381 13.8705L21.9126 13.2725C21.9999 13.2205 22.0536 13.136 22.0536 13.0385V11.8621C22.0536 11.7516 21.9932 11.6476 21.8925 11.5891L21.8858 11.5956Z" fill="#EF8546"/>
<path d="M24.2295 5.93424L14.2369 0.344635C13.4042 -0.116832 12.3767 -0.116832 11.544 0.344635L1.3431 6.04473C0.510379 6.5062 0 7.37063 0 8.30007V19.7003C0 20.6297 0.517094 21.4941 1.3431 21.9556L11.544 27.6557C11.9536 27.8832 12.417 28.0002 12.8871 28.0002C13.3571 28.0002 13.8272 27.8767 14.2302 27.6557L24.431 21.9556C25.2637 21.4941 25.7741 20.6297 25.7741 19.7003V8.52755C25.7741 7.46163 25.1832 6.4672 24.2228 5.93424H24.2295ZM24.5385 8.52755V19.7003C24.5385 20.2007 24.2631 20.6687 23.8132 20.9157L13.6123 26.6158C13.1624 26.8627 12.605 26.8627 12.1618 26.6158L1.96764 20.9157C1.5177 20.6687 1.24237 20.2007 1.24237 19.7003V8.30007C1.24237 7.7996 1.5177 7.33164 1.96764 7.08465L12.1618 1.38456C12.3834 1.26107 12.6319 1.19607 12.8871 1.19607C13.1422 1.19607 13.3907 1.26107 13.6123 1.38456L23.605 6.96766C24.1758 7.28614 24.5317 7.8841 24.5317 8.52755H24.5385Z" fill="#6E9DC6"/>
<path d="M36.3646 7.8649H31.1063V9.47028H33.0404L36.2034 9.46378C37.1436 9.46378 37.8353 9.63277 38.2785 9.97725C38.7217 10.2892 38.95 10.8352 38.95 11.5891C38.95 12.3431 38.7217 12.8955 38.2919 13.24C37.8487 13.5845 37.157 13.7535 36.1967 13.7535H33.0337V13.7405H31.0996V20.1295H33.0337V15.3524H36.3176C39.353 15.3524 40.8774 14.098 40.8774 11.5891C40.8774 9.08031 39.3664 7.8584 36.3511 7.8584L36.3646 7.8649Z" fill="#6E9DC6"/>
<path d="M54.1269 9.53498C53.0591 8.41706 51.5146 7.87109 49.473 7.87109H44.8595V9.47648H46.7936L49.1171 9.46998C50.7154 9.46998 51.8839 9.83395 52.6293 10.5684C53.3412 11.2898 53.7105 12.4273 53.7105 14.0067C53.7105 15.586 53.3345 16.6845 52.6092 17.4254C51.8638 18.1664 50.6751 18.5433 49.0768 18.5433H46.7868V13.0772H44.8528V20.1422H49.4328C51.4743 20.1422 53.0188 19.5898 54.0866 18.4913C55.1006 17.4254 55.611 15.9305 55.611 14.0067C55.611 12.0828 55.1141 10.5684 54.1202 9.54147L54.1269 9.53498Z" fill="#6E9DC6"/>
<path d="M61.091 7.86475H58.7338L62.9915 13.7988L58.4316 20.1359H60.7888L64.1801 15.2742L67.5714 20.1359H69.9353L61.091 7.86475Z" fill="#6E9DC6"/>
<path d="M69.633 7.86475H67.2692L65.1941 10.7505L66.3827 12.3884L69.633 7.86475Z" fill="#6E9DC6"/>
<path d="M77.356 4.45264V23.5483" stroke="#EF8546" stroke-width="0.47" stroke-miterlimit="10"/>
<path d="M85.8914 8.18311H87.2277V12.5443H92.8889V8.18311H94.2253V18.4394H92.8889V13.5907H87.2277V18.4394H85.8914V8.18311Z" fill="#EF8546"/>
<path d="M96.9519 8.18311H104.44V9.31402H98.2883V12.5573H103.876V13.6492H98.2883V17.25H104.621V18.4394H96.9586V8.18311H96.9519Z" fill="#EF8546"/>
<path d="M110.114 8.18311H111.612L115.527 18.4394H114.076L112.948 15.3131H108.724L107.582 18.4394H106.219L110.121 8.18311H110.114ZM109.107 14.2667H112.579L111.363 10.8219C111.155 10.25 110.887 9.37252 110.887 9.37252H110.86C110.86 9.37252 110.578 10.2305 110.369 10.8219L109.107 14.2667Z" fill="#EF8546"/>
<path d="M117.407 8.18311H118.744V17.25H124.304V18.4394H117.414V8.18311H117.407Z" fill="#EF8546"/>
<path d="M124.217 8.18311H132.604V9.31402H129.079V18.4394H127.742V9.31402H124.217V8.18311Z" fill="#EF8546"/>
<path d="M134.666 8.18311H136.002V12.5443H141.664V8.18311H143V18.4394H141.664V13.5907H136.002V18.4394H134.666V8.18311Z" fill="#EF8546"/>
</g>
<defs>
<clipPath id="clip0_180_518">
<rect width="143" height="28" fill="white"/>
</clipPath>
</defs>
</svg>
