<svg width="112" height="49" viewBox="0 0 112 49" fill="none" xmlns="http://www.w3.org/2000/svg">
<path d="M96.6801 13.6025H92.6881L99.8972 23.9666L85.6519 44.1551H89.6439L101.904 26.5472L107.639 35.0433H111.631L96.6801 13.6025Z" fill="#008D36"/>
<path d="M111.127 13.6025H107.135L103.62 18.6393L105.627 21.5105L111.127 13.6025Z" fill="#008D36"/>
<path d="M29.3898 18.1959L21.8416 13.8372C21.212 13.4774 20.4371 13.4774 19.8075 13.8372L12.1071 18.2859C11.4775 18.6456 11.0901 19.3237 11.0901 20.0432V28.9405C11.0901 29.667 11.4775 30.3381 12.1071 30.6978L19.8075 35.1465C20.1189 35.3264 20.4648 35.4163 20.8246 35.4163C21.1843 35.4163 21.5302 35.3194 21.8416 35.1465L29.542 30.6978C30.1716 30.3381 30.559 29.66 30.559 28.9405V20.2231C30.559 19.3928 30.1093 18.611 29.3898 18.1959ZM29.625 20.2231V28.9405C29.625 29.3279 29.4174 29.6946 29.0784 29.8883L21.378 34.337C21.039 34.5307 20.617 34.5307 20.278 34.337L12.5776 29.8883C12.2386 29.6946 12.031 29.3279 12.031 28.9405V20.0432C12.031 19.6557 12.2386 19.2891 12.5776 19.0953L20.278 14.6467C20.444 14.5498 20.6308 14.5014 20.8246 14.5014C21.0183 14.5014 21.2051 14.5498 21.3711 14.6467L28.9193 19.0054C29.3552 19.2545 29.6181 19.718 29.6181 20.2231H29.625Z" fill="#008D36"/>
<path d="M33.7275 25.89L29.95 23.7106C29.6386 23.5307 29.2443 23.5307 28.9329 23.7106L25.0793 25.9315C24.7679 26.1114 24.5742 26.4504 24.5742 26.8101V31.2588C24.5742 31.6186 24.7679 31.9576 25.0793 32.1374L28.9329 34.3583C29.0851 34.4483 29.265 34.4967 29.438 34.4967C29.611 34.4967 29.7908 34.4483 29.943 34.3583L33.7967 32.1374C34.108 31.9576 34.3018 31.6186 34.3018 31.2588V26.9001C34.3018 26.485 34.0804 26.0975 33.7137 25.89H33.7275Z" fill="#008D36"/>
<path d="M36.5298 20.3409L34.7794 19.3308C34.6341 19.2478 34.4542 19.2478 34.3089 19.3308L32.517 20.3617C32.3717 20.4447 32.2817 20.6038 32.2817 20.7699V22.8385C32.2817 23.0046 32.3717 23.1637 32.517 23.2467L34.3089 24.2776C34.3781 24.3191 34.4611 24.3399 34.5441 24.3399C34.6271 24.3399 34.7102 24.3191 34.7794 24.2776L36.5713 23.2467C36.7166 23.1637 36.8065 23.0046 36.8065 22.8385V20.8114C36.8065 20.6177 36.7027 20.4378 36.5367 20.3409H36.5298Z" fill="#008D36"/>
<path d="M40.453 10.5721L23.7654 0.941455C22.3817 0.145817 20.6589 0.145817 19.2752 0.941455L2.24854 10.7659C0.864825 11.5684 0 13.0559 0 14.6541V34.3168C0 35.915 0.857906 37.4094 2.24854 38.205L19.2752 48.0363C19.9532 48.4307 20.735 48.6383 21.5238 48.6383C22.3125 48.6383 23.0874 48.4307 23.7723 48.0363L40.799 38.205C42.1827 37.4025 43.0475 35.915 43.0475 34.3168V15.0485C43.0475 13.2081 42.0581 11.4923 40.4599 10.5721H40.453ZM40.9719 15.0485V34.3168C40.9719 35.1816 40.5084 35.9841 39.7612 36.4131L22.7345 46.2444C21.9873 46.6734 21.0533 46.6734 20.3061 46.2444L3.27941 36.42C2.53221 35.9911 2.06866 35.1816 2.06866 34.3168V14.661C2.06866 13.7962 2.53221 12.9936 3.27941 12.5647L20.3061 2.73337C20.6728 2.5189 21.0948 2.4082 21.5168 2.4082C21.9389 2.4082 22.3609 2.5189 22.7276 2.73337L39.4152 12.371C40.37 12.9245 40.965 13.9484 40.965 15.0554L40.9719 15.0485Z" fill="#6E9DC6"/>
<path d="M87.1676 31.8744L86.8078 28.9893C86.5726 26.9068 85.5279 25.6545 83.6183 25.2394V25.1772C84.7807 24.8797 85.7008 24.257 86.3858 23.3022C86.9808 22.4374 87.2783 20.943 87.2783 19.8152C87.2783 17.7881 86.621 16.2729 85.3134 15.2005C84.0611 14.2181 82.3315 13.7407 80.1867 13.7407H70.7705V16.522H74.0153V16.5082H79.737C81.2245 16.5082 82.2969 16.778 83.0164 17.3453C83.6737 17.878 84.0265 18.7429 84.0265 19.9398C84.0265 21.1367 83.6668 22.4443 82.9818 23.0393C82.2692 23.6343 81.1968 23.9595 79.7647 23.9595H74.0153V23.9111H70.7705V35.0085H74.0153V26.7338H79.7647C80.9893 26.7338 81.9094 26.9691 82.5667 27.5087C83.1894 28.0415 83.5768 28.8786 83.7014 30.0686L83.9712 32.2065C84.0888 33.3965 84.3863 34.3512 84.8914 35.0085H88.406C87.6934 34.2336 87.2714 33.1889 87.1537 31.8813L87.1676 31.8744Z" fill="#008D36"/>
<path d="M58.3026 13.7335H49.4883V16.5148H52.7331V16.5009H58.0327C59.6102 16.5009 60.7725 16.7984 61.5197 17.3934C62.2669 17.9261 62.6544 18.8809 62.6544 20.1954C62.6544 21.51 62.2669 22.4578 61.5543 23.0528C60.8071 23.6478 59.6448 23.9453 58.0397 23.9453H52.74V23.9177H49.4952V34.9943H52.74V26.7128H58.2541C63.3462 26.7128 65.9061 24.5403 65.9061 20.1885C65.9061 15.8367 63.3739 13.7266 58.3095 13.7266L58.3026 13.7335Z" fill="#6E9DC6"/>
</svg>
