<svg width="132" height="56" viewBox="0 0 132 56" fill="none" xmlns="http://www.w3.org/2000/svg">
<path d="M43.7439 8.12061C38.9122 3.28894 32.4757 0.614258 25.6251 0.614258C18.7745 0.614258 12.3553 3.27168 7.50635 8.12061C2.67468 12.9523 0 19.3888 0 26.2394C0 33.09 2.65742 39.5092 7.50635 44.3582C11.5097 48.3616 16.6003 50.8809 22.1222 51.6229L22.0704 46.8948L22.0531 46.1355C12.5969 44.4445 5.40112 36.1616 5.40112 26.2394C5.40112 15.092 14.4605 6.03264 25.6079 6.03264C36.7552 6.03264 45.8146 15.092 45.8146 26.2394C45.8146 36.4722 38.1702 44.9449 28.2998 46.2736L28.3343 46.3081L30.6639 47.9819C30.94 48.189 31.1125 48.4824 31.1643 48.8102C31.2333 49.2589 31.0435 49.6903 30.6811 49.9664L28.3688 51.7092C34.1668 51.088 39.5335 48.5341 43.7267 44.3582C48.5583 39.5265 51.233 33.09 51.233 26.2394C51.233 19.3888 48.5756 12.9523 43.7439 8.12061Z" fill="#FF0003"/>
<path d="M30.3705 48.3962L28.0754 46.6878L23.33 43.1331C22.8123 42.7535 22.0876 43.1159 22.0876 43.7543L22.0703 46.8086L22.0358 51.554L22.0186 54.2115C22.0186 54.8499 22.7433 55.2296 23.261 54.8499L27.9891 51.3987L30.3705 49.6731C30.8019 49.3453 30.8019 48.7068 30.3705 48.3962Z" fill="#FF0003"/>
<path d="M13.4941 34.0208V30.9147H16.7728V24.6508H13.4941V22.3212C14.1326 22.2867 14.8056 22.1487 15.5131 21.9416C16.2378 21.7345 16.9281 21.4584 17.6183 21.1306C18.3086 20.8027 18.9125 20.4748 19.4302 20.147H20.7762V30.9147H23.934V34.0208H13.4941Z" fill="#FF0003"/>
<path d="M32.0103 34.022V31.1747H25.2632V28.1722C25.7118 27.5337 26.1605 26.7744 26.6437 25.8944C27.1268 25.0143 27.5755 24.0653 28.0241 23.0299C28.4728 21.9945 28.8352 20.9592 29.1285 19.9238H33.0801C33.0284 20.3725 32.8731 20.8729 32.6315 21.4424C32.3899 22.0118 32.0793 22.5985 31.7169 23.237C31.3545 23.8754 30.9577 24.4967 30.5263 25.1006C30.0949 25.7046 29.6635 26.2913 29.2321 26.8262C28.8007 27.3784 28.3865 27.8443 28.0069 28.224H31.993V25.3422C32.1656 25.1006 32.3554 24.8073 32.5625 24.4621C32.7695 24.117 32.9766 23.7546 33.2009 23.3578C33.408 22.9781 33.5978 22.5985 33.7704 22.2361C33.9257 21.8738 34.0465 21.5459 34.1155 21.2525H35.8238V28.224H37.7565V31.192H35.8238V34.0392H32.0103V34.022Z" fill="#FF0003"/>
<path d="M57.0996 26.3101V16.7158H63.1047C63.8122 16.7158 64.4161 16.8539 64.8993 17.1472C65.3825 17.4406 65.7449 17.8202 65.9864 18.2689C66.228 18.7348 66.3488 19.2352 66.3488 19.7701C66.3488 20.3913 66.2108 20.9263 65.9174 21.4094C65.6241 21.8926 65.2444 22.2722 64.744 22.5656L66.6249 26.3101H63.1737L61.7069 23.0833H60.1884V26.3101H57.0996ZM60.1884 20.9435H62.3454C62.587 20.9435 62.7941 20.84 62.9666 20.6502C63.1392 20.4604 63.2255 20.2015 63.2255 19.8909C63.2255 19.7011 63.191 19.5285 63.1219 19.3732C63.0529 19.2179 62.9494 19.1144 62.8113 19.0109C62.6733 18.9246 62.5352 18.8728 62.3627 18.8728H60.2057V20.9435H60.1884Z" fill="black"/>
<path d="M67.9893 26.3101V16.7158H76.2894V19.0109H71.0781V20.3396H75.5474V22.5483H71.0781V24.0151H76.3929V26.3101H67.9893Z" fill="black"/>
<path d="M78.0312 26.3101V16.7158H82.19C83.2943 16.7158 84.2089 16.8884 84.9509 17.2335C85.6929 17.5786 86.2624 18.0963 86.642 18.8038C87.0216 19.5113 87.2287 20.4086 87.2287 21.513C87.2287 22.6001 87.0389 23.4974 86.642 24.2049C86.2624 24.9124 85.6929 25.4473 84.9509 25.7925C84.2089 26.1376 83.2943 26.3101 82.19 26.3101H78.0312ZM81.1028 23.9978H82.1209C82.4488 23.9978 82.7421 23.9461 83.001 23.8598C83.2426 23.7735 83.4496 23.6355 83.6049 23.4629C83.7602 23.2904 83.881 23.066 83.9501 22.8072C84.0191 22.5483 84.0536 22.255 84.0536 21.9271V21.0988C84.0536 20.771 84.0191 20.4776 83.9501 20.2188C83.881 19.9599 83.7602 19.7356 83.6049 19.5631C83.4496 19.3905 83.2426 19.2524 83.001 19.1662C82.7594 19.0799 82.466 19.0281 82.1209 19.0281H81.1028V23.9978Z" fill="black"/>
<path d="M91.8193 26.3101V24.1704H94.0971V19.8392H91.8193V18.2171C92.2507 18.1826 92.7166 18.0963 93.2171 17.9582C93.7175 17.8029 94.2007 17.6304 94.6666 17.4061C95.1325 17.1817 95.5639 16.9574 95.9263 16.7158H96.8581V24.1704H99.0496V26.3101H91.8193Z" fill="black"/>
<path d="M104.641 26.3089V24.3417H99.9644V22.271C100.275 21.8223 100.586 21.3046 100.913 20.6834C101.241 20.0795 101.569 19.4065 101.863 18.699C102.173 17.9915 102.432 17.2667 102.622 16.542H105.348C105.314 16.8526 105.21 17.1977 105.038 17.5946C104.865 17.9915 104.658 18.4056 104.416 18.837C104.158 19.2684 103.899 19.6998 103.588 20.1312C103.295 20.5626 103.001 20.9595 102.691 21.3219C102.397 21.7015 102.104 22.0294 101.845 22.2882H104.606V20.2865C104.727 20.114 104.865 19.9069 105.003 19.6653C105.141 19.4237 105.296 19.1649 105.434 18.9061C105.59 18.6472 105.711 18.3884 105.831 18.1295C105.935 17.8707 106.021 17.6464 106.073 17.4566H107.264V22.2882H108.61V24.3417H107.264V26.3089H104.641Z" fill="black"/>
<path d="M57.0996 38.8892V29.2949H62.7596C63.3635 29.2949 63.8985 29.433 64.3644 29.7091C64.8303 29.9852 65.1927 30.3648 65.4515 30.848C65.7103 31.3311 65.8484 31.9006 65.8484 32.539C65.8484 33.1948 65.7103 33.7815 65.4515 34.2646C65.1927 34.7478 64.8303 35.1274 64.3644 35.4035C63.8985 35.6796 63.3808 35.8004 62.7768 35.8004H60.2057V38.8892H57.0996ZM60.1884 33.5572H61.7415C62.0693 33.5572 62.3109 33.4709 62.4662 33.2983C62.6215 33.1258 62.7078 32.8842 62.7078 32.5563C62.7078 32.332 62.6733 32.1422 62.6043 32.0041C62.5352 31.8661 62.4317 31.7453 62.2764 31.6762C62.1384 31.6072 61.9485 31.5727 61.7242 31.5727H60.1712V33.5572H60.1884Z" fill="black"/>
<path d="M67.1772 38.8892V29.2949H70.2661V36.4389H75.184V38.8892H67.1772Z" fill="black"/>
<path d="M75.5811 38.8892L79.084 29.2949H82.6733L86.1762 38.8892H82.9148L82.518 37.5433H79.153L78.7562 38.8892H75.5811ZM79.7743 35.3863H81.8622L81.3963 33.8505C81.3618 33.747 81.31 33.6089 81.2755 33.4536C81.2238 33.2983 81.1892 33.1258 81.1375 32.9532C81.0857 32.7806 81.0512 32.6081 80.9994 32.4355C80.9477 32.263 80.9131 32.1076 80.8786 31.9869H80.7751C80.7406 32.1594 80.6888 32.3492 80.6371 32.5563C80.568 32.7634 80.5163 32.9877 80.4472 33.212C80.3782 33.4364 80.3092 33.6607 80.2574 33.8678L79.7743 35.3863Z" fill="black"/>
<path d="M91.6295 39.0622C90.9738 39.0622 90.3526 39.0104 89.7831 38.9241C89.2137 38.8206 88.7132 38.6653 88.2818 38.4237C87.8504 38.1821 87.5053 37.8542 87.2637 37.4401C87.0222 37.0087 86.9014 36.491 86.9014 35.8353C86.9014 35.818 86.9014 35.7835 86.9014 35.7663C86.9014 35.7318 86.9014 35.6972 86.9186 35.6627H89.8349C89.8176 35.6972 89.8176 35.7318 89.8176 35.7663C89.8176 35.8008 89.8176 35.8353 89.8176 35.8525C89.8176 36.1286 89.8867 36.353 90.0074 36.491C90.1455 36.6463 90.3181 36.7326 90.5596 36.7844C90.8012 36.8361 91.0601 36.8534 91.3534 36.8534C91.457 36.8534 91.5777 36.8534 91.7158 36.8534C91.8366 36.8534 91.9574 36.8361 92.0782 36.8189C92.199 36.8016 92.3025 36.7671 92.406 36.7153C92.5096 36.6636 92.5786 36.6118 92.6304 36.5255C92.6821 36.4393 92.7166 36.353 92.7166 36.2322C92.7166 36.0596 92.6304 35.9216 92.4751 35.818C92.3198 35.7145 92.0954 35.6282 91.8366 35.5592C91.5605 35.4902 91.2671 35.4211 90.922 35.3521C90.5942 35.2831 90.2318 35.2141 89.8694 35.1278C89.507 35.0415 89.1619 34.9207 88.8168 34.7827C88.4889 34.6446 88.1783 34.4721 87.9022 34.2477C87.6261 34.0234 87.419 33.7473 87.2637 33.4195C87.1084 33.0916 87.0222 32.6947 87.0222 32.2288C87.0222 31.6766 87.143 31.1934 87.3673 30.8138C87.5916 30.4169 87.9195 30.1063 88.3164 29.8647C88.7133 29.6231 89.1792 29.4506 89.6968 29.3298C90.2145 29.2263 90.7494 29.1572 91.3189 29.1572C91.8883 29.1572 92.4405 29.209 92.941 29.3298C93.4414 29.4506 93.89 29.6231 94.2869 29.8647C94.6838 30.1063 94.9772 30.4169 95.2015 30.7793C95.4258 31.1589 95.5466 31.5903 95.5466 32.108V32.2806H92.6649V32.2288C92.6649 32.0562 92.6304 31.9009 92.5441 31.7629C92.4578 31.6076 92.3197 31.4868 92.1472 31.4005C91.9574 31.3142 91.7331 31.2625 91.4224 31.2625C91.1464 31.2625 90.9048 31.297 90.7149 31.3487C90.5251 31.4005 90.3871 31.4868 90.2835 31.5731C90.1973 31.6766 90.1455 31.7801 90.1455 31.8837C90.1455 32.0562 90.2318 32.2115 90.3871 32.3151C90.5424 32.4186 90.7667 32.5221 91.0256 32.5912C91.3016 32.6602 91.595 32.7292 91.9401 32.7982C92.268 32.8673 92.6304 32.9363 92.9927 33.0226C93.3551 33.1088 93.7002 33.2124 94.0453 33.3332C94.3732 33.4712 94.6838 33.6265 94.9599 33.8336C95.236 34.0407 95.4431 34.2995 95.5984 34.6101C95.7537 34.9207 95.84 35.3004 95.84 35.7318C95.84 36.5255 95.6501 37.164 95.2878 37.6644C94.9254 38.1648 94.425 38.51 93.7865 38.7515C93.1653 38.9414 92.4405 39.0622 91.6295 39.0622Z" fill="black"/>
<path d="M99.8263 38.8892V31.7453H96.6685V29.2949H106.038V31.7453H102.898V38.8892H99.8263Z" fill="black"/>
<path d="M107.453 38.8892V29.2949H110.542V38.8892H107.453Z" fill="black"/>
<path d="M117.186 39.063C116.099 39.063 115.184 38.8732 114.442 38.5108C113.7 38.1312 113.148 37.579 112.768 36.837C112.389 36.095 112.199 35.1804 112.199 34.0933C112.199 32.4539 112.613 31.2288 113.458 30.3832C114.304 29.5549 115.546 29.1235 117.168 29.1235C118.1 29.1235 118.911 29.2788 119.602 29.5894C120.292 29.9001 120.827 30.366 121.206 30.9699C121.586 31.5911 121.776 32.3331 121.776 33.2305H118.825C118.825 32.8508 118.756 32.5402 118.635 32.2641C118.497 31.988 118.325 31.781 118.066 31.6429C117.824 31.4876 117.514 31.4186 117.134 31.4186C116.703 31.4186 116.34 31.5049 116.081 31.6947C115.822 31.8845 115.615 32.1433 115.495 32.4712C115.374 32.7991 115.305 33.1959 115.305 33.6273V34.5247C115.305 34.9561 115.374 35.3529 115.495 35.6808C115.615 36.0087 115.805 36.2675 116.081 36.4573C116.34 36.6471 116.685 36.7334 117.099 36.7334C117.514 36.7334 117.841 36.6644 118.118 36.5264C118.376 36.3883 118.583 36.1812 118.722 35.9224C118.86 35.6636 118.929 35.3357 118.929 34.9733H121.776C121.776 35.8534 121.586 36.5781 121.224 37.1821C120.861 37.786 120.344 38.252 119.653 38.5626C118.98 38.9077 118.152 39.063 117.186 39.063Z" fill="black"/>
<path d="M127.763 39.0622C127.108 39.0622 126.486 39.0104 125.917 38.9241C125.347 38.8206 124.847 38.6653 124.416 38.4237C123.984 38.1821 123.639 37.8542 123.398 37.4401C123.156 37.0087 123.035 36.491 123.035 35.8353C123.035 35.818 123.035 35.7835 123.035 35.7663C123.035 35.7318 123.035 35.6972 123.052 35.6627H125.969C125.951 35.6972 125.951 35.7318 125.951 35.7663C125.951 35.8008 125.951 35.8353 125.951 35.8525C125.951 36.1286 126.02 36.353 126.141 36.491C126.279 36.6463 126.452 36.7326 126.693 36.7844C126.935 36.8361 127.194 36.8534 127.487 36.8534C127.591 36.8534 127.712 36.8534 127.85 36.8534C127.97 36.8534 128.091 36.8361 128.212 36.8189C128.333 36.8016 128.436 36.7671 128.54 36.7153C128.643 36.6636 128.712 36.6118 128.764 36.5255C128.816 36.4393 128.85 36.353 128.85 36.2322C128.85 36.0596 128.764 35.9216 128.609 35.818C128.454 35.7145 128.229 35.6282 127.97 35.5592C127.694 35.4902 127.401 35.4211 127.056 35.3521C126.728 35.2831 126.366 35.2141 126.003 35.1278C125.641 35.0415 125.296 34.9207 124.951 34.7827C124.623 34.6446 124.312 34.4721 124.036 34.2477C123.76 34.0234 123.553 33.7473 123.398 33.4195C123.242 33.0916 123.156 32.6947 123.156 32.2288C123.156 31.6766 123.277 31.1934 123.501 30.8138C123.725 30.4169 124.053 30.1063 124.45 29.8647C124.847 29.6231 125.313 29.4506 125.831 29.3298C126.348 29.2263 126.883 29.1572 127.453 29.1572C128.022 29.1572 128.574 29.209 129.075 29.3298C129.575 29.4506 130.024 29.6231 130.421 29.8647C130.818 30.1063 131.111 30.4169 131.335 30.7793C131.56 31.1589 131.68 31.5903 131.68 32.108V32.2806H128.799V32.2288C128.799 32.0562 128.764 31.9009 128.678 31.7629C128.592 31.6076 128.454 31.4868 128.281 31.4005C128.091 31.3142 127.867 31.2625 127.556 31.2625C127.28 31.2625 127.039 31.297 126.849 31.3487C126.659 31.4005 126.521 31.4868 126.417 31.5731C126.331 31.6766 126.279 31.7801 126.279 31.8837C126.279 32.0562 126.366 32.2115 126.521 32.3151C126.676 32.4186 126.9 32.5221 127.159 32.5912C127.435 32.6602 127.729 32.7292 128.074 32.7982C128.402 32.8673 128.764 32.9363 129.127 33.0226C129.489 33.1088 129.834 33.2124 130.179 33.3332C130.507 33.4712 130.818 33.6265 131.094 33.8336C131.37 34.0407 131.577 34.2995 131.732 34.6101C131.887 34.9207 131.974 35.3004 131.974 35.7318C131.974 36.5255 131.784 37.164 131.422 37.6644C131.059 38.1648 130.559 38.51 129.92 38.7515C129.299 38.9414 128.574 39.0622 127.763 39.0622Z" fill="black"/>
</svg>
