<svg width="147" height="51" viewBox="0 0 147 51" fill="none" xmlns="http://www.w3.org/2000/svg">
<path d="M0 23.2705V50.1332L12.5631 37.619L22.0188 47.0501H48.8659L25.7617 24.0117L48.8696 0.984375H0V14.9141L8.47821 14.8697L0 23.2705ZM39.0347 42.9849H23.7063L12.5668 31.8752L4.07742 40.3316V24.964L12.5593 16.5891L39.0347 42.9849ZM4.07742 10.8082V5.0236H39.0347L22.8811 21.1249L12.5631 10.849L4.07742 10.8082Z" fill="url(#paint0_linear_180_666)"/>
<path d="M53.8657 21.2076C51.9578 22.1616 51.4047 23.9211 51.4047 24.4482V32.2323H48.8174V18.921H51.4047V21.2299C51.4566 21.1557 52.1842 19.6968 53.6133 18.9433C55.2206 18.0636 56.7797 18.6166 56.8539 18.6426V20.803C56.7797 20.803 55.1983 20.5283 53.8657 21.2076Z" fill="#353535"/>
<path d="M58.6392 26.5297C59.0141 28.6159 60.7476 30.4459 63.4351 30.4459C65.6957 30.4459 67.1768 28.9648 67.6779 27.9329H70.113C69.0848 30.6463 66.672 32.6805 63.4314 32.6805C59.4892 32.6805 56.2969 29.5142 56.2969 25.572C56.2969 21.6558 59.4855 18.4375 63.4314 18.4375C65.4396 18.4375 67.574 19.3915 68.9326 21.099C70.0611 22.4799 70.7404 24.3136 70.4657 26.5223H58.6392V26.5297ZM68.231 24.644C67.8041 22.2089 65.5955 20.7018 63.4351 20.7018C60.948 20.7018 59.0401 22.4353 58.6392 24.644H68.231Z" fill="#353535"/>
<path d="M83.8811 30.3234C82.0474 32.4096 80.0875 32.6842 78.4319 32.6842C75.0911 32.6842 71.5498 29.7963 71.5498 25.7279C71.5498 21.5073 75.1171 18.7456 78.4059 18.7456C80.0875 18.7456 82.2219 19.1205 83.8811 21.1065V19.1985H86.4944V31.025C86.4944 33.8647 83.7327 37.7549 79.2114 37.7549C73.4095 37.7549 71.8765 32.881 71.8022 32.6323H74.3895C74.4415 32.7845 75.3695 35.6464 78.9367 35.6464C81.9991 35.6464 83.8848 33.1854 83.8848 30.8728V30.3234H83.8811ZM79.1335 30.5981C81.8469 30.5981 84.1076 28.4377 84.1076 25.7242C84.1076 23.0367 81.8989 20.8503 79.1595 20.8503C76.4237 20.8503 74.1631 23.0107 74.1631 25.7242C74.1594 28.4117 76.3717 30.5981 79.1335 30.5981Z" fill="#353535"/>
<path d="M87.9229 31.9539V13.4458H90.5101V31.9539H87.9229Z" fill="#353535"/>
<path d="M94.1519 26.5297C94.5268 28.6159 96.2603 30.4459 98.9478 30.4459C101.208 30.4459 102.69 28.9648 103.191 27.9329H105.626C104.597 30.6463 102.185 32.6805 98.9441 32.6805C95.0019 32.6805 91.8096 29.5142 91.8096 25.572C91.8096 21.6558 94.9982 18.4375 98.9441 18.4375C100.952 18.4375 103.087 19.3915 104.445 21.099C105.574 22.4799 106.253 24.3136 105.978 26.5223H94.1519V26.5297ZM103.744 24.644C103.317 22.2089 101.108 20.7018 98.9478 20.7018C96.4607 20.7018 94.5528 22.4353 94.1519 24.644H103.744Z" fill="#353535"/>
<path d="M108.918 18.9688L112.408 23.464L115.897 18.9688H118.911L113.863 25.3497L119.164 32.2578H116.075L112.408 27.2094L108.714 32.2578H105.652L110.953 25.3497L105.904 18.9688H108.918Z" fill="#353535"/>
<path d="M130.756 31.9537H128.169V18.6943H130.756V31.9537Z" fill="#353535"/>
<path d="M139.219 18.2666C143.188 18.2666 146.428 21.5072 146.428 25.4753C146.428 29.4435 143.188 32.6841 139.219 32.6841C135.251 32.6841 132.011 29.4435 132.011 25.4753C132.011 21.5072 135.251 18.2666 139.219 18.2666ZM134.372 25.4753C134.372 28.1629 136.532 30.3232 139.219 30.3232C141.907 30.3232 144.093 28.1629 144.093 25.4753C144.093 22.7878 141.907 20.6015 139.219 20.6015C136.532 20.6015 134.372 22.7878 134.372 25.4753Z" fill="#353535"/>
<path d="M123.046 27.1948C123.857 27.1948 124.516 26.5367 124.516 25.7248C124.516 24.913 123.857 24.2549 123.046 24.2549C122.234 24.2549 121.576 24.913 121.576 25.7248C121.576 26.5367 122.234 27.1948 123.046 27.1948Z" fill="#353535"/>
<defs>
<linearGradient id="paint0_linear_180_666" x1="0.00138268" y1="25.559" x2="48.8704" y2="25.559" gradientUnits="userSpaceOnUse">
<stop stop-color="#C82090"/>
<stop offset="1" stop-color="#6A14D1"/>
</linearGradient>
</defs>
</svg>
