<svg width="124" height="33" viewBox="0 0 124 33" fill="none" xmlns="http://www.w3.org/2000/svg">
<path d="M105.889 2.63639C104.625 1.22736 102.793 0.536133 100.369 0.536133H94.9004V2.55663H97.1961H99.956C101.839 2.55663 103.232 3.00858 104.109 3.93908C104.96 4.84299 105.399 6.27861 105.399 8.27252C105.399 10.2133 104.96 11.6489 104.083 12.5794C103.206 13.5099 101.787 13.9884 99.9044 13.9884H97.1961V7.10276H94.9004V16.0089H100.317C102.742 16.0089 104.573 15.3177 105.837 13.9352C107.024 12.5794 107.643 10.7184 107.643 8.27252C107.643 5.82665 107.049 3.93908 105.889 2.63639Z" fill="#365043"/>
<path d="M111.919 0.536133H108.912L114.318 8.03325L108.554 16.0089H111.532L115.835 9.89424L120.138 16.0089H123.116L111.919 0.536133Z" fill="#365043"/>
<path d="M123.117 0.536133H120.226L117.656 4.01592L119.128 5.99711L123.117 0.536133Z" fill="#365043"/>
<path d="M57.7318 0.536133V4.70188H39.7045V13.9591H56.6698V18.1248H39.7045V28.2533H58.4943V32.3919H34.8301V0.536133H57.7318Z" fill="#548DBA"/>
<path d="M88.5295 0.536133V4.70188H78.1814V32.3919H73.4728V4.70188H63.0449V0.536133H88.5295Z" fill="#548DBA"/>
<path d="M20.3462 26.0207L29.3702 0.536133H24.1085L17.5381 18.1136L20.3462 26.0207Z" fill="#548DBA"/>
<path d="M0.244141 0.536133L11.0543 32.3919H16.6271L5.22352 0.536133H0.244141Z" fill="#548DBA"/>
<path d="M123.115 19.6499H94.9004V23.2906H123.115V19.6499Z" fill="#8EAD0D"/>
<path d="M119.452 28.1848C117.446 28.1848 116.51 27.7469 115.44 27.2317C114.236 26.665 112.899 26.021 110.332 26.021C107.764 26.021 106.4 26.665 105.224 27.2317C104.127 27.7469 103.191 28.1848 101.212 28.1848C99.2062 28.1848 98.2702 27.7469 97.2004 27.2317C96.5318 26.9226 95.8364 26.5877 94.9004 26.3559V29.7561C95.3283 29.9107 95.7027 30.091 96.1039 30.2713C97.3074 30.838 98.6446 31.482 101.212 31.482C103.779 31.482 105.143 30.838 106.32 30.2713C107.417 29.7561 108.353 29.3182 110.332 29.3182C112.338 29.3182 113.274 29.7561 114.343 30.2713C115.547 30.838 116.884 31.482 119.452 31.482C121.056 31.482 122.206 31.2244 123.115 30.9153V27.412C122.179 27.8241 121.243 28.1848 119.452 28.1848Z" fill="#2E2D48"/>
</svg>
