<svg width="38" height="39" viewBox="0 0 38 39" fill="none" xmlns="http://www.w3.org/2000/svg">
<path d="M30.0833 5.55225C30.9232 5.55225 31.7286 5.88588 32.3225 6.47974C32.9164 7.07361 33.25 7.87906 33.25 8.71891V30.8856C33.25 31.7254 32.9164 32.5309 32.3225 33.1248C31.7286 33.7186 30.9232 34.0522 30.0833 34.0522H7.91667C7.07681 34.0522 6.27136 33.7186 5.6775 33.1248C5.08363 32.5309 4.75 31.7254 4.75 30.8856V8.71891C4.75 7.87906 5.08363 7.07361 5.6775 6.47974C6.27136 5.88588 7.07681 5.55225 7.91667 5.55225H30.0833ZM29.2917 30.0939V21.7022C29.2917 20.3333 28.7479 19.0204 27.7799 18.0524C26.8118 17.0844 25.499 16.5406 24.13 16.5406C22.7842 16.5406 21.2167 17.3639 20.4567 18.5989V16.8414H16.0392V30.0939H20.4567V22.2881C20.4567 21.0689 21.4383 20.0714 22.6575 20.0714C23.2454 20.0714 23.8092 20.305 24.2249 20.7207C24.6406 21.1364 24.8742 21.7002 24.8742 22.2881V30.0939H29.2917ZM10.8933 14.3556C11.5988 14.3556 12.2754 14.0753 12.7742 13.5765C13.2731 13.0776 13.5533 12.4011 13.5533 11.6956C13.5533 10.2231 12.3658 9.01975 10.8933 9.01975C10.1837 9.01975 9.50305 9.30166 9.00123 9.80348C8.49942 10.3053 8.2175 10.9859 8.2175 11.6956C8.2175 13.1681 9.42083 14.3556 10.8933 14.3556ZM13.0942 30.0939V16.8414H8.70833V30.0939H13.0942Z" fill="white"/>
</svg>
